<?xml version="1.0" encoding="UTF-8"?>
<svg id="Layer_1" xmlns="http://www.w3.org/2000/svg" version="1.1" xmlns:xlink="http://www.w3.org/1999/xlink" viewBox="0 0 1080 1080">
  <!-- Generator: Adobe Illustrator 29.3.0, SVG Export Plug-In . SVG Version: 2.1.0 Build 146)  -->
  <defs>
    <style>
      .st0 {
        fill: #fccaff;
      }

      .st1 {
        fill: #7067b9;
      }

      .st2 {
        fill: #feefff;
      }

      .st3 {
        fill: #fff7ff;
      }

      .st4 {
        fill: #feedff;
      }

      .st5 {
        fill: #fee4ff;
      }

      .st6 {
        fill: #7c7c7c;
      }

      .st7, .st8, .st9, .st10 {
        stroke-miterlimit: 10;
      }

      .st7, .st9 {
        stroke: #000;
      }

      .st7, .st11 {
        fill: none;
      }

      .st12 {
        fill: #feebff;
      }

      .st13 {
        fill: #faa3ff;
      }

      .st14 {
        fill: #fcc5ff;
      }

      .st15 {
        fill: #faa5ff;
      }

      .st16 {
        fill: #feeaff;
      }

      .st17 {
        fill: #fff8ff;
      }

      .st18 {
        fill: #fccdff;
      }

      .st19 {
        fill: #4e4e4e;
      }

      .st20 {
        fill: #c3f9ff;
      }

      .st21 {
        fill: #fde3ff;
      }

      .st22 {
        fill: #fde2ff;
      }

      .st8 {
        stroke: #4d4d4d;
        stroke-width: 3px;
      }

      .st8, .st23 {
        fill: #a4a4a4;
      }

      .st24 {
        fill: #4d4d4d;
      }

      .st25 {
        fill: #fccfff;
      }

      .st26 {
        fill: #fdd3ff;
      }

      .st27 {
        fill: #fff6ff;
      }

      .st28 {
        fill: #fcceff;
      }

      .st29 {
        fill: #7e7e7e;
      }

      .st30, .st9 {
        fill: #fff;
      }

      .st31 {
        fill: #fff9ff;
      }

      .st32 {
        fill: #faacff;
      }

      .st33 {
        fill: #fffbff;
      }

      .st34 {
        fill: #fffdff;
      }

      .st35 {
        fill: #fef3ff;
      }

      .st36 {
        fill: #fde0ff;
      }

      .st37 {
        fill: #fbbcff;
      }

      .st38 {
        fill: #fbb4ff;
      }

      .st39 {
        fill: #fbaeff;
      }

      .st40 {
        opacity: .65;
      }

      .st41 {
        fill: #fdd6ff;
      }

      .st42 {
        fill: #fbadff;
      }

      .st43 {
        fill: #fbb9ff;
      }

      .st44 {
        fill: #fddcff;
      }

      .st45 {
        fill: #fdd8ff;
      }

      .st46 {
        fill: #faaaff;
      }

      .st47 {
        fill: #606060;
      }

      .st48 {
        fill: #fbbbff;
      }

      .st49 {
        fill: #faa8ff;
      }

      .st50 {
        fill: #feeeff;
      }

      .st51 {
        fill: #fcc8ff;
      }

      .st52 {
        fill: #fddfff;
      }

      .st53 {
        fill: #fdd5ff;
      }

      .st54 {
        fill: #faa7ff;
      }

      .st55 {
        fill: #fee9ff;
      }

      .st56 {
        fill: #fee6ff;
      }

      .st57 {
        opacity: .28;
      }

      .st58 {
        fill: #fee5ff;
      }

      .st59 {
        fill: #faa4ff;
      }

      .st60 {
        fill: #fcc9ff;
      }

      .st61 {
        fill: #fef0ff;
      }

      .st62 {
        clip-path: url(#clippath-1);
      }

      .st63 {
        fill: #fcc2ff;
      }

      .st64 {
        fill: #fdd4ff;
      }

      .st65 {
        fill: #fae99b;
      }

      .st66 {
        opacity: .47;
      }

      .st67 {
        fill: #fcbfff;
      }

      .st68 {
        fill: #fcccff;
      }

      .st69 {
        fill: #fbb0ff;
      }

      .st70 {
        fill: #fddbff;
      }

      .st71 {
        fill: #fbb7ff;
      }

      .st72 {
        fill: #fddaff;
      }

      .st73 {
        fill: #feecff;
      }

      .st74 {
        fill: #fbb3ff;
      }

      .st75 {
        fill: #fccbff;
      }

      .st76 {
        fill: #fddeff;
      }

      .st77 {
        fill: #ffe3f6;
      }

      .st78 {
        fill: #fffeff;
      }

      .st79 {
        fill: #f7eecd;
      }

      .st80 {
        fill: #fee8ff;
      }

      .st81 {
        fill: #fbb5ff;
      }

      .st82 {
        fill: #fef2ff;
      }

      .st83 {
        fill: #fbb8ff;
      }

      .st84 {
        fill: #fbb6ff;
      }

      .st85 {
        fill: #fbbeff;
      }

      .st86 {
        fill: #fffaff;
      }

      .st87 {
        fill: #faa9ff;
      }

      .st10 {
        stroke: #fff;
      }

      .st88 {
        fill: #fbb1ff;
      }

      .st89 {
        fill: #7b66b8;
      }

      .st90 {
        fill: #fbbaff;
      }

      .st91 {
        fill: #f9d3d8;
      }

      .st92 {
        fill: #fcc7ff;
      }

      .st93 {
        fill: #fcc1ff;
      }

      .st94 {
        fill: #fcc4ff;
      }

      .st95 {
        opacity: .54;
      }

      .st96 {
        fill: #fdd7ff;
      }

      .st97 {
        fill: #fffcff;
      }

      .st98 {
        fill: #faa6ff;
      }

      .st99 {
        fill: #fef1ff;
      }

      .st100 {
        opacity: .68;
      }

      .st101 {
        fill: #fdddff;
      }

      .st102 {
        fill: #fef4ff;
      }

      .st103 {
        fill: #fffbf4;
      }

      .st104 {
        fill: #fde1ff;
      }

      .st105 {
        fill: #fbbdff;
      }

      .st106 {
        fill: #fbafff;
      }

      .st107 {
        opacity: .26;
      }

      .st108 {
        fill: #fcc0ff;
      }

      .st109 {
        fill: #fdd2ff;
      }

      .st110 {
        clip-path: url(#clippath);
      }

      .st111 {
        fill: #fdd9ff;
      }

      .st112 {
        fill: #fef5ff;
      }

      .st113 {
        fill: #fcc3ff;
      }

      .st114 {
        fill: #faabff;
      }

      .st115 {
        fill: #fcc6ff;
      }

      .st116 {
        fill: #fbb2ff;
      }

      .st117 {
        fill: #fcd0ff;
      }

      .st118 {
        fill: #fee7ff;
      }
    </style>
    <clipPath id="clippath">
      <polygon class="st11" points="654.333 1012.797 108.905 1012.797 108.905 644.725 381.619 644.725 654.333 644.725 654.333 1012.797"/>
    </clipPath>
    <clipPath id="clippath-1">
      <path class="st11" d="M158.354,325.755c11.476,3.42-5.99,24.163,6.202,49.699,7.053,14.771,25.969,17.265,16.758,27.655-12.302,13.876-37.489,12.414-39.168,11.155-4.258-3.193-10.588-18.47-10.588-18.47l-8.788,2.419-11.328-29.942,5.002-17.828c-7.168-11.6-7.404-27.299-8.445-33.975-2.619-16.791-1.755-35.604-1.755-35.604,0,0-6.723-11.313-7.682-14.7-2.616-9.239.75-37.868,7.46-47.985,1.385-2.088,6.614-4.089,9.119-4.163,1.512-.044,5.07-.146,5.07-.146,2.612-14.994,26.699-60.161,37.022-72.197,40.528-47.256,103.626-50.906,119.613-49.131,33.687,3.739,82.126,18.246,113.955,58.806,20.45,26.059,19.55,25.752,29.965,53.449,1.85,4.921,8.247,4.711,10.006,6.883,8.023,9.908,9.876,49.204,9.876,49.204l-5.767,9.427c2.524,16.119,1.016,29.007-.088,36.35-2.247,14.948-8.083,35.757-8.083,35.757,0,0,3.723,17.761,6.536,22.888l-11.642,28.894-10.139-2.418c-.296,3.103-3.401,8.03-12.374,11.956-9.929,4.345-27.241,4.083-27.241,4.083,0,0,1.977-17.851.737-37.808-.782-12.585-2.806-27.042-3.928-31.884,6.268-10.105,4.727-10.607,6.629-18.937,16.555,1.733,26.836,3.292,40.727,13.571,1.677-6.583,6.916-20.229,7.983-32.407,4.969-56.762-14.898-144.539-86.449-182.524-7.286-3.868-57.945-30.757-117.797-7.939-84.505,32.216-102.19,134.322-103.453,145.99-3.693,34.117,2.793,62.514,8.53,80.4,0,0,23.263-13.587,33.527-10.528h-.002Z"/>
    </clipPath>
  </defs>
  <g id="Layer_11" data-name="Layer_1">
    <path class="st30" d="M244.134,964.36h401.653c14.991,0-40.755,48.437-40.755,48.437H108.905v-311.132h136.21l-92.312,262.695h91.331Z"/>
  </g>
  <g id="Layer_3">
    <g>
      <g class="st110">
        <g>
          <path class="st13" d="M108.905,644.725v368.072-368.072Z"/>
          <rect class="st13" x="108.905" y="644.725" width="5.929" height="368.072"/>
          <rect class="st59" x="114.834" y="644.725" width="5.929" height="368.072"/>
          <rect class="st15" x="120.762" y="644.725" width="5.929" height="368.072"/>
          <rect class="st98" x="126.691" y="644.725" width="5.929" height="368.072"/>
          <rect class="st54" x="132.62" y="644.725" width="5.929" height="368.072"/>
          <rect class="st49" x="138.548" y="644.725" width="5.929" height="368.072"/>
          <rect class="st87" x="144.477" y="644.725" width="5.929" height="368.072"/>
          <rect class="st46" x="150.405" y="644.725" width="5.929" height="368.072"/>
          <rect class="st114" x="156.334" y="644.725" width="5.929" height="368.072"/>
          <rect class="st32" x="162.262" y="644.725" width="5.929" height="368.072"/>
          <rect class="st42" x="168.191" y="644.725" width="5.929" height="368.072"/>
          <rect class="st39" x="174.119" y="644.725" width="5.929" height="368.072"/>
          <rect class="st106" x="180.048" y="644.725" width="5.929" height="368.072"/>
          <rect class="st69" x="185.977" y="644.725" width="5.929" height="368.072"/>
          <rect class="st88" x="191.905" y="644.725" width="5.929" height="368.072"/>
          <rect class="st116" x="197.834" y="644.725" width="5.929" height="368.072"/>
          <rect class="st74" x="203.762" y="644.725" width="5.929" height="368.072"/>
          <rect class="st38" x="209.691" y="644.725" width="5.929" height="368.072"/>
          <rect class="st81" x="215.619" y="644.725" width="5.929" height="368.072"/>
          <rect class="st84" x="221.548" y="644.725" width="5.929" height="368.072"/>
          <rect class="st71" x="227.476" y="644.725" width="5.929" height="368.072"/>
          <rect class="st83" x="233.405" y="644.725" width="5.929" height="368.072"/>
          <rect class="st43" x="239.334" y="644.725" width="5.929" height="368.072"/>
          <rect class="st90" x="245.262" y="644.725" width="5.929" height="368.072"/>
          <rect class="st48" x="251.191" y="644.725" width="5.929" height="368.072"/>
          <rect class="st37" x="257.119" y="644.725" width="5.929" height="368.072"/>
          <rect class="st105" x="263.048" y="644.725" width="5.929" height="368.072"/>
          <rect class="st85" x="268.976" y="644.725" width="5.929" height="368.072"/>
          <rect class="st67" x="274.905" y="644.725" width="5.929" height="368.072"/>
          <rect class="st108" x="280.833" y="644.725" width="5.929" height="368.072"/>
          <rect class="st93" x="286.762" y="644.725" width="5.929" height="368.072"/>
          <rect class="st63" x="292.691" y="644.725" width="5.929" height="368.072"/>
          <rect class="st113" x="298.619" y="644.725" width="5.929" height="368.072"/>
          <rect class="st94" x="304.548" y="644.725" width="5.929" height="368.072"/>
          <rect class="st14" x="310.476" y="644.725" width="5.929" height="368.072"/>
          <rect class="st115" x="316.405" y="644.725" width="5.929" height="368.072"/>
          <rect class="st92" x="322.333" y="644.725" width="5.929" height="368.072"/>
          <rect class="st51" x="328.262" y="644.725" width="5.929" height="368.072"/>
          <rect class="st60" x="334.19" y="644.725" width="5.929" height="368.072"/>
          <rect class="st0" x="340.119" y="644.725" width="5.929" height="368.072"/>
          <rect class="st75" x="346.048" y="644.725" width="5.929" height="368.072"/>
          <rect class="st68" x="351.976" y="644.725" width="5.929" height="368.072"/>
          <rect class="st18" x="357.905" y="644.725" width="5.929" height="368.072"/>
          <rect class="st28" x="363.833" y="644.725" width="5.929" height="368.072"/>
          <rect class="st25" x="369.762" y="644.725" width="5.929" height="368.072"/>
          <rect class="st117" x="375.69" y="644.725" width="5.929" height="368.072"/>
          <rect class="st109" x="381.619" y="644.725" width="5.929" height="368.072"/>
          <rect class="st26" x="387.547" y="644.725" width="5.929" height="368.072"/>
          <rect class="st64" x="393.476" y="644.725" width="5.929" height="368.072"/>
          <rect class="st53" x="399.405" y="644.725" width="5.929" height="368.072"/>
          <rect class="st41" x="405.333" y="644.725" width="5.929" height="368.072"/>
          <rect class="st96" x="411.262" y="644.725" width="5.929" height="368.072"/>
          <rect class="st45" x="417.19" y="644.725" width="5.929" height="368.072"/>
          <rect class="st111" x="423.119" y="644.725" width="5.929" height="368.072"/>
          <rect class="st72" x="429.047" y="644.725" width="5.929" height="368.072"/>
          <rect class="st70" x="434.976" y="644.725" width="5.929" height="368.072"/>
          <rect class="st44" x="440.904" y="644.725" width="5.929" height="368.072"/>
          <rect class="st101" x="446.833" y="644.725" width="5.929" height="368.072"/>
          <rect class="st76" x="452.762" y="644.725" width="5.929" height="368.072"/>
          <rect class="st52" x="458.69" y="644.725" width="5.929" height="368.072"/>
          <rect class="st36" x="464.619" y="644.725" width="5.929" height="368.072"/>
          <rect class="st104" x="470.547" y="644.725" width="5.929" height="368.072"/>
          <rect class="st22" x="476.476" y="644.725" width="5.929" height="368.072"/>
          <rect class="st21" x="482.404" y="644.725" width="5.929" height="368.072"/>
          <rect class="st5" x="488.333" y="644.725" width="5.929" height="368.072"/>
          <rect class="st58" x="494.261" y="644.725" width="5.929" height="368.072"/>
          <rect class="st56" x="500.19" y="644.725" width="5.929" height="368.072"/>
          <rect class="st118" x="506.119" y="644.725" width="5.929" height="368.072"/>
          <rect class="st80" x="512.047" y="644.725" width="5.929" height="368.072"/>
          <rect class="st55" x="517.976" y="644.725" width="5.929" height="368.072"/>
          <rect class="st16" x="523.904" y="644.725" width="5.929" height="368.072"/>
          <rect class="st12" x="529.833" y="644.725" width="5.929" height="368.072"/>
          <rect class="st73" x="535.761" y="644.725" width="5.929" height="368.072"/>
          <rect class="st4" x="541.69" y="644.725" width="5.929" height="368.072"/>
          <rect class="st50" x="547.619" y="644.725" width="5.929" height="368.072"/>
          <rect class="st2" x="553.547" y="644.725" width="5.929" height="368.072"/>
          <rect class="st61" x="559.476" y="644.725" width="5.929" height="368.072"/>
          <rect class="st99" x="565.404" y="644.725" width="5.929" height="368.072"/>
          <rect class="st82" x="571.333" y="644.725" width="5.929" height="368.072"/>
          <rect class="st35" x="577.261" y="644.725" width="5.929" height="368.072"/>
          <rect class="st102" x="583.19" y="644.725" width="5.929" height="368.072"/>
          <rect class="st112" x="589.118" y="644.725" width="5.929" height="368.072"/>
          <rect class="st27" x="595.047" y="644.725" width="5.929" height="368.072"/>
          <rect class="st3" x="600.976" y="644.725" width="5.929" height="368.072"/>
          <rect class="st17" x="606.904" y="644.725" width="5.929" height="368.072"/>
          <rect class="st31" x="612.833" y="644.725" width="5.929" height="368.072"/>
          <rect class="st86" x="618.761" y="644.725" width="5.929" height="368.072"/>
          <rect class="st33" x="624.69" y="644.725" width="5.929" height="368.072"/>
          <rect class="st97" x="630.618" y="644.725" width="5.929" height="368.072"/>
          <rect class="st34" x="636.547" y="644.725" width="5.929" height="368.072"/>
          <rect class="st78" x="642.475" y="644.725" width="5.929" height="368.072"/>
          <rect class="st30" x="648.404" y="644.725" width="5.929" height="368.072"/>
          <path class="st30" d="M654.333,1012.797v-368.072,368.072Z"/>
        </g>
      </g>
      <path d="M654.833,1013.297H108.405v-369.072h546.428v369.072ZM109.405,1012.297h544.428v-367.072H109.405v367.072Z"/>
    </g>
    <g>
      <rect class="st65" x="381.619" y="611" width="31.741" height="36.826" rx="5.069" ry="5.069"/>
      <path d="M408.291,648.327h-21.604c-3.07,0-5.568-2.498-5.568-5.569v-26.688c0-3.071,2.498-5.569,5.568-5.569h21.604c3.071,0,5.569,2.498,5.569,5.569v26.688c0,3.071-2.498,5.569-5.569,5.569ZM386.688,611.5c-2.519,0-4.568,2.05-4.568,4.569v26.688c0,2.52,2.049,4.569,4.568,4.569h21.604c2.519,0,4.569-2.05,4.569-4.569v-26.688c0-2.52-2.05-4.569-4.569-4.569h-21.604Z"/>
    </g>
    <g>
      <rect class="st65" x="438.402" y="611" width="31.671" height="36.826" rx="4.297" ry="4.297"/>
      <path d="M465.775,648.327h-23.076c-2.646,0-4.797-2.152-4.797-4.798v-28.232c0-2.645,2.152-4.797,4.797-4.797h23.076c2.646,0,4.797,2.152,4.797,4.797v28.232c0,2.646-2.152,4.798-4.797,4.798ZM442.699,611.5c-2.094,0-3.797,1.703-3.797,3.797v28.232c0,2.094,1.704,3.798,3.797,3.798h23.076c2.094,0,3.797-1.704,3.797-3.798v-28.232c0-2.094-1.704-3.797-3.797-3.797h-23.076Z"/>
    </g>
    <g>
      <rect class="st65" x="501.007" y="611" width="94.276" height="36.826" rx="4.174" ry="4.174"/>
      <path d="M591.108,648.327h-85.927c-2.578,0-4.674-2.097-4.674-4.675v-28.478c0-2.578,2.097-4.675,4.674-4.675h85.927c2.577,0,4.674,2.097,4.674,4.675v28.478c0,2.578-2.097,4.675-4.674,4.675ZM505.181,611.5c-2.026,0-3.674,1.648-3.674,3.675v28.478c0,2.026,1.648,3.675,3.674,3.675h85.927c2.025,0,3.674-1.648,3.674-3.675v-28.478c0-2.026-1.648-3.675-3.674-3.675h-85.927Z"/>
    </g>
    <g>
      <polyline class="st103" points="379.164 701.665 108.905 701.665 108.905 644.725 654.333 644.725 654.333 701.665 381.619 701.665"/>
      <polygon points="654.833 702.165 381.619 702.165 381.619 701.165 653.833 701.165 653.833 645.225 109.405 645.225 109.405 701.165 379.164 701.165 379.164 702.165 108.405 702.165 108.405 644.225 654.833 644.225 654.833 702.165"/>
    </g>
    <g>
      <polygon class="st89" points="152.804 964.36 245.116 701.665 654.333 701.665 645.787 722.288 260.101 722.288 174.9 964.36 152.804 964.36"/>
      <path d="M175.254,964.86h-23.155l.234-.666,92.429-263.029h410.32l-8.96,21.623h-385.666l-85.202,242.072h0ZM153.51,963.86h21.036l85.202-242.072h385.706l8.132-19.623H245.47l-91.96,261.695h0Z"/>
    </g>
    <g>
      <polygon class="st20" points="192.577 964.36 174.9 964.36 260.101 722.288 645.787 722.288 640.379 736.977 275.199 736.977 192.577 964.36"/>
      <path d="M192.927,964.86h-18.733l85.554-243.072h386.756l-5.775,15.689h-365.18l-82.622,227.383ZM175.606,963.86h16.621l82.622-227.383h365.183l5.039-13.689h-384.615l-84.85,241.072h0Z"/>
    </g>
    <g>
      <polygon class="st77" points="214.673 964.36 192.577 964.36 275.199 736.977 640.379 736.977 633.506 753.814 288.816 753.222 214.673 964.36"/>
      <path d="M215.027,964.86h-23.164l.244-.671,82.742-227.712h366.275l-7.282,17.838h-.337l-344.334-.593-74.144,211.138h0ZM193.291,963.86h21.027l74.145-211.14h.355l344.353.593,6.466-15.836h-364.087l-82.258,226.383h-.001Z"/>
    </g>
    <g>
      <path class="st20" d="M169.354,779.06l344.999.769c10.724.024,19.404,8.39,19.406,18.702l.014,115.118c0,10.325-8.698,18.698-19.435,18.707l-344.627.273c-10.724.009-19.432-8.332-19.467-18.645l-.386-116.161c-.034-10.37,8.711-18.788,19.496-18.764h0Z"/>
      <path d="M169.694,933.13c-10.967,0-19.915-8.584-19.95-19.143l-.386-116.161c-.017-5.012,1.96-9.76,5.567-13.37,3.799-3.804,8.905-5.896,14.383-5.896h.047l344.999.77c10.974.025,19.903,8.639,19.905,19.202l.014,115.118c0,10.582-8.941,19.198-19.934,19.207l-344.627.273h-.018,0ZM169.308,779.56c-5.21,0-10.065,1.988-13.675,5.603-3.417,3.421-5.291,7.918-5.274,12.66l.386,116.161c.033,10.009,8.533,18.146,18.95,18.146h.016l344.627-.273c10.442-.009,18.937-8.176,18.935-18.207l-.014-115.118c0-10.013-8.483-18.179-18.907-18.202l-344.999-.77h-.045Z"/>
    </g>
    <g>
      <line class="st11" x1="577.044" y1="701.665" x2="577.044" y2="1012.797"/>
      <rect x="576.544" y="701.665" width="1" height="311.132"/>
    </g>
    <g>
      <rect class="st1" x="207.307" y="812.635" width="262.765" height="86.419" rx="13.504" ry="13.504"/>
      <path d="M456.569,899.555h-235.758c-7.722,0-14.004-6.282-14.004-14.004v-59.412c0-7.722,6.282-14.004,14.004-14.004h235.758c7.722,0,14.004,6.282,14.004,14.004v59.412c0,7.722-6.282,14.004-14.004,14.004ZM220.811,813.135c-7.17,0-13.004,5.834-13.004,13.004v59.412c0,7.17,5.833,13.004,13.004,13.004h235.758c7.17,0,13.004-5.834,13.004-13.004v-59.412c0-7.17-5.833-13.004-13.004-13.004h-235.758Z"/>
    </g>
    <g>
      <circle class="st77" cx="246.317" cy="856.571" r="26.25" transform="translate(-638.649 962.5) rotate(-80.783)"/>
      <path d="M246.317,883.321c-14.75,0-26.75-12-26.75-26.75s12-26.75,26.75-26.75,26.75,12,26.75,26.75-12,26.75-26.75,26.75h0ZM246.317,830.821c-14.199,0-25.75,11.552-25.75,25.75s11.551,25.75,25.75,25.75,25.75-11.552,25.75-25.75-11.551-25.75-25.75-25.75h0Z"/>
    </g>
    <g>
      <path class="st30" d="M237.089,844.868l4.583-2.291v-6.056s3.805-1.146,5.238-1.146c1.268,0,5.565,1.146,5.565,1.146v7.202l2.946.491,2.782-3.519s4.486,4.181,5.401,5.974c.988,1.937,1.8,8.511,1.8,8.511h-4.747l.164,4.91,3.601.818s-.049,5.324-.818,6.874c-.759,1.53-4.91,4.747-4.91,4.747l-3.273-5.729-5.025,1.784,2.242,6.727s-5.504,2.455-6.874,2.455c-1.473,0-5.892-1.8-5.892-1.8l1.146-7.038-3.928-.982-3.928,2.782s-3.021-3.996-3.601-5.401c-.484-1.173-.655-4.91-.655-4.91l4.91-1.309-.164-4.91-7.529-1.473s1.596-5.442,2.619-7.202c.737-1.268,4.419-4.91,4.419-4.91l3.928,4.255h0Z"/>
      <path d="M245.764,879.267c-1.639,0-5.357-1.463-6.458-1.912l-1.106-.45,1.116-6.855-1.921-.48-4.553,3.225-.877-1.16c-.523-.692-3.168-4.226-3.791-5.733-.542-1.312-.723-4.476-.766-5.414l-.055-1.207,4.924-1.312-.084-2.524-7.972-1.561.463-1.578c.169-.575,1.679-5.67,2.761-7.533.797-1.371,4.023-4.591,4.662-5.223l1.104-1.092,4.217,4.567,2.745-1.372v-6.243l1.067-.322c.671-.202,4.097-1.21,5.67-1.21,1.395,0,5.203.997,5.952,1.197l1.113.297v7.083l.819.137,3.242-4.102,1.19,1.109c.782.729,4.729,4.459,5.715,6.391,1.078,2.112,1.867,8.309,1.953,9.009l.208,1.684h-4.893l.073,2.204,3.651.83-.011,1.208c-.012,1.33-.119,5.803-.975,7.527-.845,1.705-4.297,4.462-5.335,5.266l-1.364,1.058-3.508-6.139-2.456.872,2.207,6.621-1.242.555c-1.743.777-5.96,2.585-7.486,2.585v-.003ZM241.547,875.012c1.753.662,3.619,1.255,4.217,1.255.582-.026,2.851-.867,5.017-1.784l-2.273-6.818,7.593-2.696,3.021,5.286c1.47-1.237,2.853-2.562,3.138-3.138.319-.642.553-2.895.633-5.018l-3.532-.803-.254-7.616h4.577c-.358-2.393-.913-5.343-1.417-6.329-.457-.896-2.328-2.876-3.912-4.432l-2.309,2.92-5.073-.846v-7.309c-1.599-.397-3.473-.81-4.065-.81-.655,0-2.327.392-3.738.777v5.852l-6.42,3.21-3.629-3.931c-1.312,1.35-2.745,2.91-3.084,3.494-.566.974-1.417,3.471-1.994,5.295l7.066,1.383.244,7.296-4.876,1.299c.107,1.378.285,2.764.467,3.205.285.689,1.494,2.45,2.547,3.9l3.292-2.331,5.935,1.484-1.173,7.203.002.002Z"/>
    </g>
    <g class="st95">
      <rect x="279.978" y="829.58" width="115.389" height="55.302"/>
      <path d="M395.868,885.382h-116.39v-56.302h116.39v56.302h0ZM280.478,884.382h114.39v-54.302h-114.39v54.302h0Z"/>
    </g>
    <g>
      <rect class="st77" x="292.191" y="837.175" width="90.184" height="39.851"/>
      <path d="M382.875,877.525h-91.184v-40.851h91.184v40.851ZM292.691,876.525h89.184v-38.851h-89.184v38.851Z"/>
    </g>
    <g>
      <line class="st11" x1="336.629" y1="839.544" x2="336.629" y2="874.407"/>
      <rect x="336.129" y="839.545" width="1" height="34.862"/>
    </g>
    <g>
      <circle class="st77" cx="433.278" cy="856.571" r="26.25"/>
      <path d="M433.277,883.321c-14.75,0-26.75-12-26.75-26.75s12-26.75,26.75-26.75,26.75,12,26.75,26.75-12,26.75-26.75,26.75ZM433.277,830.821c-14.199,0-25.75,11.552-25.75,25.75s11.551,25.75,25.75,25.75,25.75-11.552,25.75-25.75-11.551-25.75-25.75-25.75Z"/>
    </g>
    <g>
      <path class="st30" d="M424.05,844.868l4.583-2.291v-6.056s3.805-1.146,5.238-1.146c1.268,0,5.565,1.146,5.565,1.146v7.202l2.946.491,2.782-3.519s4.486,4.181,5.401,5.974c.988,1.937,1.8,8.511,1.8,8.511h-4.747l.164,4.91,3.601.818s-.049,5.324-.818,6.874c-.759,1.53-4.91,4.747-4.91,4.747l-3.273-5.729-5.025,1.784,2.242,6.727s-5.504,2.455-6.874,2.455c-1.473,0-5.892-1.8-5.892-1.8l1.146-7.038-3.928-.982-3.928,2.782s-3.021-3.996-3.601-5.401c-.484-1.173-.655-4.91-.655-4.91l4.91-1.309-.164-4.91-7.529-1.473s1.596-5.442,2.619-7.202c.737-1.268,4.419-4.91,4.419-4.91l3.928,4.255h0Z"/>
      <path d="M432.724,879.267c-1.64,0-5.358-1.463-6.458-1.912l-1.106-.45,1.116-6.855-1.921-.48-4.552,3.225-.877-1.16c-.523-.692-3.168-4.226-3.791-5.733-.542-1.312-.724-4.476-.767-5.414l-.055-1.207,4.925-1.312-.084-2.524-7.972-1.561.463-1.578c.169-.575,1.679-5.67,2.761-7.533.796-1.371,4.023-4.591,4.662-5.223l1.104-1.092,4.216,4.567,2.746-1.372v-6.243l1.067-.322c.671-.202,4.097-1.21,5.67-1.21,1.394,0,5.202.997,5.951,1.197l1.113.297v7.083l.819.137,3.242-4.102,1.19,1.109c.782.729,4.73,4.459,5.715,6.391,1.077,2.112,1.866,8.309,1.953,9.009l.208,1.684h-4.892l.073,2.204,3.651.83-.011,1.208c-.012,1.33-.119,5.803-.975,7.527-.845,1.705-4.297,4.462-5.335,5.266l-1.364,1.058-3.508-6.139-2.457.872,2.208,6.621-1.242.555c-1.742.777-5.96,2.585-7.485,2.585v-.003ZM428.507,875.012c1.753.662,3.619,1.255,4.217,1.255.582-.026,2.851-.867,5.017-1.784l-2.273-6.818,7.593-2.696,3.021,5.286c1.47-1.237,2.853-2.562,3.138-3.138.319-.642.553-2.895.633-5.018l-3.532-.803-.254-7.616h4.577c-.358-2.394-.913-5.343-1.417-6.329-.456-.895-2.327-2.876-3.912-4.432l-2.308,2.92-5.074-.846v-7.309c-1.599-.397-3.473-.81-4.064-.81-.655,0-2.327.392-3.738.777v5.852l-6.42,3.21-3.628-3.931c-1.312,1.35-2.745,2.91-3.084,3.493-.566.975-1.417,3.472-1.994,5.296l7.066,1.383.243,7.296-4.875,1.299c.107,1.378.285,2.764.467,3.205.285.689,1.494,2.449,2.547,3.9l3.291-2.331,5.935,1.484-1.172,7.203v.002Z"/>
    </g>
    <g>
      <line class="st11" x1="550.038" y1="616.473" x2="589.074" y2="616.473"/>
      <rect x="550.038" y="615.973" width="39.036" height="1"/>
    </g>
    <g>
      <line class="st11" x1="454.237" y1="616.473" x2="466.565" y2="616.473"/>
      <rect x="454.237" y="615.973" width="12.328" height="1"/>
    </g>
    <g>
      <line class="st11" x1="400.032" y1="616.473" x2="409.116" y2="616.473"/>
      <rect x="400.032" y="615.973" width="9.084" height="1"/>
    </g>
  </g>
  <g id="Layer_5">
    <g>
      <path class="st23" d="M164.557,650.076s-17.654-.188-32.113-7.63c-9.54-4.91-6.032-35.542-6.032-35.542,0,0-20.385-34.982-43.998-43.29-49.489-17.413-66.028-52.472-48.1-74.773,20.887-25.981,51.598-7.434,51.598-7.434,0,0-63.756-6.948-74.25-60.809-10.793-55.393,21.568-81.786,42.767-90.924,25.362-10.932,45.039,14.43,45.039,14.43,0,0-17.773-16.578-21.863-29.734-13.075-42.056,41.103-108.88,41.103-108.88,0,0,46.958,41.541,52.472,55.096,8.044,19.773,5.08,53.96,1.749,55.096,0,0-.003-9.503,3.478-16.684.554-1.143,6.02-12.124,13.118-12.243,7.802-.132,18.822,14.06,18.822,14.06,0,0,7.314-6.544,16.159-11.437,21.188-11.72,49.645-18.041,69.089-11.369,24.975,8.571,44.601,28.86,44.601,28.86,0,0-1.216-5.88,5.247-14.138,1.753-2.24,8.115-6.207,14.048-5.772,8.411.617,17.98,10.492,17.435,24.283-.485,12.267-7.871,27.111-7.871,27.111,0,0,5.052,37.662,4.81,45.913-1.292,44.014-11.991,87.377-31.921,122.873-.95,1.691-4.81,5.685-4.81,5.685,0,0,11.319,12.741,13.555,15.304,17.928,20.552,47.655,65.337,47.225,75.648-.437,10.494-25.362,23.175-25.362,23.175,0,0,23.817,14.873,42.852,39.354,5.692,7.32,19.856,25.537,20.114,48.974.347,31.489-24.405,61.602-41.978,62.967-45.039,3.498-62.356-51.734-68.651-68.214-2.925-7.657-34.982-73.024-34.982-73.024,0,0,3.066,73.796,3.518,78.048.921,8.654,12.67,18.705,10.786,39.354-2.466,27.026-34.931,51.617-72.461,49.198-7.234-.466-38.866-10.963-52.988-30.636-23.63-32.92-12.21-122.895-12.21-122.895h.005Z"/>
      <path class="st24" d="M234.764,805.269c-1.696,0-3.397-.054-5.106-.164-7.734-.498-39.723-11.216-54.11-31.258-22.224-30.962-14.155-109.6-12.676-122.329-4.8-.24-18.942-1.472-31.115-7.737-9.762-5.024-7.422-31.559-6.892-36.539-2.393-3.959-21.509-34.668-42.949-42.212-28.8-10.133-49.249-27.597-54.698-46.715-3.126-10.968-1.021-21.769,5.927-30.412,6.842-8.512,14.738-12.406,22.322-13.756-1.126-.504-2.262-1.036-3.406-1.598-23.008-11.297-37.487-29.161-41.872-51.662-12.305-63.151,30.295-86.834,43.645-92.588,12.053-5.195,22.908-2.484,31.124,1.971-3.743-4.899-7.212-10.386-8.787-15.452-13.162-42.336,39.138-107.517,41.371-110.271l.986-1.216,1.173,1.038c1.928,1.706,47.285,41.931,52.868,55.654,3.909,9.61,5.277,22.527,5.253,33.579,2.576-3.771,6.684-8.26,11.677-8.345h.131c7.144,0,15.881,9.749,18.912,13.412,2.445-2.06,8.345-6.788,15.237-10.6,19.771-10.935,49.175-18.724,70.302-11.476,20.155,6.917,36.63,21.109,42.706,26.812.422-2.754,1.744-6.828,5.475-11.596,1.984-2.535,8.814-6.816,15.339-6.343,9.359.687,19.392,11.467,18.824,25.838-.452,11.437-6.592,24.741-7.823,27.302.597,4.485,4.994,37.823,4.762,45.707-1.345,45.815-12.449,88.543-32.112,123.563-.734,1.307-2.825,3.633-4.083,4.983,2.741,3.086,10.81,12.176,12.65,14.286,16.38,18.777,48.075,65.133,47.593,76.696-.395,9.474-17.415,19.688-23.926,23.255,6.32,4.296,25.431,18.136,41.103,38.292,5.516,7.095,20.167,25.937,20.43,49.878.346,31.45-24.135,62.986-43.362,64.479-18.647,1.459-34.829-6.743-48.097-24.347-10.782-14.305-17.031-31.218-20.765-41.322-.481-1.303-.916-2.479-1.308-3.505-2.325-6.087-23.636-49.809-31.782-66.475.782,18.629,2.853,67.43,3.212,70.804.29,2.725,1.864,5.802,3.687,9.366,3.533,6.904,8.371,16.361,7.101,30.284-2.549,27.941-34.132,50.721-68.945,50.722l.004-.003ZM60.988,476.44c-8.381.312-17.638,3.557-25.504,13.341-6.413,7.977-8.273,17.559-5.38,27.71,5.183,18.184,24.925,34.897,52.809,44.708,23.859,8.396,43.952,42.502,44.795,43.95l.251.431-.057.495c-.941,8.234-1.837,30.401,5.228,34.037,13.961,7.187,31.27,7.462,31.443,7.464l1.683.019-.211,1.67c-.114.895-11.074,89.769,11.941,121.832,13.85,19.295,45.345,29.594,51.865,30.014,17.437,1.126,34.637-3.595,48.42-13.287,13.105-9.216,21.288-21.809,22.451-34.55,1.191-13.057-3.231-21.7-6.784-28.645-1.959-3.83-3.651-7.137-4-10.415-.453-4.251-3.4-75.129-3.525-78.144l-.296-7.129,3.142,6.406c1.31,2.671,32.121,65.516,35.036,73.149.395,1.034.833,2.221,1.319,3.535,7.398,20.022,24.724,66.913,65.815,63.719,15.907-1.235,40.942-29.861,40.594-61.455-.252-22.932-13.949-40.547-19.797-48.068-18.642-23.975-42.228-38.856-42.464-39.004l-2.249-1.406,2.364-1.203c6.715-3.418,24.214-14.017,24.543-21.901.385-9.241-28.028-53.015-46.857-74.599-2.206-2.529-13.433-15.167-13.546-15.294l-.923-1.039.966-1c1.441-1.491,3.958-4.269,4.581-5.376,19.149-34.105,30.417-77.497,31.729-122.183.236-8.035-4.747-45.294-4.797-45.67l-.061-.456.205-.412c.072-.146,7.249-14.707,7.714-26.502.5-12.663-8.055-22.141-16.046-22.728-5.308-.38-11.215,3.23-12.757,5.2-5.882,7.516-4.966,12.872-4.957,12.924l.915,4.9-3.464-3.567c-.194-.2-19.681-20.135-44.01-28.484-20.257-6.951-48.686.648-67.876,11.263-8.585,4.749-15.813,11.178-15.885,11.242l-1.198,1.071-.986-1.269c-2.939-3.783-11.81-13.543-17.612-13.48-4.988.084-9.761,7.204-11.794,11.397-.034.07-.067.14-.1.209-.37,7.124-1.317,12.818-2.439,15.28-.312.684-.838,1.63-1.804,1.959l-1.984.677v-2.096c0-.385.035-9.161,3.201-16.411.55-11.418-.286-26.926-4.84-38.12-4.839-11.897-43.576-46.933-50.891-53.481-7.213,9.283-51.588,68.541-39.863,106.254,2.465,7.928,10.219,17.297,15.695,23.215,3.724,3.265,5.856,5.961,5.921,6.045l-2.208,2.017c-.269-.251-2.75-2.579-5.994-6.084-7.456-6.452-21.342-14.999-37.428-8.065-12.829,5.53-53.764,28.31-41.888,89.259,4.252,21.824,17.767,38.479,40.168,49.503,2.919,1.437,5.807,2.678,8.588,3.75,13.531-.141,24.61,6.446,24.797,6.56l5.813,3.511-6.751-.736c-.545-.06-11.319-1.285-24.762-6.459l-.004.002Z"/>
    </g>
    <path class="st19" d="M341.153,442.506l-2.995-.166.018-.33c.283-5.115.549-9.946,4.845-14.402,4.153-4.307,13.478-2.8,14.837-1.884l-1.676,2.488c-.932-.435-8.224-1.403-11.001,1.478-3.521,3.653-3.737,7.551-4.009,12.486l-.019.331h0Z"/>
    <path class="st19" d="M242.743,449.884c-.27-.463-.464-1.141-.786-2.264-.916-3.201-2.622-9.158-6.812-10.746-4.998-1.896-11.2.071-13.237.717l-.468.146-.863-2.873.425-.133c2.283-.724,9.23-2.927,15.207-.663,5.597,2.121,7.571,9.02,8.632,12.726.178.621.399,1.395.5,1.59l-2.598,1.5h0Z"/>
    <g class="st66">
      <path class="st23" d="M172.987,647.827c4.046-5.197,42.555-31.428,63.832-31.157,25.252.322,41.125,12.743,44.192,21.107"/>
      <path class="st29" d="M174.171,648.749l-2.367-1.843c3.877-4.981,42.238-31.738,64.681-31.738.12,0,.236,0,.354.002,25.974.332,42.291,13.118,45.581,22.091l-2.816,1.033c-2.909-7.933-18.524-19.814-42.803-20.124-.107-.002-.216-.002-.324-.002-21.12,0-58.69,25.935-62.306,30.581h0Z"/>
    </g>
    <ellipse class="st19" cx="304.399" cy="497.851" rx="16.398" ry="6.778" transform="translate(-37.19 24.743) rotate(-4.387)"/>
    <path class="st29" d="M298.31,534.151c-19.079,0-83.218-49.914-100.664-78.51l2.562-1.562c17.954,29.431,81.453,77.076,98.008,77.076.149,0,.292-.004.433-.011,6.281-.343,20.873-1.139,35.315-19.255l2.346,1.87c-15.281,19.168-31.385,20.046-37.448,20.377-.179.01-.364.015-.552.015h0Z"/>
    <path class="st29" d="M152.677,386.031c-.51-7.687-.005-29.383,4.818-43.782,2.809-8.385,6.848-16.314,12.006-23.568l.162-.191,4.373-4.373,2.121,2.121-4.284,4.283c-4.952,6.985-8.832,14.615-11.534,22.681-4.682,13.979-5.167,35.129-4.669,42.631l-2.993.198Z"/>
    <path class="st29" d="M127.909,606.997l-2.994-.186c.508-8.223,2.632-24.283,4.133-31.247.814-3.773,5.47-21.872,9.638-31.312l2.744,1.211c-4.077,9.234-8.649,27.021-9.45,30.734-1.477,6.855-3.57,22.687-4.071,30.8Z"/>
    <path class="st29" d="M280.772,588.604l-1.025-.572c-.129-.071-13.258-7.444-43.847-28.496-17.802-12.251-39.059-22.463-52.895-25.412l.625-2.935c14.186,3.023,35.875,13.421,53.971,25.875,25.707,17.691,39.002,25.667,42.594,27.764,3.793-4.056,19.236-20.562,21.358-22.761,3.489-3.613,6.615-6.111,10.233-9.004,3.11-2.486,6.635-5.305,10.9-9.301l2.051,2.189c-4.351,4.076-7.924,6.934-11.078,9.454-3.538,2.828-6.593,5.271-9.948,8.745-2.354,2.438-21.94,23.384-22.138,23.595l-.802.857v.002Z"/>
    <path class="st29" d="M369.438,627.951c-5.104-5.708-9.35-10.604-13.096-14.923-5.678-6.548-10.163-11.72-14.845-16.513-5.315-5.442-13.581-10.193-13.664-10.24l-.66-.377-.086-.756c-.008-.068-.786-6.971-1.32-19.345-.311-7.193-6.677-36.25-8.184-39.692l2.748-1.203c1.603,3.661,8.103,33.118,8.433,40.766.43,9.957,1.017,16.321,1.226,18.394,2.142,1.278,8.886,5.476,13.653,10.357,4.744,4.856,9.254,10.058,14.965,16.643,3.739,4.312,7.976,9.197,13.065,14.889l-2.236,2h0Z"/>
    <path class="st29" d="M279.905,568.146l-.974-.488c-.48-.241-12.122-6.146-42.739-27.216-16.416-11.298-30.703-17.82-46.324-21.149l.625-2.935c15.809,3.369,30.87,10.237,47.4,21.612,25.604,17.621,38.067,24.679,41.427,26.499,3.351-3.394,16.384-16.593,18.445-18.726,6.368-6.594,12.754-12.021,23.223-17.068l1.303,2.702c-10.067,4.854-16.223,10.086-22.368,16.45-2.368,2.451-19.083,19.373-19.252,19.543l-.766.775h0Z"/>
    <path class="st29" d="M339.791,739.151c-.07-.547.762-57.673,35.055-70.898,22.917-8.839,39.615,2.688,43.658,7.421l-2.281,1.949c-3.685-4.315-18.998-14.782-40.298-6.571-32.038,12.355-33.204,67.204-33.157,67.736l-2.978.363h.001Z"/>
    <g class="st40">
      <path class="st47" d="M349.732,319.91c3.83,3.468,16.033,18.22,16.033,18.22,0,0,5.991-13.732,6.851-19.094,1.487-9.28,2.998-23.663-11.624-29.661-11.799-4.84-21.444,8.043-21.608,15.086-.189,8.065-1.311,4.892,10.349,15.45h-.001Z"/>
    </g>
    <g>
      <path class="st23" d="M286.765,631.975c-5.877-4.892-11.199-12.925-20.114-18.074-8.813-5.089-21.135-11.661-27.694-12.535"/>
      <path class="st29" d="M285.805,633.127c-2.171-1.808-4.233-3.991-6.415-6.304-3.728-3.95-7.953-8.427-13.489-11.624-12.858-7.424-22.244-11.693-27.142-12.347l.396-2.975c5.359.716,14.862,4.996,28.246,12.724,5.917,3.416,10.302,8.062,14.171,12.162,2.119,2.245,4.12,4.365,6.153,6.059l-1.92,2.305h0Z"/>
    </g>
    <g>
      <path class="st23" d="M287.494,632.849c.943-3.863.729-13.701,7.871-24.05"/>
      <path class="st29" d="M288.951,633.204l-2.914-.711c.182-.746.328-1.823.498-3.07.662-4.875,1.77-13.034,7.596-21.476l2.469,1.703c-5.418,7.853-6.425,15.269-7.092,20.176-.181,1.331-.337,2.48-.556,3.378h0Z"/>
    </g>
    <g class="st40">
      <path class="st47" d="M191.003,519.305l-5.101,12.389s17.425,5.048,37.168,17.332c32.795,20.406,57.137,36.015,57.137,36.015,0,0,18.06-19.471,24.487-25.653,4.104-3.948,17.637-14.867,17.637-14.867l-2.769-12.535s-11.288,7.4-15.887,11.661c-5.275,4.886-23.734,23.779-23.734,23.779,0,0-49.595-31.445-61.534-38.063-9.961-5.522-27.402-10.057-27.402-10.057h-.002Z"/>
    </g>
    <path class="st8" d="M166.113,392.354"/>
  </g>
  <g>
    <g class="st62">
      <g>
        <polygon class="st30" points="122.947 87.076 95.946 260.749 95.946 87.076 122.947 87.076"/>
        <polygon class="st30" points="126.79 87.076 95.946 285.467 95.946 260.749 122.947 87.076 126.79 87.076"/>
        <polygon class="st78" points="130.633 87.076 95.946 310.186 95.946 285.467 126.79 87.076 130.633 87.076"/>
        <polygon class="st34" points="134.476 87.076 95.946 334.904 95.946 310.186 130.633 87.076 134.476 87.076"/>
        <polygon class="st97" points="138.319 87.076 95.946 359.623 95.946 334.904 134.476 87.076 138.319 87.076"/>
        <polygon class="st33" points="142.162 87.076 95.946 384.341 95.946 359.623 138.319 87.076 142.162 87.076"/>
        <polygon class="st86" points="146.005 87.076 95.946 409.06 95.946 384.341 142.162 87.076 146.005 87.076"/>
        <polygon class="st31" points="149.848 87.076 99.54 410.662 95.946 410.103 95.946 409.06 146.005 87.076 149.848 87.076"/>
        <polygon class="st17" points="153.691 87.076 103.292 411.246 99.54 410.662 149.848 87.076 153.691 87.076"/>
        <polygon class="st3" points="157.534 87.076 107.044 411.829 103.292 411.246 153.691 87.076 157.534 87.076"/>
        <polygon class="st27" points="161.377 87.076 110.797 412.412 107.044 411.829 157.534 87.076 161.377 87.076"/>
        <polygon class="st112" points="165.22 87.076 114.549 412.996 110.797 412.412 161.377 87.076 165.22 87.076"/>
        <polygon class="st102" points="169.063 87.076 118.301 413.579 114.549 412.996 165.22 87.076 169.063 87.076"/>
        <polygon class="st35" points="172.906 87.076 122.054 414.162 118.301 413.579 169.063 87.076 172.906 87.076"/>
        <polygon class="st82" points="176.749 87.076 125.806 414.746 122.054 414.162 172.906 87.076 176.749 87.076"/>
        <polygon class="st99" points="180.592 87.076 129.558 415.329 125.806 414.746 176.749 87.076 180.592 87.076"/>
        <polygon class="st61" points="184.435 87.076 133.31 415.912 129.558 415.329 180.592 87.076 184.435 87.076"/>
        <polygon class="st2" points="188.278 87.076 137.063 416.496 133.31 415.912 184.435 87.076 188.278 87.076"/>
        <polygon class="st50" points="192.121 87.076 140.83 416.985 140.21 416.985 137.063 416.496 188.278 87.076 192.121 87.076"/>
        <polygon class="st4" points="195.964 87.076 144.673 416.985 140.83 416.985 192.121 87.076 195.964 87.076"/>
        <polygon class="st73" points="199.807 87.076 148.516 416.985 144.673 416.985 195.964 87.076 199.807 87.076"/>
        <polygon class="st12" points="203.65 87.076 152.359 416.985 148.516 416.985 199.807 87.076 203.65 87.076"/>
        <polygon class="st16" points="207.493 87.076 156.202 416.985 152.359 416.985 203.65 87.076 207.493 87.076"/>
        <polygon class="st55" points="211.336 87.076 160.045 416.985 156.202 416.985 207.493 87.076 211.336 87.076"/>
        <polygon class="st80" points="215.179 87.076 163.888 416.985 160.045 416.985 211.336 87.076 215.179 87.076"/>
        <polygon class="st118" points="219.022 87.076 167.731 416.985 163.888 416.985 215.179 87.076 219.022 87.076"/>
        <polygon class="st56" points="222.865 87.076 171.574 416.985 167.731 416.985 219.022 87.076 222.865 87.076"/>
        <polygon class="st58" points="226.708 87.076 175.417 416.985 171.574 416.985 222.865 87.076 226.708 87.076"/>
        <polygon class="st5" points="230.551 87.076 179.26 416.985 175.417 416.985 226.708 87.076 230.551 87.076"/>
        <polygon class="st21" points="234.394 87.076 183.103 416.985 179.26 416.985 230.551 87.076 234.394 87.076"/>
        <polygon class="st22" points="238.237 87.076 186.946 416.985 183.103 416.985 234.394 87.076 238.237 87.076"/>
        <polygon class="st104" points="242.08 87.076 190.789 416.985 186.946 416.985 238.237 87.076 242.08 87.076"/>
        <polygon class="st36" points="245.923 87.076 194.632 416.985 190.789 416.985 242.08 87.076 245.923 87.076"/>
        <polygon class="st52" points="249.766 87.076 198.475 416.985 194.632 416.985 245.923 87.076 249.766 87.076"/>
        <polygon class="st76" points="253.609 87.076 202.318 416.985 198.475 416.985 249.766 87.076 253.609 87.076"/>
        <polygon class="st101" points="257.452 87.076 206.161 416.985 202.318 416.985 253.609 87.076 257.452 87.076"/>
        <polygon class="st44" points="261.295 87.076 210.004 416.985 206.161 416.985 257.452 87.076 261.295 87.076"/>
        <polygon class="st70" points="265.138 87.076 213.847 416.985 210.004 416.985 261.295 87.076 265.138 87.076"/>
        <polygon class="st72" points="268.981 87.076 217.69 416.985 213.847 416.985 265.138 87.076 268.981 87.076"/>
        <polygon class="st111" points="272.824 87.076 221.533 416.985 217.69 416.985 268.981 87.076 272.824 87.076"/>
        <polygon class="st45" points="276.667 87.076 225.376 416.985 221.533 416.985 272.824 87.076 276.667 87.076"/>
        <polygon class="st96" points="280.51 87.076 229.219 416.985 225.376 416.985 276.667 87.076 280.51 87.076"/>
        <polygon class="st41" points="284.353 87.076 233.062 416.985 229.219 416.985 280.51 87.076 284.353 87.076"/>
        <polygon class="st53" points="288.196 87.076 236.905 416.985 233.062 416.985 284.353 87.076 288.196 87.076"/>
        <polygon class="st64" points="292.039 87.076 240.748 416.985 236.905 416.985 288.196 87.076 292.039 87.076"/>
        <polygon class="st26" points="292.622 87.076 295.805 87.571 244.591 416.985 240.748 416.985 292.039 87.076 292.622 87.076"/>
        <polygon class="st109" points="295.805 87.571 299.557 88.154 248.434 416.985 244.591 416.985 295.805 87.571"/>
        <polygon class="st117" points="299.557 88.154 303.309 88.737 252.277 416.985 248.434 416.985 299.557 88.154"/>
        <polygon class="st25" points="303.309 88.737 307.062 89.321 256.12 416.985 252.277 416.985 303.309 88.737"/>
        <polygon class="st28" points="307.062 89.321 310.814 89.904 259.963 416.985 256.12 416.985 307.062 89.321"/>
        <polygon class="st18" points="310.814 89.904 314.566 90.487 263.806 416.985 259.963 416.985 310.814 89.904"/>
        <polygon class="st68" points="314.566 90.487 318.319 91.071 267.649 416.985 263.806 416.985 314.566 90.487"/>
        <polygon class="st75" points="318.319 91.071 322.071 91.654 271.492 416.985 267.649 416.985 318.319 91.071"/>
        <polygon class="st0" points="322.071 91.654 325.823 92.238 275.335 416.985 271.492 416.985 322.071 91.654"/>
        <polygon class="st60" points="325.823 92.238 329.575 92.821 279.178 416.985 275.335 416.985 325.823 92.238"/>
        <polygon class="st51" points="329.575 92.821 333.328 93.404 283.021 416.985 279.178 416.985 329.575 92.821"/>
        <polygon class="st92" points="333.328 93.404 337.08 93.988 286.864 416.985 283.021 416.985 333.328 93.404"/>
        <polygon class="st115" points="337.08 93.988 340.832 94.571 290.707 416.985 286.864 416.985 337.08 93.988"/>
        <polygon class="st14" points="340.832 94.571 344.585 95.154 294.55 416.985 290.707 416.985 340.832 94.571"/>
        <polygon class="st94" points="344.585 95.154 348.337 95.738 298.393 416.985 294.55 416.985 344.585 95.154"/>
        <polygon class="st113" points="348.337 95.738 352.089 96.321 302.236 416.985 298.393 416.985 348.337 95.738"/>
        <polygon class="st63" points="352.089 96.321 355.842 96.905 306.079 416.985 302.236 416.985 352.089 96.321"/>
        <polygon class="st93" points="355.842 96.905 359.594 97.488 309.922 416.985 306.079 416.985 355.842 96.905"/>
        <polygon class="st108" points="359.594 97.488 363.346 98.071 313.765 416.985 309.922 416.985 359.594 97.488"/>
        <polygon class="st67" points="363.346 98.071 367.098 98.655 317.608 416.985 313.765 416.985 363.346 98.071"/>
        <polygon class="st85" points="367.098 98.655 370.851 99.238 321.451 416.985 317.608 416.985 367.098 98.655"/>
        <polygon class="st105" points="370.851 99.238 374.603 99.821 325.294 416.985 321.451 416.985 370.851 99.238"/>
        <polygon class="st37" points="374.603 99.821 378.355 100.405 329.137 416.985 325.294 416.985 374.603 99.821"/>
        <polygon class="st48" points="378.355 100.405 382.108 100.988 332.98 416.985 329.137 416.985 378.355 100.405"/>
        <polygon class="st90" points="382.108 100.988 385.86 101.571 336.823 416.985 332.98 416.985 382.108 100.988"/>
        <polygon class="st43" points="385.86 101.571 389.612 102.155 340.666 416.985 336.823 416.985 385.86 101.571"/>
        <polygon class="st83" points="389.612 102.155 393.365 102.738 344.509 416.985 340.666 416.985 389.612 102.155"/>
        <polygon class="st71" points="393.365 102.738 397.117 103.322 348.352 416.985 344.509 416.985 393.365 102.738"/>
        <polygon class="st84" points="397.117 103.322 400.869 103.905 352.195 416.985 348.352 416.985 397.117 103.322"/>
        <polygon class="st81" points="400.869 103.905 404.621 104.488 356.038 416.985 352.195 416.985 400.869 103.905"/>
        <polygon class="st38" points="404.621 104.488 408.374 105.072 359.881 416.985 356.038 416.985 404.621 104.488"/>
        <polygon class="st74" points="408.374 105.072 412.126 105.655 363.724 416.985 359.881 416.985 408.374 105.072"/>
        <polygon class="st116" points="412.126 105.655 415.878 106.238 367.567 416.985 363.724 416.985 412.126 105.655"/>
        <polygon class="st88" points="415.878 106.238 419.631 106.822 371.41 416.985 367.567 416.985 415.878 106.238"/>
        <polygon class="st69" points="419.631 106.822 423.383 107.405 375.253 416.985 371.41 416.985 419.631 106.822"/>
        <polygon class="st106" points="423.383 107.405 427.135 107.989 379.095 416.985 375.253 416.985 423.383 107.405"/>
        <polygon class="st39" points="427.135 107.989 430.888 108.572 382.938 416.985 379.095 416.985 427.135 107.989"/>
        <polygon class="st42" points="430.888 108.572 434.64 109.155 386.781 416.985 382.938 416.985 430.888 108.572"/>
        <polygon class="st32" points="434.64 109.155 438.392 109.739 390.624 416.985 386.781 416.985 434.64 109.155"/>
        <polygon class="st114" points="438.392 109.739 440.648 110.089 440.648 119.947 394.467 416.985 390.624 416.985 438.392 109.739"/>
        <polygon class="st46" points="440.648 144.665 398.31 416.985 394.467 416.985 440.648 119.947 440.648 144.665"/>
        <polygon class="st87" points="440.648 169.384 402.153 416.985 398.31 416.985 440.648 144.665 440.648 169.384"/>
        <polygon class="st49" points="440.648 194.102 405.996 416.985 402.153 416.985 440.648 169.384 440.648 194.102"/>
        <polygon class="st54" points="440.648 218.821 409.839 416.985 405.996 416.985 440.648 194.102 440.648 218.821"/>
        <polygon class="st98" points="440.648 243.539 413.682 416.985 409.839 416.985 440.648 218.821 440.648 243.539"/>
        <polygon class="st15" points="440.648 268.258 417.525 416.985 413.682 416.985 440.648 243.539 440.648 268.258"/>
        <polygon class="st59" points="440.648 292.977 421.368 416.985 417.525 416.985 440.648 268.258 440.648 292.977"/>
        <polygon class="st13" points="440.648 317.695 425.211 416.985 421.368 416.985 440.648 292.977 440.648 317.695"/>
        <polygon class="st13" points="425.211 416.985 440.648 317.695 440.648 416.985 425.211 416.985"/>
      </g>
    </g>
    <path d="M149.122,415.581c-3.887,0-6.646-.443-7.276-.917-3.975-2.98-9.518-15.764-10.579-18.271l-8.804,2.423-11.547-30.521,4.987-17.776c-5.75-9.434-7.003-21.338-7.834-29.232-.196-1.861-.365-3.468-.564-4.741-2.473-15.86-1.84-33.733-1.767-35.553-.783-1.324-6.735-11.438-7.657-14.692-2.556-9.027.528-37.85,7.525-48.398,1.507-2.272,6.92-4.31,9.521-4.386l4.666-.135c2.917-15.116,26.562-59.792,37.061-72.034,21.769-25.383,49.674-37.452,69.25-43.107,23.409-6.761,43.465-7.008,50.798-6.196,22.396,2.486,78.365,13.211,114.293,58.995,19.101,24.339,19.606,25.692,28.053,48.28.616,1.648,1.275,3.41,1.986,5.302,1.076,2.86,3.829,3.866,6.257,4.754,1.568.573,2.922,1.068,3.669,1.991,8.034,9.922,9.91,47.884,9.986,49.495l.007.153-5.751,9.402c2.431,15.686,1.1,28.235-.116,36.32-2.139,14.225-7.585,33.98-8.062,35.698.332,1.56,3.834,17.846,6.46,22.631l.114.208-11.892,29.514-10.026-2.391c-.416,2.173-2.49,7.382-12.589,11.801-9.916,4.339-26.734,4.134-27.449,4.125l-.55-.008.061-.547c.02-.178,1.958-18.04.734-37.722-.785-12.622-2.81-27.029-3.917-31.802l-.046-.201.109-.175c4.594-7.406,4.944-9.591,5.581-13.558.229-1.433.49-3.056.986-5.227l.099-.432.441.046c16.021,1.677,26.622,3.228,40.378,13.231.451-1.664,1.081-3.692,1.796-5.993,2.199-7.079,5.21-16.772,5.985-25.621,5.492-62.724-19.136-146.444-86.185-182.039-17.361-9.216-63.552-28.437-117.385-7.913-35.375,13.486-63.19,40.554-82.671,80.453-14.138,28.955-19.565,56.827-20.463,65.124-2.861,26.431-.062,53.209,8.322,79.604,3.642-2.07,23.783-13.128,33.381-10.265,5.718,1.704,4.791,7.335,3.507,15.13-1.475,8.956-3.495,21.222,3.003,34.833,2.891,6.055,7.925,10.105,11.97,13.359,3.924,3.157,7.024,5.651,7.296,8.881.157,1.871-.688,3.821-2.586,5.961-8.674,9.784-23.612,12.14-32.566,12.14h0ZM131.852,395.195l.169.408c.063.151,6.325,15.187,10.425,18.262,1.366.996,26.392,2.564,38.495-11.087,1.706-1.925,2.471-3.63,2.337-5.214-.236-2.803-3.188-5.178-6.927-8.186-4.124-3.318-9.256-7.447-12.246-13.708-6.633-13.894-4.584-26.339-3.088-35.426,1.245-7.562,2.068-12.557-2.806-14.01-9.944-2.96-32.901,10.346-33.132,10.481l-.538.314-.19-.593c-8.572-26.72-11.449-53.84-8.552-80.607.903-8.345,6.358-36.371,20.559-65.455,19.596-40.134,47.593-67.369,83.213-80.948,54.217-20.668,100.729-1.315,118.21,7.965,32.184,17.085,57.133,46.298,72.15,84.479,12.053,30.646,17.361,66.558,14.562,98.53-.784,8.955-3.814,18.708-6.026,25.83-.816,2.629-1.521,4.899-1.97,6.658l-.184.721-.598-.443c-13.743-10.169-23.734-11.714-40.039-13.429-.426,1.926-.664,3.41-.876,4.73-.651,4.063-1.013,6.315-5.61,13.752,1.124,4.999,3.117,19.263,3.894,31.764,1.108,17.828-.366,34.169-.682,37.341,3.012-.003,17.753-.222,26.486-4.043,8.445-3.696,11.776-8.387,12.077-11.546l.054-.572,10.28,2.451,11.395-28.278c-2.799-5.375-6.324-22.096-6.475-22.815l-.025-.12.033-.118c.058-.208,5.853-20.95,8.069-35.695,1.21-8.051,2.537-20.563.088-36.199l-.028-.181,5.782-9.453c-.139-2.689-2.178-39.4-9.757-48.76-.573-.707-1.807-1.158-3.235-1.68-2.5-.914-5.613-2.052-6.85-5.342-.712-1.893-1.371-3.654-1.987-5.303-8.396-22.452-8.898-23.795-27.904-48.013-35.694-45.486-91.346-56.146-113.617-58.618-7.267-.807-27.151-.557-50.41,6.163-19.445,5.617-47.161,17.602-68.769,42.797-10.533,12.281-34.365,57.358-36.909,71.957l-.07.402-5.478.158c-2.342.068-7.432,2.001-8.717,3.939-6.729,10.146-9.846,38.919-7.396,47.573.931,3.286,7.564,14.469,7.631,14.582l.077.129-.007.149c-.009.188-.831,18.957,1.75,35.503.202,1.298.373,2.916.57,4.79.828,7.857,2.078,19.73,7.806,29l.115.187-5.017,17.881,11.108,29.361,8.775-2.415h.005Z"/>
  </g>
  <polygon points="117.101 214.637 128.248 208.951 124.044 221.615 120.4 218.672 108.991 266.804 118.299 217.758 117.101 214.637"/>
  <path d="M128.933,391.039c-3.337,3.299-6.601,6.327-6.163,7.174.568,1.095,8.423-1.49,11.699-4.911,7.187-7.504.066-28.018-5.685-28.363-1.366-.082-2.678.972-3.395,1.996-4.104,5.86,3.543,24.105,3.543,24.105h0Z"/>
  <path d="M114.347,369.424c-.121-.716,6.964-.776,9.552-5.525,2.172-3.987.257-9.594-.743-9.649-.61-.034-.658,2.011-2.068,2.482-1.822.609-4.638-1.838-4.314-2.914.257-.855,2.273-.104,3.583-1.406,1.691-1.679-.17-4.413,1.064-6.845,1.306-2.573,5.715-4.098,8.304-2.915,5.174,2.364,7.221,17.436-.101,24.099-1.778,1.617-3.982,2.433-4.717,2.703-5.066,1.862-10.397.931-10.56-.031h0Z"/>
  <path d="M421.641,337.751c.633-.462,7.885-6.062,7.885-6.062l-2.816,10.729,5.633,20.906-7.452-11.608-9.125,11.199,1.014-23.957,4.861-1.207Z"/>
  <g>
    <path class="st65" d="M129.105,335.827c-5.966,9.967-4.337,20.961.204,43.775,4.255,21.376,3.79,30.727,12.837,34.663,11.031,4.799,24.706-.946,31.332-15.797,2.065-4.628-.58-18.884-2.275-27.939-6.501-34.752-5.528-29.806-7.731-38.839-2.502-10.261-16.9-6.199-20.496-4.832-3.536,1.343-10.378,3.133-13.872,8.97h0Z"/>
    <path d="M150.074,416.425c-2.735,0-5.479-.55-8.128-1.703-7.479-3.254-8.664-10.045-11.024-23.573-.586-3.361-1.251-7.17-2.103-11.451-4.356-21.878-6.34-33.777-.144-44.129h0c3.161-5.279,8.904-7.317,12.705-8.667.514-.182.991-.351,1.418-.514.427-.162,10.509-3.927,16.774-.631,2.259,1.188,3.734,3.144,4.385,5.812l.608,2.474c.888,3.593,2.753,12.992,5.596,28.197l1.533,8.195c1.746,9.33,4.384,23.43,2.24,28.235-4.957,11.11-14.357,17.754-23.861,17.754h.001ZM129.534,336.083c-5.719,9.554-4.391,20.03.266,43.42.854,4.292,1.521,8.108,2.107,11.474,2.299,13.175,3.453,19.788,10.439,22.828,11.334,4.932,24.522-1.75,30.676-15.542,2.017-4.521-.692-18.996-2.31-27.644l-1.532-8.194c-2.839-15.187-4.7-24.567-5.583-28.141l-.609-2.477c-.58-2.378-1.885-4.115-3.879-5.165-5.872-3.087-15.544.526-15.953.681-.435.165-.918.337-1.439.522-3.666,1.301-9.206,3.267-12.181,8.237h-.002Z"/>
  </g>
  <g>
    <path class="st65" d="M375.287,319.193l-6.629,18.937s3.484,24.136,3.928,31.884c.559,9.752-.737,37.808-.737,37.808,0,0,13.681,2.724,29.469-5.038,4.548-2.236,8.477-5.675,10.848-14.078,9.437-33.444,7.986-48.341-.692-57.942-9.874-10.925-36.188-11.571-36.188-11.571h0Z"/>
    <path d="M377.959,408.767c-3.815,0-6.151-.444-6.207-.456l-.422-.084.02-.429c.013-.28,1.288-28.142.737-37.756-.438-7.638-3.889-31.6-3.924-31.841l-.018-.121,6.79-19.396.364.009c1.083.027,26.642.777,36.546,11.736,9.479,10.488,9.704,26.865.803,58.413-2.578,9.135-7.062,12.401-11.109,14.391-9.341,4.592-18.027,5.535-23.58,5.535h0ZM372.37,407.401c2.414.365,14.814,1.776,28.729-5.066,4.042-1.988,8.123-5.031,10.587-13.765,8.793-31.165,8.63-47.278-.582-57.471-8.996-9.954-32.275-11.261-35.466-11.394l-6.467,18.474c.268,1.865,3.491,24.408,3.915,31.805.516,8.994-.554,33.787-.716,37.417h0Z"/>
  </g>
  <path d="M680.402,933.431c-4.354-33.455-12.984-60.029-44.217-96.86-22.858-26.956-44.632-40.097-60.529-49.691-16.69-10.072-28.749-17.351-28.905-33.149-.253-25.678,28.738-41.854,59.432-58.981,28.892-16.122,58.768-32.793,59.445-56.062.707-24.265-24.693-60.017-47.681-67.114-38.333-11.833-50.332-8.769-94.976,2.634-21.462,5.481-35.949,10.717-47.589,14.923-19.191,6.936-29.762,10.759-46.023,5.614-16.8-5.313-33.086-18.281-44.313-34.676-10.023,1.185-20.482,1.704-31.121,1.506-30.958-.568-60.861-7.008-86.478-18.622-34.826-15.789-75.504-66.419-88.871-83.056l-1.274-1.585,8.568-6.898,1.281,1.594c12.96,16.131,52.401,65.222,84.837,79.928,34.343,15.57,73.536,19.793,106.832,16.662-.564-1.11-1.106-2.231-1.622-3.36-7.693-16.84-8.684-33.637-2.788-47.297,5.91-13.695,17.943-24.018,33.014-28.322,14.32-4.091,29.268-2.085,39.988,5.361,8.279,5.75,27.668,19.217,20.458,39.503-4.75,13.365-17.551,24.801-37.019,33.074-9.923,4.216-21.262,7.474-33.479,9.681,9.63,12.274,22.488,21.969,35.303,26.021,12.709,4.019,20.938,1.045,38.968-5.471,11.238-4.062,26.628-9.623,48.606-15.236,44.617-11.395,59.648-15.233,100.941-2.485,27.793,8.58,56.286,48.646,55.433,77.944-.86,29.512-33.509,47.729-65.082,65.348-27.76,15.49-53.98,30.121-53.791,49.267.091,9.271,7.298,14.009,23.589,23.841,16.548,9.987,39.212,23.666,63.234,51.994,32.845,38.732,42.233,67.957,46.736,102.556l-10.908,1.42v-.006ZM422.189,479.517c-3.843,0-7.811.551-11.744,1.674-11.885,3.394-21.337,11.45-25.935,22.103-4.647,10.768-3.69,24.394,2.694,38.368,1.004,2.199,2.124,4.365,3.347,6.488,13.601-2.08,25.885-5.426,35.999-9.723,16.56-7.037,27.264-16.246,30.957-26.633,3.121-8.781-1.621-16.542-16.369-26.785-5.211-3.619-11.866-5.492-18.949-5.492h0Z"/>
  <g>
    <path class="st65" d="M670.233,929.007c-.885,1.997,5.311,42.71,2.204,46.401-1.306,1.551-18.105-1.931-18.105-1.931v28.295s25.496,1.896,34.355-5.107c7.764-6.138,6.831-67.554,4.133-70.849-3.613-4.412-20.275-2.022-22.587,3.192h0Z"/>
    <path d="M662.089,1002.519c-4.312,0-7.435-.222-7.793-.248l-.463-.035v-29.373l.602.125c7.812,1.618,16.769,2.881,17.625,2.094,1.851-2.199-.044-20.384-1.298-32.417-.985-9.45-1.325-13.094-.985-13.86h0c1.387-3.128,7.008-4.932,11.398-5.526,4.443-.602,9.94-.335,12.032,2.221,2.122,2.592,2.942,34.091.813,53.747-1.088,10.044-2.778,16.036-5.022,17.812-5.866,4.637-18.597,5.462-26.909,5.462v-.002ZM654.833,1001.303c3.485.21,25.588,1.26,33.544-5.031,1.394-1.102,3.331-4.968,4.649-17.134,2.332-21.527,1.03-51.023-.593-53.007-1.485-1.813-5.955-2.561-11.124-1.862-5.359.725-9.624,2.708-10.617,4.936-.25.753.418,7.16,1.063,13.356,1.747,16.764,3.033,30.831,1.064,33.17-1.303,1.545-12.565-.533-17.987-1.641v27.213h.001Z"/>
  </g>
  <g>
    <path class="st23" d="M193.461,463.412s3.601,42.605-6.559,63.404c-6.794,13.908-24.885,26.266-39.936,20.949-29.589-10.454-27.403-31.443-24.779-50.683,2.888-21.18,14.43-38.042,14.43-38.042,0,0-.807-21.148-.875-36.293-.075-16.857,10.057-37.168,26.673-39.792,25.398-4.01,46.215,17.185,48.974,34.544,2.668,16.784-17.928,45.913-17.928,45.913Z"/>
    <path class="st6" d="M154.433,550.516c-2.7,0-5.377-.422-7.967-1.337-31.386-11.088-28.27-33.939-25.766-52.299,2.687-19.702,12.563-35.474,14.399-38.269-.12-3.257-.796-22.129-.857-35.857-.079-17.719,10.581-38.539,27.939-41.28,26.794-4.236,47.92,18.371,50.69,35.79,2.581,16.233-15.169,42.659-17.872,46.566.405,5.261,2.97,43.749-6.75,63.646-5.998,12.279-20.179,23.04-33.817,23.041h0ZM168.763,383.953c-1.998,0-4.037.156-6.114.483-15.788,2.493-25.481,21.823-25.407,38.303.066,14.947.865,36.032.874,36.243l.019.495-.279.409c-.114.166-11.378,16.838-14.182,37.398-2.479,18.183-5.29,38.791,23.792,49.066,14.188,5.01,31.459-6.619,38.089-20.192,9.86-20.186,6.448-62.198,6.412-62.62l-.046-.545.315-.447c.203-.287,20.213-28.826,17.672-44.812-2.363-14.864-19.115-33.781-41.145-33.781h0Z"/>
  </g>
  <g>
    <path d="M428.08,248.836c.07-.024-4.268-13.43-5.788-29.501-.148-1.569-.713-8.005,1.362-8.761,1.848-.673,4.964,3.455,5.725,2.853.388-.307-.054-1.67-.621-2.62-3.023-5.065-14.166-6.026-16.125-2.694-.96,1.632.08,4.644,1.872,5.993,1.917,1.442,3.852.347,5.348,1.673,1.911,1.694,1.051,5.52.832,6.672-2.117,11.132,7.316,26.413,7.394,26.386h0Z"/>
    <path d="M427.971,249.402l-.22-.19c-.109-.094-9.736-15.393-7.556-26.856l.036-.186c.245-1.257.897-4.596-.708-6.019-.61-.541-1.337-.598-2.179-.665-.96-.076-2.048-.162-3.139-.982-1.856-1.396-3.163-4.671-2.002-6.646.815-1.387,2.952-2.188,5.863-2.197h.051c3.937,0,9.064,1.525,11.071,4.889.015.025,1.474,2.498.502,3.269-.638.506-1.467-.161-2.614-1.084-1.039-.835-2.463-1.978-3.25-1.691-.849.309-1.566,2.637-1.036,8.245.598,6.312,2.049,16.413,5.573,28.683.267.928.338,1.177-.117,1.337h-.002l-.272.094h0ZM418.117,206.662h-.048c-2.474.008-4.391.661-5.004,1.704-.799,1.358.097,4.103,1.742,5.34.858.646,1.712.713,2.616.785.935.074,1.902.15,2.763.914,2.034,1.802,1.302,5.549,1.027,6.959l-.035.181c-1.44,7.572,2.725,17.49,5.374,22.636-2.934-10.96-4.206-19.977-4.756-25.798-.526-5.556.042-8.678,1.688-9.278,1.322-.483,2.861.758,4.22,1.852.453.365,1.05.845,1.361.989-.038-.281-.257-1.082-.734-1.882-1.728-2.894-6.435-4.401-10.213-4.401h0Z"/>
  </g>
  <rect x="425.044" y="360.291" width="1" height="10.053" transform="translate(-.811 729.688) rotate(-81.163)"/>
  <path class="st7" d="M165.243,343.689"/>
  <path class="st7" d="M168.179,334.949"/>
  <path class="st7" d="M158.613,355.743"/>
  <path class="st7" d="M171.204,342.792"/>
  <path class="st7" d="M178.669,369.701"/>
  <path class="st7" d="M178.156,380.59"/>
  <path class="st7" d="M175.465,375.454"/>
  <path class="st7" d="M177.995,364.037"/>
  <path class="st7" d="M176.151,357.862"/>
  <g class="st57">
    <polygon points="107.375 223.091 115.229 309.648 116.019 258.667 126.259 217.054 111.631 214.779 107.375 223.091"/>
    <path d="M114.73,309.693l-7.867-86.702,4.486-8.762,15.525,2.414-10.357,42.088-.79,50.924-.998.038h0ZM107.886,223.19l6.988,77.025.659-41.668,10.11-41.083-13.733-2.135s-4.024,7.861-4.024,7.861Z"/>
  </g>
  <g class="st57">
    <path d="M429.593,317.215c.028-15.349.113-61.397.113-61.397l-9.851-40.04,3.8-5.204s6.044-2.805,9.18,4.537c4.559,10.676,7.814,45.773,7.814,45.773l-5.767,9.427s3.221,44.68-5.273,51.667c-.083.068-.015-4.656-.015-4.763h0Z"/>
    <path d="M429.679,322.567l-.291-.138c-.238-.114-.337-1.788-.298-5.023l.002-.191h.5-.5l.113-61.336-9.893-40.208,4.014-5.496.117-.055c.105-.048,2.588-1.174,5.291-.137,1.947.747,3.48,2.406,4.559,4.931,4.538,10.626,7.719,44.487,7.852,45.923l.015.166-5.77,9.433c.237,3.399,2.956,45.001-5.466,51.929l-.247.203h.002ZM430.093,317.216l-.002.202c-.021,1.678-.025,2.729-.023,3.385,7.222-8.823,4.346-50.027,4.315-50.456l-.012-.16,5.764-9.422c-.25-2.626-3.443-35.349-7.76-45.458-.966-2.261-2.307-3.737-3.986-4.385-2.008-.776-3.936-.126-4.413.06l-3.581,4.903,9.811,39.935-.113,61.397h0Z"/>
  </g>
  <g class="st57">
    <polygon points="433.246 365.306 424.752 349.918 418.943 359.015 411.465 391.782 421.604 394.2 433.246 365.306"/>
    <path d="M421.907,394.787l-11.04-2.633,7.654-33.407,6.261-9.807,9.017,16.332-11.893,29.515h.001ZM412.062,391.411l9.239,2.203,11.393-28.274-7.974-14.443-5.309,8.315-7.349,32.199h0Z"/>
  </g>
  <g class="st57">
    <path d="M124.744,385.516l-1.974,12.697,7.284-5.369s-3.964-14.184-4.205-14.434-1.105,7.107-1.105,7.107h0Z"/>
    <path d="M122.089,399.336l2.159-13.887c.86-7.328,1.06-7.396,1.423-7.519l.3-.102.237.233c.107.111.33.341,4.327,14.647l.093.333-8.539,6.294h0ZM125.94,380.278c-.211,1.373-.477,3.4-.7,5.296l-.002.019-1.788,11.498,6.029-4.444c-1.147-4.101-2.72-9.645-3.54-12.368h0Z"/>
  </g>
  <g class="st57">
    <polygon points="120.938 363.707 114.347 369.424 125.39 366.935 124.887 359.336 120.938 363.707"/>
    <path d="M112.518,370.349l8.069-6.999,4.721-5.225.609,9.204-13.399,3.021h0ZM124.466,360.548l-3.201,3.537-5.088,4.414,8.686-1.958-.396-5.993h0Z"/>
  </g>
  <g class="st107">
    <path d="M378.191,406.633c-.384-1.284,9.97-4.108,19.784-13.926,9.24-9.245,17.791-20.648,17.791-20.648,0,0-2.129,16.898-9.125,25.626-9.235,11.521-27.958,10.593-28.45,8.948h0Z"/>
  </g>
  <g>
    <path class="st23" d="M164.557,395.546s1.596-6.859,2.701-8.082l4.418-4.89"/>
    <path class="st6" d="M166.018,395.886l-2.922-.68c.506-2.176,1.817-7.385,3.049-8.748l4.417-4.89,2.227,2.011-4.418,4.891c-.522.638-1.64,4.352-2.353,7.416h0Z"/>
  </g>
  <g>
    <path class="st23" d="M178.156,398.213s2.573-6.63,3.431-7.76l3.431-4.521"/>
    <path class="st6" d="M179.554,398.756l-2.797-1.085c.622-1.602,2.721-6.921,3.635-8.125l3.431-4.52,2.39,1.813-3.43,4.521c-.452.594-2.027,4.302-3.228,7.396h-.001Z"/>
  </g>
  <g>
    <path class="st79" d="M381.619,727.405c4.643-8.397,3.949-26.108,9.646-27.374,5.524-1.228,5.086,15.946,13.258,20.132,5.745,2.942,9.943-1.105,11.784,5.033.825,2.749-5.955,10.551-9.575,15.713-9.191,13.107-3.163,23.692-10.802,24.674-5.847.752-6.997-7.243-13.38-14.731-7.191-8.435-18.045-2.578-18.536-9.943-.439-6.579,15.298-9.329,17.606-13.503h0Z"/>
    <path class="st29" d="M395.15,767.134c-4.074,0-6.17-3.575-8.572-7.669-1.387-2.364-2.958-5.044-5.171-7.641-3.242-3.803-7.309-4.368-10.897-4.867-3.594-.5-7.668-1.066-7.994-5.949-.331-4.951,5.725-7.773,11.066-10.263,2.826-1.317,6.029-2.81,6.724-4.065,1.868-3.38,2.842-8.482,3.783-13.417,1.408-7.382,2.625-13.757,6.85-14.695,3.979-.895,5.561,3.711,7.231,8.579,1.575,4.593,3.361,9.8,7.036,11.682,2.018,1.033,3.792,1.073,5.509,1.111,2.634.059,5.619.126,7.028,4.825.792,2.64-2.068,6.695-6.872,13.062-1.067,1.413-2.075,2.749-2.912,3.943-4.372,6.234-5.119,11.751-5.719,16.184-.616,4.549-1.148,8.478-6.12,9.116-.335.044-.659.064-.97.064h0ZM391.755,701.478c-.055,0-.11.006-.166.018-2.298.511-3.496,6.79-4.553,12.33-.985,5.165-2.004,10.507-4.105,14.306h0c-1.167,2.111-4.371,3.604-8.081,5.333-4.248,1.98-9.534,4.444-9.341,7.345.147,2.207,1.226,2.595,5.414,3.177,3.708.516,8.785,1.222,12.767,5.894,2.384,2.797,4.027,5.597,5.476,8.068,2.576,4.391,3.932,6.479,6.571,6.147,2.56-.33,2.906-1.939,3.53-6.544.609-4.504,1.445-10.672,6.236-17.504.868-1.237,1.891-2.593,2.974-4.028,2.36-3.127,6.752-8.948,6.392-10.395-.782-2.608-1.719-2.629-4.222-2.686-1.862-.041-4.179-.093-6.809-1.44-4.752-2.434-6.833-8.503-8.506-13.379-1.121-3.268-2.278-6.642-3.577-6.642h0Z"/>
  </g>
  <g>
    <path class="st9" d="M454.488,425.048c-.763-.762-1.144-1.683-1.144-2.76v-81.978c0-.987.381-1.885,1.144-2.692.762-.808,1.683-1.211,2.76-1.211h52.095c.986,0,1.884.404,2.692,1.211.808.807,1.211,1.706,1.211,2.692v7.269c0,.989.381,1.864,1.145,2.625.761.764,1.636,1.145,2.625,1.145h7.269c.987,0,1.885.401,2.692,1.201.808.801,1.211,1.691,1.211,2.667v7.206c0,.978-.404,1.868-1.211,2.667-.808.801-1.706,1.201-2.692,1.201h-7.269c-.989,0-1.864.385-2.625,1.154-.764.77-1.145,1.653-1.145,2.648v7.334c0,.997.381,1.903,1.145,2.718.761.816,1.636,1.222,2.625,1.222h7.269c.987,0,1.885.383,2.692,1.145.808.763,1.211,1.683,1.211,2.759v22.076c0,1.077-.404,1.998-1.211,2.76-.808.763-1.706,1.144-2.692,1.144h-7.269c-.989,0-1.864.383-2.625,1.144s-1.145,1.683-1.145,2.76v7.134c0,1.077-.404,1.998-1.211,2.76-.808.763-1.706,1.144-2.692,1.144h-52.095c-1.077,0-1.998-.381-2.76-1.144h0ZM509.342,366.291c.986,0,1.884-.4,2.692-1.201.808-.799,1.211-1.689,1.211-2.667v-7.206c0-.976-.404-1.866-1.211-2.667-.808-.799-1.706-1.201-2.692-1.201h-37.153c-.989,0-1.885.401-2.692,1.201-.808.801-1.211,1.691-1.211,2.667v7.206c0,.978.404,1.868,1.211,2.667.808.801,1.704,1.201,2.692,1.201h37.153,0ZM509.342,411.25c.986,0,1.884-.381,2.692-1.144.808-.762,1.211-1.683,1.211-2.76v-22.076c0-1.077-.404-1.996-1.211-2.759-.808-.762-1.706-1.145-2.692-1.145h-37.153c-.989,0-1.885.383-2.692,1.145-.808.763-1.211,1.683-1.211,2.759v22.076c0,1.077.404,1.998,1.211,2.76.808.763,1.704,1.144,2.692,1.144h37.153,0Z"/>
    <path class="st9" d="M552.484,425.048c-.764-.762-1.145-1.683-1.145-2.76v-81.978c0-.987.381-1.885,1.145-2.692.762-.808,1.683-1.211,2.76-1.211h52.095c.986,0,1.885.404,2.692,1.211s1.211,1.706,1.211,2.692v7.269c0,.989-.403,1.864-1.211,2.625-.808.764-1.706,1.145-2.692,1.145h-37.153c-.988,0-1.884.404-2.691,1.211-.809.808-1.212,1.706-1.212,2.692v7.269c0,.989.403,1.885,1.212,2.692.808.808,1.703,1.211,2.691,1.211h22.211c.986,0,1.861.383,2.625,1.145.762.763,1.145,1.638,1.145,2.625v7.269c0,.989-.383,1.885-1.145,2.692-.764.808-1.639,1.211-2.625,1.211h-22.211c-.988,0-1.884.383-2.691,1.145-.809.763-1.212,1.683-1.212,2.759v22.076c0,1.077.403,1.998,1.212,2.76.808.763,1.703,1.144,2.691,1.144h37.153c.986,0,1.885.383,2.692,1.144.808.764,1.211,1.683,1.211,2.76v7.134c0,1.077-.403,1.998-1.211,2.76-.808.763-1.706,1.144-2.692,1.144h-52.095c-1.077,0-1.998-.381-2.76-1.144Z"/>
    <path class="st9" d="M635.538,425.048c-.764-.762-1.145-1.683-1.145-2.76v-7.134c0-1.077.381-1.996,1.145-2.76.762-.761,1.683-1.144,2.76-1.144h37.152c.986,0,1.861-.381,2.625-1.144.762-.762,1.145-1.683,1.145-2.76v-7.134c0-1.077-.383-1.996-1.145-2.76-.764-.761-1.639-1.144-2.625-1.144h-7.269c-.988,0-1.885-.404-2.692-1.211s-1.212-1.704-1.212-2.692v-7.134c0-1.077-.383-1.996-1.144-2.759-.764-.762-1.683-1.145-2.76-1.145h-7.135c-.988,0-1.884-.406-2.691-1.222-.809-.814-1.212-1.721-1.212-2.718v-7.334c0-.995-.383-1.878-1.145-2.648-.764-.77-1.683-1.154-2.759-1.154h-7.135c-1.077,0-1.998-.4-2.76-1.201-.764-.799-1.145-1.689-1.145-2.667v-7.206c0-.976.381-1.866,1.145-2.667.762-.799,1.683-1.201,2.76-1.201h7.135c1.076,0,1.995-.381,2.759-1.145.762-.761,1.145-1.636,1.145-2.625v-7.269c0-.987.401-1.885,1.207-2.692s1.699-1.211,2.684-1.211h37.044c.982,0,1.876.404,2.682,1.211s1.209,1.706,1.209,2.692v7.269c0,.989-.403,1.864-1.209,2.625-.806.764-1.699,1.145-2.682,1.145h-37.044c-.984,0-1.878.401-2.684,1.201-.806.801-1.207,1.691-1.207,2.667v7.206c0,.978.403,1.868,1.212,2.667.808.801,1.703,1.201,2.691,1.201h7.135c1.077,0,1.996.385,2.76,1.154.761.77,1.144,1.653,1.144,2.648v7.334c0,.997.404,1.903,1.212,2.718.808.816,1.704,1.222,2.692,1.222h7.269c.986,0,1.861.383,2.625,1.145.762.763,1.145,1.683,1.145,2.759v7.134c0,.989.399,1.885,1.201,2.692.799.808,1.688,1.211,2.667,1.211h7.206c.976,0,1.865.383,2.667,1.144.799.764,1.2,1.683,1.2,2.76v7.134c0,1.077-.401,1.998-1.2,2.76-.802.763-1.691,1.144-2.667,1.144h-7.206c-.979,0-1.868.383-2.667,1.144-.802.764-1.201,1.683-1.201,2.76v7.134c0,1.077-.383,1.998-1.145,2.76-.764.763-1.639,1.144-2.625,1.144h-37.152c-1.077,0-1.998-.381-2.76-1.144Z"/>
    <path class="st9" d="M733.603,425.048c-.809-.762-1.212-1.683-1.212-2.76v-67.037c0-.986-.383-1.884-1.145-2.692-.764-.808-1.683-1.211-2.759-1.211h-22.077c-1.076,0-1.998-.381-2.759-1.145-.764-.761-1.145-1.636-1.145-2.625v-7.269c0-.987.381-1.885,1.145-2.692.761-.808,1.683-1.211,2.759-1.211h67.037c.986,0,1.885.404,2.692,1.211s1.211,1.706,1.211,2.692v7.269c0,.989-.403,1.864-1.211,2.625-.808.764-1.706,1.145-2.692,1.145h-22.211c-.988,0-1.885.404-2.692,1.211s-1.212,1.706-1.212,2.692v67.037c0,1.077-.383,1.998-1.144,2.76-.764.763-1.683,1.144-2.76,1.144h-7.135c-.988,0-1.884-.381-2.691-1.144h0Z"/>
    <path class="st9" d="M507.591,541.665c-.808-.761-1.211-1.683-1.211-2.759v-7.135c0-1.077-.383-1.996-1.144-2.76-.764-.761-1.683-1.144-2.76-1.144h-7.134c-1.077,0-1.998-.381-2.76-1.145-.763-.762-1.144-1.683-1.144-2.76v-52.095c0-.986.381-1.884,1.144-2.692.762-.808,1.683-1.211,2.76-1.211h7.134c1.077,0,1.996-.381,2.76-1.145s1.144-1.636,1.144-2.625v-7.269c0-.987.404-1.885,1.211-2.692s1.704-1.211,2.692-1.211h37.152c.986,0,1.885.404,2.693,1.211.807.808,1.211,1.706,1.211,2.692v7.269c0,.989.381,1.864,1.145,2.625.762.764,1.635,1.145,2.625,1.145h7.268c.986,0,1.885.404,2.693,1.211.807.808,1.211,1.706,1.211,2.692v52.095c0,1.077-.404,1.998-1.211,2.76-.809.764-1.707,1.145-2.693,1.145h-7.268c-.99,0-1.863.383-2.625,1.144-.764.764-1.145,1.683-1.145,2.76v7.135c0,1.076-.404,1.998-1.211,2.759-.809.764-1.707,1.145-2.693,1.145h-37.152c-.989,0-1.885-.381-2.692-1.145ZM547.436,527.868c.986,0,1.885-.381,2.693-1.145.807-.762,1.211-1.683,1.211-2.76v-52.095c0-.986-.404-1.884-1.211-2.692-.809-.808-1.707-1.211-2.693-1.211h-37.152c-.989,0-1.885.404-2.692,1.211s-1.211,1.706-1.211,2.692v52.095c0,1.077.404,1.998,1.211,2.76.808.764,1.704,1.145,2.692,1.145h37.152Z"/>
    <path class="st9" d="M605.588,541.665c-.809-.761-1.212-1.683-1.212-2.759v-22.077c0-1.077-.383-1.996-1.145-2.76-.764-.761-1.683-1.144-2.759-1.144h-7.135c-1.077,0-1.998-.404-2.76-1.211-.764-.808-1.145-1.704-1.145-2.692v-37.153c0-.986-.383-1.884-1.144-2.692-.764-.808-1.683-1.211-2.76-1.211h-7.135c-1.076,0-1.998-.381-2.759-1.145-.764-.761-1.145-1.636-1.145-2.625v-7.269c0-.987.381-1.885,1.145-2.692.761-.808,1.683-1.211,2.759-1.211h22.077c1.076,0,1.995.404,2.759,1.211.762.808,1.145,1.706,1.145,2.692v52.094c0,.989.403,1.885,1.212,2.692.808.808,1.703,1.211,2.691,1.211h7.135c1.077,0,1.996-.404,2.76-1.211.761-.808,1.144-1.704,1.144-2.692v-52.094c0-.987.404-1.885,1.212-2.692s1.704-1.211,2.692-1.211h22.211c.986,0,1.885.404,2.692,1.211s1.211,1.706,1.211,2.692v7.269c0,.989-.403,1.864-1.211,2.625-.808.764-1.706,1.145-2.692,1.145h-7.27c-.988,0-1.885.404-2.692,1.211s-1.211,1.706-1.211,2.692v37.153c0,.989-.383,1.885-1.145,2.692-.764.808-1.639,1.211-2.625,1.211h-7.269c-.988,0-1.885.383-2.692,1.144-.808.764-1.212,1.683-1.212,2.76v22.077c0,1.076-.383,1.998-1.144,2.759s-1.683,1.145-2.76,1.145h-7.135c-.988,0-1.884-.381-2.691-1.145h.003Z"/>
    <path class="st9" d="M658.691,541.665c-.764-.761-1.145-1.683-1.145-2.759v-81.979c0-.987.381-1.885,1.145-2.692.762-.808,1.683-1.211,2.76-1.211h52.095c.986,0,1.885.404,2.692,1.211s1.211,1.706,1.211,2.692v7.269c0,.989-.403,1.864-1.211,2.625-.808.764-1.706,1.145-2.692,1.145h-37.153c-.988,0-1.884.404-2.691,1.211-.809.808-1.212,1.706-1.212,2.692v7.269c0,.989.403,1.885,1.212,2.692.808.808,1.703,1.211,2.691,1.211h22.211c.986,0,1.861.383,2.625,1.145.762.763,1.145,1.638,1.145,2.625v7.269c0,.989-.383,1.885-1.145,2.692-.764.808-1.639,1.211-2.625,1.211h-22.211c-.988,0-1.884.383-2.691,1.145-.809.763-1.212,1.683-1.212,2.759v22.076c0,1.077.403,1.998,1.212,2.76.808.764,1.703,1.145,2.691,1.145h37.153c.986,0,1.885.383,2.692,1.144.808.764,1.211,1.683,1.211,2.76v7.135c0,1.076-.403,1.998-1.211,2.759-.808.764-1.706,1.145-2.692,1.145h-52.095c-1.077,0-1.998-.381-2.76-1.145h0Z"/>
    <path class="st9" d="M741.746,541.665c-.764-.761-1.145-1.683-1.145-2.759v-81.979c0-.987.381-1.885,1.143-2.692s1.679-1.211,2.753-1.211h51.978c.984,0,1.88.404,2.686,1.211s1.209,1.706,1.209,2.692l.135,7.269c0,.989.377,1.864,1.134,2.625.755.764,1.622,1.145,2.602,1.145h7.204c.976,0,1.865.404,2.667,1.207.799.804,1.201,1.697,1.201,2.68v22.11c0,.984-.404,1.878-1.212,2.682-.808.804-1.705,1.206-2.692,1.206h-7.269c-.988,0-1.863.385-2.625,1.15-.764.766-1.145,1.689-1.145,2.77v22.177c0,1.081.381,2.006,1.145,2.772.762.766,1.637,1.149,2.625,1.149h7.269c.987,0,1.885.383,2.692,1.144.808.764,1.212,1.683,1.212,2.76v7.135c0,1.076-.404,1.998-1.212,2.759-.808.764-1.705,1.145-2.692,1.145h-7.269c-.988,0-1.863-.381-2.625-1.145-.764-.761-1.145-1.683-1.145-2.759l.135-7.135c0-1.077-.403-1.996-1.211-2.76-.808-.761-1.706-1.144-2.692-1.144h-7.27c-.988,0-1.885-.386-2.692-1.155s-1.211-1.697-1.211-2.785v-7.197c0-1.085-.383-2.015-1.145-2.785-.764-.77-1.639-1.155-2.625-1.155h-22.211c-.988,0-1.884.385-2.691,1.151-.809.766-1.212,1.689-1.212,2.77v22.177c0,1.081-.383,2.007-1.145,2.772-.764.766-1.683,1.148-2.759,1.148h-7.135c-1.077,0-1.998-.381-2.76-1.145h0ZM796.479,497.85c.982,0,1.876-.402,2.682-1.206.806-.803,1.209-1.697,1.209-2.682v-22.11c0-.982-.403-1.876-1.209-2.68-.806-.803-1.699-1.207-2.682-1.207h-37.044c-.984,0-1.878.404-2.684,1.207-.806.804-1.207,1.697-1.207,2.68v22.11c0,.984.401,1.878,1.207,2.682.806.804,1.699,1.206,2.684,1.206h37.044Z"/>
    <path class="st9" d="M839.743,541.665c-.764-.761-1.145-1.683-1.145-2.759v-67.037c0-.986.381-1.884,1.145-2.692.762-.808,1.683-1.211,2.76-1.211h7.135c1.076,0,1.995-.381,2.759-1.145.762-.761,1.145-1.636,1.145-2.625v-7.269c0-.987.403-1.885,1.212-2.692.808-.808,1.703-1.211,2.691-1.211h37.153c.986,0,1.885.404,2.692,1.211s1.211,1.706,1.211,2.692v7.269c0,.989.381,1.864,1.145,2.625.762.764,1.636,1.145,2.625,1.145h7.269c.986,0,1.885.404,2.692,1.211s1.212,1.706,1.212,2.692v67.037c0,1.076-.404,1.998-1.212,2.759-.808.764-1.706,1.145-2.692,1.145h-7.269c-.989,0-1.863-.381-2.625-1.145-.764-.761-1.145-1.683-1.145-2.759v-22.077c0-1.077-.403-1.996-1.211-2.76-.808-.761-1.706-1.144-2.692-1.144h-37.153c-.988,0-1.884.383-2.691,1.144-.809.764-1.212,1.683-1.212,2.76v22.077c0,1.076-.383,1.998-1.145,2.759-.764.764-1.683,1.145-2.759,1.145h-7.135c-1.077,0-1.998-.381-2.76-1.145ZM894.598,497.984c.986,0,1.885-.404,2.692-1.211s1.211-1.704,1.211-2.692v-22.211c0-.986-.403-1.884-1.211-2.692s-1.706-1.211-2.692-1.211h-37.153c-.988,0-1.884.404-2.691,1.211-.809.808-1.212,1.706-1.212,2.692v22.211c0,.989.403,1.885,1.212,2.692.808.808,1.703,1.211,2.691,1.211h37.153Z"/>
    <path class="st9" d="M937.74,541.665c-.764-.761-1.145-1.683-1.145-2.759v-81.979c0-.987.381-1.885,1.145-2.692.762-.808,1.683-1.211,2.76-1.211h7.135c1.076,0,1.995.404,2.759,1.211.762.808,1.145,1.706,1.145,2.692v67.036c0,1.077.403,1.998,1.212,2.76.808.764,1.703,1.145,2.691,1.145h37.153c.986,0,1.885.383,2.692,1.144.808.764,1.211,1.683,1.211,2.76v7.135c0,1.076-.403,1.998-1.211,2.759-.808.764-1.706,1.145-2.692,1.145h-52.095c-1.077,0-1.998-.381-2.76-1.145h0Z"/>
    <path class="st9" d="M1005.854,541.665c-.764-.761-1.145-1.683-1.145-2.759v-81.979c0-.987.381-1.885,1.145-2.692.762-.808,1.683-1.211,2.76-1.211h7.135c1.076,0,1.995.404,2.759,1.211.762.808,1.145,1.706,1.145,2.692v67.036c0,1.077.403,1.998,1.212,2.76.808.764,1.703,1.145,2.691,1.145h37.153c.986,0,1.885.383,2.692,1.144.808.764,1.211,1.683,1.211,2.76v7.135c0,1.076-.403,1.998-1.211,2.759-.808.764-1.706,1.145-2.692,1.145h-52.095c-1.077,0-1.998-.381-2.76-1.145h0Z"/>
  </g>
  <g>
    <path class="st10" d="M451.054,425.048c-.763-.762-1.144-1.683-1.144-2.76v-81.978c0-.987.381-1.885,1.144-2.692.762-.808,1.683-1.211,2.76-1.211h52.095c.986,0,1.884.404,2.692,1.211s1.211,1.706,1.211,2.692v7.269c0,.989.381,1.864,1.145,2.625.761.764,1.636,1.145,2.625,1.145h7.269c.987,0,1.885.401,2.692,1.201.808.801,1.211,1.691,1.211,2.667v7.206c0,.978-.404,1.868-1.211,2.667-.808.801-1.706,1.201-2.692,1.201h-7.269c-.989,0-1.864.385-2.625,1.154-.764.77-1.145,1.653-1.145,2.648v7.334c0,.997.381,1.903,1.145,2.718.761.816,1.636,1.222,2.625,1.222h7.269c.987,0,1.885.383,2.692,1.145.808.763,1.211,1.683,1.211,2.759v22.076c0,1.077-.404,1.998-1.211,2.76-.808.763-1.706,1.144-2.692,1.144h-7.269c-.989,0-1.864.383-2.625,1.144s-1.145,1.683-1.145,2.76v7.134c0,1.077-.404,1.998-1.211,2.76-.808.763-1.706,1.144-2.692,1.144h-52.095c-1.077,0-1.998-.381-2.76-1.144h0ZM505.908,366.291c.986,0,1.884-.4,2.692-1.201.808-.799,1.211-1.689,1.211-2.667v-7.206c0-.976-.404-1.866-1.211-2.667-.808-.799-1.706-1.201-2.692-1.201h-37.153c-.989,0-1.885.401-2.692,1.201-.808.801-1.211,1.691-1.211,2.667v7.206c0,.978.404,1.868,1.211,2.667.808.801,1.704,1.201,2.692,1.201h37.153ZM505.908,411.251c.986,0,1.884-.381,2.692-1.144.808-.762,1.211-1.683,1.211-2.76v-22.076c0-1.077-.404-1.996-1.211-2.759-.808-.762-1.706-1.145-2.692-1.145h-37.153c-.989,0-1.885.383-2.692,1.145-.808.763-1.211,1.683-1.211,2.759v22.076c0,1.077.404,1.998,1.211,2.76.808.763,1.704,1.144,2.692,1.144h37.153Z"/>
    <path class="st10" d="M549.051,425.048c-.764-.762-1.144-1.683-1.144-2.76v-81.978c0-.987.38-1.885,1.144-2.692.762-.808,1.683-1.211,2.76-1.211h52.095c.986,0,1.885.404,2.692,1.211s1.211,1.706,1.211,2.692v7.269c0,.989-.403,1.864-1.211,2.625-.808.764-1.706,1.145-2.692,1.145h-37.153c-.988,0-1.884.404-2.691,1.211-.809.808-1.212,1.706-1.212,2.692v7.269c0,.989.403,1.885,1.212,2.692.808.808,1.703,1.211,2.691,1.211h22.211c.986,0,1.861.383,2.625,1.145.762.763,1.145,1.638,1.145,2.625v7.269c0,.989-.383,1.885-1.145,2.692-.764.808-1.639,1.211-2.625,1.211h-22.211c-.988,0-1.884.383-2.691,1.145-.809.763-1.212,1.683-1.212,2.759v22.076c0,1.077.403,1.998,1.212,2.76.808.763,1.703,1.144,2.691,1.144h37.153c.986,0,1.885.383,2.692,1.144.808.764,1.211,1.683,1.211,2.76v7.134c0,1.077-.403,1.998-1.211,2.76-.808.763-1.706,1.144-2.692,1.144h-52.095c-1.077,0-1.998-.381-2.76-1.144h0Z"/>
    <path class="st10" d="M632.104,425.048c-.764-.762-1.145-1.683-1.145-2.76v-7.134c0-1.077.381-1.996,1.145-2.76.762-.761,1.683-1.144,2.76-1.144h37.152c.986,0,1.861-.381,2.625-1.144.762-.762,1.145-1.683,1.145-2.76v-7.134c0-1.077-.383-1.996-1.145-2.76-.764-.761-1.639-1.144-2.625-1.144h-7.269c-.988,0-1.885-.404-2.692-1.211s-1.212-1.704-1.212-2.692v-7.134c0-1.077-.383-1.996-1.144-2.759-.764-.762-1.683-1.145-2.76-1.145h-7.135c-.988,0-1.884-.406-2.691-1.222-.809-.814-1.212-1.721-1.212-2.718v-7.334c0-.995-.383-1.878-1.145-2.648-.764-.77-1.683-1.154-2.759-1.154h-7.135c-1.077,0-1.998-.4-2.76-1.201-.764-.799-1.145-1.689-1.145-2.667v-7.206c0-.976.381-1.866,1.145-2.667.762-.799,1.683-1.201,2.76-1.201h7.135c1.076,0,1.995-.381,2.759-1.145.762-.761,1.145-1.636,1.145-2.625v-7.269c0-.987.401-1.885,1.207-2.692s1.699-1.211,2.684-1.211h37.044c.982,0,1.876.404,2.682,1.211s1.209,1.706,1.209,2.692v7.269c0,.989-.403,1.864-1.209,2.625-.806.764-1.699,1.145-2.682,1.145h-37.044c-.984,0-1.878.401-2.684,1.201-.806.801-1.207,1.691-1.207,2.667v7.206c0,.978.403,1.868,1.212,2.667.808.801,1.703,1.201,2.691,1.201h7.135c1.077,0,1.996.385,2.76,1.154.761.77,1.144,1.653,1.144,2.648v7.334c0,.997.404,1.903,1.212,2.718.808.816,1.704,1.222,2.692,1.222h7.269c.986,0,1.861.383,2.625,1.145.762.763,1.145,1.683,1.145,2.759v7.134c0,.989.399,1.885,1.201,2.692.799.808,1.688,1.211,2.667,1.211h7.206c.976,0,1.865.383,2.667,1.144.799.764,1.2,1.683,1.2,2.76v7.134c0,1.077-.401,1.998-1.2,2.76-.802.763-1.691,1.144-2.667,1.144h-7.206c-.979,0-1.868.383-2.667,1.144-.802.764-1.201,1.683-1.201,2.76v7.134c0,1.077-.383,1.998-1.145,2.76-.764.763-1.639,1.144-2.625,1.144h-37.152c-1.077,0-1.998-.381-2.76-1.144Z"/>
    <path class="st10" d="M730.169,425.048c-.809-.762-1.212-1.683-1.212-2.76v-67.037c0-.986-.383-1.884-1.145-2.692-.764-.808-1.683-1.211-2.759-1.211h-22.077c-1.076,0-1.998-.381-2.759-1.145-.764-.761-1.145-1.636-1.145-2.625v-7.269c0-.987.381-1.885,1.145-2.692.761-.808,1.683-1.211,2.759-1.211h67.037c.986,0,1.885.404,2.692,1.211s1.211,1.706,1.211,2.692v7.269c0,.989-.403,1.864-1.211,2.625-.808.764-1.706,1.145-2.692,1.145h-22.211c-.988,0-1.885.404-2.692,1.211s-1.212,1.706-1.212,2.692v67.037c0,1.077-.383,1.998-1.144,2.76-.764.763-1.683,1.144-2.76,1.144h-7.135c-.988,0-1.884-.381-2.691-1.144h0Z"/>
    <path class="st10" d="M504.158,541.665c-.808-.761-1.211-1.683-1.211-2.759v-7.135c0-1.077-.383-1.996-1.144-2.76-.764-.761-1.683-1.144-2.76-1.144h-7.134c-1.077,0-1.998-.381-2.76-1.144-.763-.762-1.144-1.683-1.144-2.76v-52.095c0-.986.381-1.884,1.144-2.692.762-.808,1.683-1.211,2.76-1.211h7.134c1.077,0,1.996-.381,2.76-1.145s1.144-1.636,1.144-2.625v-7.269c0-.987.404-1.885,1.211-2.692s1.704-1.211,2.692-1.211h37.153c.986,0,1.885.404,2.692,1.211s1.211,1.706,1.211,2.692v7.269c0,.989.381,1.864,1.145,2.625.762.764,1.637,1.145,2.625,1.145h7.27c.986,0,1.885.404,2.691,1.211.809.808,1.213,1.706,1.213,2.692v52.095c0,1.077-.404,1.998-1.213,2.76-.807.763-1.705,1.144-2.691,1.144h-7.27c-.988,0-1.863.383-2.625,1.144-.764.764-1.145,1.683-1.145,2.76v7.135c0,1.076-.403,1.998-1.211,2.759-.808.764-1.706,1.145-2.692,1.145h-37.153c-.989,0-1.885-.381-2.692-1.145h0ZM544.002,527.868c.986,0,1.885-.381,2.692-1.144.808-.762,1.211-1.683,1.211-2.76v-52.095c0-.986-.403-1.884-1.211-2.692s-1.706-1.211-2.692-1.211h-37.153c-.989,0-1.885.404-2.692,1.211s-1.211,1.706-1.211,2.692v52.095c0,1.077.404,1.998,1.211,2.76.808.763,1.704,1.144,2.692,1.144h37.153Z"/>
    <path class="st10" d="M602.155,541.665c-.809-.761-1.212-1.683-1.212-2.759v-22.077c0-1.077-.383-1.996-1.145-2.76-.764-.761-1.683-1.144-2.759-1.144h-7.135c-1.077,0-1.998-.404-2.76-1.211-.764-.808-1.145-1.704-1.145-2.692v-37.153c0-.986-.383-1.884-1.144-2.692-.764-.808-1.683-1.211-2.76-1.211h-7.135c-1.076,0-1.998-.381-2.759-1.145-.764-.761-1.145-1.636-1.145-2.625v-7.269c0-.987.381-1.885,1.145-2.692.761-.808,1.683-1.211,2.759-1.211h22.077c1.076,0,1.995.404,2.759,1.211.762.808,1.145,1.706,1.145,2.692v52.094c0,.989.403,1.885,1.212,2.692.808.808,1.703,1.211,2.691,1.211h7.135c1.077,0,1.996-.404,2.76-1.211.761-.808,1.144-1.704,1.144-2.692v-52.094c0-.987.404-1.885,1.212-2.692s1.704-1.211,2.692-1.211h22.211c.986,0,1.885.404,2.692,1.211s1.211,1.706,1.211,2.692v7.269c0,.989-.403,1.864-1.211,2.625-.808.764-1.706,1.145-2.692,1.145h-7.27c-.988,0-1.885.404-2.692,1.211s-1.211,1.706-1.211,2.692v37.153c0,.989-.383,1.885-1.145,2.692-.764.808-1.639,1.211-2.625,1.211h-7.269c-.988,0-1.885.383-2.692,1.144-.808.764-1.212,1.683-1.212,2.76v22.077c0,1.076-.383,1.998-1.144,2.759s-1.683,1.145-2.76,1.145h-7.135c-.988,0-1.884-.381-2.691-1.145h.003Z"/>
    <path class="st10" d="M655.259,541.665c-.764-.761-1.145-1.683-1.145-2.759v-81.979c0-.987.381-1.885,1.145-2.692.762-.808,1.683-1.211,2.76-1.211h52.095c.986,0,1.885.404,2.692,1.211s1.211,1.706,1.211,2.692v7.269c0,.989-.403,1.864-1.211,2.625-.808.764-1.706,1.145-2.692,1.145h-37.153c-.988,0-1.884.404-2.691,1.211-.809.808-1.212,1.706-1.212,2.692v7.269c0,.989.403,1.885,1.212,2.692.808.808,1.703,1.211,2.691,1.211h22.211c.986,0,1.861.383,2.625,1.145.762.763,1.145,1.638,1.145,2.625v7.269c0,.989-.383,1.885-1.145,2.692-.764.808-1.639,1.211-2.625,1.211h-22.211c-.988,0-1.884.383-2.691,1.145-.809.763-1.212,1.683-1.212,2.759v22.076c0,1.077.403,1.998,1.212,2.76.808.763,1.703,1.144,2.691,1.144h37.153c.986,0,1.885.383,2.692,1.144.808.764,1.211,1.683,1.211,2.76v7.135c0,1.076-.403,1.998-1.211,2.759-.808.764-1.706,1.145-2.692,1.145h-52.095c-1.077,0-1.998-.381-2.76-1.145h0Z"/>
    <path class="st10" d="M738.312,541.665c-.764-.761-1.145-1.683-1.145-2.759v-81.979c0-.987.381-1.885,1.143-2.692s1.679-1.211,2.753-1.211h51.978c.984,0,1.88.404,2.686,1.211s1.209,1.706,1.209,2.692l.135,7.269c0,.989.377,1.864,1.134,2.625.755.764,1.622,1.145,2.602,1.145h7.204c.976,0,1.865.404,2.667,1.207.799.804,1.201,1.697,1.201,2.68v22.11c0,.984-.404,1.878-1.212,2.682-.808.804-1.705,1.206-2.692,1.206h-7.269c-.988,0-1.863.385-2.625,1.15-.764.766-1.145,1.689-1.145,2.77v22.177c0,1.081.381,2.006,1.145,2.772.762.766,1.637,1.148,2.625,1.148h7.269c.987,0,1.885.383,2.692,1.144.808.764,1.212,1.683,1.212,2.76v7.135c0,1.076-.404,1.998-1.212,2.759-.808.764-1.705,1.145-2.692,1.145h-7.269c-.988,0-1.863-.381-2.625-1.145-.764-.761-1.145-1.683-1.145-2.759l.135-7.135c0-1.077-.403-1.996-1.211-2.76-.808-.761-1.706-1.144-2.692-1.144h-7.27c-.988,0-1.885-.385-2.692-1.155-.808-.77-1.211-1.697-1.211-2.785v-7.197c0-1.085-.383-2.015-1.145-2.785-.764-.77-1.639-1.155-2.625-1.155h-22.211c-.988,0-1.884.385-2.691,1.151-.809.766-1.212,1.689-1.212,2.77v22.177c0,1.081-.383,2.007-1.145,2.772-.764.766-1.683,1.148-2.759,1.148h-7.135c-1.077,0-1.998-.381-2.76-1.145h0ZM793.046,497.85c.982,0,1.876-.402,2.682-1.206.806-.803,1.209-1.697,1.209-2.682v-22.11c0-.982-.403-1.876-1.209-2.68-.806-.803-1.699-1.207-2.682-1.207h-37.044c-.984,0-1.878.404-2.684,1.207-.806.804-1.207,1.697-1.207,2.68v22.11c0,.984.401,1.878,1.207,2.682.806.804,1.699,1.206,2.684,1.206h37.044Z"/>
    <path class="st10" d="M836.309,541.665c-.764-.761-1.145-1.683-1.145-2.759v-67.037c0-.986.381-1.884,1.145-2.692.762-.808,1.683-1.211,2.76-1.211h7.135c1.076,0,1.995-.381,2.759-1.145.762-.761,1.145-1.636,1.145-2.625v-7.269c0-.987.403-1.885,1.212-2.692.808-.808,1.703-1.211,2.691-1.211h37.153c.986,0,1.885.404,2.692,1.211s1.211,1.706,1.211,2.692v7.269c0,.989.381,1.864,1.145,2.625.762.764,1.636,1.145,2.625,1.145h7.269c.986,0,1.885.404,2.692,1.211s1.212,1.706,1.212,2.692v67.037c0,1.076-.404,1.998-1.212,2.759-.808.764-1.706,1.145-2.692,1.145h-7.269c-.989,0-1.863-.381-2.625-1.145-.764-.761-1.145-1.683-1.145-2.759v-22.077c0-1.077-.403-1.996-1.211-2.76-.808-.761-1.706-1.144-2.692-1.144h-37.153c-.988,0-1.884.383-2.691,1.144-.809.764-1.212,1.683-1.212,2.76v22.077c0,1.076-.383,1.998-1.145,2.759-.764.764-1.683,1.145-2.759,1.145h-7.135c-1.077,0-1.998-.381-2.76-1.145ZM891.165,497.984c.986,0,1.885-.404,2.692-1.211s1.211-1.704,1.211-2.692v-22.211c0-.986-.403-1.884-1.211-2.692s-1.706-1.211-2.692-1.211h-37.153c-.988,0-1.884.404-2.691,1.211-.809.808-1.212,1.706-1.212,2.692v22.211c0,.989.403,1.885,1.212,2.692.808.808,1.703,1.211,2.691,1.211h37.153Z"/>
    <path class="st10" d="M934.307,541.665c-.764-.761-1.145-1.683-1.145-2.759v-81.979c0-.987.381-1.885,1.145-2.692.762-.808,1.683-1.211,2.76-1.211h7.135c1.076,0,1.995.404,2.759,1.211.762.808,1.145,1.706,1.145,2.692v67.036c0,1.077.403,1.998,1.212,2.76.808.763,1.703,1.144,2.691,1.144h37.153c.986,0,1.885.383,2.692,1.144.808.764,1.211,1.683,1.211,2.76v7.135c0,1.076-.403,1.998-1.211,2.759-.808.764-1.706,1.145-2.692,1.145h-52.095c-1.077,0-1.998-.381-2.76-1.145h0Z"/>
    <path class="st10" d="M1002.421,541.665c-.764-.761-1.145-1.683-1.145-2.759v-81.979c0-.987.381-1.885,1.145-2.692.762-.808,1.683-1.211,2.76-1.211h7.135c1.076,0,1.995.404,2.759,1.211.762.808,1.145,1.706,1.145,2.692v67.036c0,1.077.403,1.998,1.212,2.76.808.763,1.703,1.144,2.691,1.144h37.153c.986,0,1.885.383,2.692,1.144.808.764,1.211,1.683,1.211,2.76v7.135c0,1.076-.403,1.998-1.211,2.759-.808.764-1.706,1.145-2.692,1.145h-52.095c-1.077,0-1.998-.381-2.76-1.145h0Z"/>
  </g>
  <g>
    <ellipse class="st79" cx="372.139" cy="716.587" rx="6.041" ry="10.67"/>
    <path class="st29" d="M372.139,728.757c-4.229,0-7.541-5.346-7.541-12.169s3.312-12.17,7.541-12.17,7.541,5.346,7.541,12.17-3.312,12.169-7.541,12.169ZM372.139,707.418c-2.148,0-4.541,3.766-4.541,9.17s2.393,9.169,4.541,9.169,4.541-3.766,4.541-9.169-2.393-9.17-4.541-9.17Z"/>
  </g>
  <g>
    <ellipse class="st79" cx="409.116" cy="704.313" rx="5.548" ry="10.802"/>
    <path class="st29" d="M409.116,716.615c-4.018,0-7.048-5.289-7.048-12.303s3.03-12.302,7.048-12.302,7.047,5.289,7.047,12.302-3.03,12.303-7.047,12.303ZM409.116,695.011c-1.911,0-4.048,3.978-4.048,9.302s2.137,9.303,4.048,9.303,4.047-3.979,4.047-9.303-2.137-9.302-4.047-9.302Z"/>
  </g>
  <g class="st100">
    <path class="st91" d="M387.534,731.211c-3.278-9.885.048-29.461,4.222-29.584s3.395,13.771,9.698,18.781c5.176,4.114,11.672,1.352,13.21,4.419,1.761,3.509-4.618,9.323-11.737,18.413-4.433,5.661-14.885-10.5-15.393-12.03h0Z"/>
  </g>
  <g class="st100">
    <ellipse class="st91" cx="373.342" cy="714.639" rx="3.069" ry="6.752"/>
  </g>
  <g class="st100">
    <ellipse class="st91" cx="410.046" cy="703.099" rx="3.069" ry="7.366"/>
  </g>
</svg>