<?xml version="1.0" encoding="UTF-8"?>
<svg xmlns="http://www.w3.org/2000/svg" version="1.1" xmlns:xlink="http://www.w3.org/1999/xlink" viewBox="0 0 1080 1080">
  <!-- Generator: Adobe Illustrator 29.3.0, SVG Export Plug-In . SVG Version: 2.1.0 Build 146)  -->
  <defs>
    <style>
      .st0 {
        fill: #d85fbc;
      }

      .st0, .st1, .st2, .st3, .st4, .st5, .st6, .st7, .st8, .st9, .st10, .st11, .st12, .st13, .st14, .st15, .st16, .st17, .st18, .st19, .st20, .st21, .st22, .st23, .st24, .st25, .st26, .st27, .st28, .st29, .st30, .st31, .st32, .st33, .st34, .st35 {
        stroke: #000;
        stroke-miterlimit: 10;
      }

      .st1 {
        fill: #ff84cc;
      }

      .st2, .st36, .st27, .st31 {
        fill: none;
      }

      .st3 {
        fill: #e55ab3;
      }

      .st37, .st7 {
        fill: #898989;
      }

      .st4 {
        fill: #80feff;
      }

      .st5 {
        fill: #e2ee72;
      }

      .st6 {
        fill: #beddef;
      }

      .st8 {
        fill: #7067b9;
      }

      .st8, .st27 {
        stroke-width: 3px;
      }

      .st9 {
        fill: #948fff;
      }

      .st10 {
        fill: #fcff6e;
      }

      .st11, .st17 {
        fill: #fff;
      }

      .st12 {
        fill: #1d3ab0;
      }

      .st14 {
        fill: url(#radial-gradient);
      }

      .st15 {
        fill: #ccc;
      }

      .st16 {
        fill: #d04064;
      }

      .st17, .st31 {
        stroke-width: 5px;
      }

      .st18 {
        fill: #efdbff;
      }

      .st19 {
        fill: #b8a9ff;
      }

      .st20 {
        fill: #fffbf4;
      }

      .st21 {
        fill: #151a80;
      }

      .st22 {
        fill: #8870ff;
      }

      .st23 {
        fill: #a4a4a4;
      }

      .st24 {
        fill: #a5e873;
      }

      .st25 {
        fill: #ffdbff;
      }

      .st26 {
        fill: #dc70ff;
      }

      .st28 {
        fill: #cfeef3;
      }

      .st29 {
        fill: #e6a8f3;
      }

      .st30 {
        fill: #f0f;
      }

      .st32 {
        fill: #fffd94;
      }

      .st33 {
        fill: #ff94f1;
      }

      .st34 {
        fill: #ffac4d;
      }

      .st35 {
        fill: #4d4d4d;
      }
    </style>
    <radialGradient id="radial-gradient" cx="536.179" cy="553.342" fx="536.179" fy="553.342" r="405.495" gradientUnits="userSpaceOnUse">
      <stop offset="0" stop-color="#fff"/>
      <stop offset="1" stop-color="#cc72e7"/>
    </radialGradient>
  </defs>
  <g id="Layer_2">
    <g id="Layer_3">
      <polygon class="st9" points="12.746 628.872 240.114 668.293 293.167 591.008 418.64 646.859 444.746 566.84 288.114 453.978 228.746 549.564 163.061 539.451 12.746 628.872"/>
      <polygon class="st9" points="483.817 433.191 517.151 394.147 428.48 354.596 540.384 111.999 592.669 239.696 540.321 313.364 614.457 375.516 518.236 465.988 483.817 433.191"/>
      <polygon class="st9" points="895.415 889.926 843.801 820.231 799.817 851.774 709.043 715.361 798.9 794.754 860.068 753.152 895.415 889.926"/>
      <polygon class="st14" points="254.684 317 338.704 557.883 110.105 670.328 319.741 771.601 346.512 937.155 590.406 793.289 776.626 937.155 762.216 751.476 953.329 749.913 736.029 595.322 962.253 368.438 776.626 398.199 805.083 169.529 501.052 410.357 254.684 317"/>
      <path class="st21" d="M772.256,498.749c3.398-7.826,7.716-21.059,5.474-36.632-1.041-7.229-4.928-24.906-34.105-50.526-52.121-45.766-112.164-52.967-138.105-49.263-5.96.851-18.294,2.612-29.895,11.789-7.474,5.913-11.87,12.711-14.316,17.263l210.947,107.368Z"/>
      <polygon class="st11" points="401.308 541.704 430.466 492.492 762.572 701.614 735.414 757.065 401.308 541.704"/>
      <path class="st19" d="M811.677,486.539c-8.618-5.169-23.35-8.187-30.526-2.105,0,0-10.42,8.831-11.617,8.465-.041-.013-.081-.03-.081-.03-.24-.103-.437-.326-.587-.691-10.084-24.585-35.646-45.328-64.558-71.954-54.462-50.155-143.873-32.539-148.421-31.579-72.834,15.375-113.492,71.444-146.439,116.421-.579.79,57.544,40.421,57.544,40.421,0,0,.099,1.783-4.772,7.018-1.847,1.984-59.188-39.512-60.772-37.333-2.845,3.914-11.854,18.414-13.982,21.895-22.951,37.528-58.959,96.408-58.947,158.947.015,77.717,50.337,151.081,112.579,186.737,15.388,8.815,95.887,49.358,176.895,20.632,56.656-20.091,97.239-99.708,129.421-150.316,8.377-13.173-40.664-31.653-53.636-42.511-4.814-4.03-3.417-3.489,2.793-6.331,3.886-1.778,64.743,29.089,66.211,25.053,12.72-34.974,26.802-82.894,29.947-121.684,3.158-38.947-4.899-43.584,8.368-56.421,10.521-10.18,15.609-6.229,24.263-17.263,8.786-11.203,3.205-37.238-13.684-47.368ZM793.449,507.539c-1.682.991-2.119-1.029-2.269-.017-.447,3.02-1.576.234-1.589.222-.128.031-.256.06-.382.098-.068.037.843,1.126.732,1.185-2.435,1.382-6.344-.541-7.827-2.841-1.451-2.25-.482-5.549,1.794-6.841,3.077-1.747,6.18-1.461,9.541-1.805,2.786-.285,4.889,2.519,5,5,.13,2.891-2.754,3.678-5,5Z"/>
      <polygon class="st11" points="415.624 668.433 540.256 467.854 737.729 578.998 620.256 781.624 415.624 668.433"/>
      <polygon class="st21" points="389.519 682.749 436.677 620.854 448.045 625.065 454.361 630.539 436.256 660.854 608.887 762.749 715.835 579.17 550.361 480.223 463.203 617.065 438.361 609.065 455.203 594.328 460.256 549.275 511.624 496.223 533.098 448.644 613.098 486.539 647.624 486.117 669.828 514.935 760.045 574.117 714.993 647.696 716.256 699.591 669.519 740.433 633.308 815.802 389.519 682.749"/>
      <ellipse class="st11" cx="407.414" cy="757.065" rx="32.211" ry="34.316"/>
      <ellipse class="st11" cx="478.256" cy="802.644" rx="30" ry="31.474"/>
      <ellipse class="st11" cx="564.256" cy="838.381" rx="37.053" ry="33.421"/>
      <ellipse class="st15" cx="407.414" cy="757.065" rx="23.053" ry="24.559"/>
      <ellipse class="st15" cx="478.256" cy="802.644" rx="20.082" ry="21.395"/>
      <ellipse class="st15" cx="564.256" cy="838.381" rx="24.559" ry="23.053" transform="translate(-112.353 87.736) rotate(-8.089)"/>
      <polyline class="st27" points="725.732 782.042 729.86 752.756 679.266 740.258 663.283 783.937 698.551 792.909 709.489 773.202 687.556 762.549 688.355 774.126"/>
      <polygon class="st8" points="788.24 644.386 770.572 654.117 750.361 636.433 760.045 663.381 745.73 687.802 768.045 669.275 773.936 704.223 788.24 644.386"/>
      <polygon class="st8" points="371.316 569.901 373.098 582.539 407.414 576.22 387.724 601.065 401.73 621.696 371.414 612.433 358.361 636.433 355.835 608.223 349.421 613.842 371.316 569.901"/>
      <polyline class="st27" points="483.257 477.817 487.031 467.252 464.385 457.436 455.799 477.817 493.825 495.934 517.98 457.436 486.889 421.958"/>
      <polygon class="st8" points="716.677 491.17 696.045 491.17 716.677 506.216 721.308 529.907 725.519 503.381 748.677 498.749 726.361 488.644 722.361 465.486 716.677 491.17"/>
      <polygon class="st18" points="223.423 607.916 261.052 586.066 298.106 596.991 288.651 569.284 311.65 545.934 275.619 538.637 256.453 507.261 241.631 544.475 209.432 549.582 230.387 575.851 223.423 607.916"/>
      <polygon class="st22" points="551.007 549.731 544.048 509.416 571.304 541.767 611.571 518.126 598.685 555.704 654.353 584.322 593.531 580.437 581.16 631.357 563.12 572.875 490.442 580.437 551.007 549.731"/>
      <path class="st6" d="M642.983,704.223c-5.007-6.425-20.423-32.147-18.437-59.538,2.157-29.749,23.836-66.043,52.421-65.684,19.966.251,34.315,18.271,38.526,24,2.83-4.533,8.053-6.519,12.211-5.053,5.633,1.987,7.092,9.53,5.474,13.895-1.75,4.721-7.408,6.547-6.947,7.579.545,1.222,7.826-2.807,11.368,0,2.958,2.345,3.249,9.411,0,12.632-4.614,4.573-12.886-2.059-19.579,2.526-4.896,3.355-2.27,8.139-6.947,14.526-7.714,10.534-23.008,8.656-23.368,13.263-.345,4.411,13.723,5.513,15.789,13.895,1.453,5.893-3.54,13.3-9.474,15.789-8.208,3.444-31.032-.439-36.632-12.684l-14.405,24.854Z"/>
      <polygon class="st26" points="488.416 606.157 474.942 556.473 533.328 583.982 555.223 564.333 555.223 592.684 577.258 604.754 527.995 606.157 515.083 654.017 506.792 617.385 465.679 631.076 488.416 606.157"/>
      <path class="st32" d="M548.517,749.812s37.895,17.053,41.053-10.105c1.438-12.366-13.771-43.283-44.211-61.895-32.708-19.999-74.94-22.39-82.105-9.474-3.987,7.187-1.895,26.526-1.895,26.526,0,0-10.04,5.422-16.421,12.632-8.795,9.936-11.312,28.021-4.421,33.474,6.449,5.103,21.837-.303,29.684-9.474,6.176-7.217,5.397-14.099,10.105-15.158,5.334-1.2,7.718,7.321,19.579,13.895,11.71,6.49,19.802,3.959,21.474,8.842,1.843,5.384-7.775,9.095-10.737,21.474-1.824,7.621-1.133,18.566,4.421,21.474,6.287,3.292,16.782-4.775,22.105-10.737,8.219-9.205,11.368-21.474,11.368-21.474Z"/>
      <polygon class="st5" points="455.299 477.911 484.825 506.644 491.761 510.89 529.042 491.366 515.716 444.809 455.299 477.911"/>
      <path class="st29" d="M478.598,445.055c-14.611,7.897-26.301,21.926-25.331,28.821,1.95,13.854,30.452,7.072,44.031-.952,13.704-8.097,23.716-15.169,18.417-28.117-2.853-6.971-23.243-7.252-37.118.247Z"/>
      <path class="st24" d="M541.537,548.728l-15.201-66.815s-11.542,13.241-16.033,16.522c-4.991,3.646-25.478,8.209-25.478,8.209l56.713,42.084Z"/>
      <path class="st1" d="M525.404,500.581c-1.845,2.652-8.702-1.464-12.266,1.853-2.693,2.506-2.332,8.164-.512,9.069,2.052,1.02,4.602-4.676,9.759-4.611,2.855.036,3.613,1.801,8.367,4.173,3.964,1.977,8.36,4.17,11.576,3.27,8.119-2.273,7.066-23.8,11.211-24.068,2.303-.149,2.551,6.503,7.546,11.197,7.258,6.822,21.275,6.441,30.57,1.656,16.961-8.731,18.083-32.061,18.404-38.746.237-4.929.827-23.047-12.154-38.94-2.792-3.419-20.738-25.387-44.166-19.677-17.991,4.385-30.731,23.025-29.815,37.96.873,14.226,13.97,22.386,9.469,32.236-2.876,6.293-10.477,7.895-10.557,14.559-.059,4.921,4.04,7.949,2.566,10.068Z"/>
      <path class="st20" d="M583.695,459.685c-3.243,8.476-12.394,12.851-20.44,9.772-8.046-3.079-11.939-12.445-8.696-20.92,3.243-8.476,12.394-12.851,20.44-9.772.399.153,1.533.548,2.845,1.453,5.285,3.649,8.703,12.016,5.852,19.467Z"/>
      <path class="st0" d="M577.843,440.218s-7.799,6.101-10.583,6.207c-2.56.098-7.315-5.223-7.315-5.223l-3.596,3.774s4.701,6.248,4.606,8.396c-.102,2.306-6.304,7.596-6.304,7.596l2.781,4.121s5.566-4.019,7.833-3.028c2.082.91,4.661,8.319,4.661,8.319l5.971-1.791s-4.353-10.16-3.785-12.65c.791-3.469,10.957-7.805,10.957-7.805,0,0-1.125-3.577-1.637-4.318-.693-1.004-3.589-3.597-3.589-3.597Z"/>
      <polygon class="st16" points="241.966 585.068 260.797 574.133 279.341 579.601 274.609 565.734 286.119 554.049 268.087 550.397 258.495 534.695 251.078 553.318 234.964 555.875 245.451 569.021 241.966 585.068"/>
      <rect class="st17" x="670.236" y="624.762" width="10.127" height="6.791" transform="translate(1567.96 396.277) rotate(122.51)"/>
      <rect class="st17" x="693.176" y="588.969" width="6.791" height="6.791" transform="translate(1587.56 386.823) rotate(126.632)"/>
      <path class="st12" d="M461.347,675.013c9.263-1.277,32.301,15.129,57.065,31.009,37.571,24.093,62.988,44.364,60.842,48.211-1.816,3.254-29.895-1.053-29.895-1.053,0,0-2.657,9.92-8.842,18.316-7.415,10.065-21.503,16.248-26.105,12.632-20.632-16.211,4.211-40.211,4.211-40.211,0,0-13.72-2.384-22.947-9.822-9.823-7.919-13.091-12.538-13.091-12.538,0,0-6.877,7.114-15.962,15.413-7.494,6.845-18.157,9.218-26.105,4-10.251-6.73-2.571-26.385,6.486-35.624,5.621-5.734,14.476-11.679,14.476-11.679,0,0-4.46-18.056-.133-18.653Z"/>
      <path class="st7" d="M577.968,588.064s5.033-15.023,9.577-16.128c5.666-1.379,11.814,16.128,11.814,16.128h-21.391Z"/>
      <path class="st7" d="M522.861,657.36s-23.361-13.253-30.853-10.127c-6.616,2.761-16.935,19.799-12.806,25.659,5.588,7.929,38.68,3.064,38.68,3.064l4.979-18.596Z"/>
      <path class="st23" d="M531.861,634.342s-23.184,23.379-20.106,34.786c1.74,6.448,14.81,17.311,20.106,21.38,5.778,4.44,29.282,22.573,36.19,24.893,9.682,3.251,22.127-4.19,26.042-9.957,4.532-6.677,5.266-28.011,5.266-28.011,0,0,23.302,6.921,27.669,5.608,5.511-1.657,7.708-15.691,5.362-20.946-2.45-5.487-26.808-7.393-26.808-7.393l11.106-15.695-71.998-16.666-12.829,12.002Z"/>
      <path class="st23" d="M604.667,581.924c-18.54-4.663-46.747-1.525-70.083,14.936-12.118,8.548-19.597,23.49-16.223,30.31,1.807,3.653,3.003,4.55,18.138,6.455,9.263,1.166,10.778.641,16.085,1.532,14.357,2.411,27.82,9.564,35.286,13.485,25.223,13.248,48.171-11.678,50.498-31.676,1.605-13.793-10.58-29.226-33.701-35.042Z"/>
      <path class="st23" d="M629.353,600.511c7.184-5.506,10.068-4.648,11.999-2.872,2.038,1.874,2.795,5.42-3.574,14.361"/>
      <path class="st37" d="M564.203,683.207c6.33-.863,17.316,1.787,20.123,7.682,3.801,7.982-.446,19.273-7.649,24.983"/>
      <ellipse class="st23" cx="564.203" cy="701.614" rx="18.574" ry="16.468" transform="translate(-333.089 775.471) rotate(-55.901)"/>
      <path class="st23" d="M525.302,641.609s-27.346,27.996-24.744,39.121c1.229,5.256,15.779,15.263,22.303,13.225,11.227-3.507,22.595-38.68,22.595-38.68"/>
      <path class="st30" d="M575.624,639.1"/>
      <line class="st30" x1="596.774" y1="655.275" x2="605.582" y2="654.701"/>
      <line class="st11" x1="595.625" y1="675.573" x2="599.359" y2="677.433"/>
      <polyline class="st31" points="583.696 617.24 569.658 618.86 579.782 627.44"/>
      <ellipse class="st35" cx="530.617" cy="617.375" rx="2.807" ry="5.868" transform="translate(-277.347 716.876) rotate(-56.342)"/>
      <path class="st2" d="M573.848,432.279c-.418.172-1.661.746-2.42,2.131-1.16,2.118-.751,1.945-.314,3.439"/>
      <path class="st2" d="M576.362,433.851s-1.693,1.279-1.902,1.867c-.582,1.633-.379,2.014-.182,2.51"/>
      <path class="st2" d="M559.399,400.912c-.603.21-1.447.595-2.264,1.318-1.785,1.58-2.174,3.651-2.272,4.339"/>
      <path class="st2" d="M562.091,403.267c-.534.148-1.189.39-1.878.795-1.408.827-2.243,1.914-2.676,2.588"/>
      <polygon class="st16" points="487.799 508.084 499.09 504.746 507.157 510.864 507.442 502.079 515.283 497.141 507.126 492.157 505.373 481.535 498.235 491.142 489.852 490.059 492.524 499.343 487.799 508.084"/>
      <polygon class="st18" points="247.214 869.405 281.879 768.235 368.837 732.239 306.073 692.549 310.987 611.112 231.845 652.641 144.98 620.806 177.904 716.761 126.115 776.678 208.002 795.723 247.214 869.405"/>
      <polygon class="st16" points="244.624 795.857 261.973 745.227 305.491 727.212 274.081 707.35 276.54 666.595 236.933 687.378 193.462 671.446 209.939 719.467 184.02 749.452 225.001 758.983 244.624 795.857"/>
    </g>
    <path class="st28" d="M798.449,502.539s-2.177-4.294-3.473-4.842c-1.358-.574-7.141.351-7.141.351,0,0,2.393,27.478,7.228,30.458,8.354,5.149,30.115-2.557,38.667-7.37,11.719-6.596,17.544-21.439,17.544-21.439l-11.789-17.474-10.316,6.316s5.914,6.994,6.105,9.895c.196,2.973-3.807,8.499-6.316,10.105-5.273,3.375-19.31,6.088-24.842,3.158-2.606-1.38-5.667-9.158-5.667-9.158Z"/>
    <path class="st28" d="M846.221,497.426c2.469,1.651,8.888,2.111,11.789,1.474,5.548-1.22,15.061-9.383,17.474-14.526.961-2.049,0-9.053,0-9.053l-9.684-14.526-6.526,2.947s6.515,10.495,5.895,14.316c-.685,4.219-9.201,10.652-13.474,10.526-2.945-.087-8.842-7.789-8.842-7.789l-4.842,3.271s5.296,11.412,8.211,13.36Z"/>
    <path class="st28" d="M894.852,435.295s9.35,15.371,14.035,17.77c2.202,1.128,7.502.626,9.895,0,4.899-1.282,13.9-7.813,16-12.421,1.099-2.412-.443-8.006-1.263-10.526-1.101-3.383-3.961-10.487-6.947-12.421-1.162-.753-9.895-.842-9.895-.842l-.702,6.596s8.656,4.941,8.531,7.717c-.19,4.205-5.511,12.79-9.513,13.265-4.09.486-14.737-7.368-14.737-7.368l-5.404-1.77Z"/>
    <path class="st28" d="M829.967,507.756l4.085-5.299s-6.66-8.093-6.218-10.866c.43-2.695,6.131-5.462,8.421-6.947,2.046-1.327,6.85-3.403,9.263-3.053,2.755.4,9.15,6.35,9.15,6.35l5.089-3.013-7.712-11.231s-11.252-4.317-15.158-4c-5.495.447-15.347,6.856-19.263,10.737-2.655,2.63-5.991,10.517-4.947,14.105,1.49,5.126,17.29,13.218,17.29,13.218Z"/>
    <path class="st28" d="M874.782,448.644l6.737,2.947s.178-8.206,1.474-10.526c1.395-2.499,6.855-5.674,9.684-6.105,4.253-.649,12.342,4.747,16.632,4.421,2.142-.163,7.368-4.421,7.368-4.421l-8.842-10.737s-13.7-1.04-18.105,0c-3.436.811-10.699,3.361-12.632,6.316-2.498,3.819-2.316,18.105-2.316,18.105Z"/>
    <path class="st28" d="M845.098,469.696s.841-6.538,1.895-8.421c3.532-6.311,16.245-15.804,23.368-17.053,4.014-.703,12.272,3.574,14.842,6.737,2.192,2.698,3.035,13.569,3.035,13.569l-5.245,3.326s-9.05-8.31-12.211-9.456c-4.214-1.529-8.864,5.019-10.667,9.123-1.638,3.728,1.986,15.389,1.986,15.389l-2.688,2.314-14.316-15.528Z"/>
    <path class="st28" d="M873.328,477.935c2.445,1.789,9.024,2.25,12,1.684,6.589-1.253,18.453-10.449,21.053-16.632,1.036-2.465-.859-8.061-1.895-10.526-2.101-4.999-7.777-16.313-13.132-17.166-2.334-.372-5.577,1.741-6.954,3.906-2.061,3.24,7.216,9.575,8.297,13.26.83,2.83-.746,7.689-2.476,10.077-1.822,2.517-5.485,4.4-8.381,4.255-3.891-.195-9.169-9.059-13.036-8.563-1.778.228-5.716,4.308-5.716,4.308,0,0,6.999,13.024,10.24,15.396Z"/>
    <path class="st28" d="M922,437.907c4.432-7.228,1.529-8.775,1.529-8.775,0,0-5.168-.49-6.852-4.909-2.634-6.911,1.953-14.812,7.579-18.316,7.995-4.98,20.575-2.631,22.526,3.368,1.486,4.568-16.259,12.886-15.394,14.386,1.256,2.177,3.187,10.292,3.187,10.292,2.113,0,11.836-1.374,16.628-6.152,6.967-6.947,5.712-18.967.842-26.105-7.037-10.314-23.145-12.672-33.895-5.684-11.093,7.211-13.975,22.745-9.263,31.368,1.526,2.792,12.023,12.303,13.112,10.526Z"/>
    <path class="st28" d="M912.256,188.644c-48.422-6.368-82.001,30.849-84.842,34.105-37.181,42.608-20.361,96.787-19.579,99.158,10.751,32.605,39.676,64.084,74.947,67.789,17.259,1.813,33.982-3.238,45.031-7.752-.888-.573-3.108-6.815-3.557-9.371-.473-2.696-.474-5.474.702-9.404.021-.072-1.772.137-1.773.064-5.475,1.13-11.107,2.087-16.753,3.164-6.925,1.321-17.123,7.158-17.123,7.158,0,0-13.474-9.684-25.404-12.211-9.609-2.035-17.909-18.865-21.754-22.596-4.773-4.631-11.088-2.807-14.316-10.807-1.061-2.63,5.705-9.953,2.667-27.649-1.917-11.165-6.17-17.586-6.316-19.93-.513-8.219,2.637-11.328,5.754-18.947,1.263-3.088,1.279-5.968,3.228-16.421,3.789-3.228,12.912-8.702,17.123-13.754,4.605-5.526,14.726-20.61,21.614-22.596,4.579-1.321,18.427,1.504,23.158,1.263,3.792-.193,7.172-3.911,10.947-3.93,4.351-.021,14.67,11.104,22.456,14.596,3.002,1.346,13.614,1.544,17.684,7.158,6.312,8.706,9.632,20.456,13.754,25.544,9.292,11.466,10.248,4.913,12.197,13.711.867,3.911-.803,12.389-.548,22.008.281,10.598,6.68,12.601,6.175,16.633-.829,6.619-5.403,8.848-7.158,15.298-.789,2.898-.402,8.401-3.649,14.737-7.702,15.031-24.706,20.666-38.984,24.561.403.665,3.081,8.478,3.615,10.526.707,2.709,1.635,9.067,1.544,9.684,1.729-.841,5.624-3.531,6.526-4,12.607-6.559,20.756-13.774,22.526-15.368,2.902-2.613,33.392-30.875,34.526-71.579,1.271-45.606-34.661-94.298-84.421-100.842Z"/>
    <path class="st28" d="M966.118,357.184c.941.962,7.153,9.483,5.927,18.618-1.589,11.85-14.447,16.201-15.789,16.632-10.32,3.307-23.19-.661-29.474-10.947-5.066-8.292-5.763-20.544,1.895-29.053,6.455-7.173,17.876-7.758,27.388-4.212-1.395,2.117-7.668,5.545-7.668,5.545,0,0-7.385,1.603-10.456,3.719-4.433,3.055-7.51,10.13-5.684,16.842,1.769,6.505,8.163,12.749,16,11.789,7.276-.891,12.58-7.599,12.632-14.105.029-3.631-1.204-6.68-2.144-8.048l7.375-6.78Z"/>
    <path class="st28" d="M934.09,392.089c1.533.193,4.537.949,4.868.793.257-.121.946-.567.942-.865l-8.511-5.021c-1.86.531-3.813,3.066-4.957,5.021.115-.018,5.924-.147,7.659.072Z"/>
    <path class="st28" d="M950.642,380.153c-1.825-1.138-15.056.663-12.491,3.228,2.807,2.807,5.338,2.62,8.702,5.474,3.808,3.231,6.265,4.314,7.439,8.14,3.228,10.526-8.897,16.03-12.491,11.088-1.371-1.885-1.519-3.551-2.737-4.491-.075-.058-3.54-.523-7.674-.18-.752.062-4.373.938-4.957,1.365-1.855,1.353-.682,3.536.491,5.131,4.975,6.767,18.398,11.918,25.123,9.474,7.488-2.722,12.914-10.077,12.842-18.316-.09-10.26-10.895-18.824-14.246-20.912Z"/>
  </g>
  <g id="Layer_4">
    <path class="st28" d="M838.444,541.998c-1.066-5.651-3.897-12.558-7.437-18.863-.349.081-.707.126-1.067.123-.22-.002-.439-.004-.658-.006-.249.15-.488.316-.748.446-.628.364-1.298.576-2.006.648,3.117,7.117,6.537,10.033,6.978,27.604.38,15.162-3.238,30.075-4.319,33.013-1.468,3.989-2.244,5.177-4.328,1.221-7.75-14.711-9.128-19.907-10.7-25.683-1.137-4.176-3.853-20.808-3.883-33.934-.01-4.176,1.456-14.057,5.079-13.636.938.109,1.865.461,2.764.981.672-.849,1.601-1.518,2.633-1.879.674-.236,1.337-.502,1.998-.773-3.813-4.281-7.585-6.833-10.408-6.042-9.345,2.619-10.522,30.985-6.668,51.026,3.193,16.603,10.158,29.145,15.364,36.922l12.647-1.562c3.578-7.261,8.431-30.131,4.759-49.606Z"/>
    <path class="st28" d="M844.403,528.796c-1.593-3.303-4.211-6.979-7.258-10.442-.171.226-.356.444-.581.632-.812.676-1.655,1.245-2.523,1.733,2.819,3.18,5.466,6.644,8.507,16.988,3.496,11.888,3.741,24.433,3.495,26.982-.335,3.462-.705,4.566-3.205,1.887-9.296-9.96-11.493-13.768-13.966-17.992-1.788-3.054-7.463-15.604-10.25-25.959-.887-3.295-1.795-11.407,1.193-11.848,1.303-.192,2.728.173,4.128.826.128-.013.256-.026.384-.029.193,0,.385-.015.577-.028.754-.301,1.526-.592,2.313-.885.379-.232.626-.424.976-.773-5.031-3.878-9.833-6.07-12.413-4.557-6.924,4.061-1.895,26.704,5.407,41.703,6.05,12.426,14.261,20.841,20.063,25.869l9.789-3.931c1.334-6.495.402-25.584-6.635-40.174Z"/>
    <circle class="st4" cx="829.771" cy="613.309" r="24.688"/>
    <ellipse class="st10" cx="828.635" cy="660.267" rx="23.553" ry="22.789"/>
    <ellipse class="st34" cx="826.322" cy="705.322" rx="24.48" ry="22.038"/>
    <circle class="st33" cx="817.594" cy="749.966" r="22.606"/>
    <ellipse class="st24" cx="808.048" cy="796.087" rx="23.969" ry="23.515"/>
    <circle class="st34" cx="852.188" cy="585.039" r="17.987"/>
    <circle class="st10" cx="867.93" cy="616.212" r="17.987"/>
    <circle class="st4" cx="884.159" cy="649.381" r="17.987"/>
    <rect class="st36" x="1308.579" y="848.789" width="3.789" height="1.263"/>
    <g>
      <path class="st11" d="M211.944,857.39c-.632-.476-1.059-1.07-1.276-1.787-5.521-18.207-10.748-37.497-15.679-57.812-.178-.733-.08-1.486.296-2.262.375-.775.932-1.285,1.668-1.524,11.865-3.846,23.758-6.989,35.663-9.491.676-.143,1.352.075,2.02.654.666.58,1.071,1.297,1.211,2.141.345,2.074.692,4.142,1.041,6.202.143.841.527,1.538,1.152,2.099.626.563,1.273.791,1.94.686,1.639-.26,3.277-.509,4.916-.746.666-.096,1.33.168,1.985.787.656.624,1.048,1.364,1.181,2.213.328,2.09.659,4.174.991,6.251.135.845-.01,1.643-.437,2.387-.428.746-.97,1.151-1.626,1.222-1.616.174-3.231.358-4.847.554-.658.08-1.186.476-1.578,1.183-.393.706-.514,1.473-.365,2.301.367,2.034.737,4.06,1.109,6.079.152.823.541,1.546,1.166,2.174.626.628,1.262.916,1.911.863,1.592-.13,3.184-.249,4.777-.358.647-.044,1.294.24,1.934.851.64.614,1.037,1.381,1.192,2.292,1.065,6.229,2.152,12.394,3.26,18.492.162.891.044,1.651-.356,2.271-.401.622-.914.923-1.543.914-1.546-.022-3.092-.034-4.637-.037-.63-.002-1.128.306-1.491.915-.363.609-.456,1.338-.282,2.195.386,1.889.774,3.772,1.165,5.647.176.848.072,1.565-.308,2.145-.382.58-.883.855-1.503.834-10.909-.377-21.811-.289-32.69.325-.675.038-1.329-.183-1.961-.66ZM244.119,846.01c.629-.007,1.141-.312,1.532-.927.392-.61.503-1.352.331-2.213-1.179-5.895-2.336-11.859-3.471-17.89-.166-.881-.573-1.616-1.22-2.195-.647-.577-1.298-.835-1.946-.773-8.134.781-16.262,1.843-24.38,3.208-.648.109-1.167.494-1.558,1.146-.389.652-.486,1.372-.29,2.16,1.346,5.391,2.713,10.707,4.102,15.948.203.766.636,1.396,1.293,1.894.659.499,1.301.726,1.931.677,7.884-.611,15.777-.949,23.675-1.035ZM237.029,809.623c.658-.089,1.197-.5,1.616-1.24.418-.738.557-1.52.412-2.34-.356-2.014-.709-4.034-1.06-6.062-.142-.823-.545-1.533-1.207-2.119-.662-.583-1.33-.819-1.997-.702-8.372,1.456-16.738,3.223-25.092,5.324-.667.166-1.202.631-1.608,1.381-.404.75-.521,1.496-.351,2.238.42,1.825.842,3.641,1.267,5.451.173.737.601,1.344,1.279,1.828.679.485,1.345.659,2.003.52,8.237-1.737,16.485-3.156,24.738-4.278Z"/>
      <path class="st11" d="M269.31,858.208c-.589-.686-.963-1.484-1.118-2.395-3.94-23.123-7.577-47.131-10.91-71.966-.121-.897.032-1.749.457-2.556.425-.808,1.009-1.264,1.747-1.361,11.913-1.574,23.826-2.552,35.721-2.998.675-.025,1.325.354,1.945,1.145.618.789.969,1.679,1.051,2.664.202,2.417.406,4.829.612,7.236.084.983-.115,1.853-.594,2.61-.48.759-1.054,1.135-1.719,1.14-8.363.062-16.735.381-25.11.978-.669.048-1.23.47-1.682,1.257-.452.789-.622,1.637-.507,2.547.282,2.233.566,4.46.853,6.681.117.906.495,1.712,1.129,2.428.634.718,1.279,1.065,1.938,1.04,4.935-.182,9.868-.269,14.799-.267.657,0,1.279.367,1.864,1.099.583.735.927,1.578,1.026,2.522.245,2.319.493,4.633.743,6.94.102.942-.058,1.785-.473,2.532-.418.749-.948,1.109-1.596,1.087-4.859-.169-9.721-.253-14.585-.248-.65.002-1.193.352-1.628,1.04-.436.692-.587,1.522-.453,2.489.917,6.623,1.855,13.186,2.816,19.688.14.95.521,1.779,1.135,2.487.614.71,1.236,1.088,1.867,1.137,7.897.599,15.79,1.418,23.673,2.433.627.081,1.24.518,1.832,1.311.592.794.944,1.705,1.055,2.727.247,2.258.496,4.511.748,6.757.114,1.017-.044,1.845-.468,2.476-.425.633-.947.894-1.565.791-10.887-1.82-21.793-3.282-32.705-4.325-.676-.064-1.31-.442-1.9-1.13Z"/>
      <path class="st11" d="M317.253,864.984c-.55-.83-.878-1.766-.98-2.808-.226-2.305-.45-4.614-.672-6.93-.1-1.05.057-1.906.471-2.574.413-.668.965-.95,1.649-.841,7.868,1.264,15.723,2.709,23.558,4.316.624.128,1.153-.15,1.588-.841.434-.689.62-1.595.553-2.712-.147-2.468-.292-4.94-.435-7.417-.064-1.121-.365-2.124-.898-3.008-.535-.882-1.121-1.378-1.755-1.487-1.556-.269-3.113-.532-4.671-.788-.636-.106-1.238-.615-1.814-1.526-.574-.913-.896-1.872-.963-2.887-.16-2.444-.319-4.892-.475-7.345-.07-1.111-.38-2.095-.927-2.947-.547-.849-1.173-1.32-1.876-1.406-1.554-.192-3.108-.376-4.662-.553-.647-.073-1.263-.553-1.85-1.439-.588-.884-.921-1.833-.994-2.847-.179-2.486-.355-4.978-.528-7.474-.07-1.016-.385-1.94-.944-2.767-.563-.825-1.2-1.264-1.916-1.316-1.579-.113-3.159-.218-4.739-.315-.715-.045-1.358-.482-1.929-1.317-.57-.833-.895-1.738-.972-2.722-.189-2.417-.375-4.84-.559-7.268-.074-.985.114-1.878.567-2.676.453-.795,1.045-1.186,1.77-1.164,1.603.051,3.206.11,4.808.179.726.032,1.318-.332,1.784-1.096.463-.762.664-1.655.6-2.677-.157-2.506-.312-5.017-.464-7.533-.062-1.024.156-1.95.657-2.777.499-.828,1.086-1.234,1.759-1.216,8.433.229,16.851.704,25.249,1.404.669.054,1.29.546,1.864,1.474.575.928.877,1.933.91,3.007.082,2.638.166,5.272.252,7.902.035,1.073-.204,1.992-.717,2.757-.511.766-1.095,1.113-1.754,1.04-8.277-.894-16.575-1.578-24.888-2.031-.663-.036-1.24.351-1.729,1.147-.489.8-.7,1.702-.635,2.706.161,2.474.324,4.943.49,7.407.068,1.003.399,1.935.991,2.794.591.863,1.213,1.323,1.87,1.376,1.578.131,3.155.271,4.732.419.713.067,1.347.524,1.899,1.375.551.852.858,1.798.919,2.832.15,2.543.303,5.081.458,7.613.063,1.032.386,2.003.965,2.913.581.914,1.19,1.411,1.835,1.496,1.581.212,3.162.431,4.742.657.644.092,1.236.576,1.775,1.449.538.874.838,1.879.898,3.009.133,2.496.268,4.988.405,7.475.057,1.033.366,2.013.928,2.95.562.935,1.156,1.46,1.784,1.576,1.541.281,3.082.568,4.621.861.626.12,1.215.634,1.767,1.543.55.909.851,1.934.906,3.076.12,2.519.242,5.033.366,7.544.056,1.134-.149,2.052-.613,2.741-.466.692-1.005.965-1.622.829-1.516-.336-3.034-.666-4.552-.99-.618-.132-1.158.146-1.616.828-.458.684-.651,1.579-.582,2.692.153,2.458.308,4.911.465,7.359.071,1.109-.107,2-.53,2.668-.425.67-.943.928-1.558.782-7.716-1.84-15.45-3.534-23.199-5.06-.673-.132-1.286-.615-1.836-1.444Z"/>
      <path class="st11" d="M374.16,878.667c-.526-.967-.811-2.034-.849-3.2-.804-24.198-1.398-48.746-1.783-73.611-.017-1.097-.286-2.138-.807-3.116-.523-.978-1.144-1.522-1.863-1.63-4.91-.735-9.828-1.403-14.755-1.998-.721-.087-1.351-.575-1.888-1.464-.538-.886-.824-1.864-.859-2.939-.084-2.634-.165-5.272-.244-7.914-.032-1.075.197-2.03.691-2.865.491-.834,1.105-1.216,1.837-1.146,15.178,1.47,30.284,3.656,45.287,6.43.661.122,1.26.702,1.788,1.737.526,1.035.783,2.126.767,3.264-.039,2.798-.076,5.594-.11,8.386-.014,1.139-.295,2.092-.839,2.858-.544.769-1.144,1.083-1.796.95-4.899-.999-9.809-1.939-14.729-2.815-.657-.116-1.251.237-1.783,1.053-.532.816-.793,1.781-.785,2.893.168,25.163.545,50.029,1.131,74.567.028,1.181-.185,2.123-.633,2.818-.45.697-1.005.945-1.668.749-1.467-.434-2.935-.864-4.404-1.29-.612-.176-1.179-.75-1.706-1.719Z"/>
      <path class="st11" d="M421.866,893.71c-.452-1.036-.672-2.176-.656-3.414.399-31.472,1.112-63.298,2.141-95.421.037-1.159.325-2.157.864-2.992.538-.835,1.168-1.17,1.884-1.004,11.553,2.671,23.032,5.648,34.423,8.871.647.183,1.206.837,1.673,1.958.467,1.121.661,2.276.585,3.462-.185,2.911-.368,5.82-.548,8.729-.074,1.185.109,2.308.545,3.369.435,1.064.971,1.688,1.609,1.881,1.562.47,3.123.944,4.682,1.422.635.195,1.179.857,1.633,1.978.453,1.126.637,2.277.556,3.451-.197,2.891-.391,5.781-.583,8.67-.078,1.176-.404,2.164-.98,2.961-.576.799-1.174,1.099-1.799.898-1.535-.488-3.072-.974-4.611-1.455-.628-.195-1.212.091-1.749.862-.538.77-.84,1.752-.909,2.943-.167,2.925-.331,5.849-.492,8.771-.066,1.191.115,2.351.539,3.481.423,1.129.944,1.793,1.562,1.994,1.515.495,3.029.993,4.54,1.494.616.203,1.147.848,1.595,1.928.447,1.083.629,2.272.549,3.561-.541,8.826-1.059,17.639-1.555,26.439-.073,1.286-.378,2.301-.917,3.036-.539.737-1.105.995-1.702.781-1.465-.526-2.932-1.051-4.4-1.574-.599-.214-1.153.052-1.657.795-.505.743-.788,1.752-.848,3.033-.132,2.826-.261,5.651-.388,8.473-.058,1.276-.348,2.28-.871,3.006-.523.727-1.078.978-1.668.76-10.382-3.843-20.848-7.615-31.388-11.254-.653-.224-1.207-.858-1.659-1.893ZM455.689,889.139c.6.211,1.165-.05,1.699-.784.534-.73.832-1.742.895-3.023.424-8.756.871-17.527,1.341-26.313.069-1.286-.124-2.466-.58-3.541-.456-1.071-.995-1.711-1.614-1.91-7.763-2.496-15.57-4.911-23.416-7.224-.627-.184-1.21.1-1.748.841-.539.746-.827,1.75-.864,3.01-.255,8.626-.488,17.231-.698,25.813-.031,1.254.192,2.41.668,3.462.474,1.054,1.014,1.68,1.622,1.883,7.606,2.529,15.173,5.132,22.696,7.786ZM458.403,835.56c.628.193,1.226-.108,1.796-.908.569-.799.889-1.784.958-2.956.169-2.877.34-5.756.514-8.637.071-1.169-.124-2.316-.587-3.431-.463-1.112-1.015-1.766-1.653-1.955-8.004-2.359-16.052-4.608-24.139-6.724-.647-.17-1.251.155-1.813.96-.563.81-.865,1.792-.907,2.944-.104,2.834-.205,5.665-.304,8.494-.04,1.152.185,2.27.672,3.356.486,1.086,1.047,1.715,1.684,1.892,7.967,2.211,15.895,4.54,23.779,6.965Z"/>
      <path class="st11" d="M476.636,913.625c-.396-1.084-.553-2.274-.474-3.566,2.015-32.77,4.344-65.697,6.989-98.724.095-1.193.429-2.201,1.002-3.021.574-.822,1.211-1.121,1.909-.901,11.251,3.558,22.405,7.316,33.447,11.214.628.221,1.144.911,1.548,2.073.403,1.159.536,2.337.403,3.533-.328,2.934-.653,5.868-.975,8.802-.132,1.198-.502,2.165-1.107,2.909-.607.743-1.218,1.001-1.836.781-7.757-2.767-15.57-5.479-23.434-8.112-.629-.209-1.24.09-1.837.896-.596.807-.944,1.808-1.046,3.002-.247,2.931-.493,5.861-.735,8.79-.099,1.196.066,2.364.49,3.513.426,1.151.944,1.83,1.564,2.042,4.63,1.588,9.241,3.199,13.834,4.827.611.217,1.109.873,1.493,1.963.381,1.093.514,2.239.399,3.434-.284,2.936-.565,5.871-.844,8.806-.115,1.198-.451,2.198-1.007,3.006-.56.811-1.138,1.107-1.74.887-4.521-1.634-9.062-3.255-13.62-4.86-.611-.215-1.199.056-1.768.799-.57.747-.905,1.772-1.007,3.07-.69,8.885-1.357,17.763-2.002,26.632-.094,1.296.068,2.497.484,3.594.416,1.099.916,1.757,1.507,1.978,7.387,2.755,14.723,5.529,22.005,8.3.58.221,1.065.885,1.451,1.989.387,1.105.518,2.309.394,3.613-.272,2.88-.541,5.76-.808,8.64-.121,1.304-.459,2.328-1.009,3.069-.552.743-1.112,1.001-1.683.78-10.044-3.906-20.195-7.847-30.441-11.763-.636-.244-1.15-.907-1.546-1.995Z"/>
      <path class="st11" d="M529.715,934.132c-.36-1.1-.47-2.306-.327-3.609.314-2.88.631-5.76.951-8.639.145-1.305.047-2.502-.291-3.594-.34-1.092-.822-1.758-1.446-1.998-1.38-.529-2.762-1.058-4.147-1.588-.627-.238-1.114-.906-1.463-2-.348-1.094-.454-2.295-.318-3.599,2.204-21.035,4.536-42.062,6.994-63.069.141-1.193.504-2.192,1.091-2.996.59-.802,1.22-1.081,1.888-.836,1.475.544,2.948,1.09,4.419,1.636.665.248,1.29,0,1.879-.746.585-.743.957-1.71,1.109-2.904.371-2.924.745-5.847,1.121-8.77.153-1.189.545-2.179,1.178-2.963.632-.784,1.255-1.06,1.875-.83,10.869,4.072,21.617,8.238,32.232,12.437.603.238,1.074.934,1.411,2.087.336,1.151.407,2.313.216,3.481-.467,2.871-.933,5.743-1.395,8.617-.19,1.175-.598,2.117-1.228,2.831-.631.717-1.243.958-1.837.726-10.453-4.08-21.037-8.157-31.741-12.169-.61-.229-1.225.052-1.846.84-.62.79-1.005,1.78-1.155,2.973-2.623,20.964-5.119,41.962-7.489,62.98-.146,1.301-.037,2.508.327,3.609.364,1.103.83,1.761,1.402,1.982,7.162,2.74,14.265,5.455,21.304,8.121.561.212,1.132-.052,1.717-.797.584-.742.965-1.763,1.142-3.056.393-2.858.788-5.715,1.185-8.571.179-1.294.102-2.485-.236-3.578-.338-1.091-.794-1.748-1.364-1.965-1.4-.532-2.803-1.064-4.208-1.598-.573-.219-1.028-.903-1.37-2.053-.34-1.152-.433-2.32-.275-3.509.38-2.864.762-5.726,1.146-8.588.173-1.296.56-2.311,1.161-3.048.6-.735,1.191-.994,1.774-.773,4.363,1.663,8.704,3.321,13.021,4.969.577.219,1.03.876,1.363,1.964.332,1.09.398,2.278.203,3.561-2.228,14.725-4.392,29.489-6.492,44.288-.183,1.291-.564,2.315-1.14,3.062-.577.747-1.138,1.02-1.686.816-9.635-3.599-19.397-7.338-29.274-11.158-.563-.219-1.022-.876-1.381-1.979Z"/>
      <path class="st11" d="M572.426,950.275c-.283-1.06-.327-2.239-.132-3.523.429-2.838.861-5.675,1.295-8.51.197-1.284.576-2.3,1.143-3.054.565-.751,1.15-1.016,1.75-.795,1.326.488,2.648.974,3.969,1.457.598.218,1.18-.047,1.751-.799.569-.748.961-1.762,1.169-3.035,3.37-20.557,6.866-41.016,10.486-61.36.206-1.156.167-2.297-.115-3.421-.283-1.124-.742-1.814-1.381-2.065-1.409-.557-2.821-1.114-4.236-1.672-.641-.253-1.112-.916-1.412-1.994-.303-1.078-.355-2.198-.155-3.364.487-2.854.977-5.706,1.47-8.557.201-1.161.613-2.126,1.24-2.89.627-.765,1.265-1.015,1.916-.753,7.481,3.007,14.892,6.017,22.229,9.007.585.238,1.009.912,1.275,2.022.262,1.11.28,2.231.052,3.364-.56,2.78-1.117,5.563-1.672,8.348-.227,1.137-.651,2.055-1.267,2.755-.619.704-1.215.94-1.791.712-1.413-.559-2.829-1.119-4.248-1.68-.578-.23-1.192.031-1.844.782-.648.752-1.082,1.701-1.297,2.85-3.781,20.184-7.437,40.495-10.969,60.919-.219,1.265-.182,2.43.106,3.484.29,1.056.704,1.678,1.245,1.872,1.329.472,2.655.94,3.979,1.405.539.19.936.804,1.192,1.841.254,1.039.268,2.183.041,3.443-.5,2.782-.999,5.565-1.494,8.351-.225,1.261-.623,2.272-1.188,3.025-.568.756-1.115,1.043-1.645.862-6.649-2.27-13.369-4.648-20.155-7.112-.59-.214-1.026-.853-1.307-1.917Z"/>
      <path class="st11" d="M605.593,961.797c-.239-1.016-.241-2.153-.005-3.404,5.979-31.731,12.264-63.128,18.855-94.133.238-1.12.678-2.049,1.32-2.781.642-.734,1.279-.97,1.909-.713,1.39.567,2.777,1.133,4.161,1.698.626.256,1.061.928,1.302,2.014.239,1.086.235,2.183-.011,3.289-.607,2.719-1.211,5.441-1.812,8.166-.246,1.112-.231,2.187.042,3.225.271,1.04.689,1.667,1.253,1.887,1.356.53,2.709,1.059,4.06,1.585.611.239,1.03.891,1.258,1.947.225,1.06.215,2.134-.035,3.221-.613,2.677-1.224,5.358-1.833,8.042-.248,1.093-.247,2.171,0,3.232.248,1.064.644,1.693,1.195,1.896,1.348.497,2.692.992,4.034,1.483.545.199.93.802,1.151,1.808.22,1.003.2,2.056-.059,3.158-.637,2.705-1.271,5.414-1.903,8.127-.257,1.106-.271,2.189-.043,3.244.229,1.058.608,1.673,1.144,1.856,1.313.449,2.622.894,3.929,1.335.533.179,1.123-.103,1.774-.842.651-.739,1.107-1.647,1.372-2.73,3.313-13.562,6.687-27.023,10.124-40.377.274-1.065.738-1.947,1.394-2.644.654-.698,1.262-.935,1.819-.711,1.366.546,2.728,1.089,4.087,1.629.554.22.942.849,1.162,1.886.22,1.035.186,2.075-.096,3.124-7.827,29.016-15.354,58.584-22.58,88.647-.285,1.184-.732,2.147-1.342,2.883-.61.735-1.164,1.042-1.665.914-1.229-.315-2.46-.636-3.695-.964-.504-.132-.853-.676-1.047-1.632-.196-.952-.157-2.034.118-3.234,1.88-8.2,3.781-16.366,5.704-24.497.281-1.19.309-2.271.082-3.247-.227-.975-.604-1.549-1.127-1.713-1.285-.406-2.573-.817-3.864-1.232-.526-.168-.901-.773-1.128-1.814-.226-1.043-.214-2.115.036-3.216.605-2.654,1.212-5.304,1.822-7.95.275-1.198.305-2.292.087-3.282-.22-.99-.598-1.581-1.134-1.767-1.32-.457-2.643-.918-3.968-1.383-.541-.189-.928-.818-1.169-1.889-.239-1.072-.236-2.169.012-3.29.61-2.746,1.222-5.487,1.836-8.226.25-1.115.259-2.181.029-3.2-.231-1.02-.649-1.642-1.25-1.865-1.329-.494-2.66-.992-3.995-1.491-.556-.207-1.154.037-1.792.73-.639.695-1.079,1.605-1.319,2.725-4.216,19.719-8.308,39.601-12.276,59.631-.246,1.244-.659,2.242-1.232,2.994-.576.756-1.146,1.042-1.713.862-1.253-.398-2.509-.801-3.768-1.209-.571-.183-.975-.784-1.213-1.804Z"/>
      <path class="st11" d="M652.675,975.141c-.173-.913-.112-1.959.184-3.124,7.495-29.61,15.291-58.69,23.384-87.182.292-1.027.768-1.882,1.43-2.558.662-.678,1.291-.897,1.886-.667,1.313.51,2.622,1.018,3.928,1.522.591.228.973.836,1.145,1.824.17.984.105,1.982-.196,2.994-.739,2.481-1.475,4.968-2.209,7.459-.301,1.017-.346,1.997-.141,2.935.203.94.57,1.501,1.102,1.687,1.278.451,2.553.898,3.825,1.34.576.199.942.779,1.101,1.728.158.952.085,1.92-.218,2.91-.744,2.434-1.486,4.873-2.225,7.317-.301.995-.362,1.971-.185,2.918.178.949.524,1.502,1.04,1.662,1.268.393,2.532.781,3.793,1.164.513.156.847.68,1.001,1.57.152.89.072,1.831-.241,2.829-.769,2.45-1.536,4.906-2.301,7.367-.311,1.004-.388,1.974-.231,2.905.157.93.485,1.46.988,1.591,1.232.322,2.461.639,3.687.949.5.127,1.081-.159,1.749-.857.667-.695,1.158-1.528,1.477-2.503,3.981-12.215,8.022-24.288,12.123-36.214.326-.95.827-1.743,1.499-2.376.671-.634,1.269-.853,1.792-.669,1.281.454,2.558.903,3.832,1.347.519.181.854.726,1.004,1.631.148.905.053,1.818-.282,2.748-9.284,25.707-18.278,52.162-26.978,79.307-.343,1.07-.828,1.963-1.45,2.678-.626.717-1.171,1.05-1.638.995-1.148-.134-2.3-.276-3.456-.425-.471-.061-.771-.503-.899-1.326-.13-.823-.028-1.784.306-2.874,2.279-7.457,4.58-14.865,6.901-22.225.34-1.079.431-2.036.272-2.883-.159-.847-.485-1.326-.976-1.433-1.204-.261-2.412-.529-3.623-.804-.494-.112-.818-.623-.973-1.538-.156-.916-.082-1.875.223-2.879.734-2.415,1.471-4.825,2.209-7.23.335-1.087.426-2.067.276-2.942-.155-.872-.482-1.38-.986-1.517-1.24-.335-2.483-.676-3.73-1.022-.506-.143-.844-.686-1.014-1.643-.167-.953-.103-1.944.2-2.967.743-2.508,1.489-5.011,2.237-7.509.304-1.017.375-1.98.211-2.891-.164-.912-.529-1.458-1.096-1.639-1.251-.397-2.505-.798-3.763-1.204-.523-.17-1.112.072-1.767.726-.656.656-1.131,1.501-1.424,2.53-5.171,18.107-10.221,36.457-15.15,55.035-.306,1.153-.757,2.097-1.349,2.834-.594.737-1.157,1.049-1.69.935-1.18-.253-2.363-.513-3.549-.78-.537-.121-.892-.637-1.065-1.553Z"/>
      <path class="st11" d="M696.815,982.222c-.107-.767.017-1.678.37-2.722,8.96-26.517,18.212-52.309,27.751-77.319.345-.904.855-1.661,1.532-2.268.676-.608,1.294-.817,1.85-.634,8.959,2.937,17.731,5.596,26.307,7.917.488.131.778.579.865,1.341.088.76-.057,1.538-.434,2.34-.927,1.968-1.851,3.943-2.773,5.925-.376.809-.907,1.482-1.587,2.023-.682.542-1.261.763-1.74.658-6.014-1.318-12.127-2.823-18.336-4.493-.495-.134-1.09.106-1.782.722-.691.617-1.212,1.372-1.562,2.263-.857,2.185-1.712,4.376-2.564,6.573-.348.897-.461,1.759-.347,2.583.115.826.415,1.29.903,1.399,3.649.816,7.264,1.567,10.844,2.25.477.092.76.501.849,1.226.087.725-.051,1.511-.412,2.362-.888,2.091-1.774,4.188-2.658,6.292-.361.859-.87,1.611-1.525,2.265-.656.653-1.218.951-1.686.885-3.519-.495-7.071-1.063-10.658-1.701-.479-.085-1.048.187-1.703.816-.656.631-1.171,1.446-1.544,2.439-2.546,6.793-5.072,13.642-7.576,20.548-.366,1.009-.488,1.895-.369,2.645.12.751.409,1.144.871,1.184,5.788.487,11.485.752,17.088.771.446.001.715.336.8.997.086.662-.065,1.458-.458,2.396-.865,2.072-1.727,4.151-2.588,6.236-.39.944-.903,1.763-1.535,2.453-.632.692-1.169,1.054-1.607,1.077-7.711.408-15.605.306-23.675-.248-.501-.034-.803-.434-.909-1.201Z"/>
      <path class="st11" d="M731.264,981.93c-.051-.612.124-1.379.523-2.292,10.138-23.187,20.558-45.485,31.256-66.838.386-.77.922-1.428,1.608-1.969.684-.541,1.288-.744,1.808-.621,8.373,1.99,16.548,3.616,24.514,4.818.452.068.692.396.72.98.028.584-.17,1.199-.587,1.849-1.005,1.6-2.009,3.208-3.011,4.824-.417.659-.615,1.258-.595,1.791.017.534.247.813.686.843,1.077.071,2.15.133,3.219.185.434.021.656.301.669.828.01.528-.195,1.103-.614,1.734-3.152,4.725-6.284,9.53-9.396,14.413-.415.651-.966,1.262-1.65,1.833-.684.571-1.238.883-1.662.924-1.041.103-2.085.196-3.134.279-.428.034-.969.329-1.614.887-.648.56-1.195,1.221-1.641,1.978-3.05,5.187-6.08,10.451-9.09,15.789-.44.781-.656,1.418-.648,1.902.006.484.217.678.628.581,1.01-.234,2.016-.48,3.019-.737.408-.105.622.067.639.508.017.442-.197,1.035-.642,1.787-.983,1.661-1.963,3.33-2.941,5.007-.443.759-.986,1.465-1.625,2.118-.641.654-1.16,1.052-1.56,1.187-.983.332-1.97.652-2.961.96-.404.127-.61-.044-.614-.514-.006-.468.207-1.104.642-1.896.978-1.755,1.958-3.501,2.94-5.239.437-.786.642-1.414.613-1.895-.028-.481-.251-.68-.666-.594-1.018.211-2.04.411-3.065.599-.419.078-.643-.143-.68-.664-.037-.52.161-1.194.595-2.011.958-1.805,1.917-3.602,2.88-5.391.435-.809.643-1.482.623-2.022-.022-.54-.247-.793-.677-.754-3.219.288-6.473.481-9.763.583-.44.014-.987.331-1.643.953-.654.621-1.19,1.367-1.605,2.236-2.844,5.939-5.669,11.947-8.472,18.021-.41.889-.925,1.674-1.543,2.352-.618.678-1.158,1.055-1.622,1.12-1.026.143-2.055.276-3.087.399-.467.056-.726-.221-.775-.834ZM772.291,945.74c.429-.025.982-.333,1.665-.916.684-.584,1.229-1.215,1.637-1.898,3.055-5.118,6.129-10.159,9.223-15.123.412-.662.608-1.273.581-1.839-.026-.566-.259-.873-.702-.91-5.581-.461-11.266-1.151-17.053-2.049-.461-.07-1.042.168-1.739.72-.696.552-1.24,1.208-1.628,1.959-2.918,5.64-5.816,11.35-8.693,17.129-.383.772-.55,1.484-.498,2.132.053.646.302.974.746.988,5.587.18,11.076.124,16.462-.192Z"/>
    </g>
    <g>
      <path class="st13" d="M208.785,857.39c-.632-.476-1.059-1.07-1.276-1.787-5.521-18.207-10.748-37.497-15.679-57.812-.178-.733-.08-1.486.296-2.262.375-.775.932-1.285,1.668-1.524,11.865-3.846,23.758-6.989,35.663-9.491.677-.143,1.352.075,2.02.654.666.58,1.071,1.297,1.211,2.141.345,2.074.692,4.142,1.041,6.202.142.841.527,1.538,1.152,2.099.626.563,1.273.791,1.94.686,1.639-.26,3.277-.509,4.916-.746.666-.096,1.33.168,1.985.787.656.624,1.048,1.364,1.181,2.213.328,2.09.659,4.174.991,6.251.136.845-.01,1.643-.437,2.387-.428.746-.97,1.151-1.626,1.222-1.616.174-3.231.358-4.847.554-.658.08-1.186.476-1.578,1.183-.393.706-.514,1.473-.365,2.301.367,2.034.737,4.06,1.109,6.079.152.823.541,1.546,1.166,2.174.626.628,1.263.916,1.911.863,1.592-.13,3.184-.249,4.777-.358.647-.044,1.294.24,1.934.851.641.614,1.037,1.381,1.192,2.292,1.065,6.229,2.152,12.394,3.26,18.492.162.891.044,1.651-.356,2.271-.401.622-.915.923-1.543.914-1.546-.022-3.092-.034-4.637-.037-.63-.002-1.128.306-1.491.915-.363.609-.456,1.338-.282,2.195.386,1.889.774,3.772,1.165,5.647.176.848.072,1.565-.308,2.145-.382.58-.883.855-1.503.834-10.909-.377-21.811-.289-32.69.325-.675.038-1.328-.183-1.961-.66ZM240.96,846.01c.629-.007,1.141-.312,1.532-.927.392-.61.503-1.352.331-2.213-1.179-5.895-2.336-11.859-3.471-17.89-.166-.881-.573-1.616-1.22-2.195-.647-.577-1.298-.835-1.946-.773-8.134.781-16.262,1.843-24.38,3.208-.648.109-1.167.494-1.558,1.146-.389.652-.486,1.372-.29,2.16,1.346,5.391,2.713,10.707,4.102,15.948.203.766.636,1.396,1.293,1.894.659.499,1.301.726,1.931.677,7.884-.611,15.778-.949,23.675-1.035ZM233.87,809.623c.658-.089,1.196-.5,1.616-1.24.418-.738.557-1.52.412-2.34-.356-2.014-.709-4.034-1.06-6.062-.142-.823-.545-1.533-1.207-2.119-.662-.583-1.33-.819-1.997-.702-8.372,1.456-16.738,3.223-25.092,5.324-.667.166-1.203.631-1.608,1.381-.404.75-.521,1.496-.351,2.238.42,1.825.842,3.641,1.267,5.451.173.737.601,1.344,1.279,1.828.679.485,1.345.659,2.003.52,8.237-1.737,16.485-3.156,24.738-4.278Z"/>
      <path class="st13" d="M266.151,858.208c-.589-.686-.963-1.484-1.118-2.395-3.94-23.123-7.577-47.131-10.91-71.966-.121-.897.031-1.749.457-2.556.425-.808,1.009-1.264,1.747-1.361,11.913-1.574,23.826-2.552,35.721-2.998.675-.025,1.325.354,1.945,1.145.618.789.969,1.679,1.051,2.664.202,2.417.406,4.829.612,7.236.084.983-.115,1.853-.594,2.61-.48.759-1.054,1.135-1.719,1.14-8.363.062-16.735.381-25.11.978-.669.048-1.23.47-1.682,1.257-.453.789-.622,1.637-.507,2.547.282,2.233.566,4.46.853,6.681.118.906.495,1.712,1.129,2.428.634.718,1.279,1.065,1.938,1.04,4.935-.182,9.868-.269,14.799-.267.657,0,1.279.367,1.864,1.099.584.735.926,1.578,1.026,2.522.245,2.319.493,4.633.743,6.94.102.942-.058,1.785-.473,2.532-.418.749-.948,1.109-1.596,1.087-4.859-.169-9.721-.253-14.585-.248-.65.002-1.193.352-1.628,1.04-.436.692-.587,1.522-.453,2.489.917,6.623,1.855,13.186,2.816,19.688.14.95.521,1.779,1.135,2.487.614.71,1.236,1.088,1.867,1.137,7.897.599,15.79,1.418,23.673,2.433.627.081,1.239.518,1.832,1.311.592.794.944,1.705,1.055,2.727.247,2.258.496,4.511.748,6.757.114,1.017-.044,1.845-.468,2.476-.425.633-.947.894-1.565.791-10.887-1.82-21.793-3.282-32.705-4.325-.676-.064-1.31-.442-1.9-1.13Z"/>
      <path class="st13" d="M314.094,864.984c-.55-.83-.878-1.766-.98-2.808-.226-2.305-.45-4.614-.672-6.93-.1-1.05.057-1.906.471-2.574.413-.668.965-.95,1.649-.841,7.868,1.264,15.723,2.709,23.558,4.316.624.128,1.152-.15,1.588-.841.434-.689.62-1.595.553-2.712-.147-2.468-.292-4.94-.435-7.417-.065-1.121-.364-2.124-.898-3.008-.535-.882-1.121-1.378-1.755-1.487-1.556-.269-3.113-.532-4.671-.788-.636-.106-1.238-.615-1.814-1.526-.574-.913-.896-1.872-.963-2.887-.16-2.444-.319-4.892-.475-7.345-.07-1.111-.38-2.095-.927-2.947-.547-.849-1.173-1.32-1.876-1.406-1.554-.192-3.108-.376-4.662-.553-.647-.073-1.263-.553-1.85-1.439-.588-.884-.921-1.833-.994-2.847-.179-2.486-.355-4.978-.528-7.474-.07-1.016-.386-1.94-.944-2.767-.563-.825-1.2-1.264-1.916-1.316-1.579-.113-3.159-.218-4.739-.315-.715-.045-1.358-.482-1.929-1.317-.57-.833-.895-1.738-.972-2.722-.189-2.417-.375-4.84-.559-7.268-.074-.985.114-1.878.567-2.676.454-.795,1.045-1.186,1.77-1.164,1.603.051,3.206.11,4.808.179.726.032,1.319-.332,1.784-1.096.463-.762.664-1.655.6-2.677-.157-2.506-.312-5.017-.464-7.533-.062-1.024.156-1.95.657-2.777.499-.828,1.086-1.234,1.759-1.216,8.433.229,16.851.704,25.249,1.404.669.054,1.29.546,1.864,1.474.575.928.877,1.933.91,3.007.082,2.638.166,5.272.252,7.902.035,1.073-.204,1.992-.717,2.757-.511.766-1.095,1.113-1.754,1.04-8.277-.894-16.575-1.578-24.888-2.031-.663-.036-1.24.351-1.729,1.147-.489.8-.7,1.702-.635,2.706.161,2.474.324,4.943.49,7.407.067,1.003.399,1.935.991,2.794.59.863,1.213,1.323,1.87,1.376,1.578.131,3.155.271,4.732.419.713.067,1.347.524,1.899,1.375.551.852.858,1.798.919,2.832.15,2.543.303,5.081.458,7.613.063,1.032.385,2.003.965,2.913.581.914,1.19,1.411,1.835,1.496,1.581.212,3.162.431,4.742.657.644.092,1.236.576,1.775,1.449.538.874.838,1.879.898,3.009.133,2.496.268,4.988.405,7.475.057,1.033.366,2.013.928,2.95.562.935,1.156,1.46,1.784,1.576,1.541.281,3.082.568,4.621.861.627.12,1.215.634,1.767,1.543.55.909.851,1.934.906,3.076.12,2.519.242,5.033.366,7.544.056,1.134-.149,2.052-.613,2.741-.466.692-1.005.965-1.622.829-1.516-.336-3.034-.666-4.552-.99-.619-.132-1.158.146-1.616.828-.458.684-.651,1.579-.582,2.692.153,2.458.308,4.911.465,7.359.071,1.109-.107,2-.53,2.668-.425.67-.943.928-1.558.782-7.716-1.84-15.45-3.534-23.199-5.06-.673-.132-1.286-.615-1.836-1.444Z"/>
      <path class="st13" d="M371.001,878.667c-.526-.967-.811-2.034-.849-3.2-.804-24.198-1.398-48.746-1.783-73.611-.017-1.097-.286-2.138-.807-3.116-.523-.978-1.144-1.522-1.863-1.63-4.91-.735-9.828-1.403-14.755-1.998-.721-.087-1.351-.575-1.888-1.464-.538-.886-.824-1.864-.859-2.939-.084-2.634-.165-5.272-.244-7.914-.032-1.075.197-2.03.691-2.865.491-.834,1.106-1.216,1.837-1.146,15.178,1.47,30.284,3.656,45.287,6.43.661.122,1.26.702,1.788,1.737.527,1.035.783,2.126.767,3.264-.039,2.798-.076,5.594-.11,8.386-.014,1.139-.295,2.092-.839,2.858-.544.769-1.144,1.083-1.796.95-4.899-.999-9.809-1.939-14.729-2.815-.657-.116-1.251.237-1.783,1.053-.532.816-.793,1.781-.785,2.893.167,25.163.545,50.029,1.131,74.567.028,1.181-.185,2.123-.633,2.818-.449.697-1.005.945-1.668.749-1.467-.434-2.935-.864-4.404-1.29-.611-.176-1.179-.75-1.706-1.719Z"/>
      <path class="st13" d="M418.707,893.71c-.453-1.036-.672-2.176-.656-3.414.399-31.472,1.112-63.298,2.141-95.421.037-1.159.325-2.157.864-2.992.538-.835,1.168-1.17,1.884-1.004,11.553,2.671,23.032,5.648,34.423,8.871.647.183,1.206.837,1.673,1.958.466,1.121.661,2.276.585,3.462-.185,2.911-.368,5.82-.548,8.729-.074,1.185.109,2.308.545,3.369.435,1.064.971,1.688,1.609,1.881,1.562.47,3.123.944,4.682,1.422.635.195,1.178.857,1.633,1.978.453,1.126.637,2.277.556,3.451-.197,2.891-.391,5.781-.583,8.67-.078,1.176-.405,2.164-.98,2.961-.576.799-1.174,1.099-1.799.898-1.535-.488-3.072-.974-4.611-1.455-.628-.195-1.212.091-1.749.862-.538.77-.84,1.752-.909,2.943-.167,2.925-.331,5.849-.492,8.771-.066,1.191.115,2.351.539,3.481.423,1.129.944,1.793,1.562,1.994,1.515.495,3.029.993,4.54,1.494.616.203,1.147.848,1.595,1.928.447,1.083.628,2.272.549,3.561-.541,8.826-1.059,17.639-1.555,26.439-.072,1.286-.378,2.301-.917,3.036-.54.737-1.105.995-1.702.781-1.465-.526-2.932-1.051-4.4-1.574-.599-.214-1.154.052-1.657.795-.505.743-.788,1.752-.848,3.033-.132,2.826-.261,5.651-.388,8.473-.058,1.276-.348,2.28-.871,3.006-.522.727-1.078.978-1.668.76-10.382-3.843-20.848-7.615-31.388-11.254-.653-.224-1.207-.858-1.659-1.893ZM452.53,889.139c.6.211,1.165-.05,1.699-.784.534-.73.832-1.742.895-3.023.424-8.756.871-17.527,1.341-26.313.069-1.286-.124-2.466-.58-3.541-.456-1.071-.995-1.711-1.614-1.91-7.763-2.496-15.57-4.911-23.416-7.224-.627-.184-1.21.1-1.748.841-.539.746-.827,1.75-.864,3.01-.255,8.626-.488,17.231-.698,25.813-.031,1.254.193,2.41.668,3.462.474,1.054,1.014,1.68,1.622,1.883,7.606,2.529,15.173,5.132,22.696,7.786ZM455.243,835.56c.628.193,1.226-.108,1.796-.908.569-.799.889-1.784.958-2.956.169-2.877.34-5.756.514-8.637.071-1.169-.124-2.316-.587-3.431-.463-1.112-1.015-1.766-1.653-1.955-8.004-2.359-16.052-4.608-24.139-6.724-.647-.17-1.251.155-1.813.96-.562.81-.865,1.792-.907,2.944-.104,2.834-.205,5.665-.304,8.494-.04,1.152.185,2.27.672,3.356.486,1.086,1.047,1.715,1.684,1.892,7.967,2.211,15.895,4.54,23.779,6.965Z"/>
      <path class="st13" d="M473.477,913.625c-.395-1.084-.554-2.274-.474-3.566,2.015-32.77,4.344-65.697,6.989-98.724.095-1.193.429-2.201,1.002-3.021.574-.822,1.211-1.121,1.909-.901,11.251,3.558,22.405,7.316,33.447,11.214.628.221,1.144.911,1.548,2.073.403,1.159.536,2.337.403,3.533-.328,2.934-.653,5.868-.975,8.802-.132,1.198-.502,2.165-1.107,2.909-.606.743-1.218,1.001-1.836.781-7.757-2.767-15.57-5.479-23.434-8.112-.629-.209-1.24.09-1.837.896-.596.807-.944,1.808-1.046,3.002-.248,2.931-.493,5.861-.735,8.79-.099,1.196.066,2.364.49,3.513.426,1.151.945,1.83,1.564,2.042,4.63,1.588,9.241,3.199,13.834,4.827.611.217,1.109.873,1.493,1.963.381,1.093.514,2.239.399,3.434-.284,2.936-.565,5.871-.844,8.806-.115,1.198-.451,2.198-1.007,3.006-.56.811-1.138,1.107-1.74.887-4.521-1.634-9.062-3.255-13.62-4.86-.611-.215-1.199.056-1.768.799-.57.747-.905,1.772-1.007,3.07-.69,8.885-1.357,17.763-2.002,26.632-.094,1.296.068,2.497.484,3.594.416,1.099.916,1.757,1.507,1.978,7.387,2.755,14.723,5.529,22.005,8.3.58.221,1.065.885,1.451,1.989.386,1.105.518,2.309.394,3.613-.272,2.88-.541,5.76-.808,8.64-.122,1.304-.458,2.328-1.009,3.069-.552.743-1.112,1.001-1.683.78-10.044-3.906-20.195-7.847-30.441-11.763-.636-.244-1.15-.907-1.546-1.995Z"/>
      <path class="st13" d="M526.555,934.132c-.361-1.1-.47-2.306-.327-3.609.314-2.88.631-5.76.951-8.639.145-1.305.048-2.502-.291-3.594-.339-1.092-.822-1.758-1.446-1.998-1.38-.529-2.762-1.058-4.147-1.588-.627-.238-1.114-.906-1.463-2-.348-1.094-.454-2.295-.318-3.599,2.204-21.035,4.536-42.062,6.994-63.069.141-1.193.503-2.192,1.091-2.996.59-.802,1.22-1.081,1.888-.836,1.475.544,2.948,1.09,4.419,1.636.665.248,1.289,0,1.879-.746.585-.743.956-1.71,1.109-2.904.371-2.924.745-5.847,1.121-8.77.153-1.189.545-2.179,1.178-2.963.633-.784,1.256-1.061,1.876-.83,10.868,4.073,21.616,8.238,32.232,12.437.603.238,1.074.934,1.411,2.087.337,1.151.407,2.313.216,3.481-.468,2.871-.933,5.743-1.395,8.617-.19,1.175-.599,2.117-1.228,2.831-.631.717-1.243.958-1.837.726-10.453-4.08-21.037-8.157-31.741-12.169-.61-.229-1.225.052-1.846.84-.621.79-1.005,1.78-1.155,2.973-2.623,20.964-5.119,41.962-7.489,62.98-.146,1.301-.037,2.508.327,3.609.364,1.103.83,1.761,1.402,1.982,7.162,2.74,14.265,5.455,21.304,8.121.561.212,1.133-.052,1.717-.797.584-.742.966-1.763,1.142-3.056.393-2.858.788-5.715,1.185-8.571.179-1.294.102-2.485-.236-3.578-.338-1.091-.793-1.748-1.364-1.965-1.4-.532-2.803-1.064-4.208-1.598-.573-.219-1.028-.903-1.37-2.053-.34-1.152-.433-2.32-.275-3.509.38-2.864.762-5.726,1.146-8.588.174-1.296.561-2.311,1.161-3.048.599-.735,1.191-.994,1.774-.773,4.363,1.663,8.704,3.321,13.021,4.969.576.219,1.03.876,1.363,1.964.332,1.09.398,2.278.203,3.561-2.228,14.725-4.392,29.489-6.492,44.288-.184,1.291-.564,2.315-1.14,3.062-.577.747-1.139,1.02-1.686.816-9.635-3.599-19.397-7.338-29.274-11.158-.563-.219-1.021-.876-1.381-1.979Z"/>
      <path class="st13" d="M569.267,950.275c-.283-1.06-.326-2.239-.132-3.523.429-2.838.861-5.675,1.295-8.51.197-1.284.577-2.3,1.143-3.054.566-.751,1.15-1.016,1.75-.795,1.325.488,2.648.974,3.969,1.457.598.218,1.181-.047,1.751-.799.569-.748.961-1.762,1.169-3.035,3.37-20.557,6.866-41.016,10.486-61.36.205-1.156.167-2.297-.115-3.421-.283-1.124-.742-1.814-1.381-2.065-1.409-.557-2.821-1.114-4.236-1.672-.64-.253-1.112-.916-1.412-1.994-.303-1.078-.355-2.198-.155-3.364.487-2.854.977-5.706,1.47-8.557.2-1.161.613-2.126,1.24-2.89.627-.765,1.265-1.015,1.916-.753,7.481,3.007,14.892,6.017,22.229,9.007.585.238,1.009.912,1.275,2.022.263,1.11.28,2.231.052,3.364-.56,2.78-1.117,5.563-1.672,8.348-.227,1.137-.651,2.055-1.267,2.755-.619.704-1.215.94-1.791.712-1.413-.559-2.829-1.119-4.248-1.68-.578-.23-1.193.031-1.844.782-.649.752-1.082,1.701-1.297,2.85-3.781,20.184-7.437,40.495-10.969,60.919-.218,1.265-.182,2.43.106,3.484.29,1.056.704,1.678,1.245,1.872,1.329.472,2.655.94,3.979,1.405.539.19.936.804,1.192,1.841.253,1.039.268,2.183.041,3.443-.5,2.782-.999,5.565-1.494,8.351-.225,1.261-.624,2.272-1.188,3.025-.568.756-1.115,1.043-1.645.862-6.649-2.27-13.369-4.648-20.155-7.112-.591-.214-1.025-.853-1.307-1.917Z"/>
      <path class="st13" d="M602.434,961.797c-.239-1.016-.242-2.153-.005-3.404,5.978-31.731,12.264-63.128,18.855-94.133.238-1.12.678-2.049,1.32-2.781.642-.734,1.279-.97,1.909-.713,1.39.567,2.777,1.133,4.161,1.698.626.256,1.061.928,1.302,2.014.238,1.086.236,2.183-.011,3.289-.607,2.719-1.211,5.441-1.812,8.166-.246,1.112-.231,2.187.042,3.225.271,1.04.688,1.667,1.253,1.887,1.356.53,2.71,1.059,4.06,1.585.611.239,1.029.891,1.258,1.947.226,1.06.214,2.134-.035,3.221-.613,2.677-1.224,5.358-1.833,8.042-.248,1.093-.247,2.171,0,3.232.248,1.064.645,1.693,1.195,1.896,1.348.497,2.692.992,4.034,1.483.545.199.93.802,1.151,1.808.22,1.003.2,2.056-.059,3.158-.637,2.705-1.271,5.414-1.903,8.127-.257,1.106-.271,2.189-.043,3.244.228,1.058.609,1.673,1.144,1.856,1.313.449,2.622.894,3.929,1.335.533.179,1.123-.103,1.774-.842.65-.739,1.107-1.647,1.372-2.73,3.313-13.562,6.687-27.023,10.124-40.377.274-1.065.739-1.947,1.394-2.644.654-.698,1.262-.935,1.819-.711,1.366.546,2.728,1.089,4.087,1.629.554.22.942.849,1.162,1.886.22,1.035.187,2.075-.096,3.124-7.827,29.016-15.354,58.584-22.58,88.647-.285,1.184-.732,2.147-1.342,2.883-.61.735-1.164,1.042-1.665.914-1.229-.315-2.46-.636-3.695-.964-.504-.132-.853-.676-1.047-1.632-.196-.952-.157-2.034.118-3.234,1.879-8.2,3.781-16.366,5.704-24.497.281-1.19.309-2.271.082-3.247-.228-.975-.604-1.549-1.127-1.713-1.285-.406-2.573-.817-3.864-1.232-.526-.168-.9-.773-1.128-1.814-.226-1.043-.214-2.115.036-3.216.605-2.654,1.212-5.304,1.822-7.95.275-1.198.306-2.292.087-3.282-.22-.99-.598-1.581-1.134-1.767-1.32-.457-2.643-.918-3.968-1.383-.54-.189-.928-.818-1.169-1.889-.239-1.072-.236-2.169.012-3.29.61-2.746,1.222-5.487,1.836-8.226.25-1.115.259-2.181.029-3.2-.232-1.02-.648-1.642-1.25-1.865-1.329-.494-2.66-.992-3.995-1.491-.556-.207-1.153.037-1.792.73-.639.695-1.08,1.605-1.319,2.725-4.216,19.719-8.308,39.601-12.276,59.631-.247,1.244-.659,2.242-1.232,2.994-.575.756-1.146,1.042-1.713.862-1.253-.398-2.509-.801-3.768-1.209-.571-.183-.975-.784-1.213-1.804Z"/>
      <path class="st13" d="M649.516,975.141c-.173-.913-.111-1.959.184-3.124,7.495-29.61,15.291-58.69,23.384-87.182.292-1.027.768-1.882,1.43-2.558.662-.678,1.291-.897,1.886-.667,1.313.51,2.622,1.018,3.928,1.522.591.228.973.836,1.145,1.824.17.984.105,1.982-.196,2.994-.739,2.481-1.475,4.968-2.209,7.459-.3,1.017-.347,1.997-.141,2.935.204.94.57,1.501,1.102,1.687,1.278.451,2.553.898,3.825,1.34.577.199.942.779,1.101,1.728.158.952.085,1.92-.218,2.91-.744,2.434-1.486,4.873-2.225,7.317-.301.995-.361,1.971-.185,2.918.177.949.524,1.502,1.04,1.662,1.268.393,2.532.781,3.793,1.164.514.156.847.68,1.001,1.57.152.89.073,1.831-.241,2.829-.769,2.45-1.536,4.906-2.301,7.367-.311,1.004-.388,1.974-.231,2.905.157.93.485,1.46.988,1.591,1.232.322,2.461.639,3.687.949.5.127,1.081-.159,1.749-.857.667-.695,1.158-1.528,1.477-2.503,3.981-12.215,8.022-24.288,12.123-36.214.326-.95.826-1.743,1.499-2.376.67-.634,1.269-.853,1.792-.669,1.281.454,2.558.903,3.832,1.347.519.181.854.726,1.004,1.631.148.905.053,1.818-.282,2.748-9.284,25.707-18.278,52.162-26.978,79.307-.344,1.07-.828,1.963-1.45,2.678-.625.717-1.17,1.05-1.638.995-1.148-.134-2.3-.276-3.456-.425-.471-.061-.77-.503-.899-1.326-.13-.823-.028-1.784.306-2.874,2.279-7.457,4.579-14.865,6.901-22.225.339-1.079.431-2.036.272-2.883-.159-.847-.485-1.326-.976-1.433-1.204-.261-2.412-.529-3.623-.804-.494-.112-.817-.623-.973-1.538-.156-.916-.082-1.875.223-2.879.734-2.415,1.471-4.825,2.209-7.23.335-1.087.426-2.067.276-2.942-.155-.872-.482-1.38-.986-1.517-1.24-.335-2.483-.676-3.73-1.022-.506-.143-.844-.686-1.014-1.643-.167-.953-.103-1.944.2-2.967.743-2.508,1.489-5.011,2.237-7.509.305-1.017.375-1.98.211-2.891-.164-.912-.529-1.458-1.096-1.639-1.251-.397-2.505-.798-3.763-1.204-.524-.17-1.112.072-1.767.726-.655.656-1.131,1.501-1.424,2.53-5.171,18.107-10.221,36.457-15.15,55.035-.306,1.153-.757,2.097-1.349,2.834-.594.737-1.157,1.049-1.69.935-1.18-.253-2.363-.513-3.549-.78-.537-.121-.892-.637-1.065-1.553Z"/>
      <path class="st13" d="M693.656,982.222c-.106-.767.016-1.678.37-2.722,8.96-26.517,18.212-52.309,27.751-77.319.344-.904.855-1.661,1.532-2.268.676-.608,1.294-.817,1.85-.634,8.959,2.937,17.731,5.596,26.307,7.917.487.131.778.579.865,1.341.088.76-.057,1.538-.434,2.34-.927,1.968-1.851,3.943-2.773,5.925-.377.809-.907,1.482-1.587,2.023-.682.542-1.261.763-1.74.658-6.014-1.318-12.127-2.823-18.336-4.493-.495-.134-1.09.106-1.782.722-.691.617-1.212,1.372-1.562,2.263-.857,2.185-1.711,4.376-2.564,6.573-.347.897-.461,1.759-.347,2.583.116.826.415,1.29.903,1.399,3.649.816,7.264,1.567,10.844,2.25.478.092.76.501.849,1.226.087.725-.051,1.511-.412,2.362-.888,2.091-1.774,4.188-2.658,6.292-.362.859-.871,1.611-1.525,2.265-.657.653-1.218.951-1.686.885-3.519-.495-7.071-1.063-10.658-1.701-.479-.085-1.048.187-1.703.816-.656.631-1.171,1.446-1.544,2.439-2.546,6.793-5.072,13.642-7.576,20.548-.366,1.009-.488,1.895-.369,2.645.119.751.409,1.144.871,1.184,5.788.487,11.485.752,17.088.771.447.001.715.336.8.997.086.662-.066,1.458-.458,2.396-.865,2.072-1.727,4.151-2.588,6.236-.39.944-.903,1.763-1.535,2.453-.633.692-1.169,1.054-1.607,1.077-7.711.408-15.605.306-23.675-.248-.501-.034-.803-.434-.909-1.201Z"/>
      <path class="st13" d="M728.105,981.93c-.051-.612.124-1.379.523-2.292,10.138-23.187,20.558-45.485,31.256-66.838.386-.77.922-1.428,1.608-1.969.685-.541,1.288-.744,1.808-.621,8.373,1.99,16.548,3.616,24.514,4.818.452.068.692.396.72.98.028.584-.17,1.199-.587,1.849-1.005,1.6-2.009,3.208-3.011,4.824-.417.659-.615,1.258-.595,1.791.018.534.246.813.686.843,1.077.071,2.15.133,3.219.185.435.021.656.301.669.828.01.528-.195,1.103-.614,1.734-3.152,4.725-6.284,9.53-9.396,14.413-.415.651-.966,1.262-1.65,1.833-.684.571-1.238.883-1.662.924-1.041.103-2.085.196-3.134.279-.428.034-.969.329-1.614.887-.648.56-1.195,1.221-1.641,1.978-3.05,5.187-6.08,10.451-9.09,15.789-.44.781-.655,1.418-.648,1.902.006.484.216.678.628.581,1.01-.234,2.016-.48,3.019-.737.409-.105.622.067.639.508.018.442-.196,1.035-.642,1.787-.982,1.661-1.963,3.33-2.941,5.007-.443.759-.986,1.465-1.625,2.118-.641.654-1.16,1.052-1.56,1.187-.983.332-1.97.652-2.961.96-.404.127-.609-.044-.614-.514-.006-.468.207-1.104.642-1.896.978-1.755,1.958-3.501,2.94-5.239.437-.786.642-1.414.613-1.895-.028-.481-.251-.68-.666-.594-1.018.211-2.04.411-3.065.599-.418.078-.643-.143-.68-.664-.037-.52.161-1.194.595-2.011.958-1.805,1.917-3.602,2.88-5.391.435-.809.643-1.482.623-2.022-.022-.54-.247-.793-.677-.754-3.219.288-6.473.481-9.763.583-.439.014-.988.331-1.643.953-.655.621-1.189,1.367-1.605,2.236-2.845,5.939-5.669,11.947-8.472,18.021-.41.889-.925,1.674-1.543,2.352-.618.678-1.157,1.055-1.622,1.12-1.026.143-2.055.276-3.087.399-.468.056-.726-.221-.775-.834ZM769.132,945.74c.428-.025.982-.333,1.665-.916.684-.584,1.23-1.215,1.637-1.898,3.055-5.118,6.129-10.159,9.223-15.123.412-.662.608-1.273.581-1.839-.026-.566-.259-.873-.702-.91-5.581-.461-11.266-1.151-17.053-2.049-.461-.07-1.042.168-1.739.72-.697.552-1.24,1.208-1.628,1.959-2.918,5.64-5.816,11.35-8.693,17.129-.383.772-.549,1.484-.498,2.132.053.646.301.974.746.988,5.587.18,11.075.124,16.462-.192Z"/>
    </g>
  </g>
  <g id="Layer_1">
    <path class="st20" d="M526.743,428.805c4.777-10.805,11.085-15.359,12.752-16.532,3.208-2.256,13.06-9.185,17.29-6.017,4.042,3.027,2.294,16.877-4.505,22.966-8.298,7.432-27.682,4.435-25.538-.416Z"/>
    <path class="st3" d="M545.505,432.502s-4.64-11.515-8.255-12.098c-3.297-.531-8.07,7.729-10.723,9.245-1.212.692,1.634-4.082,1.666-4.136,1.051-1.769,6.324-9.135,9.745-12.392,3.615-3.441,13.801-9.616,18.504-6.976,2.047,1.149,2.887,5.676.966,5.764-3.234.148-11.665,1.198-12.894,4.372-1.365,3.526,6.165,13.81,6.165,13.81l-5.177,2.411Z"/>
    <path class="st27" d="M584.835,420.331c.368-1.27,4.091-13.426,15.046-16.939,12.956-4.155,28.822,6.088,30.601,19.631,1.549,11.796-7.625,25.811-17.817,25.3-8.52-.428-17.125-10.976-15.427-20.677,1.128-6.444,7.102-14.219,13.545-13.017,5.297.989,9.877,7.852,8.193,13.841-1.687,6-9.245,9.641-12.176,7.76-2.902-1.863-2.4-9.867.354-10.998.544-.224,1.741-.411,3.994,1.314"/>
    <path class="st27" d="M486.551,435.492c7.074-10.545,8.048-20.728,3.898-24.589-3.797-3.532-12.722-2.552-14.01.609-.958,2.351,1.953,6.779,4.464,6.736,2.868-.049,6.506-5.952,10.755-27.307"/>
    <path class="st27" d="M459.082,390.631c-2.297,5.78-4.178,13.329-.789,18.866,2.229,3.642,5.266,4.008,8.518,7.344,3.279,3.364,6.489,9.454,5.887,21.42"/>
    <path class="st27" d="M466.665,442.881c.965-9.312-4.15-16.33-10.154-16.671-6.554-.372-13.738,7.238-13.167,12.009.671,5.608,12.139,8.011,13.383,5.831.867-1.52-2.488-6.59-21.964-22.61"/>
    <polygon class="st25" points="534.442 439.075 535.638 440.683 539.404 445.892 533.725 454.905 534.442 439.075"/>
    <ellipse class="st25" cx="560.666" cy="477.849" rx="3.26" ry="5.702" transform="translate(-150.436 285.441) rotate(-25.3)"/>
  </g>
</svg>