<?xml version="1.0" encoding="UTF-8"?>
<svg id="lettering" xmlns="http://www.w3.org/2000/svg" version="1.1" viewBox="0 0 1024 1024">
  <!-- Generator: Adobe Illustrator 29.3.0, SVG Export Plug-In . SVG Version: 2.1.0 Build 146)  -->
  <defs>
    <style>
      .st0 {
        stroke: #ceb35c;
      }

      .st0, .st1 {
        stroke-width: 10px;
      }

      .st0, .st1, .st2 {
        stroke-miterlimit: 10;
      }

      .st1 {
        fill: none;
      }

      .st1, .st2 {
        stroke: #6ca665;
      }

      .st3 {
        isolation: isolate;
      }

      .st2 {
        fill: #6ca665;
      }
    </style>
  </defs>
  <path class="st1" d="M307.895,524.326c-4.927-9.407-9.734-22.621-7-37,3.476-18.28,14-36,14-36,0,0-9.963-1.807-20.609-16.298-17.179-23.385-9.441-43.461,5.567-45.202,14.404-1.671,40.702,3.719,52.702,15.719,5.927,5.927,15.509,22.175,15.509,22.175l28.726-5.027s-7.526-13.366-8.435-21.61c-1.159-10.509,8.935-18.4,18.376-19.96,4.161-.687,23.898.679,31.853,13.685,4.592,7.507,8.427,22.806,8.427,22.806,0,0,159.67-.268,265.884,55.711,6.022,3.174,15.324,8.736,17,18,2.111,11.666-9.5,22.71-14,27-32.327,30.821-204.179,57.862-231,62"/>
  <polyline class="st1" points="265.745 436.327 185.745 424.327 165.745 382.327"/>
  <polyline class="st1" points="262.671 457.588 222.671 457.588 168.671 472.588 156.671 457.588"/>
  <polyline class="st1" points="743.852 473.141 850.852 473.141 886.852 425.141"/>
  <line class="st1" x1="748.905" y1="500.641" x2="961.905" y2="500.641"/>
  <polyline class="st1" points="740.352 524.425 801.352 547.425 869.352 542.425 890.352 565.425"/>
  <polyline class="st1" points="724.582 544.925 780.439 598.076 822.796 574.323"/>
  <line class="st1" x1="706.307" y1="555.021" x2="766.053" y2="636.021"/>
  <polyline class="st1" points="684.807 564.731 727.807 639.731 696.807 683.731"/>
  <polyline class="st1" points="262.671 486.457 244.671 505.457 160.671 513.457 107.671 572.457"/>
  <line class="st1" x1="269.444" y1="514.135" x2="186.696" y2="575.716"/>
  <line class="st1" x1="265.745" y1="397.457" x2="228.07" y2="345.108"/>
  <circle class="st0" cx="220.673" cy="337.539" r="15.474"/>
  <ellipse class="st2" cx="418.905" cy="489.457" rx="16.105" ry="18.741"/>
  <line class="st1" x1="284.57" y1="540.659" x2="231.221" y2="602.342"/>
  <g class="st3">
    <g class="st3">
      <path d="M271.697,664.447c-.412-.581-.618-1.284-.618-2.105v-62.558c0-.753.206-1.438.618-2.054.411-.617.908-.926,1.489-.926h28.105c.532,0,1.017.309,1.452.926.436.615.654,1.301.654,2.054v5.547c0,.755.205,1.423.617,2.003.411.583.883.873,1.416.873h3.922c.532,0,1.017.307,1.453.917.436.611.653,1.29.653,2.035v5.499c0,.746-.218,1.425-.653,2.035-.436.611-.92.916-1.453.916h-3.922c-.533,0-1.005.294-1.416.881-.412.588-.617,1.262-.617,2.021v5.596c0,.762.205,1.453.617,2.074.411.623.883.933,1.416.933h3.922c.532,0,1.017.292,1.453.873.436.583.653,1.284.653,2.106v16.846c0,.822-.218,1.525-.653,2.105-.436.583-.92.873-1.453.873h-3.922c-.533,0-1.005.293-1.416.873-.412.583-.617,1.284-.617,2.105v5.445c0,.821-.218,1.524-.654,2.105-.436.582-.92.873-1.452.873h-28.105c-.581,0-1.078-.291-1.489-.873ZM293.285,619.609c.537,0,1.013-.305,1.429-.916.415-.61.623-1.289.623-2.035v-5.499c0-.745-.208-1.424-.623-2.035-.416-.61-.892-.917-1.429-.917h-3.957c-.538,0-1.027.307-1.466.917-.44.611-.659,1.29-.659,2.035v5.499c0,.746.219,1.425.659,2.035.439.611.928.916,1.466.916h3.957ZM293.285,653.918c.537,0,1.013-.29,1.429-.873.415-.58.623-1.283.623-2.105v-16.846c0-.822-.208-1.523-.623-2.106-.416-.581-.892-.873-1.429-.873h-3.957c-.538,0-1.027.292-1.466.873-.44.583-.659,1.284-.659,2.106v16.846c0,.822.219,1.525.659,2.105.439.583.928.873,1.466.873h3.957Z"/>
      <path d="M328.199,664.447c-.412-.581-.618-1.284-.618-2.105v-5.445c0-.821.206-1.522.618-2.105.411-.58.908-.873,1.489-.873h3.849c.581,0,1.077-.29,1.489-.873.411-.58.617-1.283.617-2.105v-39.753c0-.753-.207-1.438-.617-2.055-.412-.616-.908-.925-1.489-.925h-3.849c-.581,0-1.078-.29-1.489-.873-.412-.58-.618-1.248-.618-2.003v-5.547c0-.753.206-1.438.618-2.054.411-.617.908-.926,1.489-.926h28.105c.532,0,1.017.309,1.452.926.436.615.654,1.301.654,2.054v5.547c0,.755-.218,1.423-.654,2.003-.436.583-.92.873-1.452.873h-3.922c-.533,0-1.017.309-1.453.925-.436.616-.653,1.302-.653,2.055v39.753c0,.822.218,1.525.653,2.105.436.583.919.873,1.453.873h3.922c.532,0,1.017.293,1.452.873.436.583.654,1.284.654,2.105v5.445c0,.821-.218,1.524-.654,2.105-.436.582-.92.873-1.452.873h-28.105c-.581,0-1.078-.291-1.489-.873Z"/>
      <path d="M384.735,664.447c-.436-.581-.653-1.284-.653-2.105v-51.155c0-.753-.207-1.438-.617-2.055-.412-.616-.908-.925-1.489-.925h-11.911c-.581,0-1.078-.29-1.489-.873-.412-.58-.617-1.248-.617-2.003v-5.547c0-.753.206-1.438.617-2.054.411-.617.908-.926,1.489-.926h44.228c.532,0,1.017.309,1.453.926.436.615.653,1.301.653,2.054v5.547c0,.755-.218,1.423-.653,2.003-.436.583-.92.873-1.453.873h-11.983c-.533,0-1.017.309-1.453.925-.436.616-.653,1.302-.653,2.055v51.155c0,.821-.207,1.524-.618,2.105-.412.582-.884.873-1.416.873h-11.983c-.533,0-1.017-.291-1.453-.873Z"/>
      <path d="M425.078,664.447c-.412-.581-.618-1.284-.618-2.105v-62.558c0-.753.206-1.438.618-2.054.411-.617.908-.926,1.489-.926h11.91c.581,0,1.077.309,1.489.926.411.615.617,1.301.617,2.054v16.949c0,.755.219,1.438.659,2.054.439.617.928.926,1.466.926h3.957c.537,0,1.013-.309,1.429-.926.415-.615.623-1.299.623-2.054v-16.949c0-.753.217-1.438.65-2.054.434-.617.916-.926,1.447-.926h11.929c.53,0,1.012.309,1.445.926.434.615.651,1.301.651,2.054v62.558c0,.821-.218,1.524-.651,2.105-.433.582-.916.873-1.445.873h-11.929c-.531,0-1.013-.291-1.447-.873-.434-.581-.65-1.284-.65-2.105v-28.248c0-.822-.208-1.523-.623-2.106-.416-.581-.892-.873-1.429-.873h-3.957c-.538,0-1.027.292-1.466.873-.44.583-.659,1.284-.659,2.106v28.248c0,.821-.207,1.524-.617,2.105-.412.582-.908.873-1.489.873h-11.91c-.581,0-1.078-.291-1.489-.873Z"/>
      <path d="M481.579,664.447c-.412-.581-.618-1.284-.618-2.105v-51.155c0-.753.206-1.438.618-2.055.411-.616.908-.925,1.489-.925h3.849c.581,0,1.077-.29,1.489-.873.411-.58.617-1.248.617-2.003v-5.547c0-.753.218-1.438.653-2.054.436-.617.919-.926,1.453-.926h20.044c.532,0,1.017.309,1.452.926.436.615.654,1.301.654,2.054v5.547c0,.755.205,1.423.617,2.003.41.583.883.873,1.416.873h3.922c.531,0,1.016.309,1.452.925.436.616.653,1.302.653,2.055v51.155c0,.821-.218,1.524-.651,2.105-.433.582-.915.873-1.445.873h-11.929c-.531,0-1.013-.291-1.447-.873-.434-.581-.65-1.284-.65-2.105v-16.847c0-.821-.208-1.522-.623-2.106-.416-.58-.892-.873-1.429-.873h-3.957c-.538,0-1.027.293-1.466.873-.44.584-.659,1.285-.659,2.106v16.847c0,.821-.207,1.524-.617,2.105-.412.582-.908.873-1.489.873h-11.91c-.581,0-1.078-.291-1.489-.873ZM503.166,631.114c.537,0,1.013-.308,1.429-.925.415-.616.623-1.3.623-2.055v-16.948c0-.753-.208-1.438-.623-2.055-.416-.616-.892-.925-1.429-.925h-3.957c-.538,0-1.027.309-1.466.925-.44.616-.659,1.302-.659,2.055v16.948c0,.755.219,1.438.659,2.055.439.617.928.925,1.466.925h3.957Z"/>
      <path d="M546.178,664.447c-.436-.581-.654-1.284-.654-2.105v-5.445c0-.821-.206-1.522-.617-2.105-.412-.58-.908-.873-1.488-.873h-3.85c-.58,0-1.078-.29-1.488-.873-.412-.58-.617-1.283-.617-2.105v-39.753c0-.753.205-1.438.617-2.055.41-.616.908-.925,1.488-.925h3.85c.58,0,1.076-.29,1.488-.873.411-.58.617-1.248.617-2.003v-5.547c0-.753.219-1.438.654-2.054.436-.617.919-.926,1.452-.926h28.105c.532,0,1.017.309,1.452.926.436.615.654,1.301.654,2.054v16.949c0,.755-.219,1.438-.654,2.054-.436.617-.92.926-1.452.926h-3.922c-.533,0-1.005-.309-1.416-.926-.412-.615-.617-1.299-.617-2.054v-5.547c0-.753-.218-1.438-.653-2.055s-.921-.925-1.453-.925h-11.982c-.533,0-1.018.309-1.453.925s-.653,1.302-.653,2.055v39.753c0,.822.218,1.525.653,2.105.436.583.92.873,1.453.873h11.982c.532,0,1.018-.29,1.453-.873.436-.58.653-1.283.653-2.105v-5.444c0-.821.205-1.522.617-2.106.411-.58.883-.873,1.416-.873h3.922c.532,0,1.017.293,1.452.873.436.584.654,1.285.654,2.106v5.444c0,.822-.219,1.525-.654,2.105-.436.583-.92.873-1.452.873h-3.922c-.533,0-1.005.293-1.416.873-.412.583-.617,1.284-.617,2.105v5.445c0,.821-.218,1.524-.653,2.105-.436.582-.921.873-1.453.873h-20.044c-.533,0-1.017-.291-1.452-.873Z"/>
      <path d="M594.581,664.445c-.412-.582-.618-1.285-.618-2.11v-62.653c0-.753.206-1.438.618-2.055.411-.616.907-.924,1.489-.924h11.91c.58,0,1.076.308,1.488.924.41.617.617,1.302.617,2.055v16.949c0,.754.219,1.438.659,2.055.439.615.929.924,1.466.924h3.957c.537,0,1.014-.305,1.43-.916.414-.61.622-1.289.622-2.035v-5.499c0-.745.217-1.424.65-2.035.434-.61.915-.917,1.446-.917h3.904c.529,0,1.012-.29,1.445-.873.434-.58.651-1.248.651-2.003v-5.547c0-.753.204-1.438.614-2.054.409-.617.879-.926,1.41-.926h3.904c.529,0,1.012.309,1.445.926.434.615.65,1.301.65,2.054v5.547c0,.755-.217,1.423-.65,2.003-.434.583-.916.873-1.445.873h-3.904c-.531,0-1.001.307-1.41.917-.41.611-.614,1.29-.614,2.035v5.499c0,.746-.218,1.425-.651,2.035-.434.611-.916.916-1.445.916h-3.904c-.531,0-1.013.294-1.446.878-.434.585-.65,1.255-.65,2.011v5.573c0,.757.217,1.444.65,2.063.434.62.915.928,1.446.928h3.904c.529,0,1.012.294,1.445.879.434.584.651,1.288.651,2.113v5.47c0,.758.204,1.444.614,2.063.409.62.879.928,1.41.928h3.904c.529,0,1.012.293,1.445.873.434.584.65,1.285.65,2.106v16.847c0,.821-.217,1.524-.65,2.105-.434.582-.916.873-1.445.873h-11.93c-.531,0-1.013-.291-1.446-.873-.434-.581-.65-1.284-.65-2.105v-16.847c0-.821-.208-1.522-.622-2.106-.416-.58-.893-.873-1.43-.873h-3.957c-.537,0-1.026.293-1.466.873-.44.584-.659,1.285-.659,2.106v16.847c0,.821-.207,1.524-.617,2.105-.412.582-.908.873-1.488.873h-11.91c-.582,0-1.078-.291-1.489-.875Z"/>
      <path d="M651.082,664.447c-.412-.581-.617-1.284-.617-2.105v-5.445c0-.821.205-1.522.617-2.105.411-.58.908-.873,1.489-.873h11.91c.581,0,1.077-.292,1.489-.876.41-.585.617-1.29.617-2.115v-5.47c0-.825-.207-1.529-.617-2.114-.412-.584-.908-.878-1.489-.878h-3.849c-.533,0-1.018-.309-1.453-.928s-.653-1.307-.653-2.064v-5.469c0-.826-.206-1.53-.617-2.114-.412-.585-.908-.878-1.489-.878l-3.849.103c-.581,0-1.078-.308-1.489-.925-.412-.616-.617-1.3-.617-2.055v-16.948c0-.753.205-1.438.617-2.055.411-.616.908-.925,1.489-.925h3.849c.581,0,1.077-.29,1.489-.873.411-.58.617-1.248.617-2.003v-5.547c0-.753.218-1.438.653-2.054.436-.617.92-.926,1.453-.926h19.98c.529,0,1.012.309,1.445.926.434.615.651,1.301.651,2.054v5.547c0,.755-.218,1.423-.651,2.003-.434.583-.916.873-1.445.873h-11.929c-.531,0-1.013.307-1.446.917-.434.611-.65,1.29-.65,2.035v5.499c0,.746.217,1.425.65,2.035.434.611.915.916,1.446.916h3.903c.53,0,1,.292,1.41.873.409.583.614,1.25.614,2.004v5.547c0,.754.217,1.438.65,2.054s.915.925,1.446.925h3.904c.529,0,1.012.293,1.445.878.434.584.651,1.288.651,2.114v16.923c0,.825-.218,1.53-.651,2.115-.434.584-.916.876-1.445.876h-3.904c-.531,0-1.013.293-1.446.873-.434.583-.65,1.284-.65,2.105v5.445c0,.821-.205,1.524-.614,2.105-.41.582-.88.873-1.41.873h-20.017c-.581,0-1.078-.291-1.489-.873Z"/>
    </g>
  </g>
  <circle class="st0" cx="158.842" cy="366.853" r="15.474"/>
  <circle class="st0" cx="147.895" cy="445.72" r="15.474"/>
  <circle class="st0" cx="105.368" cy="575.716" r="15.474"/>
  <circle class="st0" cx="158.842" cy="366.853" r="15.474"/>
  <circle class="st0" cx="178.842" cy="581.228" r="15.474"/>
  <circle class="st0" cx="228.07" cy="606.562" r="15.474"/>
  <circle class="st0" cx="890.352" cy="414.983" r="15.474"/>
  <circle class="st0" cx="959.263" cy="502.562" r="15.474"/>
  <circle class="st0" cx="890.352" cy="568.668" r="15.474"/>
  <circle class="st0" cx="768.105" cy="639.704" r="15.474"/>
  <circle class="st0" cx="818.105" cy="577.799" r="15.474"/>
  <circle class="st0" cx="698.032" cy="681.51" r="15.474"/>
</svg>