<?xml version="1.0" encoding="UTF-8"?>
<svg id="Layer_1" xmlns="http://www.w3.org/2000/svg" version="1.1" viewBox="0 0 1024 1024">
  <!-- Generator: Adobe Illustrator 29.3.0, SVG Export Plug-In . SVG Version: 2.1.0 Build 146)  -->
  <defs>
    <style>
      .st0, .st1 {
        stroke: #000;
        stroke-miterlimit: 10;
        stroke-width: 10px;
      }

      .st1 {
        fill: none;
      }
    </style>
  </defs>
  <path class="st1" d="M297.737,513.425c-4.927-9.407-9.734-22.621-7-37,3.476-18.28,14-36,14-36,0,0-9.963-1.807-20.609-16.298-17.179-23.385-9.441-43.461,5.567-45.202,14.404-1.671,40.702,3.719,52.702,15.719,5.927,5.927,15.509,22.175,15.509,22.175l28.726-5.027s-9.334-12.869-8.435-21.61c1.809-17.584,8.935-18.4,18.376-19.96,4.161-.687,23.898.679,31.853,13.685,4.592,7.507,8.427,22.806,8.427,22.806,0,0,159.67-.268,265.884,55.711,6.022,3.174,15.324,8.736,17,18,2.111,11.666-9.5,22.71-14,27-32.327,30.821-204.179,57.862-231,62"/>
  <polyline class="st1" points="255.587 425.426 175.587 413.426 155.587 371.426"/>
  <polyline class="st1" points="252.514 446.687 212.514 446.687 158.514 461.687 146.514 446.687"/>
  <polyline class="st1" points="733.694 462.24 840.694 462.24 876.694 414.24"/>
  <line class="st1" x1="738.747" y1="489.74" x2="951.747" y2="489.74"/>
  <polyline class="st1" points="730.194 505.214 791.194 528.214 859.194 523.214 880.194 546.214"/>
  <polyline class="st1" points="711.509 534.981 767.366 588.131 809.723 564.379"/>
  <line class="st1" x1="696.15" y1="544.12" x2="755.896" y2="625.12"/>
  <polyline class="st1" points="674.65 553.83 717.65 628.83 686.65 672.83"/>
  <polyline class="st1" points="252.514 475.556 234.514 494.556 150.514 502.556 97.514 561.556"/>
  <line class="st1" x1="259.286" y1="503.234" x2="176.538" y2="564.815"/>
  <circle class="st1" cx="151.139" cy="358.678" r="15.474"/>
  <circle class="st1" cx="139.514" cy="438.161" r="15.474"/>
  <circle class="st1" cx="89.358" cy="569.146" r="15.474"/>
  <circle class="st1" cx="965.589" cy="489.74" r="15.474"/>
  <circle class="st1" cx="889.01" cy="559.594" r="15.474"/>
  <circle class="st1" cx="883.589" cy="401.766" r="15.474"/>
  <circle class="st1" cx="767.693" cy="638.945" r="15.474"/>
  <circle class="st1" cx="210.516" cy="326.638" r="15.474"/>
  <circle class="st1" cx="210.515" cy="602.648" r="15.474"/>
  <circle class="st1" cx="166.613" cy="576.073" r="15.474"/>
  <ellipse class="st0" cx="408.747" cy="478.556" rx="16.105" ry="18.741"/>
  <line class="st1" x1="274.412" y1="529.759" x2="221.064" y2="591.441"/>
  <line class="st1" x1="255.587" y1="386.556" x2="217.912" y2="334.207"/>
  <g>
    <path d="M261.537,653.546c-.412-.581-.617-1.284-.617-2.106v-62.557c0-.753.205-1.438.617-2.055.411-.616.908-.925,1.488-.925h28.096c.532,0,1.016.309,1.452.925.436.616.654,1.302.654,2.055v5.547c0,.754.205,1.422.617,2.003.411.583.883.873,1.416.873h3.92c.532,0,1.017.307,1.452.917.436.611.653,1.29.653,2.035v5.498c0,.747-.218,1.426-.653,2.035-.436.612-.92.917-1.452.917h-3.92c-.533,0-1.005.294-1.416.881-.412.588-.617,1.262-.617,2.021v5.597c0,.761.205,1.453.617,2.074.411.622.883.933,1.416.933h3.92c.532,0,1.017.292,1.452.873.436.582.653,1.284.653,2.105v16.847c0,.821-.218,1.524-.653,2.105-.436.583-.92.873-1.452.873h-3.92c-.533,0-1.005.292-1.416.873-.412.583-.617,1.284-.617,2.105v5.444c0,.822-.218,1.525-.654,2.106-.436.582-.92.873-1.452.873h-28.096c-.581,0-1.078-.291-1.488-.873ZM283.117,608.708c.537,0,1.013-.305,1.428-.917.415-.609.623-1.288.623-2.035v-5.498c0-.745-.208-1.424-.623-2.035-.416-.61-.892-.917-1.428-.917h-3.956c-.538,0-1.026.307-1.465.917-.44.611-.659,1.29-.659,2.035v5.498c0,.747.219,1.426.659,2.035.439.612.928.917,1.465.917h3.956ZM283.117,643.017c.537,0,1.013-.29,1.428-.873.415-.581.623-1.284.623-2.105v-16.847c0-.821-.208-1.523-.623-2.105-.416-.581-.892-.873-1.428-.873h-3.956c-.538,0-1.026.292-1.465.873-.44.582-.659,1.284-.659,2.105v16.847c0,.821.219,1.524.659,2.105.439.583.928.873,1.465.873h3.956Z"/>
    <path d="M318.018,653.546c-.412-.581-.617-1.284-.617-2.106v-5.444c0-.821.205-1.522.617-2.105.411-.581.908-.873,1.488-.873h3.848c.581,0,1.077-.29,1.488-.873.411-.581.617-1.284.617-2.105v-39.753c0-.753-.207-1.438-.617-2.055-.412-.616-.907-.925-1.488-.925h-3.848c-.581,0-1.078-.29-1.488-.873-.412-.581-.617-1.249-.617-2.003v-5.547c0-.753.205-1.438.617-2.055.411-.616.908-.925,1.488-.925h28.096c.532,0,1.016.309,1.452.925.436.616.654,1.302.654,2.055v5.547c0,.754-.218,1.422-.654,2.003-.436.583-.92.873-1.452.873h-3.92c-.533,0-1.016.309-1.452.925-.436.616-.653,1.302-.653,2.055v39.753c0,.821.218,1.524.653,2.105.436.583.919.873,1.452.873h3.92c.532,0,1.016.292,1.452.873.436.583.654,1.284.654,2.105v5.444c0,.822-.218,1.525-.654,2.106-.436.582-.92.873-1.452.873h-28.096c-.581,0-1.078-.291-1.488-.873Z"/>
    <path d="M374.534,653.546c-.436-.581-.653-1.284-.653-2.106v-51.154c0-.753-.207-1.438-.617-2.055-.412-.616-.907-.925-1.488-.925h-11.906c-.581,0-1.078-.29-1.488-.873-.412-.581-.617-1.249-.617-2.003v-5.547c0-.753.205-1.438.617-2.055.411-.616.907-.925,1.488-.925h44.212c.532,0,1.017.309,1.452.925s.653,1.302.653,2.055v5.547c0,.754-.218,1.422-.653,2.003-.436.583-.92.873-1.452.873h-11.979c-.533,0-1.016.309-1.452.925-.436.616-.653,1.302-.653,2.055v51.154c0,.822-.206,1.525-.617,2.106-.412.582-.884.873-1.416.873h-11.979c-.533,0-1.017-.291-1.452-.873Z"/>
    <path d="M414.862,653.546c-.412-.581-.617-1.284-.617-2.106v-62.557c0-.753.205-1.438.617-2.055.411-.616.908-.925,1.488-.925h11.906c.581,0,1.077.309,1.488.925.411.616.617,1.302.617,2.055v16.949c0,.754.219,1.438.659,2.054.439.616.928.925,1.465.925h3.956c.537,0,1.013-.309,1.428-.925.415-.616.623-1.3.623-2.054v-16.949c0-.753.217-1.438.65-2.055.434-.616.916-.925,1.446-.925h11.924c.53,0,1.012.309,1.445.925.433.616.651,1.302.651,2.055v62.557c0,.822-.218,1.525-.651,2.106-.434.582-.916.873-1.445.873h-11.924c-.531,0-1.013-.291-1.446-.873-.433-.581-.65-1.284-.65-2.106v-28.248c0-.821-.208-1.523-.623-2.105-.416-.581-.892-.873-1.428-.873h-3.956c-.538,0-1.026.292-1.465.873-.44.582-.659,1.284-.659,2.105v28.248c0,.822-.207,1.525-.617,2.106-.412.582-.908.873-1.488.873h-11.906c-.581,0-1.078-.291-1.488-.873Z"/>
    <path d="M471.343,653.546c-.412-.581-.617-1.284-.617-2.106v-51.154c0-.753.205-1.438.617-2.055.411-.616.908-.925,1.488-.925h3.848c.581,0,1.077-.29,1.488-.873.411-.581.617-1.249.617-2.003v-5.547c0-.753.218-1.438.653-2.055s.919-.925,1.452-.925h20.037c.532,0,1.016.309,1.452.925.436.616.654,1.302.654,2.055v5.547c0,.754.205,1.422.617,2.003.411.583.883.873,1.416.873h3.92c.532,0,1.017.309,1.452.925s.653,1.302.653,2.055v51.154c0,.822-.218,1.525-.651,2.106-.434.582-.916.873-1.445.873h-11.924c-.531,0-1.013-.291-1.446-.873-.433-.581-.65-1.284-.65-2.106v-16.846c0-.822-.208-1.523-.623-2.106-.416-.581-.892-.873-1.428-.873h-3.956c-.538,0-1.026.292-1.465.873-.44.583-.659,1.284-.659,2.106v16.846c0,.822-.207,1.525-.617,2.106-.412.582-.908.873-1.488.873h-11.906c-.581,0-1.078-.291-1.488-.873ZM492.923,620.213c.537,0,1.013-.309,1.428-.925.415-.616.623-1.3.623-2.055v-16.948c0-.753-.208-1.438-.623-2.055-.416-.616-.892-.925-1.428-.925h-3.956c-.538,0-1.026.309-1.465.925-.44.616-.659,1.302-.659,2.055v16.948c0,.755.219,1.438.659,2.055.439.616.928.925,1.465.925h3.956Z"/>
    <path d="M535.918,653.546c-.436-.581-.653-1.284-.653-2.106v-5.444c0-.821-.207-1.522-.617-2.105-.412-.581-.908-.873-1.488-.873h-3.848c-.581,0-1.078-.29-1.488-.873-.412-.581-.617-1.284-.617-2.105v-39.753c0-.753.205-1.438.617-2.055.41-.616.907-.925,1.488-.925h3.848c.58,0,1.076-.29,1.488-.873.41-.581.617-1.249.617-2.003v-5.547c0-.753.218-1.438.653-2.055s.919-.925,1.451-.925h28.096c.532,0,1.017.309,1.452.925s.653,1.302.653,2.055v16.949c0,.754-.218,1.438-.653,2.054s-.92.925-1.452.925h-3.92c-.533,0-1.005-.309-1.416-.925s-.617-1.3-.617-2.054v-5.547c0-.753-.218-1.438-.653-2.055s-.92-.925-1.452-.925h-11.979c-.533,0-1.017.309-1.452.925s-.653,1.302-.653,2.055v39.753c0,.821.218,1.524.653,2.105.436.583.919.873,1.452.873h11.979c.532,0,1.017-.29,1.452-.873.436-.581.653-1.284.653-2.105v-5.444c0-.822.206-1.523.617-2.106.411-.581.883-.873,1.416-.873h3.92c.532,0,1.017.292,1.452.873.436.583.653,1.284.653,2.106v5.444c0,.821-.218,1.524-.653,2.105-.436.583-.92.873-1.452.873h-3.92c-.533,0-1.005.292-1.416.873-.411.583-.617,1.284-.617,2.105v5.444c0,.822-.218,1.525-.653,2.106-.436.582-.92.873-1.452.873h-20.037c-.532,0-1.016-.291-1.451-.873Z"/>
    <path d="M584.305,653.544c-.412-.583-.617-1.285-.617-2.11v-62.653c0-.753.205-1.438.617-2.055.41-.616.907-.925,1.488-.925h11.906c.58,0,1.076.309,1.487.925s.617,1.302.617,2.055v16.948c0,.755.22,1.438.659,2.055s.928.925,1.466.925h3.955c.537,0,1.014-.305,1.429-.917.415-.609.623-1.288.623-2.035v-5.498c0-.745.216-1.424.649-2.035.434-.61.915-.917,1.446-.917h3.902c.529,0,1.012-.29,1.445-.873.433-.581.65-1.249.65-2.003v-5.547c0-.753.205-1.438.614-2.055s.879-.925,1.41-.925h3.902c.529,0,1.012.309,1.444.925.434.616.651,1.302.651,2.055v5.547c0,.754-.218,1.422-.651,2.003-.433.583-.915.873-1.444.873h-3.902c-.531,0-1.001.307-1.41.917-.409.611-.614,1.29-.614,2.035v5.498c0,.747-.218,1.426-.65,2.035-.434.612-.916.917-1.445.917h-3.902c-.531,0-1.013.294-1.446.878s-.649,1.255-.649,2.011v5.573c0,.757.216,1.444.649,2.063.434.62.915.928,1.446.928h3.902c.529,0,1.012.294,1.445.878.433.584.65,1.289.65,2.114v5.47c0,.758.205,1.444.614,2.063.409.62.879.928,1.41.928h3.902c.529,0,1.012.292,1.444.873.434.583.651,1.284.651,2.106v16.846c0,.822-.218,1.525-.651,2.106-.433.582-.915.873-1.444.873h-11.925c-.531,0-1.013-.291-1.446-.873-.434-.581-.649-1.284-.649-2.106v-16.846c0-.822-.208-1.523-.623-2.106-.415-.581-.892-.873-1.429-.873h-3.955c-.538,0-1.026.292-1.466.873-.439.583-.659,1.284-.659,2.106v16.846c0,.822-.206,1.525-.617,2.106-.411.582-.907.873-1.487.873h-11.906c-.581,0-1.078-.291-1.488-.875Z"/>
    <path d="M640.785,653.546c-.412-.581-.617-1.284-.617-2.106v-5.444c0-.821.205-1.522.617-2.105.41-.581.907-.873,1.488-.873h11.906c.58,0,1.076-.292,1.487-.876.411-.585.617-1.291.617-2.115v-5.471c0-.824-.206-1.529-.617-2.113s-.907-.878-1.487-.878h-3.849c-.532,0-1.016-.309-1.451-.928-.436-.62-.653-1.307-.653-2.064v-5.47c0-.825-.207-1.529-.617-2.113-.412-.585-.908-.879-1.488-.879l-3.848.104c-.581,0-1.078-.309-1.488-.925-.412-.616-.617-1.3-.617-2.055v-16.948c0-.753.205-1.438.617-2.055.41-.616.907-.925,1.488-.925h3.848c.58,0,1.076-.29,1.488-.873.41-.581.617-1.249.617-2.003v-5.547c0-.753.218-1.438.653-2.055s.919-.925,1.451-.925h19.974c.53,0,1.013.309,1.445.925.434.616.651,1.302.651,2.055v5.547c0,.754-.218,1.422-.651,2.003-.433.583-.915.873-1.445.873h-11.924c-.531,0-1.013.307-1.446.917-.434.611-.65,1.29-.65,2.035v5.498c0,.747.217,1.426.65,2.035.434.612.915.917,1.446.917h3.902c.529,0,.999.292,1.408.873.41.582.615,1.25.615,2.003v5.547c0,.755.217,1.438.65,2.055.433.616.915.924,1.446.924h3.901c.53,0,1.013.294,1.445.879.434.584.651,1.288.651,2.113v16.924c0,.824-.218,1.53-.651,2.115-.433.584-.915.876-1.445.876h-3.901c-.531,0-1.014.292-1.446.873-.434.583-.65,1.284-.65,2.105v5.444c0,.822-.205,1.525-.615,2.106-.409.582-.879.873-1.408.873h-20.01c-.581,0-1.078-.291-1.488-.873Z"/>
  </g>
  <circle class="st1" cx="677.518" cy="681.052" r="15.474"/>
  <circle class="st1" cx="820.668" cy="553.951" r="15.474"/>
</svg>