<?xml version="1.0" encoding="UTF-8"?>
<svg xmlns="http://www.w3.org/2000/svg" version="1.1" viewBox="0 0 595.276 841.89">
  <!-- Generator: Adobe Illustrator 29.3.0, SVG Export Plug-In . SVG Version: 2.1.0 Build 146)  -->
  <g id="Layer_1">
    <rect x="93.008" y="486.027" width="23.228" height="23.228" fill="#fff" stroke="#fff" stroke-miterlimit="10"/>
    <rect x="93.15" y="462.61" width="23.228" height="23.228" fill="#fff" stroke="#fff" stroke-miterlimit="10"/>
    <rect x="93.008" y="439.193" width="23.228" height="23.228" fill="#fff" stroke="#fff" stroke-miterlimit="10"/>
    <rect x="99.76" y="415.965" width="23.228" height="23.228" fill="#fff" stroke="#fff" stroke-miterlimit="10"/>
    <rect x="102.609" y="392.736" width="23.228" height="23.228" fill="#fff" stroke="#fff" stroke-miterlimit="10"/>
    <rect x="107.266" y="369.508" width="23.228" height="23.228" fill="#fff" stroke="#fff" stroke-miterlimit="10"/>
    <rect x="114.223" y="346.28" width="23.228" height="23.228" fill="#fff" stroke="#fff" stroke-miterlimit="10"/>
    <rect x="122.988" y="323.051" width="23.228" height="23.228" fill="#fff" stroke="#fff" stroke-miterlimit="10"/>
    <rect x="131.958" y="299.823" width="23.228" height="23.228" fill="#fff" stroke="#fff" stroke-miterlimit="10"/>
    <rect x="143.572" y="276.594" width="23.228" height="23.228" fill="#fff" stroke="#fff" stroke-miterlimit="10"/>
    <rect x="166.801" y="264.98" width="23.228" height="23.228" fill="#fff" stroke="#fff" stroke-miterlimit="10"/>
    <rect x="190.029" y="256.01" width="23.228" height="23.228" fill="#fff" stroke="#fff" stroke-miterlimit="10"/>
    <rect x="213.258" y="250.345" width="23.228" height="31.632" fill="#fff" stroke="#fff" stroke-miterlimit="10"/>
    <rect x="236.486" y="253.366" width="23.228" height="23.228" fill="#fff" stroke="#fff" stroke-miterlimit="10"/>
    <rect x="259.714" y="267.624" width="23.228" height="23.228" fill="#fff" stroke="#fff" stroke-miterlimit="10"/>
    <rect x="282.943" y="264.98" width="23.228" height="23.228" fill="#fff" stroke="#fff" stroke-miterlimit="10"/>
    <rect x="99.76" y="509.256" width="23.228" height="23.228" fill="#fff" stroke="#fff" stroke-miterlimit="10"/>
    <rect x="122.988" y="517.754" width="23.228" height="23.228" fill="#fff" stroke="#fff" stroke-miterlimit="10"/>
    <rect x="146.216" y="527.574" width="23.228" height="23.228" fill="#fff" stroke="#fff" stroke-miterlimit="10"/>
    <rect x="170.247" y="535.128" width="23.228" height="23.228" fill="#fff" stroke="#fff" stroke-miterlimit="10"/>
    <rect x="200.321" y="525.78" width="23.228" height="23.228" fill="#fff" stroke="#fff" stroke-miterlimit="10"/>
    <rect x="194.278" y="539.188" width="23.228" height="23.228" fill="#fff" stroke="#fff" stroke-miterlimit="10"/>
    <rect x="185.78" y="520.87" width="23.228" height="23.228" fill="#fff" stroke="#fff" stroke-miterlimit="10"/>
    <rect x="173.269" y="514.166" width="23.228" height="23.228" fill="#fff" stroke="#fff" stroke-miterlimit="10"/>
    <rect x="290.544" y="264.98" width="23.228" height="23.228" transform="translate(604.316 553.189) rotate(180)" fill="#fff" stroke="#fff" stroke-miterlimit="10"/>
    <rect x="264.388" y="267.624" width="23.228" height="23.228" transform="translate(552.005 558.477) rotate(180)" fill="#fff" stroke="#fff" stroke-miterlimit="10"/>
    <rect x="130.636" y="320.266" width="29.508" height="52.028" fill="#fff" stroke="#fff" stroke-miterlimit="10"/>
    <rect x="165.479" y="489.143" width="23.228" height="23.228" fill="#fff" stroke="#fff" stroke-miterlimit="10"/>
    <rect x="190.029" y="481.873" width="23.228" height="23.228" fill="#fff" stroke="#fff" stroke-miterlimit="10"/>
    <rect x="211.936" y="489.143" width="23.228" height="23.228" fill="#fff" stroke="#fff" stroke-miterlimit="10"/>
    <rect x="230.537" y="497.641" width="23.228" height="23.228" fill="#fff" stroke="#fff" stroke-miterlimit="10"/>
    <rect x="252.774" y="502.552" width="23.228" height="23.228" fill="#fff" stroke="#fff" stroke-miterlimit="10"/>
    <rect x="276.002" y="506.14" width="23.228" height="23.228" fill="#fff" stroke="#fff" stroke-miterlimit="10"/>
    <rect x="482.272" y="486.594" width="23.228" height="23.228" transform="translate(987.773 996.416) rotate(180)" fill="#fff" stroke="#fff" stroke-miterlimit="10"/>
    <rect x="482.13" y="463.177" width="23.228" height="23.228" transform="translate(987.489 949.582) rotate(180)" fill="#fff" stroke="#fff" stroke-miterlimit="10"/>
    <rect x="482.272" y="439.759" width="23.228" height="23.228" transform="translate(987.773 902.747) rotate(180)" fill="#fff" stroke="#fff" stroke-miterlimit="10"/>
    <rect x="475.521" y="416.531" width="23.228" height="23.228" transform="translate(974.27 856.291) rotate(180)" fill="#fff" stroke="#fff" stroke-miterlimit="10"/>
    <rect x="472.671" y="393.303" width="23.228" height="23.228" transform="translate(968.571 809.834) rotate(180)" fill="#fff" stroke="#fff" stroke-miterlimit="10"/>
    <rect x="468.014" y="370.074" width="23.228" height="23.228" transform="translate(959.256 763.377) rotate(180)" fill="#fff" stroke="#fff" stroke-miterlimit="10"/>
    <rect x="461.057" y="346.846" width="23.228" height="23.228" transform="translate(945.343 716.92) rotate(180)" fill="#fff" stroke="#fff" stroke-miterlimit="10"/>
    <rect x="452.292" y="323.618" width="23.228" height="23.228" transform="translate(927.813 670.464) rotate(180)" fill="#fff" stroke="#fff" stroke-miterlimit="10"/>
    <rect x="443.322" y="300.389" width="23.228" height="23.228" transform="translate(909.873 624.007) rotate(180)" fill="#fff" stroke="#fff" stroke-miterlimit="10"/>
    <rect x="431.708" y="277.161" width="23.228" height="23.228" transform="translate(886.644 577.55) rotate(180)" fill="#fff" stroke="#fff" stroke-miterlimit="10"/>
    <rect x="385.251" y="256.577" width="23.228" height="23.228" transform="translate(793.731 536.381) rotate(180)" fill="#fff" stroke="#fff" stroke-miterlimit="10"/>
    <rect x="362.023" y="250.911" width="23.228" height="31.632" transform="translate(747.274 533.454) rotate(180)" fill="#fff" stroke="#fff" stroke-miterlimit="10"/>
    <rect x="338.795" y="253.933" width="23.228" height="23.228" transform="translate(700.817 531.094) rotate(180)" fill="#fff" stroke="#fff" stroke-miterlimit="10"/>
    <rect x="475.521" y="509.822" width="23.228" height="23.228" transform="translate(974.27 1042.873) rotate(180)" fill="#fff" stroke="#fff" stroke-miterlimit="10"/>
    <rect x="452.292" y="518.32" width="23.228" height="23.228" transform="translate(927.813 1059.869) rotate(180)" fill="#fff" stroke="#fff" stroke-miterlimit="10"/>
    <rect x="429.064" y="528.141" width="23.228" height="23.228" transform="translate(881.356 1079.509) rotate(180)" fill="#fff" stroke="#fff" stroke-miterlimit="10"/>
    <rect x="405.033" y="535.694" width="23.228" height="23.228" transform="translate(833.295 1094.617) rotate(180)" fill="#fff" stroke="#fff" stroke-miterlimit="10"/>
    <rect x="374.959" y="526.346" width="23.228" height="23.228" transform="translate(773.146 1075.921) rotate(180)" fill="#fff" stroke="#fff" stroke-miterlimit="10"/>
    <rect x="381.002" y="539.755" width="23.228" height="23.228" transform="translate(785.233 1102.738) rotate(180)" fill="#fff" stroke="#fff" stroke-miterlimit="10"/>
    <rect x="389.5" y="521.436" width="23.228" height="23.228" transform="translate(802.229 1066.101) rotate(180)" fill="#fff" stroke="#fff" stroke-miterlimit="10"/>
    <rect x="402.012" y="514.732" width="32.287" height="23.228" transform="translate(836.31 1052.693) rotate(180)" fill="#fff" stroke="#fff" stroke-miterlimit="10"/>
    <rect x="284.737" y="265.547" width="23.228" height="23.228" fill="#fff" stroke="#fff" stroke-miterlimit="10"/>
    <rect x="310.892" y="268.191" width="23.228" height="23.228" fill="#fff" stroke="#fff" stroke-miterlimit="10"/>
    <rect x="438.365" y="320.832" width="29.508" height="52.028" transform="translate(906.237 693.692) rotate(180)" fill="#fff" stroke="#fff" stroke-miterlimit="10"/>
    <rect x="409.802" y="489.71" width="23.228" height="23.228" transform="translate(842.831 1002.648) rotate(180)" fill="#fff" stroke="#fff" stroke-miterlimit="10"/>
    <rect x="385.251" y="482.439" width="26.029" height="23.228" transform="translate(796.532 988.107) rotate(180)" fill="#fff" stroke="#fff" stroke-miterlimit="10"/>
    <rect x="363.345" y="489.71" width="23.228" height="23.228" transform="translate(749.918 1002.648) rotate(180)" fill="#fff" stroke="#fff" stroke-miterlimit="10"/>
    <rect x="344.743" y="498.208" width="23.228" height="23.228" transform="translate(712.715 1019.644) rotate(180)" fill="#fff" stroke="#fff" stroke-miterlimit="10"/>
    <rect x="321.456" y="491.053" width="26.498" height="35.294" transform="translate(669.41 1017.399) rotate(180)" fill="#fff" stroke="#fff" stroke-miterlimit="10"/>
    <rect x="300.364" y="506.14" width="23.228" height="23.228" transform="translate(623.956 1035.508) rotate(180)" fill="#fff" stroke="#fff" stroke-miterlimit="10"/>
    <rect x="403.702" y="264.98" width="29.328" height="23.228" transform="translate(836.732 553.189) rotate(180)" fill="#fff" stroke="#fff" stroke-miterlimit="10"/>
    <rect x="333.129" y="268.191" width="23.228" height="23.228" transform="translate(689.486 559.61) rotate(180)" fill="#fff" stroke="#fff" stroke-miterlimit="10"/>
    <path d="M150.789,299.053l9.354-4.772,1.312-7.86,17.123-3.368,5.566-8.982h47.998l5.665,3.091h24.561l1.684,10.102,21.895,4.156-1.263-6.682,26.208-.281.318,5.333,39.198-1.581,2.626-11.614,7.524,1.605,10.581-1.605,7.439,1.265,8.14.702,24.702-.421,5.614,8.561,14.673,2.404v11.284h11.614v72.471h38.95l2.013,160.191-56.024,2.644-16.456-29.561s-8.878-31.132-9.794-43.712c-1.004-13.79,4.778-38.997-2.76-58.071-8.116-20.538-25.615-25.306-25.615-25.306,0,0-90.005-9.02-138.216-2.097-13.771,1.977-21.02,6.259-25.61,11.191-17.793,19.118-16.359,38.274-10.706,51.44,4.804,11.19,12.83,17.932,12.83,17.932l-24.795,51.745-12.03,31.727-60.887-26.25v-125.49l36.566-90.19Z" fill="#fff" stroke="#fff" stroke-miterlimit="10"/>
    <rect x="268.401" y="356.005" width="61.517" height="161.749" fill="#fff" stroke="#fff" stroke-miterlimit="10"/>
    <path d="M224.872,378.451s17.429.5,23.883,4.532c14.772,9.228,19.649,29.053,19.649,29.053l2.925-45.832-46.457,12.248Z" fill="#fff" stroke="#fff" stroke-miterlimit="10"/>
    <path d="M330.131,414.561s-.857-10.548,11.655-25.684c5.917-7.158,22.761-10.405,22.761-10.405l-37.667-4.716,3.252,40.804Z" fill="#fff" stroke="#fff" stroke-miterlimit="10"/>
    <path d="M206.649,454.421l-9.255,30.001,78.608,24.834-7.601-77.993s-2.609,14.635-15.507,26.526c-4.674,4.309-18.399,7.976-25.662,6.992-7.146-.968-20.583-10.361-20.583-10.361Z" fill="#fff" stroke="#fff" stroke-miterlimit="10"/>
    <path d="M322.176,433.622v68.174h28.911l58.715-21.245-6.976-55.459s.593,11.894-8.247,23.645c-4.613,6.132-7.486,9.408-11.63,11.789-8.755,5.031-28.718,7.92-42.627-8.472-7.638-9.001-12.552-28.63-12.552-28.63l-5.594,10.198Z" fill="#fff" stroke="#fff" stroke-miterlimit="10"/>
    <rect x="410.132" y="502.552" width="23.228" height="23.228" transform="translate(843.492 1028.331) rotate(180)" fill="#fff" stroke="#fff" stroke-miterlimit="10"/>
    <rect x="165.479" y="501.324" width="23.228" height="23.228" transform="translate(354.186 1025.876) rotate(180)" fill="#fff" stroke="#fff" stroke-miterlimit="10"/>
  </g>
  <g id="eyes">
    <ellipse cx="232.354" cy="421.734" rx="36.047" ry="42.618" fill="none" stroke="#fff" stroke-miterlimit="10"/>
    <ellipse cx="366.178" cy="421.734" rx="36.047" ry="42.618" fill="none" stroke="#fff" stroke-miterlimit="10"/>
  </g>
</svg>