<?xml version="1.0" encoding="UTF-8"?>
<svg xmlns="http://www.w3.org/2000/svg" version="1.1" xmlns:xlink="http://www.w3.org/1999/xlink" viewBox="0 0 1080 1080">
  <!-- Generator: Adobe Illustrator 29.3.0, SVG Export Plug-In . SVG Version: 2.1.0 Build 146)  -->
  <defs>
    <style>
      .st0 {
        fill: url(#radial-gradient21);
      }

      .st0, .st1, .st2, .st3, .st4, .st5, .st6, .st7, .st8, .st9, .st10, .st11, .st12, .st13, .st14, .st15, .st16, .st17, .st18, .st19, .st20, .st21, .st22, .st23, .st24, .st25, .st26, .st27, .st28, .st29, .st30, .st31, .st32, .st33, .st34, .st35, .st36, .st37, .st38, .st39 {
        stroke-miterlimit: 10;
      }

      .st0, .st1, .st2, .st3, .st4, .st5, .st6, .st7, .st8, .st9, .st10, .st11, .st12, .st13, .st14, .st15, .st16, .st17, .st18, .st19, .st20, .st21, .st22, .st24, .st25, .st26, .st27, .st28, .st29, .st30, .st31, .st33, .st34, .st35, .st36, .st37, .st38, .st39 {
        stroke: #000;
      }

      .st1, .st23 {
        fill: none;
      }

      .st2 {
        fill: url(#radial-gradient20);
      }

      .st3 {
        fill: url(#radial-gradient19);
      }

      .st4 {
        fill: url(#radial-gradient23);
      }

      .st5 {
        fill: #ffe3f6;
      }

      .st6 {
        fill: #ffa5ec;
      }

      .st7 {
        fill: url(#radial-gradient16);
      }

      .st8 {
        fill: #fff;
      }

      .st9 {
        fill: url(#radial-gradient7);
      }

      .st10 {
        fill: url(#radial-gradient24);
      }

      .st11 {
        fill: #a897d2;
      }

      .st12 {
        fill: url(#radial-gradient18);
      }

      .st13 {
        fill: url(#radial-gradient);
      }

      .st14 {
        fill: #e8e5e0;
      }

      .st15 {
        fill: url(#radial-gradient17);
      }

      .st16 {
        fill: #7067b9;
      }

      .st17 {
        fill: url(#radial-gradient2);
      }

      .st18 {
        fill: url(#radial-gradient22);
      }

      .st19 {
        fill: #afafaf;
      }

      .st40 {
        fill: #453c2d;
      }

      .st20 {
        fill: url(#radial-gradient8);
      }

      .st21 {
        fill: #f7efdc;
      }

      .st22 {
        fill: url(#radial-gradient3);
      }

      .st23 {
        stroke: #4e536d;
        stroke-width: 5px;
      }

      .st24 {
        fill: #948f89;
      }

      .st25 {
        fill: url(#radial-gradient6);
      }

      .st26 {
        fill: url(#radial-gradient1);
      }

      .st27 {
        fill: url(#radial-gradient9);
      }

      .st28 {
        fill: url(#radial-gradient4);
      }

      .st29 {
        fill: #d6d4d5;
      }

      .st30 {
        fill: #444344;
      }

      .st31 {
        fill: url(#radial-gradient12);
      }

      .st32 {
        stroke: #7067b9;
      }

      .st33 {
        fill: url(#radial-gradient5);
      }

      .st34 {
        fill: url(#radial-gradient13);
      }

      .st35 {
        fill: url(#radial-gradient15);
      }

      .st36 {
        fill: url(#radial-gradient14);
      }

      .st37 {
        fill: url(#radial-gradient11);
      }

      .st38 {
        fill: #ff9ff6;
      }

      .st39 {
        fill: url(#radial-gradient10);
      }
    </style>
    <radialGradient id="radial-gradient" cx="220.941" cy="504.138" fx="220.941" fy="504.138" r="12.678" gradientTransform="translate(-18.178 28.576)" gradientUnits="userSpaceOnUse">
      <stop offset="0" stop-color="#fff"/>
      <stop offset="1" stop-color="#ffa3a3"/>
    </radialGradient>
    <radialGradient id="radial-gradient1" cx="224.652" cy="561.048" fx="224.652" fy="561.048" r="8.716" gradientTransform="translate(-11.002 27.648)" xlink:href="#radial-gradient"/>
    <radialGradient id="radial-gradient2" cx="241.475" cy="512.524" fx="241.475" fy="512.524" r="12.004" gradientTransform="translate(-80.231 60.608) rotate(-7.274)" gradientUnits="userSpaceOnUse">
      <stop offset="0" stop-color="#fff"/>
      <stop offset="1" stop-color="#abd0ff"/>
    </radialGradient>
    <radialGradient id="radial-gradient3" cx="230.095" cy="614.866" fx="230.095" fy="614.866" r="11.054" gradientTransform="translate(-4.232 26.526)" xlink:href="#radial-gradient"/>
    <radialGradient id="radial-gradient4" cx="241.475" cy="641.837" fx="241.475" fy="641.837" r="17.813" gradientTransform="translate(-80.231 60.608) rotate(-7.274)" gradientUnits="userSpaceOnUse">
      <stop offset="0" stop-color="#fff"/>
      <stop offset="1" stop-color="#8f93ff"/>
    </radialGradient>
    <radialGradient id="radial-gradient5" cx="249.392" cy="672.531" fx="249.392" fy="672.531" r="12.638" xlink:href="#radial-gradient4"/>
    <radialGradient id="radial-gradient6" cx="269.923" cy="708.382" fx="269.923" fy="708.382" r="25.09" gradientTransform="translate(340.862 -26.276) rotate(25.675)" xlink:href="#radial-gradient"/>
    <radialGradient id="radial-gradient7" cx="287.616" cy="747.598" fx="287.616" fy="747.598" r="14.721" xlink:href="#radial-gradient2"/>
    <radialGradient id="radial-gradient8" cx="312.858" cy="745.367" fx="312.858" fy="745.367" r="14.721" gradientTransform="translate(-149.953 128.38) rotate(-12.906)" xlink:href="#radial-gradient4"/>
    <radialGradient id="radial-gradient9" cx="334.011" cy="763.923" fx="334.011" fy="763.923" r="24.122" gradientTransform="translate(-149.953 128.38) rotate(-12.906)" xlink:href="#radial-gradient"/>
    <radialGradient id="radial-gradient10" cx="356.25" cy="784.222" fx="356.25" fy="784.222" r="14.721" gradientTransform="translate(-149.953 128.38) rotate(-12.906)" xlink:href="#radial-gradient2"/>
    <radialGradient id="radial-gradient11" cx="466.373" cy="853.655" fx="466.373" fy="853.655" r="14.721" gradientTransform="translate(-149.953 128.38) rotate(-12.906)" xlink:href="#radial-gradient2"/>
    <radialGradient id="radial-gradient12" cx="498.597" cy="860.781" fx="498.597" fy="860.781" r="20.72" gradientTransform="translate(-149.953 128.38) rotate(-12.906)" xlink:href="#radial-gradient4"/>
    <radialGradient id="radial-gradient13" cx="544.491" cy="860.781" fx="544.491" fy="860.781" r="29.512" gradientTransform="translate(28.544 -14.973)" xlink:href="#radial-gradient"/>
    <radialGradient id="radial-gradient14" cx="588.714" cy="844.144" fx="588.714" fy="844.144" r="20.72" gradientTransform="translate(-149.953 128.38) rotate(-12.906)" xlink:href="#radial-gradient4"/>
    <radialGradient id="radial-gradient15" cx="614.197" cy="822.929" fx="614.197" fy="822.929" r="14.721" gradientTransform="translate(-149.953 128.38) rotate(-12.906)" xlink:href="#radial-gradient2"/>
    <radialGradient id="radial-gradient16" cx="612.218" cy="754.858" fx="612.218" fy="754.858" r="14.721" gradientTransform="translate(-149.953 128.38) rotate(-12.906)" xlink:href="#radial-gradient2"/>
    <radialGradient id="radial-gradient17" cx="562.984" cy="703.432" fx="562.984" fy="703.432" r="14.721" gradientTransform="translate(-149.953 128.38) rotate(-12.906)" xlink:href="#radial-gradient2"/>
    <radialGradient id="radial-gradient18" cx="532.244" cy="687.638" fx="532.244" fy="687.638" r="20.844" gradientTransform="translate(-149.953 128.38) rotate(-12.906)" xlink:href="#radial-gradient4"/>
    <radialGradient id="radial-gradient19" cx="501.813" cy="670.957" fx="501.813" fy="670.957" r="13.917" gradientTransform="translate(-149.953 128.38) rotate(-12.906)" xlink:href="#radial-gradient2"/>
    <radialGradient id="radial-gradient20" cx="422.063" cy="659.65" fx="422.063" fy="659.65" r="13.638" xlink:href="#radial-gradient2"/>
    <radialGradient id="radial-gradient21" cx="394.261" cy="641.837" fx="394.261" fy="641.837" r="20.844" xlink:href="#radial-gradient4"/>
    <radialGradient id="radial-gradient22" cx="330.17" cy="590.461" fx="330.17" fy="590.461" r="13.638" xlink:href="#radial-gradient2"/>
    <radialGradient id="radial-gradient23" cx="299.53" cy="558.515" fx="299.53" fy="558.515" r="23.838" gradientTransform="translate(458.041 -33.714) rotate(43.805)" xlink:href="#radial-gradient"/>
    <radialGradient id="radial-gradient24" cx="408.356" cy="838.144" fx="408.356" fy="838.144" r="14.721" gradientTransform="translate(-149.953 128.38) rotate(-12.906)" xlink:href="#radial-gradient2"/>
  </defs>
  <g id="Layer_1">
    <path class="st23" d="M369.9,248.375s-60.234,10.899-112.595,45.51c-29.103,19.238-59.2,89.78-65.825,122.341-8.977,44.115-12.542,93.512,2.788,106.575,2.331,1.986,4.118,16.604,15.795,10.329,13.792-7.411,10.59-35.574,9.927-58.28-1.499-51.336,8.906-111.398,28.834-146.61,34.993-61.835,121.076-79.865,121.076-79.865Z"/>
    <ellipse class="st13" cx="202.763" cy="532.715" rx="11.381" ry="13.855" transform="translate(-65.818 29.96) rotate(-7.274)"/>
    <polygon class="st11" points="195.552 619.178 213.1 608.078 214.42 594.582 228.084 603.022 243.482 600.45 240.259 617.838 247.308 632.669 230.162 627.694 216.029 635.996 212.775 624.471 195.552 619.178"/>
    <polygon class="st11" points="221.607 577.203 219.943 566.652 230.034 556.392 212.385 554.78 208.056 544.255 202.497 560.234 191.198 568.309 200.723 574.557 196.921 588.771 210.329 579.702 221.607 577.203"/>
    <polygon class="st6" points="192.54 618.709 210.189 608.475 211.996 595.275 225.091 604.079 240.307 602.136 236.484 619.086 244.003 631.095 226.198 628.38 216.652 639.575 209.249 624.557 192.54 618.709"/>
    <polygon class="st11" points="316.37 624.352 336.714 611.779 334.646 595.582 351.522 606.646 372.186 597.275 365.453 618.087 376.069 637.516 356.179 639.224 342.185 654.603 334.499 633.511 316.37 624.352"/>
    <polygon class="st11" points="473.221 675.13 462.13 693.643 455.858 679.109 435.35 678.224 443.349 662.177 434.947 644.658 457.316 647.809 470.162 635.178 470.639 652.748 495.448 668.007 473.221 675.13"/>
    <polygon class="st11" points="395.664 815.585 391.722 795.926 409.075 805.946 424.725 796.182 423.6 821.304 435.276 839.785 411.868 840.2 399.635 857.573 393.214 837.958 376.301 827.712 395.664 815.585"/>
    <polygon class="st11" points="436.21 873.578 453.028 858.896 451.222 839.585 467.132 847.914 483.509 843.129 488.226 866.642 501.756 876.976 479.444 881.344 473.674 902.278 456.285 881.453 436.21 873.578"/>
    <path class="st11" d="M607.57,759.202c4.851,5.11-.612,21.644-.612,21.644l26.5-2.815,12.409,9.847,3.326-16.499,19.549-13.391-20.152-4.746-7.495-21.634-13.897,16.89-24.732-10.944,5.102,21.646Z"/>
    <polygon class="st11" points="606.773 719.169 596.399 736.486 583.444 719.815 557.086 722.696 576.901 706.216 573.033 689.335 590.868 691.847 598.762 679.292 604.263 703.3 629.407 713.82 606.773 719.169"/>
    <polygon class="st11" points="232.271 546.13 237.929 555.638 231.941 566.125 247.001 564.736 258.541 578.249 264.243 557.768 280.014 550.677 263.428 544.692 258.801 531.659 246.584 545.895 232.271 546.13"/>
    <ellipse class="st26" cx="213.65" cy="588.696" rx="7.67" ry="9.649" transform="translate(-72.819 31.789) rotate(-7.274)"/>
    <circle class="st17" cx="224.194" cy="538.432" r="12.004"/>
    <ellipse class="st22" cx="225.863" cy="641.392" rx="5.938" ry="14.462" transform="translate(-79.393 33.76) rotate(-7.274)"/>
    <circle class="st28" cx="240.567" cy="666.705" r="17.813"/>
    <circle class="st33" cx="252.307" cy="696.15" r="12.638"/>
    <ellipse class="st25" cx="277.212" cy="729.112" rx="20.398" ry="29.025" transform="translate(-351.974 268.053) rotate(-32.949)"/>
    <circle class="st9" cx="299.728" cy="765.773" r="14.721"/>
    <circle class="st20" cx="321.476" cy="785.044" r="14.721"/>
    <circle class="st27" cx="346.239" cy="798.406" r="24.122"/>
    <circle class="st39" cx="372.45" cy="813.226" r="14.721"/>
    <circle class="st37" cx="495.298" cy="856.309" r="14.721"/>
    <circle class="st31" cx="528.3" cy="856.059" r="20.72"/>
    <ellipse class="st34" cx="573.035" cy="845.808" rx="28.761" ry="30.245" transform="translate(-174.431 149.35) rotate(-12.906)"/>
    <circle class="st36" cx="612.425" cy="819.714" r="20.72"/>
    <circle class="st35" cx="632.526" cy="793.343" r="14.721"/>
    <circle class="st7" cx="615.393" cy="727.434" r="14.721"/>
    <circle class="st15" cx="555.918" cy="688.304" r="14.721"/>
    <circle class="st12" cx="522.427" cy="679.773" r="20.844"/>
    <polygon class="st6" points="462.551 682.532 452.338 696.307 444.881 684.788 424.559 681.895 434.094 666.711 431.901 649.532 449.404 653.782 465.157 643.292 467.788 663.906 485.369 677.624 462.551 682.532"/>
    <circle class="st3" cx="489.039" cy="670.31" r="13.917"/>
    <circle class="st2" cx="421.957" cy="661.509" r="13.638"/>
    <circle class="st0" cx="392.123" cy="647.36" r="20.844"/>
    <circle class="st18" cx="322.043" cy="604.512" r="13.638"/>
    <ellipse class="st4" cx="287.605" cy="576.703" rx="12.192" ry="31.42" transform="translate(-341.765 438.151) rotate(-51.079)"/>
    <polygon class="st6" points="219.249 575.487 217.585 564.936 227.143 555.654 210.027 553.063 205.698 542.538 200.139 558.518 188.84 566.593 198.365 572.841 197.121 586.728 207.971 577.985 219.249 575.487"/>
    <polygon class="st6" points="229.829 545.391 234.878 556.028 228.25 570.206 243.95 565.126 257.625 577.225 261.192 558.157 277.148 552.513 260.378 545.081 255.912 534.883 243.533 546.284 229.829 545.391"/>
    <polygon class="st6" points="313.985 622.426 334.328 609.853 332.26 593.655 349.136 604.72 368.79 598.47 363.067 616.161 373.176 632.828 353.793 637.297 341.982 650.278 332.114 631.585 313.985 622.426"/>
    <polygon class="st6" points="386.496 820.044 382.553 800.385 399.906 810.405 416.892 804.496 420.398 829.095 432.075 847.577 405.743 843.546 393.509 860.919 384.045 842.417 367.133 832.172 386.496 820.044"/>
    <circle class="st10" cx="435.283" cy="854.148" r="14.721"/>
    <polygon class="st6" points="441.413 872.178 449.691 853.18 447.232 837.648 463.795 842.198 480.172 837.413 484.889 860.927 493.977 872.13 476.107 875.628 469.465 895.227 458.914 879.07 441.413 872.178"/>
    <path class="st6" d="M612.283,755.987c4.896,5.138-2.702,21.378-2.702,21.378l24.706-3.247,12.65,9.536,2.915-16.576,17.472-9.57-18.525-8.546-8.031-21.441-13.473,17.231-24.828-7.196,9.815,18.431Z"/>
    <polygon class="st6" points="597.452 721.21 588.639 735.92 574.122 721.856 553.614 720.971 567.579 708.257 563.711 691.376 581.547 693.888 596.194 681.902 600.836 702.159 619.678 714.086 597.452 721.21"/>
  </g>
  <g id="Layer_2">
    <path class="st5" d="M235.758,453.521l152.245-294.205c7.38-14.261,24.631-20.264,39.272-13.666l509.562,229.623c15.991,7.206,22.499,26.463,14.156,41.89l-165.758,306.503c-7.706,14.249-25.284,19.892-39.846,12.79l-496.049-241.921c-15.244-7.435-21.377-25.952-13.583-41.013Z"/>
    <path class="st19" d="M905.048,502.119c-21.846-126.667-119.899-185.445-210.551-163.198s-146.105,113.77-123.858,204.422c22.247,90.652,132.449,156.383,255.698,104.32l78.711-145.544Z"/>
    <circle class="st29" cx="738.17" cy="498.187" r="146.105"/>
    <circle class="st14" cx="739.25" cy="496.405" r="119.789"/>
    <circle class="st1" cx="737.409" cy="496.856" r="101.684"/>
    <ellipse class="st1" cx="736.638" cy="495.257" rx="95.737" ry="94.684" transform="translate(-96.811 189.842) rotate(-13.789)"/>
    <ellipse class="st1" cx="736.995" cy="495.17" rx="89.484" ry="88.5" transform="translate(-96.779 189.924) rotate(-13.789)"/>
    <circle class="st32" cx="738.836" cy="494.718" r="62.548"/>
    <polygon class="st30" points="690.603 495.084 708.474 458.153 726.44 451.182 774.555 470.454 785.891 487.878 762.921 532.811 744.446 537.802 692.79 510.159 690.603 495.084"/>
    <line class="st30" x1="719.522" y1="456.559" x2="753.299" y2="533.245"/>
    <rect class="st40" x="715.291" y="312.172" width="139.789" height="36.772" rx="7.887" ry="7.887" transform="translate(210.228 -298.098) rotate(24.724)"/>
    <rect class="st24" x="617.511" y="327.747" width="33.452" height="22.023" rx="7.887" ry="7.887" transform="translate(199.821 -234.213) rotate(24.724)"/>
    <circle class="st24" cx="669.57" cy="327.008" r="12.093"/>
    <rect class="st19" x="314.239" y="353.674" width="249.613" height="15.774" rx="7.887" ry="7.887" transform="translate(191.466 -150.485) rotate(24.724)"/>
    <path class="st38" d="M232.382,467.658l1.466,25.006c.158,2.697,1.755,5.101,4.179,6.294l511.615,251.729c2.485,1.223,5.476.693,7.39-1.309l20.267-16.307L232.382,467.658Z"/>
    <rect class="st21" x="723.672" y="318.314" width="124.53" height="30.602" rx="7.887" ry="7.887" transform="translate(211.575 -298.132) rotate(24.724)"/>
    <rect class="st8" x="726.78" y="325.087" width="118.904" height="15.774" rx="7.887" ry="7.887" transform="translate(211.334 -298.314) rotate(24.724)"/>
    <circle class="st16" cx="669.57" cy="327.008" r="7.918"/>
    <rect class="st16" x="620.098" y="330.871" width="28.278" height="15.774" rx="7.887" ry="7.887" transform="translate(199.821 -234.213) rotate(24.724)"/>
    <g>
      <path class="st38" d="M299.035,379.062c-.156-.432-.135-.855.06-1.27l14.857-31.564c.179-.38.488-.657.929-.829.44-.173.867-.162,1.282.034l2.747,1.293c.414.195.696.517.843.966.146.449.131.864-.048,1.244l-4.025,8.552c-.179.381-.186.799-.022,1.256.166.458.438.776.818.955l14.305,6.733c.38.179.799.186,1.255.022.458-.165.776-.437.955-.817l4.025-8.552c.179-.379.488-.656.93-.829.439-.173.849-.17,1.23.009l2.798,1.317c.38.179.654.497.818.955.165.457.157.876-.021,1.256l-14.857,31.564c-.195.415-.518.696-.967.843-.449.147-.864.131-1.244-.048l-2.798-1.317c-.381-.179-.649-.485-.804-.917-.157-.432-.136-.855.059-1.27l6.709-14.253c.195-.414.207-.842.033-1.281-.172-.44-.449-.75-.829-.929l-14.305-6.733c-.38-.179-.795-.194-1.245-.048-.449.148-.771.429-.966.844l-6.709,14.253c-.195.415-.51.699-.941.855-.432.156-.855.135-1.27-.06l-2.747-1.293c-.415-.195-.7-.508-.855-.94Z"/>
      <path class="st38" d="M334.175,395.603c-.156-.432-.135-.855.06-1.27l12.149-25.811c.179-.38.488-.656.929-.829.439-.173.867-.162,1.282.033l2.747,1.293c.414.195.837.215,1.27.06.431-.155.737-.423.916-.803l1.317-2.799c.179-.379.497-.652.954-.817.458-.164.876-.157,1.256.021l14.305,6.733c.38.179.653.497.817.954.165.458.157.877-.021,1.256l-1.317,2.799c-.179.38-.191.786-.034,1.218.155.432.423.737.804.916l2.798,1.317c.38.179.653.497.817.955.165.457.158.876-.021,1.256l-12.149,25.811c-.195.415-.518.696-.967.843-.449.147-.864.131-1.244-.048l-2.798-1.317c-.381-.179-.649-.484-.804-.916-.157-.432-.136-.855.059-1.27l4.001-8.5c.195-.414.207-.842.033-1.282-.172-.439-.449-.749-.829-.928l-14.305-6.733c-.38-.179-.795-.194-1.245-.048-.449.147-.771.429-.966.843l-4.001,8.5c-.195.415-.51.7-.941.855-.432.155-.855.135-1.27-.06l-2.747-1.293c-.415-.195-.701-.509-.855-.94ZM363.212,388.726c.38.179.799.186,1.255.021.458-.165.776-.436.955-.817l4.025-8.552c.179-.38.187-.799.021-1.257-.164-.457-.437-.775-.816-.954l-14.305-6.733c-.38-.179-.799-.186-1.257-.021-.457.165-.775.438-.954.817l-4.025,8.552c-.179.381-.186.799-.022,1.256.166.458.438.775.818.954l14.305,6.733Z"/>
      <path class="st38" d="M375.094,414.864c-.172-.44-.161-.868.035-1.282l1.293-2.747c.195-.415.213-.838.06-1.27-.156-.432-.441-.746-.855-.941l-2.747-1.293c-.415-.194-.701-.508-.855-.94-.156-.431-.135-.855.06-1.27l9.441-20.059c.179-.38.488-.656.929-.829.439-.173.867-.161,1.282.034l2.747,1.293c.414.195.837.215,1.27.06.43-.155.737-.423.916-.804l1.317-2.799c.179-.38.497-.652.954-.816.458-.165.876-.158,1.256.021l20.058,9.441c.38.179.654.498.818.955.165.458.157.877-.021,1.256l-4.025,8.552c-.179.38-.497.652-.955.816-.457.165-.876.157-1.256-.021l-2.798-1.317c-.381-.179-.645-.493-.792-.942-.147-.449-.131-.863.047-1.244l1.317-2.799c.179-.38.187-.799.021-1.256-.164-.458-.437-.776-.816-.955l-14.305-6.733c-.38-.179-.799-.186-1.257-.021-.457.164-.775.437-.954.816l-9.441,20.059c-.195.414-.207.842-.035,1.282.173.44.45.749.83.928l14.305,6.733c.38.179.794.195,1.243.048.45-.147.772-.429.967-.843l1.293-2.747c.195-.415.508-.7.94-.855.432-.155.838-.144,1.219.035l2.798,1.317c.38.179.657.489.83.929.173.44.162.868-.033,1.282l-1.293,2.747c-.195.415-.518.696-.967.843-.449.147-.864.131-1.244-.048l-2.798-1.317c-.381-.179-.787-.189-1.219-.035-.432.155-.746.44-.94.855l-1.293,2.747c-.195.415-.518.696-.967.843-.449.147-.863.131-1.243-.047l-14.305-6.733c-.38-.179-.657-.488-.83-.928Z"/>
      <path class="st38" d="M404.456,428.684c-.156-.432-.135-.855.06-1.27l14.857-31.564c.179-.379.488-.657.929-.829.439-.173.867-.162,1.282.033l2.747,1.293c.414.195.696.518.843.967.146.448.131.864-.048,1.244l-6.733,14.305c-.179.381-.186.799-.022,1.256.166.457.438.775.818.955l2.747,1.293c.415.195.842.206,1.284.03.441-.176.752-.456.933-.839l1.329-2.824c.181-.384.496-.65.946-.8.451-.15.867-.136,1.248.043l2.798,1.317c.38.179.789.184,1.228.014.438-.17.748-.443.925-.819l1.306-2.774c.177-.376.491-.646.945-.81.452-.163.868-.156,1.244.021l2.774,1.306c.376.177.788.191,1.233.043.447-.148.761-.412.939-.792l1.317-2.799c.179-.379.488-.657.928-.83s.849-.17,1.23.01l2.8,1.317c.38.179.652.497.817.954.164.458.157.877-.021,1.256l-1.317,2.799c-.179.38-.494.644-.942.791-.45.147-.863.131-1.243-.047l-2.8-1.317c-.381-.18-.791-.183-1.229-.014-.438.171-.746.444-.923.82l-1.306,2.774c-.177.376-.494.646-.947.809-.453.163-.868.156-1.244-.021l-2.774-1.307c-.376-.177-.789-.19-1.235-.04-.447.149-.76.416-.939.797l-4.043,8.591c-.18.382-.19.801-.028,1.259.161.457.43.774.806.951l2.774,1.306c.376.177.649.485.819.924.17.439.159.866-.036,1.28l-1.293,2.747c-.195.415-.216.838-.061,1.27.155.433.423.737.804.917l2.8,1.317c.38.179.655.488.829.929.172.439.162.867-.033,1.281l-1.293,2.748c-.195.414-.519.695-.967.842-.45.147-.863.132-1.243-.047l-2.8-1.317c-.381-.18-.649-.484-.804-.917-.155-.432-.134-.854.061-1.27l1.293-2.746c.195-.415.207-.842.036-1.281-.169-.439-.443-.748-.819-.924l-2.774-1.306c-.376-.177-.65-.485-.819-.924-.17-.438-.157-.865.039-1.28l1.293-2.747c.195-.414.213-.838.059-1.27-.156-.432-.423-.737-.803-.916l-8.552-4.025c-.38-.18-.795-.195-1.245-.048-.449.147-.771.429-.966.843l-4.001,8.5c-.195.415-.511.699-.941.855-.432.155-.855.135-1.27-.06l-2.747-1.293c-.415-.195-.701-.509-.855-.94Z"/>
      <path class="st38" d="M439.596,445.224c-.156-.432-.135-.855.06-1.27l14.857-31.564c.179-.38.488-.656.929-.829.439-.173.867-.161,1.282.034l20.058,9.441c.38.179.653.497.817.955.165.457.157.876-.021,1.256l-1.317,2.799c-.179.381-.493.645-.942.791-.449.147-.863.131-1.243-.047l-14.305-6.733c-.38-.179-.799-.186-1.257-.021-.457.164-.775.437-.954.816l-1.317,2.799c-.179.381-.186.799-.022,1.257.166.457.438.775.818.954l8.552,4.025c.38.179.647.484.803.916.155.432.144.838-.035,1.218l-1.318,2.8c-.179.38-.489.656-.928.828-.44.173-.85.17-1.23-.009l-8.552-4.025c-.38-.179-.795-.194-1.245-.047-.449.147-.771.428-.966.843l-4.001,8.5c-.195.414-.207.842-.035,1.282.173.44.45.749.83.928l14.305,6.733c.38.179.656.489.829.929.173.44.162.868-.033,1.282l-1.293,2.747c-.195.415-.518.696-.967.843-.449.147-.863.131-1.243-.047l-20.058-9.441c-.415-.195-.701-.509-.855-.941Z"/>
      <path class="st38" d="M468.983,459.057c-.156-.433-.135-.855.06-1.271l14.857-31.564c.179-.379.488-.657.928-.83.44-.173.866-.162,1.28.033l20.012,9.419c.379.179.652.497.816.954.163.456.156.876-.022,1.255l-1.267,2.823c-.179.381-.193.786-.039,1.216.153.432.418.734.795.912l2.773,1.307c.376.176.646.493.808.948.162.454.156.871-.022,1.249l-4.007,8.514c-.178.379-.497.649-.953.812-.457.162-.875.154-1.255-.023l-2.799-1.318c-.381-.18-.788-.189-1.22-.033-.432.157-.745.443-.941.86l-4.019,8.539c-.196.416-.217.841-.063,1.274.154.433.422.738.803.917l2.799,1.318c.381.179.656.488.83.929.172.439.162.867-.033,1.281l-1.293,2.748c-.195.414-.519.695-.967.842-.45.147-.863.132-1.244-.047l-2.799-1.318c-.381-.179-.649-.483-.804-.916-.155-.432-.134-.854.061-1.27l1.344-2.723c.195-.414.207-.842.033-1.281-.172-.44-.449-.75-.829-.93l-2.798-1.316c-.381-.18-.657-.49-.828-.933s-.159-.873.038-1.292l1.305-2.771c.196-.418.217-.845.064-1.279-.154-.436-.421-.742-.801-.92l-8.552-4.026c-.38-.179-.795-.193-1.246-.045-.449.149-.771.432-.968.848l-4.019,8.539c-.196.416-.512.702-.943.859-.433.157-.856.138-1.271-.058l-2.747-1.293c-.415-.195-.701-.509-.855-.94ZM497.998,452.105c.378.179.795.186,1.251.022.455-.163.773-.435.952-.813l4.007-8.513c.178-.378.184-.796.02-1.251-.165-.455-.436-.773-.814-.951l-14.263-6.713c-.379-.178-.797-.185-1.253-.021-.455.163-.771.435-.949.812l-4.007,8.514c-.178.379-.186.795-.022,1.251.165.455.437.772.816.95l14.263,6.713Z"/>
      <path class="st38" d="M514.99,452.511c-.149-.445-.135-.857.042-1.234l1.306-2.774c.177-.376.485-.648.925-.819.438-.169.865-.158,1.28.037l2.746,1.293c.415.195.838.216,1.271.061.43-.155.737-.423.916-.804l1.317-2.799c.179-.38.193-.795.048-1.243-.147-.45-.429-.771-.844-.967l-2.746-1.293c-.415-.195-.7-.509-.855-.941-.156-.431-.137-.855.059-1.27l1.293-2.747c.179-.38.489-.656.93-.829.439-.173.867-.162,1.282.033l8.499,4.001c.416.195.696.518.844.968.146.448.131.863-.048,1.243l-4.025,8.552c-.179.381-.485.648-.916.804-.432.155-.854.136-1.271-.06l-2.746-1.293c-.381-.18-.799-.188-1.255-.025s-.772.431-.949.807l-1.306,2.774c-.177.377-.487.65-.924.82-.439.17-.866.157-1.281-.038l-2.746-1.293c-.415-.195-.697-.516-.845-.963Z"/>
      <path class="st38" d="M521.953,483.99c-.157-.432-.136-.855.059-1.27l1.293-2.748c.195-.414.508-.699.941-.854.431-.155.855-.136,1.269.06l14.305,6.733c.381.179.786.19,1.219.035.431-.155.745-.44.94-.855l1.293-2.747c.195-.414.215-.838.06-1.27-.156-.432-.423-.737-.804-.916l-2.798-1.317c-.381-.18-.653-.497-.817-.955-.166-.458-.158-.875.021-1.256l1.293-2.747c.195-.414.215-.838.061-1.27-.157-.432-.441-.746-.856-.941l-2.747-1.293c-.38-.179-.652-.498-.815-.958-.164-.46-.155-.882.026-1.266l1.329-2.824c.181-.383.193-.793.041-1.227-.155-.435-.44-.75-.854-.945l-2.747-1.293c-.414-.195-.696-.516-.844-.962-.15-.446-.135-.857.042-1.234l1.306-2.774c.177-.376.484-.649.925-.819.438-.17.865-.158,1.279.037l2.747,1.293c.414.195.837.215,1.271.061.43-.156.737-.424.916-.804l1.317-2.8c.179-.379.496-.652.953-.817s.873-.158,1.253.021l14.263,6.713c.378.178.65.496.813.953.164.457.156.876-.022,1.256l-1.317,2.799c-.179.381-.493.645-.941.791-.448.148-.861.133-1.239-.046l-14.263-6.714c-.38-.178-.797-.185-1.252-.023-.456.163-.771.433-.948.809l-1.306,2.774c-.177.376-.183.792-.017,1.246.166.455.439.771.819.95l2.748,1.293c.415.195.698.51.854.945.153.435.141.844-.04,1.227l-1.329,2.824c-.181.384-.189.806-.026,1.266.163.461.436.779.816.959l2.798,1.316c.381.18.647.484.804.917.155.432.136.855-.06,1.27l-1.293,2.747c-.179.381-.188.798-.025,1.254.161.456.431.773.808.95l2.774,1.306c.375.177.648.485.818.924.171.439.158.866-.037,1.28l-1.293,2.747c-.195.415-.517.697-.963.845-.447.148-.858.134-1.233-.043l-2.774-1.306c-.377-.177-.789-.191-1.235-.043s-.767.431-.962.846l-1.293,2.746c-.195.415-.51.7-.941.855-.433.155-.838.144-1.219-.035l-14.305-6.733c-.414-.195-.7-.509-.854-.94Z"/>
      <path class="st38" d="M275.538,443.978c-.172-.439-.161-.867.035-1.282l1.293-2.747c.195-.414.214-.838.06-1.27-.156-.432-.441-.746-.855-.941l-2.747-1.293c-.415-.195-.7-.508-.855-.94-.156-.432-.135-.855.06-1.27l9.441-20.059c.179-.38.488-.656.929-.829s.867-.162,1.282.034l2.747,1.293c.414.195.837.215,1.27.06.431-.155.737-.422.916-.803l1.317-2.799c.179-.38.497-.652.954-.817.458-.164.877-.157,1.257.022l20.058,9.441c.38.179.653.497.817.955.165.457.158.876-.021,1.256l-4.025,8.552c-.179.381-.497.652-.955.817-.457.164-.876.157-1.256-.022l-2.798-1.317c-.381-.179-.645-.493-.792-.942-.148-.449-.132-.864.047-1.244l1.317-2.799c.179-.38.187-.799.021-1.256-.164-.458-.437-.776-.816-.955l-14.305-6.733c-.38-.179-.799-.186-1.257-.022-.457.165-.775.438-.954.817l-9.441,20.059c-.195.414-.207.842-.035,1.281.173.44.45.75.83.929l14.305,6.733c.38.179.794.195,1.243.048.45-.147.772-.429.967-.844l1.293-2.747c.195-.414.508-.699.941-.854.431-.155.837-.144,1.218.035l2.798,1.317c.38.179.657.489.83.929.173.44.162.867-.033,1.282l-1.293,2.747c-.195.414-.518.696-.967.843-.449.147-.864.131-1.244-.048l-2.798-1.317c-.381-.179-.787-.19-1.218-.035-.433.156-.747.44-.941.855l-1.293,2.746c-.195.415-.518.696-.967.844-.449.147-.863.131-1.243-.048l-14.305-6.733c-.38-.179-.657-.488-.83-.928Z"/>
      <path class="st38" d="M304.9,457.798c-.156-.432-.135-.855.06-1.27l14.857-31.564c.179-.38.488-.657.929-.829.439-.173.867-.162,1.282.033l2.747,1.293c.414.195.695.518.843.967.146.449.131.864-.048,1.244l-4.025,8.552c-.179.381-.187.799-.022,1.256.166.458.438.775.818.955l14.305,6.732c.38.18.799.187,1.255.021.458-.164.776-.436.955-.816l4.025-8.552c.179-.38.488-.657.93-.829.439-.174.85-.17,1.23.009l2.798,1.317c.38.179.653.497.817.955.165.457.158.876-.021,1.256l-14.857,31.564c-.195.414-.518.695-.967.843-.449.147-.864.131-1.244-.048l-2.798-1.317c-.381-.179-.649-.484-.804-.916-.157-.433-.136-.855.059-1.271l6.709-14.253c.195-.414.207-.842.033-1.282-.172-.439-.449-.75-.829-.928l-14.305-6.734c-.38-.178-.795-.193-1.245-.047-.449.147-.771.429-.966.843l-6.709,14.253c-.195.415-.51.7-.941.855-.432.155-.855.136-1.27-.06l-2.747-1.293c-.415-.194-.701-.509-.855-.94Z"/>
      <path class="st38" d="M345.819,477.059c-.172-.44-.161-.868.035-1.282l1.293-2.747c.195-.415.213-.838.06-1.27-.156-.432-.441-.746-.855-.941l-2.747-1.293c-.415-.194-.701-.508-.855-.94-.156-.432-.135-.855.06-1.27l9.441-20.059c.179-.38.488-.656.929-.829.439-.173.867-.161,1.282.034l2.747,1.293c.414.195.837.215,1.27.06.43-.155.737-.423.916-.804l1.317-2.799c.179-.38.497-.652.954-.816.458-.165.877-.158,1.257.021l14.305,6.732c.38.18.652.497.816.955.165.457.158.876-.021,1.256l-1.317,2.799c-.179.381-.191.787-.035,1.219s.424.736.805.916l2.798,1.316c.38.18.653.498.817.955.165.458.158.877-.021,1.257l-9.441,20.058c-.195.415-.518.696-.967.843-.449.147-.864.131-1.244-.048l-2.798-1.317c-.381-.179-.787-.189-1.219-.034-.432.154-.746.439-.94.854l-1.293,2.747c-.195.414-.518.695-.967.843-.449.147-.863.132-1.243-.048l-14.305-6.732c-.38-.18-.657-.488-.83-.929ZM363.662,478.967c.38.179.794.195,1.243.048.45-.146.772-.429.967-.843l9.441-20.059c.179-.38.187-.799.021-1.256-.164-.458-.437-.776-.816-.954l-14.305-6.734c-.38-.178-.799-.186-1.257-.021-.457.164-.775.437-.954.816l-9.441,20.059c-.195.414-.207.843-.035,1.282.173.44.45.749.83.928l14.305,6.733Z"/>
      <path class="st38" d="M375.18,490.879c-.156-.433-.135-.855.06-1.271l1.293-2.746c.195-.415.508-.7.94-.855.431-.155.855-.136,1.27.06l2.747,1.293c.414.194.837.215,1.27.06.43-.156.746-.44.941-.855l9.441-20.058c.179-.38.193-.796.048-1.244-.147-.449-.429-.772-.843-.967l-2.747-1.293c-.415-.195-.701-.508-.855-.94-.156-.432-.144-.838.035-1.218l1.317-2.799c.179-.38.488-.657.929-.829.439-.173.867-.162,1.282.033l14.305,6.733c.38.179.644.492.791.942.146.449.132.864-.047,1.244l-1.317,2.799c-.179.381-.486.648-.917.803-.432.155-.838.144-1.218-.035l-2.798-1.317c-.381-.179-.8-.187-1.258-.021-.457.164-.775.437-.954.816l-9.441,20.059c-.195.414-.207.843-.035,1.282.173.44.45.749.831.929l2.798,1.317c.38.179.647.484.803.916.155.432.136.855-.059,1.27l-1.293,2.748c-.195.414-.511.699-.942.854-.432.155-.838.144-1.218-.035l-14.305-6.733c-.415-.195-.701-.509-.855-.94Z"/>
      <path class="st38" d="M404.593,504.724c-.172-.439-.161-.867.035-1.282l1.293-2.747c.195-.414.213-.838.06-1.27-.156-.432-.441-.746-.856-.94l-2.746-1.294c-.415-.194-.701-.508-.855-.939-.156-.432-.136-.855.059-1.271l9.441-20.058c.179-.38.489-.657.93-.829.439-.174.867-.162,1.282.032l2.746,1.294c.415.194.838.216,1.271.06.43-.155.737-.423.916-.804l1.317-2.799c.179-.38.497-.652.954-.816.458-.165.876-.157,1.257.021l20.058,9.441c.38.18.653.498.817.955.165.457.158.877-.021,1.257l-4.025,8.552c-.179.381-.497.652-.955.816-.457.165-.876.157-1.256-.021l-2.799-1.317c-.38-.179-.644-.493-.792-.942-.147-.449-.131-.863.048-1.244l1.317-2.799c.179-.38.187-.799.021-1.256-.164-.458-.437-.775-.816-.955l-14.305-6.732c-.381-.18-.799-.187-1.257-.021-.457.164-.775.437-.954.816l-9.441,20.059c-.195.414-.207.842-.035,1.282.173.44.449.749.83.928l14.305,6.733c.38.179.794.195,1.243.048.45-.147.772-.429.967-.843l1.293-2.747c.195-.415.508-.7.94-.855.432-.154.838-.144,1.218.035l2.799,1.317c.38.179.657.489.83.929.173.44.162.868-.033,1.282l-1.293,2.747c-.195.415-.518.696-.967.843-.449.147-.864.131-1.244-.048l-2.799-1.317c-.38-.179-.786-.189-1.218-.035-.432.156-.746.441-.94.855l-1.293,2.747c-.195.415-.518.696-.967.843-.449.147-.863.131-1.243-.047l-14.305-6.734c-.381-.178-.657-.487-.83-.928Z"/>
      <path class="st38" d="M433.956,518.544c-.156-.432-.136-.855.059-1.27l14.857-31.564c.179-.38.489-.656.93-.829.439-.173.867-.161,1.281.034l20.059,9.44c.38.179.652.497.816.955.165.456.158.876-.021,1.256l-1.317,2.799c-.179.38-.493.644-.942.791-.449.147-.863.132-1.243-.048l-14.306-6.732c-.38-.18-.798-.187-1.256-.022-.457.165-.776.438-.955.817l-1.317,2.799c-.179.381-.186.799-.021,1.256.166.458.437.775.817.955l8.553,4.025c.38.179.647.484.803.916.155.432.144.838-.035,1.219l-1.317,2.799c-.179.38-.489.656-.929.828-.44.173-.85.17-1.23-.009l-8.553-4.025c-.38-.179-.794-.194-1.244-.048-.449.148-.772.429-.967.844l-4.001,8.5c-.195.414-.206.842-.034,1.281.173.44.449.75.829.929l14.306,6.733c.38.179.656.489.829.929.173.44.162.867-.033,1.282l-1.293,2.746c-.195.415-.518.696-.967.844-.449.147-.863.131-1.243-.048l-20.059-9.44c-.414-.195-.7-.509-.854-.941Z"/>
    </g>
  </g>
</svg>