<svg xmlns="http://www.w3.org/2000/svg" id="Layer_1" version="1.1" viewBox="113.34 260.42 367.04 377.28">
  <!-- Generator: Adobe Illustrator 29.3.0, SVG Export Plug-In . SVG Version: 2.1.0 Build 146)  -->
  <rect x="307.443" y="260.416" width="25.255" height="25.255" fill="#fff"/>
  <rect x="332.698" y="260.416" width="25.255" height="25.255" fill="#fff"/>
  <rect x="386.133" y="332.483" width="25.255" height="25.255" fill="#fff"/>
  <rect x="376.585" y="332.483" width="25.255" height="25.255" fill="#fff"/>
  <rect x="386.133" y="320.78" width="25.255" height="25.255" fill="#fff"/>
  <rect x="398.76" y="332.483" width="25.255" height="25.255" fill="#fff"/>
  <rect x="385.209" y="344.187" width="25.255" height="25.255" fill="#fff"/>
  <rect x="381.205" y="326.324" width="25.255" height="25.255" fill="#fff"/>
  <rect x="393.832" y="326.324" width="25.255" height="25.255" fill="#fff"/>
  <rect x="381.205" y="337.411" width="25.255" height="25.255" fill="#fff"/>
  <rect x="391.83" y="337.411" width="25.255" height="25.255" fill="#fff"/>
  <rect x="357.952" y="260.416" width="25.255" height="25.255" fill="#fff"/>
  <rect x="383.207" y="260.416" width="25.255" height="25.255" fill="#fff"/>
  <rect x="408.461" y="269.655" width="25.255" height="25.255" fill="#fff"/>
  <rect x="433.716" y="278.895" width="25.255" height="25.255" fill="#fff"/>
  <rect x="446.343" y="304.149" width="25.255" height="25.255" fill="#fff"/>
  <rect x="455.121" y="329.096" width="25.255" height="25.255" fill="#fff"/>
  <rect x="455.121" y="354.042" width="25.255" height="25.255" fill="#fff"/>
  <rect x="455.121" y="379.297" width="25.255" height="25.255" fill="#fff"/>
  <rect x="455.121" y="404.551" width="25.255" height="25.255" fill="#fff"/>
  <rect x="455.121" y="429.806" width="25.255" height="25.255" fill="#fff"/>
  <rect x="307.366" y="612.439" width="25.255" height="25.255" fill="#fff"/>
  <rect x="332.621" y="612.439" width="25.255" height="25.255" fill="#fff"/>
  <rect x="357.875" y="612.439" width="25.255" height="25.255" fill="#fff"/>
  <rect x="383.13" y="612.439" width="25.255" height="25.255" fill="#fff"/>
  <rect x="408.384" y="602.583" width="25.255" height="25.255" fill="#fff"/>
  <rect x="433.639" y="593.344" width="25.255" height="25.255" fill="#fff"/>
  <rect x="446.266" y="568.089" width="25.255" height="25.255" fill="#fff"/>
  <rect x="455.044" y="543.143" width="25.255" height="25.255" fill="#fff"/>
  <rect x="455.044" y="518.196" width="25.255" height="25.255" fill="#fff"/>
  <rect x="455.044" y="492.942" width="25.255" height="25.255" fill="#fff"/>
  <rect x="455.044" y="467.687" width="25.255" height="25.255" fill="#fff"/>
  <rect x="455.044" y="442.433" width="25.255" height="25.255" fill="#fff"/>
  <rect x="261.015" y="612.439" width="25.255" height="25.255" transform="translate(547.284 1250.132) rotate(180)" fill="#fff"/>
  <rect x="235.76" y="612.439" width="25.255" height="25.255" transform="translate(496.775 1250.132) rotate(180)" fill="#fff"/>
  <rect x="210.506" y="612.439" width="25.255" height="25.255" transform="translate(446.266 1250.132) rotate(180)" fill="#fff"/>
  <rect x="185.251" y="612.439" width="25.255" height="25.255" transform="translate(395.757 1250.132) rotate(180)" fill="#fff"/>
  <rect x="159.997" y="603.199" width="25.255" height="25.255" transform="translate(345.248 1231.653) rotate(180)" fill="#fff"/>
  <rect x="134.742" y="593.96" width="25.255" height="25.255" transform="translate(294.739 1213.174) rotate(180)" fill="#fff"/>
  <rect x="122.115" y="568.705" width="25.255" height="25.255" transform="translate(269.485 1162.665) rotate(180)" fill="#fff"/>
  <rect x="113.338" y="543.759" width="25.255" height="25.255" transform="translate(251.93 1112.772) rotate(180)" fill="#fff"/>
  <rect x="113.338" y="518.812" width="25.255" height="25.255" transform="translate(251.93 1062.879) rotate(180)" fill="#fff"/>
  <rect x="113.338" y="493.558" width="25.255" height="25.255" transform="translate(251.93 1012.37) rotate(180)" fill="#fff"/>
  <rect x="113.338" y="468.303" width="25.255" height="25.255" transform="translate(251.93 961.861) rotate(180)" fill="#fff"/>
  <rect x="113.338" y="443.049" width="25.255" height="25.255" transform="translate(251.93 911.352) rotate(180)" fill="#fff"/>
  <rect x="261.015" y="260.416" width="25.255" height="25.255" transform="translate(547.284 546.086) rotate(180)" fill="#fff"/>
  <rect x="235.76" y="260.416" width="25.255" height="25.255" transform="translate(496.775 546.086) rotate(180)" fill="#fff"/>
  <rect x="210.506" y="260.416" width="25.255" height="25.255" transform="translate(446.266 546.086) rotate(180)" fill="#fff"/>
  <rect x="185.251" y="260.416" width="25.255" height="25.255" transform="translate(395.757 546.086) rotate(180)" fill="#fff"/>
  <rect x="159.997" y="269.655" width="25.255" height="25.255" transform="translate(345.248 564.565) rotate(180)" fill="#fff"/>
  <rect x="134.742" y="278.895" width="25.255" height="25.255" transform="translate(294.739 583.044) rotate(180)" fill="#fff"/>
  <rect x="122.115" y="304.149" width="25.255" height="25.255" transform="translate(269.485 633.553) rotate(180)" fill="#fff"/>
  <rect x="113.338" y="329.096" width="25.255" height="25.255" transform="translate(251.93 683.446) rotate(180)" fill="#fff"/>
  <rect x="113.338" y="354.042" width="25.255" height="25.255" transform="translate(251.93 733.339) rotate(180)" fill="#fff"/>
  <rect x="113.338" y="379.297" width="25.255" height="25.255" transform="translate(251.93 783.848) rotate(180)" fill="#fff"/>
  <rect x="113.338" y="404.551" width="25.255" height="25.255" transform="translate(251.93 834.357) rotate(180)" fill="#fff"/>
  <rect x="113.338" y="429.806" width="25.255" height="25.255" transform="translate(251.93 884.866) rotate(180)" fill="#fff"/>
  <rect x="284.229" y="260.416" width="25.255" height="25.255" fill="#fff"/>
  <rect x="282.823" y="612.439" width="25.255" height="25.255" fill="#fff"/>
  <rect x="315.913" y="362.666" width="25.255" height="25.255" fill="#fff"/>
  <rect x="336.24" y="375.293" width="25.255" height="25.255" fill="#fff"/>
  <rect x="350.407" y="389.768" width="25.255" height="25.255" fill="#fff"/>
  <rect x="359.954" y="412.251" width="25.255" height="25.255" fill="#fff"/>
  <rect x="361.494" y="439.045" width="25.255" height="25.255" fill="#fff"/>
  <rect x="364.497" y="433.501" width="25.255" height="25.255" fill="#fff"/>
  <rect x="294.739" y="356.814" width="25.255" height="25.255" fill="#fff"/>
  <rect x="306.057" y="356.814" width="25.255" height="25.255" fill="#fff"/>
  <rect x="306.057" y="359.278" width="25.255" height="25.255" fill="#fff"/>
  <rect x="326.538" y="368.517" width="25.255" height="25.255" fill="#fff"/>
  <rect x="355.95" y="401.471" width="25.255" height="25.255" fill="#fff"/>
  <rect x="345.248" y="381.145" width="25.255" height="25.255" fill="#fff"/>
  <rect x="363.034" y="423.93" width="25.255" height="25.255" fill="#fff"/>
  <rect x="315.22" y="510.651" width="25.255" height="25.255" fill="#fff"/>
  <rect x="335.547" y="498.024" width="25.255" height="25.255" fill="#fff"/>
  <rect x="349.714" y="483.548" width="25.255" height="25.255" fill="#fff"/>
  <rect x="359.261" y="461.066" width="25.255" height="25.255" fill="#fff"/>
  <rect x="361.494" y="434.271" width="25.255" height="25.255" fill="#fff"/>
  <rect x="364.497" y="439.815" width="25.255" height="25.255" fill="#fff"/>
  <rect x="305.364" y="514.039" width="25.255" height="25.255" fill="#fff"/>
  <rect x="325.845" y="504.799" width="25.255" height="25.255" fill="#fff"/>
  <rect x="355.257" y="471.845" width="25.255" height="25.255" fill="#fff"/>
  <rect x="344.555" y="492.172" width="25.255" height="25.255" fill="#fff"/>
  <rect x="364.497" y="449.386" width="25.255" height="25.255" fill="#fff"/>
  <rect x="363.034" y="456.182" width="25.255" height="25.255" transform="translate(751.322 937.619) rotate(180)" fill="#fff"/>
  <rect x="251.006" y="362.435" width="25.255" height="25.255" transform="translate(527.266 750.124) rotate(180)" fill="#fff"/>
  <rect x="230.679" y="375.062" width="25.255" height="25.255" transform="translate(486.612 775.378) rotate(180)" fill="#fff"/>
  <rect x="216.512" y="389.537" width="25.255" height="25.255" transform="translate(458.278 804.329) rotate(180)" fill="#fff"/>
  <rect x="206.964" y="412.02" width="25.255" height="25.255" transform="translate(439.183 849.294) rotate(180)" fill="#fff"/>
  <rect x="205.424" y="438.814" width="25.255" height="25.255" transform="translate(436.103 902.883) rotate(180)" fill="#fff"/>
  <rect x="202.421" y="433.27" width="25.255" height="25.255" transform="translate(430.097 891.795) rotate(180)" fill="#fff"/>
  <rect x="272.179" y="356.583" width="25.255" height="25.255" transform="translate(569.613 738.42) rotate(180)" fill="#fff"/>
  <rect x="260.861" y="356.583" width="25.255" height="25.255" transform="translate(546.976 738.42) rotate(180)" fill="#fff"/>
  <rect x="260.861" y="359.047" width="25.255" height="25.255" transform="translate(546.976 743.348) rotate(180)" fill="#fff"/>
  <rect x="240.38" y="368.286" width="25.255" height="25.255" transform="translate(506.015 761.827) rotate(180)" fill="#fff"/>
  <rect x="210.968" y="401.24" width="25.255" height="25.255" transform="translate(447.19 827.735) rotate(180)" fill="#fff"/>
  <rect x="221.67" y="380.914" width="25.255" height="25.255" transform="translate(468.595 787.082) rotate(180)" fill="#fff"/>
  <rect x="203.884" y="423.699" width="25.255" height="25.255" transform="translate(433.023 872.653) rotate(180)" fill="#fff"/>
  <rect x="251.699" y="510.42" width="25.255" height="25.255" transform="translate(528.652 1046.094) rotate(180)" fill="#fff"/>
  <rect x="231.372" y="497.793" width="25.255" height="25.255" transform="translate(487.998 1020.84) rotate(180)" fill="#fff"/>
  <rect x="217.205" y="483.317" width="25.255" height="25.255" transform="translate(459.664 991.889) rotate(180)" fill="#fff"/>
  <rect x="207.657" y="460.835" width="25.255" height="25.255" transform="translate(440.569 946.924) rotate(180)" fill="#fff"/>
  <rect x="205.424" y="434.04" width="25.255" height="25.255" transform="translate(436.103 893.335) rotate(180)" fill="#fff"/>
  <rect x="202.421" y="439.584" width="25.255" height="25.255" transform="translate(430.097 904.423) rotate(180)" fill="#fff"/>
  <rect x="261.554" y="513.808" width="25.255" height="25.255" transform="translate(548.362 1052.87) rotate(180)" fill="#fff"/>
  <rect x="241.073" y="504.568" width="25.255" height="25.255" transform="translate(507.401 1034.391) rotate(180)" fill="#fff"/>
  <rect x="211.661" y="471.614" width="25.255" height="25.255" transform="translate(448.576 968.483) rotate(180)" fill="#fff"/>
  <rect x="222.363" y="491.941" width="25.255" height="25.255" transform="translate(469.981 1009.136) rotate(180)" fill="#fff"/>
  <rect x="202.421" y="449.155" width="25.255" height="25.255" transform="translate(430.097 923.565) rotate(180)" fill="#fff"/>
  <rect x="203.884" y="455.951" width="25.255" height="25.255" fill="#fff"/>
  <rect x="284.229" y="514.039" width="25.255" height="25.255" fill="#fff"/>
  <rect x="282.823" y="517.195" width="25.255" height="25.255" fill="#fff"/>
  <rect x="284.229" y="354.042" width="25.255" height="25.255" fill="#fff"/>
</svg>