<?xml version="1.0" encoding="UTF-8"?>
<svg id="Layer_1" xmlns="http://www.w3.org/2000/svg" version="1.1" xmlns:xlink="http://www.w3.org/1999/xlink" viewBox="0 0 1080 1080">
  <!-- Generator: Adobe Illustrator 29.3.0, SVG Export Plug-In . SVG Version: 2.1.0 Build 146)  -->
  <defs>
    <style>
      .st0 {
        fill: #7067b9;
      }

      .st1 {
        fill: #a568a2;
      }

      .st2 {
        fill: #2d2d2d;
      }

      .st3 {
        fill: #fff;
      }

      .st4 {
        fill: #ff9ff6;
      }

      .st5 {
        fill: #9a95ef;
      }

      .st6 {
        fill: none;
      }

      .st7 {
        fill: #38e5ff;
      }

      .st8 {
        fill: #ffe3f6;
      }

      .st9 {
        fill: #8e8d8e;
      }

      .st10 {
        fill: #4a477f;
      }

      .st11 {
        fill: #ff47dd;
      }
    </style>
  </defs>
  <polygon class="st8" points="304.911 560.132 334.977 98.203 883.005 110.503 835.172 644.864 304.911 560.132"/>
  <path d="M835.623,645.442l-.529-.084-530.711-84.805.029-.454,30.098-462.408,549.041,12.323-.048.532-47.88,534.896h0ZM305.439,559.71l529.283,84.576,47.736-533.296-547.014-12.277-30.006,460.997h0Z"/>
  <g>
    <polygon class="st4" points="950.509 129.636 882.177 110.503 834.344 644.864 905.41 613.431 921.81 587.465 1022.942 545.733 1022.942 441.233 1037.975 413.9 1050.275 221.202 972.376 221.202 950.509 129.636"/>
    <path d="M833.771,645.665l.075-.846,47.887-534.96,69.195,19.375,21.843,91.468h78.038l-.034.532-12.307,192.809-.054.098-14.972,27.221v104.706l-.31.127-100.985,41.672-16.396,25.96-.14.062-71.842,31.777h.002ZM882.621,111.146l-47.704,532.917,70.151-31.028,16.403-25.972.147-.061,100.823-41.605v-104.293l.062-.113,14.979-27.235,12.259-192.055h-77.761l-21.89-91.664-67.471-18.892h.002Z"/>
  </g>
  <path class="st0" d="M372.041,140.01c23.573,40.793,40.189,72.903,61.137,107.635,1.666,2.763,3.323,5.525,4.972,8.286l344.155,292.78,12.696,38.319,43.163-410.698s0-8.787-3.82-14.864c-1.938-3.084-21.121-4.178-21.121-4.178l-441.183-17.28h.001Z"/>
  <g>
    <path class="st0" d="M342.858,584.067c1.698-.592,3.395-1.184,5.093-1.775,9.933-3.463,19.866-6.925,29.799-10.388,152.198,24.32,304.396,48.641,456.594,72.961l71.066-31.433,16.4-25.966,82.157-33.902v10.617l19.191.829-4.972,79.856-15.744,11.293-21.544,75.405-142.523,76.233-433.37-82.862-36.459-40.602-25.687-26.516v-73.75Z"/>
    <path d="M838.455,808.319l-.174-.033-433.536-82.894-.113-.126-36.459-40.603-25.815-26.647v-74.306l5.428-1.892,29.918-10.43.125.02,456.447,72.938,70.792-31.312,16.403-25.972.147-.061,82.848-34.187v10.885l19.222.83-.031.509-4.987,80.092-15.795,11.33-21.555,75.44-.187.1-142.679,76.317v.002ZM405.264,724.474l433.031,82.797,142.18-76.05,21.535-75.368,15.691-11.256,4.927-79.11-19.161-.828v-10.348l-81.319,33.556-16.396,25.96-.14.062-71.201,31.494-.146-.023-456.469-72.941-34.438,12.005v73.19l25.547,26.37,36.359,40.491h0Z"/>
  </g>
  <polygon class="st8" points="789.486 741.505 789.486 666.929 345.242 590.143 345.242 657.262 789.486 741.505"/>
  <polygon class="st9" points="597.589 653.65 598.13 688.213 685.283 701.545 684.75 667.514 597.589 653.65"/>
  <path d="M863.946,926.842l-1.947-4.605c28.357-11.995,30.525-22.404,30.515-25.309-.056-13.927-31.744-29.935-63.975-32.318-16.632-1.231-26.47,1.911-37.86,5.547-10.711,3.419-22.851,7.295-42.555,7.717-28.555.611-70.644-6.724-72.146-21.583-1.341-13.269,29.189-24.368,41.066-27.525,24.041-6.394,41.233-2.241,67.255,4.043,7.516,1.815,16.035,3.873,25.6,5.869,23.867,4.981,50.185,8.891,70.399,10.457,36.323,2.814,40.132-2.717,40.525-3.855,1.169-3.381-7.105-12.409-17.496-17.365-13.788-6.578-28.478-3.225-33.304-2.124l-.423.097c-19.173,4.337-57.194-1.532-132.945-13.224-32.9-5.079-56.2-10.354-69.268-15.681-10.943-4.461-12.957-8.179-13.482-11.227-1.591-9.221,7.839-19.644,28.826-31.863l2.516,4.32c-23.298,13.565-27.224,22.004-26.414,26.693.569,3.3,9.364,12.13,78.57,22.812,75.14,11.599,112.847,17.419,131.094,13.291l.414-.094c5.246-1.197,21.212-4.84,36.568,2.484,10.148,4.841,22.769,15.705,20.068,23.514-1.552,4.49-7.97,10.126-45.636,7.206-20.416-1.582-46.972-5.525-71.035-10.548-9.642-2.013-18.2-4.079-25.752-5.903-25.277-6.104-41.979-10.136-64.796-4.071-20.193,5.367-38.008,15.944-37.377,22.191.823,8.146,32.582,17.814,67.063,17.087,18.98-.407,30.246-4.004,41.142-7.482,11.391-3.637,22.147-7.069,39.75-5.77,32.323,2.391,68.531,18.844,68.605,37.285.022,5.867-4.31,17.557-33.567,29.934h.002Z"/>
  <path d="M616.305,792.622l-3.869-3.168c6.173-7.54,12.947-14.691,20.136-21.254,7.342-6.702,15.246-12.913,23.492-18.458l2.791,4.148c-8.043,5.409-15.752,11.466-22.912,18.003-7.011,6.399-13.617,13.374-19.638,20.729h0Z"/>
  <g>
    <polygon class="st8" points="219.393 698.417 16.38 811.938 16.38 831.825 19.695 850.055 520.045 980.149 723.196 878.228 723.196 810.281 700.823 796.194 219.393 698.417"/>
    <path d="M520.102,980.68l-.182-.047L19.26,850.458l-3.371-18.543-.008-20.27.256-.144,203.175-113.612.182.037,481.52,97.796.077.049,22.606,14.233v68.531l-.275.139-203.319,102.005h-.001ZM20.129,849.651l499.86,129.966,202.707-101.698v-67.361l-22.062-13.892-481.159-97.722-202.595,113.287v19.594l3.249,17.826h0Z"/>
  </g>
  <g>
    <polygon class="st8" points="882.177 929.603 888.092 971.862 736.454 1011.636 661.049 970.62 661.049 954.461 683.008 929.603 801.915 893.143 882.177 929.603"/>
    <path d="M736.39,1012.171l-.175-.095-75.665-41.16v-16.645l22.177-25.105.135-.042,119.088-36.514.173.078,80.512,36.572,6.015,42.973-.43.112-151.829,39.825h-.001ZM661.55,970.322l74.969,40.78,151.017-39.611-5.815-41.547-79.839-36.268-118.592,36.362-21.739,24.611v15.672h-.001Z"/>
  </g>
  <path d="M782.772,597.324c-.778,0-1.563-.059-2.35-.176l-432.139-64.394c-7.986-1.189-13.829-8.433-13.303-16.49l23.82-364.987c.555-8.516,7.687-14.938,16.198-14.612l452.166,17.063c4.378.165,8.369,2.08,11.236,5.393,2.867,3.312,4.191,7.535,3.728,11.892l-43.847,412.319c-.455,4.278-2.58,8.085-5.983,10.718-2.774,2.146-6.09,3.274-9.526,3.274h0ZM374.387,137.654c-7.726,0-14.081,5.91-14.588,13.689l-23.82,364.987c-.493,7.542,4.978,14.322,12.453,15.435l432.138,64.395c3.987.593,7.933-.438,11.117-2.901,3.187-2.464,5.176-6.027,5.602-10.032l43.847-412.319c.434-4.078-.806-8.031-3.489-11.132-2.685-3.101-6.42-4.893-10.518-5.048l-452.167-17.063c-.192-.007-.383-.011-.574-.011h0Z"/>
  <g>
    <polygon class="st4" points="347.83 593.734 347.83 655.328 530.127 690.13 530.127 625.222 347.83 593.734"/>
    <path d="M530.627,690.735l-183.297-34.994v-62.601l.585.101,182.712,31.56v65.935h0ZM348.33,654.915l181.297,34.611v-63.884l-181.297-31.314v60.587h0Z"/>
  </g>
  <g>
    <polygon class="st3" points="597.391 653.65 597.391 685.63 681.765 699.224 681.765 667.737 597.391 653.65"/>
    <path d="M682.265,699.812l-.579-.094-84.795-13.662v-32.996l.582.098,84.792,14.155v32.499h0ZM597.891,685.204l83.374,13.434v-30.478l-83.374-13.919v30.963Z"/>
  </g>
  <g>
    <line class="st6" x1="605.532" y1="663.593" x2="670.164" y2="673.537"/>
    <rect x="637.347" y="635.869" width="1" height="65.393" transform="translate(-119.931 1197.337) rotate(-81.254)"/>
  </g>
  <g>
    <line class="st6" x1="605.532" y1="671.88" x2="670.164" y2="681.823"/>
    <rect x="637.348" y="644.155" width="1" height="65.393" transform="translate(-128.12 1204.364) rotate(-81.254)"/>
  </g>
  <g>
    <line class="st6" x1="605.532" y1="681.823" x2="670.164" y2="691.767"/>
    <rect x="637.347" y="654.097" width="1" height="65.393" transform="translate(-137.948 1212.794) rotate(-81.254)"/>
  </g>
  <polygon class="st9" points="746.582 682.216 746.582 707.7 722.46 703.067 722.46 682.216 722.46 678.563 746.582 682.216"/>
  <g>
    <polygon class="st3" points="744.004 682.006 744.004 704.794 722.46 700.65 722.46 682.006 722.46 678.74 744.004 682.006"/>
    <path d="M744.504,705.399l-22.544-4.336v-22.904l22.544,3.418v23.822h0ZM722.96,700.237l20.544,3.951v-21.752l-20.544-3.115v20.916Z"/>
  </g>
  <g>
    <polygon class="st8" points="347.83 707.808 399.783 719.118 399.783 735.054 345.242 723.976 347.83 707.808"/>
    <path d="M400.283,735.665l-.6-.121-55.011-11.173,2.747-17.164,52.864,11.508v16.95h0ZM345.811,723.582l53.472,10.86v-14.921l-51.043-11.113-2.429,15.174h0Z"/>
  </g>
  <g>
    <polygon class="st4" points="799.245 662.786 1023.158 565.008 1018.186 644.864 1002.442 656.157 980.898 731.562 838.375 807.795 834.968 803.192 830.917 801.35 830.917 796.194 819.132 795.089 827.234 768.942 827.603 756.052 813.617 766.364 796.299 747.213 799.245 662.786"/>
    <path d="M838.23,808.439l-3.588-4.847-4.226-1.92v-5.023l-11.945-1.119,8.265-26.672.337-11.795-13.523,9.972-17.758-19.636.007-.203,2.958-84.742.288-.126,224.663-98.105-5.038,80.909-15.795,11.33-21.555,75.44-.188.1-142.902,76.438h0ZM831.417,801.028l3.876,1.762,3.227,4.36,141.955-75.93,21.535-75.368,15.691-11.256,4.907-78.802-222.875,97.323-2.928,83.91,16.879,18.665,14.447-10.653-.42,14.05-7.92,25.56,11.625,1.09v5.289h0Z"/>
  </g>
  <g>
    <line class="st6" x1="347.83" y1="584.803" x2="799.245" y2="658.643"/>
    <rect x="573.04" y="393.019" width=".999" height="457.415" transform="translate(-132.62 1087.378) rotate(-80.71)"/>
  </g>
  <g>
    <line class="st6" x1="811.03" y1="767.1" x2="548.449" y2="715.91"/>
    <rect x="679.234" y="607.736" width="1.001" height="267.525" transform="translate(-178.124 1266.796) rotate(-78.969)"/>
  </g>
  <g>
    <polygon class="st3" points="70.241 786.442 545.692 903.919 648.693 828.377 639.657 812.743 617.371 807.483 613.701 811.574 608.336 811.574 608.938 806.898 584.643 802.028 581.431 805.924 577.415 805.924 577.415 800.469 555.731 796.183 546.495 802.807 540.471 803.196 538.062 791.507 501.921 785.273 498.709 789.169 496.299 789.169 495.496 782.546 473.711 779.428 468.592 783.714 466.985 778.649 441.687 772.415 438.876 775.532 437.671 770.467 415.184 765.401 411.168 769.298 409.963 765.401 388.68 761.115 385.468 764.232 383.46 758.777 363.482 754.102 358.162 758.388 355.752 754.102 334.871 749.036 330.454 754.102 328.446 749.036 307.966 742.413 304.754 746.309 301.943 740.464 281.463 738.126 277.046 741.633 275.841 735.009 255.763 731.503 251.346 735.009 248.535 729.554 230.465 726.827 227.252 729.165 224.843 726.827 183.08 715.91 165.01 729.944 172.238 733.061 162.6 731.503 144.53 743.192 150.955 746.699 141.318 744.75 125.255 754.102 127.664 757.609 118.83 757.219 101.563 767.35 107.185 770.856 97.146 770.467 70.241 786.442"/>
    <path d="M545.799,904.46l-.228-.056-476.635-117.77,28.081-16.674,8.305.323-4.725-2.947,18.107-10.624,7.979.352-2.146-3.124,16.692-9.718,6.583,1.33-4.26-2.325,18.938-12.249,5.848.946-4.304-1.856,18.934-14.704,42.128,11.013,2.201,2.136,3.038-2.211.203.031,18.323,2.766,2.649,5.142,4.117-3.269,20.643,3.605,1.118,6.146,3.925-3.116,20.96,2.392,2.592,5.389,2.931-3.555,21.027,6.801,1.792,4.521,4.078-4.676,21.388,5.188,2.227,3.961,5.051-4.068.237.055,20.24,4.737,1.835,4.986,2.85-2.765,21.832,4.396,1.051,3.401,3.625-3.517.264.059,22.792,5.135,1.057,4.442,2.374-2.632,25.861,6.373,1.465,4.621,4.719-3.95,22.385,3.203.796,6.563h1.731l3.247-3.938.286.049,36.477,6.292,2.39,11.597,5.447-.352,9.295-6.667,22.3,4.407v5.366h3.28l3.253-3.945,25.045,5.021-.589,4.574h4.573l3.72-4.146,22.785,5.378.107.188,9.26,16.021-.361.266-103.189,75.68v.002ZM71.545,786.25l474.039,117.128,102.451-75.139-8.703-15.059-21.787-5.144-3.62,4.037h-6.157l.614-4.777-23.543-4.721-3.173,3.848h-4.751v-5.544l-21.069-4.165-9.176,6.581-6.601.428-2.428-11.782-35.519-6.126-3.178,3.854h-3.088l-.811-6.683-21.185-3.031-5.521,4.622-1.747-5.51-24.735-6.096-3.248,3.603-1.353-5.688-21.919-4.938-4.407,4.276-1.358-4.392-20.733-4.176-3.576,3.47-2.18-5.924-19.478-4.56-5.591,4.504-2.592-4.611-20.375-4.942-4.757,5.455-2.223-5.609-19.932-6.447-3.494,4.238-3.03-6.301-20-2.282-4.909,3.896-1.292-7.101-19.513-3.408-4.718,3.745-2.973-5.769-17.615-2.658-3.387,2.465-2.617-2.54-41.397-10.821-17.207,13.364,10.152,4.378-13.427-2.171-17.204,11.128,8.59,4.688-12.692-2.566-15.433,8.985,2.673,3.89-9.689-.428-16.427,9.638,6.519,4.066-11.773-.457-25.729,15.278h.002Z"/>
  </g>
  <g>
    <polygon class="st4" points="519.907 938.165 700.823 796.194 723.196 810.281 723.196 878.228 520.045 980.149 19.695 850.055 16.38 831.825 16.38 811.938 519.907 938.165"/>
    <path d="M520.102,980.68l-.182-.047L19.26,850.458l-3.371-18.543-.008-20.617.622.155,503.289,126.167,181.001-142.036,22.904,14.421v68.531l-.275.139-203.319,102.005h0ZM20.129,849.651l499.86,129.966,202.707-101.698v-67.361l-21.842-13.753-180.832,141.905-.237-.06L16.88,812.579v19.246l3.249,17.826h0Z"/>
  </g>
  <g>
    <line class="st6" x1="782.305" y1="553.131" x2="791.696" y2="580.2"/>
    <rect x="786.501" y="552.338" width="1.001" height="28.651" transform="translate(-142.257 289.252) rotate(-19.133)"/>
  </g>
  <g>
    <path class="st3" d="M773.466,906.677l27.068,13.258"/>
    <rect x="786.499" y="898.233" width="1" height="30.141" transform="translate(-379.378 1218.354) rotate(-63.905)"/>
  </g>
  <g>
    <path class="st3" d="M833.863,937.797c-8.839-4.419-17.677-8.839-26.516-13.258"/>
    <rect x="820.105" y="916.345" width="1" height="29.645" transform="translate(-379.242 1248.709) rotate(-63.435)"/>
  </g>
  <polygon class="st1" points="354.46 621.677 354.46 634.172 516.593 662.188 515.999 650.095 354.46 621.677"/>
  <polygon class="st10" points="526.319 735.641 526.316 711.846 460.799 699.157 460.799 725.328 526.319 735.641"/>
  <g>
    <polygon class="st5" points="523.406 732.663 523.406 711.303 460.799 699.157 460.799 722.907 523.406 732.663"/>
    <path d="M523.906,733.247l-63.607-9.912v-24.785l63.607,12.341v22.356h0ZM461.299,722.479l61.607,9.6v-20.364l-61.607-11.952v22.717h0Z"/>
  </g>
  <g>
    <path class="st4" d="M516.593,721.431c-11.754,1.07-31.819,7.74-51.006.74-27.014-9.855-40.124-27.492-54.505-22.465-8.864,3.098-11.397,11.105-13.81,18.595-13.626-2.208-29.352-6.119-42.811-9.049,0,0,7.149-16.227,10.587-19.121,24.819-20.893,85.22,13.134,92.069,21.36.396.475,1.976,2.501,4.788,3.683,4.142,1.74,8.651.679,12.153-.737l42.536,6.994h0Z"/>
    <path d="M484.849,725.812c-6.346,0-12.962-.811-19.434-3.172-11.123-4.059-19.745-9.336-27.352-13.992-10.772-6.593-18.557-11.359-26.817-8.471-8.578,2.998-11.058,10.697-13.457,18.145l-.174.541-.424-.069c-9.885-1.602-20.763-4.074-31.283-6.465-3.963-.9-7.845-1.782-11.554-2.59l-.598-.13.247-.56c.294-.667,7.236-16.367,10.723-19.302,6.396-5.385,15.579-7.584,27.29-6.552,27.16,2.407,60.517,22.007,65.485,27.974l.064.078c.486.59,1.964,2.386,4.532,3.464,3.234,1.359,7.196,1.11,11.772-.739l.13-.053.138.023,46.403,7.63-3.903.355c-2.742.25-6.027.821-9.505,1.427-6.393,1.113-14.115,2.457-22.285,2.457h.002ZM416.217,698.333c6.909,0,13.933,4.299,22.368,9.463,7.567,4.632,16.144,9.882,27.173,13.905,14.551,5.31,29.955,2.628,41.204.669,2.134-.371,4.197-.73,6.112-1.012l-38.961-6.406c-4.776,1.903-8.948,2.134-12.404.682-2.795-1.174-4.393-3.113-4.917-3.75-4.963-5.961-37.954-25.306-64.866-27.69-11.436-1.016-20.372,1.112-26.558,6.32-2.957,2.488-8.911,15.509-10.202,18.38,3.53.772,7.21,1.608,10.962,2.461,10.354,2.353,21.057,4.784,30.798,6.384,2.338-7.253,5.057-15.383,13.989-18.504,1.774-.62,3.534-.901,5.301-.901h0Z"/>
  </g>
  <g>
    <polygon class="st4" points="737.375 995.432 736.454 1011.636 661.049 970.62 661.049 954.461 737.375 995.432"/>
    <path d="M736.908,1012.453l-76.358-41.537v-17.291l77.343,41.518-.984,17.311h-.001ZM661.55,970.322l74.45,40.498.857-15.098-75.308-40.426v15.025h0Z"/>
  </g>
  <g>
    <polygon class="st5" points="354.46 621.723 354.46 630.47 512.726 658.643 512.167 649.286 354.46 621.723"/>
    <path d="M513.263,659.246l-159.303-28.357v-9.761l158.683,27.732.62,10.386ZM354.96,630.051l157.229,27.988-.497-8.329-156.732-27.393v7.733h0Z"/>
  </g>
  <path d="M733.543,698.016c-.584,0-1.201-.097-1.837-.292-2.211-.683-4.019-2.391-4.396-4.155-.544-2.55.41-4.478,2.618-5.289l.346.939c-2.315.85-2.238,2.959-1.985,4.141.3,1.404,1.86,2.837,3.712,3.408,1.517.469,2.88.266,3.74-.554,1.779-1.7,1.778-3.117-.008-6.592l.889-.457c1.736,3.377,2.183,5.506-.19,7.771-.747.713-1.752,1.079-2.889,1.079h0Z"/>
  <rect x="732.366" y="686.079" width="1" height="5.341"/>
  <polygon class="st0" points="972.336 226.654 922.618 580.2 1020.396 542.083 1017.499 440.249 1034.206 411.713 1044.702 226.654 972.336 226.654"/>
  <path d="M655.064,760.348c-4.221,0-7.655-3.435-7.655-7.656s3.435-7.655,7.655-7.655,7.656,3.435,7.656,7.655-3.435,7.656-7.656,7.656ZM655.064,750.036c-1.464,0-2.655,1.191-2.655,2.655s1.191,2.656,2.655,2.656,2.656-1.191,2.656-2.656-1.191-2.655-2.656-2.655Z"/>
  <path d="M683.008,766.147c-4.044,0-7.334-3.29-7.334-7.333s3.29-7.334,7.334-7.334,7.334,3.29,7.334,7.334-3.29,7.333-7.334,7.333ZM683.008,756.48c-1.287,0-2.334,1.047-2.334,2.334s1.047,2.333,2.334,2.333,2.334-1.047,2.334-2.333-1.047-2.334-2.334-2.334Z"/>
  <g>
    <line class="st6" x1="831.93" y1="754.725" x2="989.184" y2="669.691"/>
    <polygon points="832.168 755.164 831.691 754.285 988.946 669.252 989.423 670.131 832.168 755.164"/>
  </g>
  <g>
    <polyline class="st8" points="740.321 990.092 754.446 970.586 877.872 934.298"/>
    <polygon points="740.727 990.385 739.916 989.799 754.142 970.154 754.306 970.106 877.731 933.818 878.013 934.777 754.751 971.018 740.727 990.385"/>
  </g>
  <g>
    <line class="st6" x1="520.045" y1="941.341" x2="520.045" y2="976.144"/>
    <rect x="519.545" y="941.342" width="1" height="34.802"/>
  </g>
  <path class="st2" d="M400.626,488.51c-10.534-1.646-18.722-10.351-20.128-21.335-5.01-39.123-7.859-87.964-3.36-143.678,4.576-56.681,15.51-105.033,26.94-143.051,2.85-9.48,11.477-15.771,21.013-15.269l355.541,18.71c12.99.684,22.797,12.517,21.533,25.983l-29.442,313.853c-1.152,12.281-11.963,21.05-23.694,19.217l-348.403-54.431Z"/>
  <g>
    <path class="st7" d="M382.488,371.274c-.285-.736-.376-1.601-.276-2.591l7.642-75.359c.092-.907.354-1.714.784-2.42.43-.707.896-1.034,1.398-.983l3.321.337c.502.051.891.465,1.171,1.244.28.778.374,1.622.282,2.529l-2.071,20.418c-.092.908.013,1.751.313,2.532.301.78.68,1.194,1.14,1.241l3.322.337c.501.051.894.446,1.178,1.182.283.737.38,1.56.288,2.467l-.677,6.682c-.092.909.012,1.751.312,2.532.3.781.681,1.195,1.141,1.241l3.385.343c.458.047.904-.284,1.335-.99.431-.706.692-1.511.784-2.42l.677-6.682c.092-.907.361-1.692.81-2.355.447-.662.898-.971,1.359-.925l3.384.343c.46.046.916-.283,1.367-.987.452-.704.724-1.509.815-2.417l2.071-20.418c.092-.907.353-1.715.783-2.421.43-.707.875-1.037,1.334-.99l3.385.343c.459.046.839.46,1.14,1.241.301.78.405,1.625.313,2.532l-7.642,75.359c-.101.99-.375,1.818-.822,2.48-.447.664-.901.971-1.36.925l-3.385-.343c-.46-.047-.832-.438-1.115-1.176-.285-.736-.375-1.601-.275-2.591l3.451-34.029c.101-.99-.002-1.854-.307-2.594-.305-.738-.688-1.132-1.147-1.179l-3.384-.343c-.461-.046-.913.263-1.359.925-.448.664-.721,1.489-.822,2.479l-2.058,20.294c-.1.989-.364,1.818-.791,2.482-.426.666-.87.975-1.328.928l-3.385-.343c-.46-.046-.842-.439-1.147-1.179-.305-.738-.406-1.604-.306-2.593l2.058-20.294c.101-.99.007-1.853-.276-2.591-.284-.736-.677-1.131-1.178-1.182l-3.322-.337c-.46-.046-.913.263-1.359.925-.447.664-.721,1.489-.822,2.479l-3.451,34.029c-.101.99-.364,1.819-.791,2.483-.427.666-.889.973-1.391.922l-3.321-.337c-.502-.051-.895-.445-1.178-1.182Z"/>
    <path class="st7" d="M431.248,376.219c-.285-.736-.376-1.601-.276-2.591l7.642-75.359c.092-.907.354-1.714.784-2.42.429-.707.896-1.035,1.398-.984l24.254,2.46c.46.046.84.46,1.141,1.241.301.78.405,1.625.313,2.532l-.678,6.683c-.092.908-.362,1.694-.809,2.355-.447.664-.901.971-1.361.925l-17.298-1.754c-.461-.046-.915.283-1.366.987s-.724,1.511-.815,2.417l-.678,6.683c-.092.908.013,1.751.313,2.532.301.78.679,1.194,1.14,1.241l10.342,1.049c.458.046.831.439,1.115,1.176.283.737.379,1.56.287,2.466l-.677,6.683c-.092.909-.354,1.714-.783,2.42-.431.707-.877,1.037-1.335.99l-10.342-1.049c-.461-.046-.913.263-1.359.925-.447.664-.721,1.489-.822,2.479l-2.058,20.294c-.1.989.002,1.855.307,2.593.305.74.686,1.133,1.146,1.179l17.298,1.754c.46.046.842.44,1.147,1.179.305.74.407,1.604.307,2.594l-.665,6.559c-.101.99-.375,1.817-.822,2.479-.447.664-.901.971-1.361.925l-24.254-2.46c-.502-.051-.896-.444-1.178-1.182Z"/>
    <path class="st7" d="M473.051,380.458c-.285-.736-.376-1.601-.276-2.591l7.642-75.359c.092-.907.354-1.714.784-2.42.429-.707.896-1.035,1.397-.983l24.255,2.459c.459.046.839.46,1.14,1.241.301.78.405,1.625.313,2.532l-.678,6.683c-.092.908.003,1.731.288,2.466.283.738.655,1.129,1.116,1.176l3.384.343c.46.046.839.461,1.14,1.241.302.78.406,1.625.314,2.532l-4.856,47.889c-.1.989-.375,1.817-.823,2.479-.447.664-.899.972-1.359.925l-3.384-.343c-.461-.047-.904.264-1.329.928-.427.666-.689,1.493-.79,2.482l-.665,6.559c-.101.99-.375,1.817-.822,2.479-.447.664-.901.971-1.36.925l-24.255-2.459c-.501-.051-.895-.445-1.177-1.182ZM499.876,370.365c.459.046.913-.261,1.359-.925.447-.662.722-1.49.822-2.479l4.856-47.889c.092-.906-.013-1.751-.313-2.532s-.681-1.195-1.14-1.241l-17.299-1.754c-.46-.046-.915.283-1.366.987s-.724,1.511-.815,2.417l-4.856,47.889c-.1.989.002,1.855.307,2.593.305.74.687,1.133,1.146,1.179l17.299,1.754Z"/>
    <path class="st7" d="M528.798,386.112c-.305-.738-.408-1.604-.307-2.594l6.249-61.624c.092-.907-.002-1.75-.281-2.529-.28-.778-.67-1.194-1.172-1.245l-10.278-1.042c-.501-.051-.895-.444-1.178-1.182-.285-.735-.38-1.558-.288-2.467l.678-6.682c.092-.907.353-1.714.783-2.42.43-.707.897-1.035,1.398-.983l31.213,3.165c.459.046.839.46,1.14,1.241.301.78.405,1.625.313,2.532l-.678,6.682c-.092.909-.362,1.694-.81,2.355-.446.664-.9.971-1.359.925l-10.342-1.049c-.46-.047-.915.283-1.366.987-.452.704-.723,1.511-.814,2.417l-6.25,61.624c-.101.99-.365,1.818-.791,2.483-.426.666-.89.972-1.391.921l-3.322-.337c-.46-.047-.841-.439-1.146-1.179Z"/>
    <path class="st7" d="M556.658,388.937c-.284-.736-.378-1.601-.277-2.591l7.643-75.359c.092-.907.354-1.714.784-2.42.429-.707.895-1.035,1.395-.984l24.2,2.454c.457.046.837.46,1.137,1.241.3.78.403,1.625.312,2.532l-.614,6.688c-.092.909,0,1.731.282,2.466.281.738.648,1.128,1.105,1.175l3.354.34c.455.046.832.46,1.13,1.236.297.776.4,1.617.309,2.52l-2.061,20.324c-.092.905-.363,1.708-.813,2.409-.451.7-.908,1.027-1.367.98l-3.385-.343c-.459-.046-.902.266-1.328.934-.427.667-.691,1.499-.792,2.493l-2.067,20.387c-.101.993-.009,1.862.275,2.602.283.74.654,1.133,1.114,1.18l3.385.343c.459.046.842.44,1.147,1.179.305.74.406,1.604.306,2.594l-.665,6.558c-.1.99-.373,1.818-.82,2.48-.447.664-.901.971-1.36.925l-3.385-.343c-.46-.046-.832-.438-1.115-1.176-.284-.736-.376-1.601-.276-2.591l.729-6.551c.101-.99-.002-1.854-.307-2.594-.306-.738-.688-1.132-1.146-1.179l-3.385-.343c-.46-.046-.841-.443-1.146-1.188s-.406-1.617-.305-2.617l.671-6.616c.102-.998.01-1.871-.272-2.614-.285-.744-.656-1.138-1.115-1.185l-10.342-1.049c-.46-.046-.913.265-1.36.93s-.722,1.496-.822,2.489l-2.067,20.387c-.101.994-.365,1.826-.791,2.494-.427.667-.89.977-1.392.926l-3.321-.337c-.501-.051-.896-.445-1.178-1.182ZM586.226,351.243c.455.046.91-.28,1.36-.98.449-.701.721-1.504.812-2.409l2.061-20.324c.092-.903-.013-1.744-.312-2.52-.3-.776-.68-1.191-1.136-1.237l-17.248-1.749c-.458-.046-.911.284-1.361.984s-.721,1.503-.812,2.406l-2.061,20.324c-.092.905.012,1.746.312,2.523.3.776.678,1.188,1.137,1.234l17.248,1.749Z"/>
    <path class="st7" d="M612.405,394.59c-.305-.738-.408-1.604-.308-2.594l.665-6.558c.101-.99.009-1.853-.274-2.591-.286-.736-.677-1.131-1.179-1.182l-3.321-.336c-.502-.051-.896-.445-1.178-1.183-.285-.736-.377-1.601-.276-2.59l4.856-47.889c.092-.907.353-1.714.785-2.42.429-.707.895-1.035,1.396-.984l3.321.337c.502.051.965-.255,1.392-.921.426-.663.686-1.45.777-2.358l.678-6.682c.092-.907.364-1.713.815-2.417.451-.705.906-1.033,1.366-.987l17.298,1.754c.46.046.84.46,1.141,1.241.301.78.405,1.625.313,2.532l-.678,6.682c-.092.909.003,1.731.287,2.467.284.738.655,1.129,1.116,1.176l3.384.343c.459.046.84.461,1.141,1.241.3.78.405,1.625.313,2.532l-4.856,47.889c-.101.989-.375,1.817-.822,2.479-.447.664-.9.972-1.359.925l-3.384-.343c-.461-.047-.904.264-1.329.928-.427.666-.689,1.493-.79,2.483l-.665,6.558c-.101.99-.374,1.818-.821,2.48-.447.664-.9.971-1.36.925l-17.298-1.754c-.46-.046-.842-.439-1.146-1.179ZM632.242,383.788c.46.046.913-.261,1.36-.925.447-.662.722-1.489.822-2.479l4.856-47.889c.092-.907-.014-1.752-.313-2.532-.301-.78-.682-1.195-1.142-1.241l-17.298-1.754c-.46-.046-.914.283-1.365.987-.452.704-.724,1.511-.815,2.417l-4.856,47.889c-.101.989.002,1.855.307,2.593.305.74.687,1.133,1.146,1.179l17.298,1.754Z"/>
    <path class="st7" d="M654.177,398.827c-.284-.736-.377-1.601-.276-2.591l7.643-75.359c.092-.907.354-1.714.784-2.42.43-.707.896-1.035,1.398-.984l3.321.337c.502.051.891.465,1.172,1.244.279.778.373,1.622.281,2.529l-.678,6.682c-.092.909.015,1.732.319,2.47.306.74.687,1.132,1.146,1.179l3.322.337c.501.051.893.464,1.173,1.235.279.772.375,1.609.284,2.506l-.672,6.624c-.091.899.014,1.736.314,2.509.302.775.683,1.184,1.143,1.231l3.385.343c.458.046.83.441,1.114,1.186.283.744.379,1.573.286,2.488l-.684,6.742c-.093.917.01,1.769.311,2.555.3.789.68,1.204,1.14,1.251l3.384.343c.46.046.915-.283,1.366-.987.451-.704.724-1.508.815-2.417l3.464-34.153c.092-.907.353-1.714.783-2.42.43-.707.875-1.037,1.336-.99l3.384.343c.459.047.839.46,1.14,1.241.301.78.405,1.625.313,2.532l-7.643,75.359c-.1.99-.374,1.818-.821,2.48-.447.664-.9.971-1.359.924l-3.384-.343c-.461-.047-.833-.438-1.116-1.176-.284-.736-.376-1.601-.275-2.591l2.059-20.293c.101-.99-.003-1.854-.308-2.594-.305-.737-.688-1.132-1.147-1.179l-3.384-.343c-.46-.047-.839-.46-1.14-1.24-.302-.781-.405-1.624-.313-2.533l.665-6.558c.101-.99.009-1.853-.276-2.59-.284-.736-.656-1.129-1.114-1.176l-3.385-.343c-.46-.047-.841-.462-1.141-1.251-.3-.786-.402-1.638-.31-2.555l.684-6.742c.093-.915-.004-1.744-.286-2.488-.283-.744-.676-1.141-1.177-1.192l-3.322-.337c-.46-.046-.913.263-1.36.927-.447.666-.717,1.453-.81,2.362l-4.867,47.997c-.101.994-.364,1.822-.79,2.488-.428.667-.89.974-1.392.923l-3.321-.337c-.502-.051-.896-.444-1.179-1.182Z"/>
    <path class="st7" d="M702.937,403.771c-.284-.736-.377-1.601-.276-2.591l.665-6.558c.101-.99.364-1.816.791-2.483.425-.664.89-.972,1.392-.921l3.321.337c.502.051.964-.256,1.391-.922.427-.664.69-1.493.791-2.482l4.856-47.889c.092-.907-.003-1.751-.282-2.529-.28-.778-.67-1.194-1.172-1.245l-3.321-.337c-.502-.051-.895-.444-1.179-1.182-.284-.735-.38-1.558-.288-2.467l.678-6.682c.092-.907.354-1.714.784-2.42.43-.707.896-1.035,1.398-.984l17.298,1.754c.458.046.828.459,1.108,1.238.28.778.374,1.622.282,2.528l-.678,6.682c-.092.909-.352,1.695-.778,2.359-.426.666-.87.974-1.328.928l-3.385-.343c-.46-.047-.915.283-1.366.987-.452.704-.723,1.511-.814,2.417l-4.856,47.889c-.101.989,0,1.855.306,2.594.305.74.688,1.132,1.147,1.179l3.385.343c.458.046.83.439,1.115,1.176.284.738.376,1.601.275,2.59l-.665,6.558c-.101.99-.363,1.819-.79,2.483-.427.666-.87.974-1.328.928l-17.298-1.754c-.502-.051-.896-.444-1.179-1.182Z"/>
    <path class="st7" d="M744.771,408.014c-.305-.738-.407-1.604-.308-2.594l.665-6.558c.101-.99.009-1.853-.275-2.591-.285-.736-.676-1.131-1.178-1.182l-3.321-.337c-.502-.051-.896-.444-1.179-1.182-.284-.736-.376-1.601-.275-2.59l4.856-47.889c.092-.907.353-1.714.784-2.42.43-.707.896-1.035,1.397-.984l3.321.336c.502.051.965-.255,1.391-.921.427-.663.687-1.45.778-2.358l.678-6.682c.092-.907.364-1.713.815-2.417.451-.705.905-1.033,1.366-.987l24.255,2.46c.459.046.839.46,1.14,1.241.301.78.405,1.625.313,2.532l-2.07,20.418c-.093.908-.364,1.713-.815,2.417-.451.704-.907,1.033-1.366.987l-3.385-.343c-.46-.047-.829-.459-1.108-1.238-.28-.779-.374-1.621-.281-2.529l.678-6.683c.092-.907-.014-1.751-.313-2.532-.301-.78-.682-1.195-1.142-1.241l-17.298-1.754c-.461-.046-.914.283-1.365.987-.452.704-.724,1.511-.815,2.417l-4.856,47.889c-.101.989.002,1.855.307,2.593.305.74.686,1.133,1.146,1.179l17.298,1.754c.46.046.913-.261,1.36-.925.447-.662.722-1.49.822-2.479l.665-6.559c.1-.99.362-1.817.789-2.483.426-.663.868-.975,1.328-.928l3.385.343c.459.046.842.441,1.146,1.179.305.74.408,1.604.308,2.594l-.665,6.559c-.101.989-.375,1.817-.822,2.479-.447.664-.9.972-1.359.925l-3.385-.343c-.46-.047-.903.264-1.328.928-.427.666-.689,1.493-.79,2.482l-.665,6.558c-.1.99-.374,1.818-.821,2.48-.447.664-.9.971-1.36.925l-17.298-1.754c-.461-.046-.842-.439-1.146-1.179Z"/>
  </g>
  <g>
    <path class="st11" d="M379.636,371.275c-.285-.736-.376-1.601-.276-2.591l7.642-75.359c.092-.907.354-1.714.784-2.42.43-.707.896-1.034,1.398-.983l3.321.337c.502.051.891.465,1.171,1.244.28.778.374,1.622.282,2.529l-2.071,20.418c-.092.908.013,1.751.313,2.532.301.78.68,1.194,1.14,1.241l3.322.337c.501.051.894.446,1.178,1.182.283.737.38,1.56.288,2.467l-.677,6.682c-.092.909.012,1.751.312,2.532.3.781.681,1.195,1.141,1.241l3.385.343c.458.047.904-.284,1.335-.99.431-.706.692-1.511.784-2.42l.677-6.682c.092-.907.361-1.692.81-2.355.447-.662.898-.971,1.359-.925l3.384.343c.46.046.916-.283,1.367-.987.452-.704.724-1.509.815-2.417l2.071-20.418c.092-.907.353-1.715.783-2.421.43-.707.875-1.037,1.334-.99l3.385.343c.459.046.839.46,1.14,1.241.301.78.405,1.625.313,2.532l-7.642,75.359c-.101.99-.375,1.818-.822,2.48-.447.664-.901.971-1.36.925l-3.385-.343c-.46-.047-.832-.438-1.115-1.176-.285-.736-.375-1.601-.275-2.591l3.451-34.029c.101-.99-.002-1.854-.307-2.594-.305-.738-.688-1.132-1.147-1.179l-3.384-.343c-.461-.046-.913.263-1.359.925-.448.664-.721,1.489-.822,2.479l-2.058,20.294c-.1.989-.364,1.818-.791,2.482-.426.666-.87.975-1.328.928l-3.385-.343c-.46-.046-.842-.439-1.147-1.179-.305-.738-.406-1.604-.306-2.593l2.058-20.294c.101-.99.007-1.853-.276-2.591-.284-.736-.677-1.131-1.178-1.182l-3.322-.337c-.46-.046-.913.263-1.359.925-.447.664-.721,1.489-.822,2.479l-3.451,34.029c-.101.99-.364,1.819-.791,2.483-.427.666-.889.973-1.391.922l-3.321-.337c-.502-.051-.895-.445-1.178-1.182Z"/>
    <path class="st11" d="M428.396,376.22c-.285-.736-.376-1.601-.276-2.591l7.642-75.359c.092-.907.354-1.714.784-2.42.429-.707.896-1.035,1.398-.984l24.254,2.46c.46.046.84.46,1.141,1.241.301.78.405,1.625.313,2.532l-.678,6.683c-.092.908-.362,1.694-.809,2.355-.447.664-.901.971-1.361.925l-17.298-1.754c-.461-.046-.915.283-1.366.987s-.724,1.511-.815,2.417l-.678,6.683c-.092.908.013,1.751.313,2.532.301.78.679,1.194,1.14,1.241l10.342,1.049c.458.046.831.439,1.115,1.176.283.737.379,1.56.287,2.466l-.677,6.683c-.092.909-.354,1.714-.783,2.42-.431.707-.877,1.037-1.335.99l-10.342-1.049c-.461-.046-.913.263-1.359.925-.447.664-.721,1.489-.822,2.479l-2.058,20.294c-.1.989.002,1.855.307,2.593.305.74.686,1.133,1.146,1.179l17.298,1.754c.46.046.842.44,1.147,1.179.305.74.407,1.604.307,2.594l-.665,6.559c-.101.99-.375,1.817-.822,2.479-.447.664-.901.971-1.361.925l-24.254-2.46c-.502-.051-.896-.444-1.178-1.182Z"/>
    <path class="st11" d="M470.2,380.459c-.285-.736-.376-1.601-.276-2.591l7.642-75.359c.092-.907.354-1.714.784-2.42.429-.707.896-1.035,1.397-.983l24.255,2.459c.459.046.839.46,1.14,1.241.301.78.405,1.625.313,2.532l-.678,6.683c-.092.908.003,1.731.288,2.466.283.738.655,1.129,1.116,1.176l3.384.343c.46.046.839.461,1.14,1.241.302.78.406,1.625.314,2.532l-4.856,47.889c-.1.989-.375,1.817-.823,2.479-.447.664-.899.972-1.359.925l-3.384-.343c-.461-.047-.904.264-1.329.928-.427.666-.689,1.493-.79,2.482l-.665,6.559c-.101.99-.375,1.817-.822,2.479-.447.664-.901.971-1.36.925l-24.255-2.459c-.501-.051-.895-.445-1.177-1.182ZM497.025,370.365c.459.046.913-.261,1.359-.925.447-.662.722-1.49.822-2.479l4.856-47.889c.092-.906-.013-1.751-.313-2.532s-.681-1.195-1.14-1.241l-17.299-1.754c-.46-.046-.915.283-1.366.987s-.724,1.511-.815,2.417l-4.856,47.889c-.1.989.002,1.855.307,2.593.305.74.687,1.133,1.146,1.179l17.299,1.754Z"/>
    <path class="st11" d="M525.947,386.112c-.305-.738-.408-1.604-.307-2.594l6.249-61.624c.092-.907-.002-1.75-.281-2.529-.28-.778-.67-1.194-1.172-1.245l-10.278-1.042c-.501-.051-.895-.444-1.178-1.182-.285-.735-.38-1.558-.288-2.467l.678-6.682c.092-.907.353-1.714.783-2.42.43-.707.897-1.035,1.398-.983l31.212,3.165c.459.046.839.46,1.14,1.241.301.78.405,1.625.313,2.532l-.678,6.682c-.092.909-.362,1.694-.81,2.355-.446.664-.9.971-1.359.925l-10.342-1.049c-.459-.047-.915.283-1.366.987-.452.704-.723,1.511-.814,2.417l-6.25,61.624c-.101.99-.365,1.818-.791,2.483-.426.666-.89.972-1.391.921l-3.322-.337c-.46-.047-.841-.439-1.146-1.179Z"/>
    <path class="st11" d="M553.806,388.938c-.284-.736-.378-1.601-.277-2.591l7.643-75.359c.092-.907.354-1.714.784-2.42.429-.707.895-1.035,1.395-.984l24.2,2.454c.457.046.837.46,1.137,1.241.3.78.403,1.625.312,2.532l-.614,6.688c-.092.909,0,1.731.282,2.466.281.738.648,1.128,1.105,1.175l3.354.34c.455.046.832.46,1.13,1.236.297.776.4,1.617.309,2.52l-2.061,20.324c-.092.905-.363,1.708-.813,2.409-.451.7-.908,1.027-1.367.98l-3.385-.343c-.459-.046-.902.266-1.328.934-.427.667-.691,1.499-.792,2.493l-2.067,20.387c-.101.993-.009,1.862.275,2.602.283.74.654,1.133,1.114,1.18l3.385.343c.459.046.842.44,1.147,1.179.305.74.406,1.604.306,2.594l-.665,6.558c-.1.99-.373,1.818-.82,2.48-.447.664-.901.971-1.36.925l-3.385-.343c-.46-.046-.832-.438-1.115-1.176-.284-.736-.376-1.601-.276-2.591l.729-6.551c.101-.99-.002-1.854-.307-2.594-.306-.738-.688-1.132-1.146-1.179l-3.385-.343c-.46-.046-.841-.443-1.146-1.188s-.406-1.617-.305-2.617l.671-6.616c.102-.998.01-1.871-.272-2.614-.285-.744-.656-1.138-1.115-1.185l-10.342-1.049c-.46-.046-.913.265-1.36.93s-.722,1.496-.822,2.489l-2.067,20.387c-.101.994-.365,1.826-.791,2.494-.427.667-.89.977-1.392.926l-3.321-.337c-.501-.051-.896-.445-1.178-1.182ZM583.373,351.243c.455.046.91-.28,1.36-.98.449-.701.721-1.504.812-2.409l2.061-20.324c.092-.903-.013-1.744-.312-2.52-.3-.776-.68-1.191-1.136-1.237l-17.248-1.749c-.458-.046-.911.284-1.361.984s-.721,1.503-.812,2.406l-2.061,20.324c-.092.905.012,1.746.312,2.523.3.776.678,1.188,1.137,1.234l17.248,1.749Z"/>
    <path class="st11" d="M609.553,394.591c-.305-.738-.408-1.604-.308-2.594l.665-6.558c.101-.99.009-1.853-.274-2.591-.286-.736-.677-1.131-1.179-1.182l-3.321-.336c-.502-.051-.896-.445-1.178-1.183-.285-.736-.377-1.601-.276-2.59l4.856-47.889c.092-.907.353-1.714.785-2.42.429-.707.895-1.035,1.396-.984l3.321.337c.502.051.965-.255,1.392-.921.426-.663.686-1.45.777-2.358l.678-6.682c.092-.907.364-1.713.815-2.417.451-.705.906-1.033,1.366-.987l17.298,1.754c.46.046.84.46,1.141,1.241.301.78.405,1.625.313,2.532l-.678,6.682c-.092.909.003,1.731.287,2.467.284.738.655,1.129,1.116,1.176l3.384.343c.459.046.84.461,1.141,1.241.3.78.405,1.625.313,2.532l-4.856,47.889c-.101.989-.375,1.817-.822,2.479-.447.664-.9.972-1.359.925l-3.384-.343c-.461-.047-.904.264-1.329.928-.427.666-.689,1.493-.79,2.483l-.665,6.558c-.101.99-.374,1.818-.821,2.48-.447.664-.9.971-1.36.925l-17.298-1.754c-.46-.046-.842-.439-1.146-1.179ZM629.39,383.789c.46.046.913-.261,1.36-.925.447-.662.722-1.489.822-2.479l4.856-47.889c.092-.907-.014-1.752-.313-2.532-.301-.78-.682-1.195-1.142-1.241l-17.298-1.754c-.46-.046-.914.283-1.365.987-.452.704-.724,1.511-.815,2.417l-4.856,47.889c-.101.989.002,1.855.307,2.593.305.74.687,1.133,1.146,1.179l17.298,1.754Z"/>
    <path class="st11" d="M651.324,398.827c-.284-.736-.377-1.601-.276-2.591l7.643-75.359c.092-.907.354-1.714.784-2.42.43-.707.896-1.035,1.398-.984l3.321.337c.502.051.891.465,1.172,1.244.279.778.373,1.622.281,2.529l-.678,6.682c-.092.909.015,1.732.319,2.47.306.74.687,1.132,1.146,1.179l3.322.337c.501.051.893.464,1.173,1.235.279.772.375,1.609.284,2.506l-.672,6.624c-.091.899.014,1.736.314,2.509.302.775.683,1.184,1.143,1.231l3.385.343c.458.046.83.441,1.114,1.186.283.744.379,1.573.286,2.488l-.684,6.742c-.093.917.01,1.769.311,2.555.3.789.68,1.204,1.14,1.251l3.384.343c.46.046.915-.283,1.366-.987.451-.704.724-1.508.815-2.417l3.464-34.153c.092-.907.353-1.714.783-2.42.43-.707.875-1.037,1.336-.99l3.384.343c.459.047.839.46,1.14,1.241.301.78.405,1.625.313,2.532l-7.643,75.359c-.1.99-.374,1.818-.821,2.48-.447.664-.9.971-1.359.924l-3.384-.343c-.461-.047-.833-.438-1.116-1.176-.284-.736-.376-1.601-.275-2.591l2.059-20.293c.101-.99-.003-1.854-.308-2.594-.305-.737-.688-1.132-1.147-1.179l-3.384-.343c-.46-.047-.839-.46-1.14-1.24-.302-.781-.405-1.624-.313-2.533l.665-6.558c.101-.99.009-1.853-.276-2.59-.284-.736-.656-1.129-1.114-1.176l-3.385-.343c-.46-.047-.841-.462-1.141-1.251-.3-.786-.402-1.638-.31-2.555l.684-6.742c.093-.915-.004-1.744-.286-2.488-.283-.744-.676-1.141-1.177-1.192l-3.322-.337c-.46-.046-.913.263-1.36.927-.447.666-.717,1.453-.81,2.362l-4.867,47.997c-.101.994-.364,1.822-.79,2.488-.428.667-.89.974-1.392.923l-3.321-.337c-.502-.051-.896-.444-1.179-1.182Z"/>
    <path class="st11" d="M700.084,403.771c-.284-.736-.377-1.601-.276-2.591l.665-6.558c.101-.99.364-1.816.791-2.483.425-.664.89-.972,1.392-.921l3.321.337c.502.051.964-.256,1.391-.922.427-.664.69-1.493.791-2.482l4.856-47.889c.092-.907-.003-1.751-.282-2.529-.28-.778-.67-1.194-1.172-1.245l-3.321-.337c-.502-.051-.895-.444-1.179-1.182-.284-.735-.38-1.558-.288-2.467l.678-6.682c.092-.907.354-1.714.784-2.42.43-.707.896-1.035,1.398-.984l17.298,1.754c.458.046.828.459,1.108,1.238.28.778.374,1.622.282,2.528l-.678,6.682c-.092.909-.352,1.695-.778,2.359-.426.666-.87.974-1.328.928l-3.385-.343c-.46-.047-.915.283-1.366.987-.452.704-.723,1.511-.814,2.417l-4.856,47.889c-.101.989,0,1.855.306,2.594.305.74.688,1.132,1.147,1.179l3.385.343c.458.046.83.439,1.115,1.176.284.738.376,1.601.275,2.59l-.665,6.558c-.101.99-.363,1.819-.79,2.483-.427.666-.87.974-1.328.928l-17.298-1.754c-.502-.051-.896-.444-1.179-1.182Z"/>
    <path class="st11" d="M741.919,408.014c-.305-.738-.407-1.604-.308-2.594l.665-6.558c.101-.99.009-1.853-.275-2.591-.285-.736-.676-1.131-1.178-1.182l-3.321-.337c-.502-.051-.896-.444-1.179-1.182-.284-.736-.376-1.601-.275-2.59l4.856-47.889c.092-.907.353-1.714.784-2.42.43-.707.896-1.035,1.397-.984l3.321.336c.502.051.965-.255,1.391-.921.427-.663.687-1.45.778-2.358l.678-6.682c.092-.907.364-1.713.815-2.417.451-.705.905-1.033,1.366-.987l24.255,2.46c.459.046.839.46,1.14,1.241.301.78.405,1.625.313,2.532l-2.07,20.418c-.093.908-.364,1.713-.815,2.417-.451.704-.907,1.033-1.366.987l-3.385-.343c-.46-.047-.829-.459-1.108-1.238-.28-.779-.374-1.621-.281-2.529l.678-6.683c.092-.907-.014-1.751-.313-2.532-.301-.78-.682-1.195-1.142-1.241l-17.298-1.754c-.461-.046-.914.283-1.365.987-.452.704-.724,1.511-.815,2.417l-4.856,47.889c-.101.989.002,1.855.307,2.593.305.74.686,1.133,1.146,1.179l17.298,1.754c.46.046.913-.261,1.36-.925.447-.662.722-1.49.822-2.479l.665-6.559c.1-.99.362-1.817.789-2.483.426-.663.868-.975,1.328-.928l3.385.343c.459.046.842.441,1.146,1.179.305.74.408,1.604.308,2.594l-.665,6.559c-.101.989-.375,1.817-.822,2.479-.447.664-.9.972-1.359.925l-3.385-.343c-.46-.047-.903.264-1.328.928-.427.666-.689,1.493-.79,2.482l-.665,6.558c-.1.99-.374,1.818-.821,2.48-.447.664-.9.971-1.36.925l-17.298-1.754c-.461-.046-.842-.439-1.146-1.179Z"/>
  </g>
</svg>