<?xml version="1.0" encoding="UTF-8"?>
<svg id="Layer_1" xmlns="http://www.w3.org/2000/svg" version="1.1" xmlns:xlink="http://www.w3.org/1999/xlink" viewBox="0 0 1080 1080">
  <!-- Generator: Adobe Illustrator 29.3.0, SVG Export Plug-In . SVG Version: 2.1.0 Build 146)  -->
  <defs>
    <style>
      .st0 {
        fill: #6f6f6f;
      }

      .st1 {
        fill: #7067b9;
      }

      .st2 {
        fill: #d8d6d6;
      }

      .st3 {
        fill: #4e4e4e;
      }

      .st4 {
        fill: #a4a4a4;
      }

      .st5 {
        fill: #fff;
      }

      .st6 {
        fill: #ff9ff6;
      }

      .st7 {
        fill: #694760;
      }

      .st8 {
        fill: #262626;
      }

      .st9 {
        fill: none;
      }

      .st10 {
        fill: #a0a0a0;
      }

      .st11 {
        fill: #38e5ff;
      }

      .st12 {
        fill: #282828;
      }

      .st13 {
        fill: #212121;
      }

      .st14 {
        fill: #ffe3f6;
      }

      .st15 {
        fill: #373634;
      }

      .st16 {
        fill: #869958;
      }

      .st17 {
        fill: #ff47dd;
      }

      .st18 {
        fill: #828181;
      }
    </style>
  </defs>
  <g id="Layer_3">
    <g>
      <path class="st4" d="M348.862,729.233c1.014,13.731,5.362,46.803,29.92,77.95,35.95,45.596,87.865,52.386,98.422,53.541l1.07-139.924-129.412,8.432h0Z"/>
      <path class="st3" d="M478.691,862.396l-1.65-.181c-18.686-2.047-65.779-11.415-99.437-54.104-22.272-28.246-28.737-58.426-30.239-78.769l-.111-1.509,132.532-8.635-1.095,143.197h0ZM350.477,730.631c1.677,19.89,8.226,48.663,29.483,75.623,32.006,40.594,76.451,50.419,95.757,52.788l1.045-136.64-126.285,8.229Z"/>
    </g>
    <g>
      <path class="st4" d="M717.354,530.814c6.55,7.794,15.083,18.875,23.621,33.07,24.343,40.47,31.197,77.107,33.07,88.58,1.507,9.231,14.818,90.767-12.992,102.753-13.044,5.622-34.198-4.46-44.88-11.811-6.5-4.472-11.122-9.309-14.173-12.992l15.354-199.6h0Z"/>
      <path class="st3" d="M752.334,758.333c-13.248,0-29.127-8.266-37.012-13.692-5.376-3.698-10.247-8.163-14.478-13.27l-.387-.467.047-.605,15.635-203.26,2.362,2.811c8.755,10.417,16.748,21.607,23.758,33.261,22.354,37.163,30.437,71.783,33.266,89.112,3.521,21.563,12.923,92.819-13.879,104.372-2.826,1.218-5.986,1.738-9.312,1.738h0ZM703.542,729.921c3.964,4.7,8.496,8.819,13.481,12.249,9.392,6.462,30.556,17.225,43.436,11.669,19.711-8.495,19.178-57.812,12.105-101.133-2.794-17.117-10.781-51.316-32.875-88.049-6.294-10.464-13.391-20.55-21.125-30.029l-15.022,195.292h0Z"/>
    </g>
    <g>
      <path class="st4" d="M689.008,763.09c1.998,10.649,3.712,39.206,3.937,59.84.379,34.79-4.293,51.612-4.293,51.612,0,0,5.177,48.853,12.166,84.604,7.441,38.057,19.442,89.663,6.641,96.864-17.833,10.031-71.73,12.676-104.412,7.201-14.328-2.4-11.733-12.13-16.512-51.311-3.071-25.176-8.191-100.652-8.191-100.652,0,0-9.578,77.82-12.601,97.657-6.174,40.511-8.93,53.755-19.908,58.507-27.729,12.001-101.148,3.764-115.407-12.301-14.942-16.835-2.314-75.385,10.951-116.042,16.49-50.544,25.171-85.363,25.171-85.363,0,0-9.424-33.531-1.55-77.23,1.279-7.1,6.113-28.463,8.267-31.278l215.741,17.893h0Z"/>
      <path class="st3" d="M507.287,1074.572c-31.485,0-68.072-7.303-77.98-18.466-14.945-16.839-3.605-73.822,10.646-117.503,15.385-47.156,24.062-80.997,25.048-84.888-1.018-3.934-8.865-36.503-1.477-77.506.829-4.604,5.886-28.439,8.552-31.924l.498-.651.817.067,216.88,17.987.211,1.124c2.101,11.199,3.745,40.118,3.963,60.101.354,32.595-3.645,49.33-4.271,51.746.432,4.004,5.49,50.304,12.116,84.198.772,3.95,1.595,8.047,2.433,12.225,7.813,38.961,15.894,79.248,3.472,86.235-18.465,10.386-73.387,12.735-105.395,7.372-12.571-2.105-13.326-9.727-15.566-32.352-.574-5.8-1.225-12.373-2.187-20.257-2.188-17.931-5.443-61.792-7.118-85.284-2.957,23.755-8.538,68.132-10.703,82.333-6.142,40.299-8.873,54.497-20.795,59.658-9.229,3.994-23.562,5.783-39.144,5.783v.002ZM474.082,746.77c-1.955,4.133-6.141,21.843-7.605,29.972-7.715,42.821,1.425,76.227,1.518,76.56l.107.382-.096.387c-.087.349-8.882,35.448-25.201,85.464-15.112,46.318-24.453,99.711-11.255,114.581,13.92,15.686,87.235,23.374,113.689,11.921,9.924-4.295,12.627-15.407,19.021-57.355,2.985-19.588,12.499-96.836,12.595-97.614l2.985.082c.052.755,5.153,75.724,8.185,100.571.965,7.917,1.618,14.509,2.193,20.324,2.33,23.531,3.085,28.016,13.077,29.688,31.54,5.282,85.458,3.079,103.428-7.028,10.522-5.919,1.947-48.675-4.942-83.03-.839-4.183-1.662-8.283-2.435-12.238-6.922-35.405-12.134-84.244-12.186-84.733l-.03-.283.076-.275c.046-.167,4.609-17.081,4.238-51.195-.205-18.812-1.764-46.801-3.713-58.458l-213.651-17.72.002-.003Z"/>
    </g>
    <path class="st3" d="M579.645,907.634c-13.891,0-71.999-30.999-79.373-42.537l2.528-1.615c6.707,10.494,65.907,41.986,77.225,41.14,12.126-.943,57.463-23.123,67.364-31.844l1.982,2.252c-10.499,9.247-56.359,31.59-69.114,32.582-.192.016-.399.022-.613.022h0Z"/>
    <g>
      <path class="st0" d="M467.632,778.179c8.023,5.261,19.791,9.131,33.904,17.402,36.316,21.284,77.486,47.821,77.486,47.821,0,0,31.49-25.777,74.073-42.421,21.671-8.47,35.841-17.189,35.841-17.189l-1.679-23.316s-25.772,12.63-48.605,23.703c-4.541,2.202-57.908,29.302-57.908,29.302,0,0-55.611-30.667-62.596-34.645-9.852-5.61-48.817-25.983-48.817-25.983,0,0-2.306,11.13-1.698,25.325h0Z"/>
      <path class="st18" d="M579.057,844.02l-.306-.197c-.412-.265-41.577-26.774-77.468-47.81-7.227-4.235-13.829-7.31-19.654-10.022-5.547-2.583-10.338-4.813-14.271-7.394l-.214-.141-.011-.256c-.604-14.095,1.685-25.335,1.708-25.447l.135-.648.586.307c.39.204,39.086,20.441,48.833,25.992,6.673,3.799,58.427,32.345,62.359,34.514,3.875-1.968,53.341-27.083,57.68-29.188,22.571-10.945,48.346-23.574,48.604-23.701l.665-.326,1.754,24.357-.259.159c-.142.088-14.456,8.84-35.921,17.229-42.016,16.422-73.624,42.085-73.938,42.342l-.281.23h-.001ZM468.121,777.9c3.834,2.482,8.52,4.664,13.93,7.184,5.845,2.722,12.47,5.807,19.738,10.065,34.281,20.092,73.367,45.173,77.2,47.638,3.253-2.601,33.878-26.619,73.924-42.271,19.798-7.737,33.479-15.778,35.502-16.992l-1.604-22.271c-4.194,2.055-27.395,13.413-47.942,23.377-4.484,2.175-57.365,29.027-57.898,29.299l-.236.119-.231-.128c-.557-.307-55.695-30.715-62.603-34.647-9.064-5.162-43.25-23.069-48.204-25.662-.466,2.564-2.057,12.37-1.575,24.29h0Z"/>
    </g>
  </g>
  <g id="Layer_2">
    <g>
      <polygon class="st14" points="697.6 768.273 748.951 10.474 722.78 12.177 719.914 15.664 715.279 16.199 713.389 12.848 351.092 19.052 349.06 48.205 351.871 48.909 352.273 54.543 348.259 55.762 302.942 730.951 697.6 768.273"/>
      <path d="M698.063,768.819l-.511-.048-395.142-37.368.032-.485L347.784,55.384l3.962-1.203-.348-4.875-2.866-.718,2.094-30.028,363.052-6.216,1.873,3.322,4.105-.474,2.875-3.499,26.956-1.755-.038.57-51.386,758.312h0ZM303.474,730.499l393.662,37.229L748.413,11.01l-25.384,1.652-2.857,3.476-5.166.596-1.906-3.381-361.541,6.191-1.972,28.277,2.756.691.457,6.394-4.066,1.234-45.261,674.359h0Z"/>
    </g>
    <g>
      <polygon class="st6" points="730.526 765.227 697.6 768.273 748.951 10.474 785.292 34.194 730.526 765.227"/>
      <path d="M697.061,768.825l.04-.586L748.509,9.589l37.304,24.348-.021.295-54.798,731.455-33.933,3.139h0ZM749.392,11.358l-51.253,756.363,31.921-2.953,54.712-730.317-35.38-23.093h0Z"/>
    </g>
    <g>
      <path d="M428.108,660.8c-.116-.046-.199-.126-.248-.241l-.328-.758c-.049-.114-.051-.229-.005-.346.046-.115.126-.198.241-.247l3.948-1.706c.105-.045.181-.127.227-.242.045-.116.044-.232-.005-.346l-.328-.759c-.049-.115-.132-.195-.248-.24-.116-.046-.227-.047-.332-.002l-.772.334c-.105.045-.219.043-.341-.005-.124-.049-.208-.126-.253-.231l-.327-.758c-.05-.114-.132-.194-.248-.241-.116-.046-.231-.044-.346.006l-.758.327c-.105.046-.219.044-.342-.006-.124-.05-.208-.127-.253-.233l-.337-.779c-.045-.106-.127-.182-.244-.23-.116-.045-.231-.044-.346.005l-.759.328c-.114.049-.23.05-.348-.002-.118-.05-.199-.126-.244-.23l-.331-.766c-.045-.104-.045-.217,0-.337.044-.119.124-.204.238-.253l.758-.328c.115-.049.195-.132.241-.249.046-.115.047-.226.002-.33l-.334-.773c-.045-.104-.044-.218.004-.342.049-.122.125-.206.229-.251l3.937-1.701c.104-.045.218-.043.341.005.123.051.208.127.252.23l.334.773c.045.104.042.217-.009.334-.051.119-.128.2-.232.245l-3.937,1.701c-.104.045-.181.129-.23.25-.049.122-.05.236-.005.34l.331.766c.045.104.128.18.251.228.122.049.236.05.341.004l.758-.327c.114-.05.229-.051.346-.005.117.048.198.123.243.229l.337.779c.046.106.131.184.254.233.123.05.237.052.342.007l.772-.334c.105-.045.215-.046.332,0s.199.127.249.241l.327.758c.046.105.129.183.251.231.122.049.234.051.339.006l.766-.331c.104-.045.217-.044.336,0,.12.043.205.122.254.237l.327.759c.05.113.049.23,0,.349-.05.117-.127.199-.231.244l-.767.331c-.104.045-.181.126-.23.243-.05.118-.05.234,0,.349l.328.758c.049.115.051.23.005.347-.046.115-.122.196-.227.241l-3.949,1.706c-.114.049-.229.051-.346.005h-.001Z"/>
      <path d="M437.651,656.679c-.116-.046-.199-.127-.248-.242l-3.764-8.713c-.045-.104-.046-.216-.002-.338.044-.12.123-.206.237-.255l5.537-2.392c.105-.046.22-.044.342.004.123.05.208.127.252.23l.334.773c.045.104.042.216-.009.334-.051.119-.129.2-.233.246l-3.949,1.706c-.104.045-.182.129-.23.252-.049.122-.05.237-.005.342l.334.772c.046.105.129.182.252.23.123.049.236.05.341.005l2.36-1.021c.105-.045.216-.043.332.002.116.047.196.121.242.227l.333.772c.046.104.046.218.002.339s-.118.204-.223.249l-2.36,1.02c-.105.046-.184.127-.234.245-.051.119-.051.235-.001.35l1.013,2.347c.05.113.135.193.256.237.12.043.233.044.338,0l3.949-1.706c.104-.046.218-.047.339-.003s.206.123.255.237l.328.758c.049.115.049.231-.002.35-.051.118-.128.2-.234.245l-5.537,2.392c-.114.05-.229.052-.346.006h0Z"/>
      <path d="M447.193,652.557c-.115-.047-.198-.127-.248-.242l-3.764-8.713c-.045-.104-.046-.217-.002-.338.045-.12.123-.205.238-.255l.758-.327c.114-.05.231-.049.349,0,.118.052.201.13.246.233l3.078,7.126c.049.113.135.193.256.237.12.043.233.044.338-.002l3.949-1.705c.105-.045.218-.047.339-.003s.206.123.255.237l.328.758c.049.115.048.231-.002.35-.051.118-.129.199-.234.245l-5.537,2.392c-.115.049-.23.052-.346.006h-.001Z"/>
      <path d="M455.147,649.12c-.115-.046-.198-.126-.248-.241l-3.764-8.713c-.045-.104-.046-.217-.002-.339.045-.12.124-.205.238-.254l5.537-2.392c.105-.046.22-.044.342.004.123.05.208.127.252.23l.334.773c.045.104.042.216-.009.334-.051.119-.129.2-.233.246l-3.949,1.705c-.104.046-.182.13-.23.253-.049.122-.05.237-.005.342l.334.772c.046.105.129.182.252.23.123.049.236.05.341.004l2.36-1.02c.104-.045.216-.043.332.002.116.047.196.121.242.227l.333.772c.046.104.046.218.002.339s-.119.204-.223.249l-2.36,1.02c-.105.046-.184.127-.234.245-.051.119-.051.235-.001.35l1.013,2.347c.05.113.135.193.256.237.12.043.233.044.338-.002l3.949-1.705c.104-.046.218-.047.339-.003s.206.123.255.237l.328.758c.049.115.049.231-.002.35-.051.118-.129.199-.234.245l-5.537,2.392c-.114.049-.229.051-.346.005h0Z"/>
      <path d="M466.286,644.31c-.121-.044-.206-.123-.255-.238l-.328-.758c-.049-.114-.132-.194-.248-.24-.117-.046-.232-.044-.346.005l-.758.328c-.114.049-.229.049-.346.004-.116-.046-.199-.127-.248-.24l-2.392-5.537c-.046-.104-.046-.219-.002-.339.044-.12.123-.206.237-.255l.758-.328c.114-.049.194-.131.241-.248.046-.116.046-.227.001-.331l-.334-.773c-.045-.104-.043-.218.005-.342.049-.122.125-.206.23-.252l5.536-2.392c.105-.045.22-.043.342.005.123.05.208.127.253.23l1.02,2.361c.046.105.044.219-.005.342s-.126.206-.231.251l-.772.334c-.105.045-.216.043-.334-.008s-.2-.128-.245-.233l-.334-.772c-.045-.104-.129-.183-.252-.23-.123-.049-.237-.051-.342-.005l-3.949,1.705c-.104.046-.182.13-.23.253-.049.122-.05.237-.005.342l2.392,5.537c.049.113.135.193.256.237.12.043.233.044.338-.002l3.949-1.705c.105-.046.183-.129.234-.246.051-.118.051-.235.002-.349l-.328-.759c-.049-.115-.051-.23-.005-.346s.121-.197.227-.242l.772-.334c.105-.045.219-.045.339,0,.121.043.206.122.256.237l.327.759c.05.113.049.23-.002.349-.051.117-.129.2-.233.245l-.772.334c-.105.045-.181.125-.227.241s-.044.231.005.346l.328.758c.049.115.049.231-.002.35-.051.118-.128.199-.233.245l-3.948,1.705c-.105.046-.218.047-.339.003l-.003-.002Z"/>
      <path d="M477.417,639.502c-.121-.044-.206-.124-.255-.239l-3.077-7.124c-.046-.104-.127-.184-.246-.233-.118-.051-.234-.052-.349-.002l-2.346,1.014c-.115.05-.23.052-.347.005-.116-.047-.196-.122-.241-.227l-.334-.773c-.045-.104-.046-.217-.002-.338.044-.12.124-.205.238-.255l7.125-3.077c.104-.046.219-.044.342.004.123.05.207.127.252.23l.334.773c.045.104.043.216-.008.334-.051.119-.129.2-.234.246l-2.36,1.02c-.104.045-.182.129-.23.252-.049.122-.051.237-.005.342l3.078,7.124c.049.115.052.23.005.347-.046.116-.126.198-.24.248l-.759.327c-.104.045-.218.047-.338.003h-.003Z"/>
    </g>
    <g>
      <path d="M502.97,663.135c-.116-.047-.199-.127-.248-.242l-.328-.758c-.049-.114-.051-.229-.005-.346.046-.115.126-.198.241-.247l3.949-1.706c.104-.045.181-.127.227-.242.045-.116.043-.232-.005-.346l-.328-.759c-.049-.114-.132-.195-.248-.24-.116-.046-.227-.047-.332-.002l-.772.334c-.105.045-.219.044-.341-.005-.123-.049-.207-.126-.253-.231l-.327-.758c-.05-.114-.132-.194-.248-.241-.117-.046-.231-.044-.346.006l-.759.327c-.104.046-.219.044-.342-.006-.124-.05-.208-.127-.254-.233l-.337-.779c-.045-.106-.126-.182-.243-.229-.116-.047-.231-.046-.346.003l-.759.328c-.114.049-.23.05-.349,0-.117-.051-.199-.127-.244-.231l-.331-.766c-.045-.104-.046-.216,0-.337.044-.119.124-.204.238-.253l.758-.328c.114-.049.194-.132.24-.248.047-.116.047-.227.002-.331l-.334-.773c-.045-.104-.044-.218.005-.342.049-.122.125-.206.229-.251l3.937-1.7c.104-.046.218-.044.34.004.123.051.208.127.252.23l.334.773c.045.105.042.217-.008.334-.051.119-.128.2-.232.246l-3.937,1.7c-.104.045-.181.129-.23.25-.049.123-.051.236-.006.34l.331.766c.045.104.128.18.251.228.122.049.236.05.341.004l.759-.327c.114-.05.229-.051.346-.004s.198.122.243.229l.337.779c.046.106.13.184.254.233.124.051.237.052.342.007l.772-.334c.105-.045.215-.045.332,0,.116.047.198.127.248.241l.327.758c.046.105.13.183.252.231.121.049.234.051.339.006l.766-.331c.104-.044.216-.044.336,0,.12.043.205.124.254.237l.328.76c.049.113.049.229,0,.348-.05.117-.127.199-.23.244l-.767.331c-.104.045-.181.126-.23.243-.05.118-.051.234,0,.349l.327.758c.05.115.051.23.005.347-.046.116-.122.197-.227.242l-3.949,1.706c-.114.049-.229.05-.346.005h-.001Z"/>
      <path d="M514.107,658.323c-.121-.044-.206-.123-.255-.238l-3.078-7.124c-.045-.104-.127-.184-.245-.233-.118-.051-.235-.052-.349-.003l-2.346,1.014c-.115.05-.23.052-.346.005-.116-.046-.197-.121-.242-.226l-.334-.773c-.045-.104-.046-.217-.002-.339.044-.12.123-.205.238-.255l7.125-3.077c.105-.045.22-.044.342.004.123.05.208.127.252.23l.334.773c.045.104.042.216-.009.334-.051.119-.129.201-.234.246l-2.36,1.02c-.105.046-.182.13-.23.253-.049.122-.051.237-.005.342l3.078,7.124c.049.115.051.229.005.346-.046.116-.126.2-.241.249l-.758.328c-.105.045-.218.045-.339,0h0Z"/>
      <path d="M520.467,655.576c-.116-.046-.199-.126-.248-.241l-3.078-7.124c-.045-.104-.046-.219-.002-.339.044-.121.124-.206.238-.255l.758-.328c.114-.049.194-.132.24-.249.047-.116.047-.226.002-.331l-.334-.773c-.045-.104-.044-.217.005-.342.049-.121.125-.205.23-.251l3.949-1.706c.104-.045.219-.043.342.005.123.05.207.127.252.23l.334.773c.045.104.126.18.242.226.117.047.227.047.332.002l.772-.334c.105-.045.219-.044.341.006.124.047.208.125.253.229l3.078,7.124c.049.115.049.232-.002.35s-.129.201-.233.246l-.772.334c-.105.045-.216.044-.332-.002-.116-.046-.198-.126-.248-.241l-1.014-2.346c-.049-.114-.135-.194-.255-.237-.121-.044-.234-.044-.339.002l-3.949,1.705c-.104.045-.182.128-.233.246-.051.117-.051.234-.002.348l1.014,2.346c.05.115.051.23.005.347-.046.116-.126.2-.24.249l-.759.328c-.114.049-.229.05-.346.004h-.001ZM524.292,648.416c.104-.046.182-.13.23-.253s.05-.236.005-.342l-1.02-2.36c-.046-.104-.13-.183-.252-.23-.124-.049-.237-.051-.342-.006l-3.948,1.706c-.105.046-.182.13-.23.253-.049.122-.051.236-.005.342l1.02,2.359c.045.105.129.183.252.23.123.05.237.051.342.006l3.949-1.705h0Z"/>
      <path d="M531.598,650.769c-.116-.046-.199-.126-.248-.241l-3.764-8.713c-.045-.104-.046-.217-.002-.339.044-.12.123-.205.236-.255l5.524-2.386c.105-.045.219-.043.341.005.123.05.208.127.252.23l.348.768c.045.104.126.18.241.226.115.048.225.048.329.003l.766-.331c.104-.045.217-.042.338.006s.206.125.251.229l1.015,2.35c.045.105.043.219-.006.342-.049.121-.126.205-.23.251l-.772.333c-.105.046-.181.127-.227.243-.046.117-.044.232.006.348l1.019,2.357c.049.114.132.195.248.241s.227.048.332.002l.772-.333c.104-.046.218-.047.339-.003s.206.123.255.237l.328.758c.049.115.049.231-.003.351-.05.117-.128.199-.233.245l-.772.333c-.105.046-.216.045-.332,0-.116-.046-.199-.126-.248-.241l-.313-.764c-.05-.115-.135-.193-.255-.238-.121-.044-.234-.042-.339.003l-.772.334c-.105.045-.218.044-.339,0-.121-.046-.207-.126-.257-.24l-.33-.766c-.05-.115-.134-.196-.25-.243-.116-.046-.228-.048-.333-.002l-2.36,1.02c-.105.045-.183.128-.233.246-.051.118-.051.235,0,.35l1.018,2.357c.05.114.052.23.006.348-.046.116-.126.199-.24.249l-.759.327c-.114.05-.229.051-.346.005v-.002ZM535.403,643.599c.104-.045.181-.129.23-.251.048-.122.05-.235.005-.341l-1.015-2.35c-.046-.104-.13-.182-.252-.229s-.236-.05-.34-.005l-3.937,1.7c-.104.045-.181.129-.23.251-.048.122-.05.236-.005.341l1.015,2.35c.046.105.129.182.252.229.122.048.236.05.34.005l3.937-1.7Z"/>
      <path d="M544.323,645.271c-.12-.044-.206-.123-.255-.238l-3.078-7.124c-.045-.104-.127-.184-.246-.233-.118-.051-.234-.052-.349-.003l-2.346,1.014c-.115.05-.23.052-.346.005-.116-.046-.197-.121-.242-.226l-.334-.773c-.045-.104-.046-.217-.002-.339.045-.12.124-.205.238-.255l7.124-3.077c.105-.046.22-.044.343.004.122.05.207.127.252.23l.334.773c.045.104.042.216-.009.334-.051.119-.129.2-.233.246l-2.36,1.02c-.105.045-.182.129-.23.252s-.051.238-.006.342l3.078,7.125c.049.115.051.229.005.346s-.126.199-.24.249l-.759.327c-.105.046-.218.046-.339.002h0Z"/>
    </g>
    <path d="M607.325,585.827c-.116-.046-.198-.126-.248-.241l-3.764-8.713c-.045-.104-.046-.218-.002-.339.044-.12.124-.205.238-.254l5.536-2.392c.105-.046.219-.044.342.004.123.049.207.127.252.23l.334.772c.046.105.126.181.242.227.116.048.227.048.332.002l.771-.334c.105-.045.22-.043.342.004.123.048.207.125.252.229l.33.766c.045.104.043.217-.006.339-.049.123-.127.206-.231.251l-.772.334c-.105.046-.181.126-.226.242-.046.118-.046.229,0,.335l.337.779c.045.106.127.185.246.236.118.053.229.055.335.01l.772-.334c.105-.045.218-.046.338-.002.121.045.207.124.256.238l1.014,2.347c.049.113.049.23-.002.349-.051.117-.129.2-.233.245l-.772.334c-.105.046-.181.126-.227.241-.046.116-.045.231.005.346l.327.758c.05.115.049.231-.002.35s-.129.199-.233.245l-5.537,2.392c-.114.049-.229.051-.346.005h0ZM610.458,577.064c.104-.046.183-.129.231-.252.049-.122.051-.234.006-.339l-.331-.766c-.045-.104-.129-.181-.251-.229-.123-.047-.236-.049-.342-.003l-3.948,1.705c-.104.046-.182.13-.231.251-.049.122-.051.236-.006.34l.331.766c.045.104.128.18.251.228.123.049.236.05.342.004l3.948-1.705h0ZM612.522,581.844c.104-.046.183-.129.233-.246.051-.118.051-.235.002-.349l-1.014-2.347c-.049-.114-.135-.193-.256-.238-.12-.044-.233-.043-.338.003l-3.949,1.705c-.104.046-.183.127-.233.245-.051.119-.051.235-.002.35l1.014,2.347c.049.113.135.193.255.237.121.043.234.044.34-.002l3.948-1.705h0Z"/>
    <path d="M677.979,553.204c-.116-.046-.198-.126-.248-.24l-3.077-7.125c-.045-.104-.047-.219-.002-.339.044-.121.123-.206.237-.256l.759-.327c.114-.05.194-.132.24-.249.046-.115.047-.227,0-.331l-.333-.773c-.045-.104-.044-.218.005-.342.048-.122.125-.206.23-.251l3.948-1.706c.105-.045.219-.043.342.005.123.05.208.127.253.23l.333.773c.046.104.126.181.242.226.116.047.227.047.332,0l.772-.333c.104-.046.219-.044.342.005.122.048.207.126.253.23l3.076,7.125c.051.114.049.23-.002.349s-.128.2-.232.246l-.773.333c-.104.046-.215.045-.332,0-.115-.046-.198-.126-.248-.24l-1.013-2.347c-.05-.114-.135-.193-.255-.238-.122-.043-.234-.043-.34.002l-3.948,1.706c-.105.045-.183.127-.233.245-.052.118-.052.234-.002.349l1.013,2.347c.05.114.052.229.005.346-.046.116-.126.199-.24.249l-.758.327c-.115.05-.23.051-.347.005h.001ZM681.805,546.043c.104-.045.182-.129.23-.252s.051-.236.005-.342l-1.02-2.36c-.045-.104-.13-.183-.252-.231-.123-.048-.237-.05-.342-.005l-3.949,1.706c-.104.045-.182.129-.229.252-.05.122-.051.237-.006.342l1.02,2.36c.046.105.129.182.252.23s.237.051.342.006l3.949-1.706h0Z"/>
  </g>
  <path class="st5" d="M351.525,353.007"/>
  <g>
    <path class="st5" d="M354.529,386.713c.795.86,3.052.943,4.214,1.086,7.325.902,291.664,11.826,291.664,11.826,0,0,25.513-10.223,31.126-15.993,5.991-6.158,14.107-31.106,14.107-31.106l14.159-231.312s-1.359-8.164-3.092-10.183c-1.659-1.933-9.189-4.406-9.189-4.406,0,0-314.366,1.028-319.279,2.083-2.285.491-6.266,4.111-7.815,5.862-1.916,2.165-5.378,7.001-6.044,9.802-1.892,7.958-14.003,220.534-15.158,255.051-.101,3.021,4.516,6.434,5.307,7.29h0Z"/>
    <path d="M650.494,400.129l-.106-.004c-11.61-.446-284.443-10.935-291.706-11.83-.177-.021-.38-.042-.6-.064-1.317-.132-3.121-.313-3.921-1.179h0c-.137-.148-.395-.375-.723-.667-1.68-1.493-4.807-4.272-4.716-6.979,1.074-32.108,13.171-246.737,15.171-255.15.679-2.855,4.075-7.666,6.156-10.018,1.631-1.843,5.677-5.502,8.085-6.02,4.908-1.055,306.544-2.052,319.382-2.094h.081l.077.025c.312.103,7.682,2.54,9.412,4.556,1.803,2.101,3.148,10.087,3.205,10.426l.01.056-.004.057-14.163,231.376-.02.061c-.333,1.023-8.221,25.129-14.224,31.3-5.623,5.779-30.253,15.689-31.299,16.108l-.099.04h.002ZM354.896,386.374c.543.587,2.26.759,3.286.862.228.023.438.044.622.067,7.167.882,284.669,11.555,291.515,11.818,1.737-.702,25.554-10.388,30.855-15.837,5.701-5.86,13.521-29.486,13.97-30.853l14.151-231.191c-.383-2.277-1.633-8.327-2.968-9.883-1.271-1.481-6.772-3.531-8.889-4.231-6.511.021-314.315,1.044-319.095,2.071-2.154.463-6.04,4.002-7.546,5.705-2.094,2.367-5.321,7.015-5.933,9.586-1.794,7.546-13.833,215.75-15.145,254.952-.075,2.238,2.935,4.913,4.381,6.198.361.321.643.573.793.736h.003Z"/>
  </g>
  <g>
    <line class="st9" x1="352.021" y1="51.006" x2="745.734" y2="48.239"/>
    <rect class="st10" x="352.016" y="47.12" width="393.723" height="5" transform="translate(-.335 3.862) rotate(-.403)"/>
  </g>
  <g>
    <line class="st9" x1="377.858" y1="18.594" x2="375.181" y2="50.843"/>
    <rect class="st10" x="360.343" y="32.219" width="32.36" height="5" transform="translate(310.737 407.073) rotate(-85.249)"/>
  </g>
  <g>
    <line class="st9" x1="717.295" y1="16.459" x2="714.01" y2="50.168"/>
    <rect class="st10" x="698.715" y="30.814" width="33.868" height="5" transform="translate(613.031 742.35) rotate(-84.43)"/>
  </g>
  <path class="st15" d="M341.045,523.461c.052.814.626,2.218,1.415,2.94,1.082.99,5.743,1.2,5.743,1.2l23.91,1.899s-2.817,32.801-1.539,33.832c6.005,4.849,31.757,3.442,31.757,3.442,0,0,3.074-.53,3.527-1.071.403-.48.709-3.05.709-3.05l2.382-30.817,26.034,1.472s1.347-.286,1.73-.525c.529-.33,1.699-1.824,1.699-1.824l2.811-34.073s-.043-3.544-.394-4.169c-.339-.604-1.799-1.272-2.503-1.421-6.548-1.383-26.727-1.48-26.727-1.48l.682-29.356s-.218-2.713-.744-3.409c-.475-.628-2.776-1.483-2.776-1.483l-26.558-.804s-2.709.549-3.461,1.051c-.73.487-2.229,2.712-2.229,2.712l-.415,29.774s-29.873-1.205-30.477.396c0,0-5.132,26.033-4.577,34.766v-.002Z"/>
  <g>
    <path class="st1" d="M377.621,490.901l.108-27.655s.013-2.948.601-3.526c.483-.476,2.483-.681,2.483-.681l20.757,1.33s1.656.496,2.022.913c.516.588.909,2.995.909,2.995l-1.485,28.146,26.634,3.689s3.195.094,3.94.766c.504.454.788,2.596.788,2.596l-1.821,23.45s-.421,2.563-1.009,3.141c-.595.585-3.195.97-3.195.97l-26.306-1.171-2.729,32.667s-.04,2.128-.531,2.56c-.722.635-3.836.293-3.836.293l-19.753-1.853s-1.976-.436-2.516-1.344c-.49-.823-.718-3.562-.718-3.562l2.319-27.427-27.638-4.248s-2.296-.026-3.183-.669c-.943-.683-1.115-2.714-1.115-2.714l3.276-24.401s.616-3.948,1.484-4.449c.833-.48,4.554-.801,4.554-.801l25.959.986h.001Z"/>
    <path d="M396.663,561.98c-.737,0-1.425-.063-1.766-.101l-19.745-1.853c-.285-.06-2.267-.522-2.899-1.586-.533-.896-.763-3.483-.787-3.775l2.28-27.045-27.177-4.177c-.158.007-2.413-.042-3.401-.758-1.097-.794-1.3-2.846-1.319-3.077l-.005-.054,3.284-24.456c.198-1.269.759-4.256,1.73-4.815.885-.51,4.121-.812,4.761-.867l25.504.965.106-27.138c.004-.949.086-3.227.75-3.881.564-.555,2.272-.77,2.782-.822l20.952,1.349c.42.126,1.826.575,2.254,1.062.582.662.958,2.819,1.027,3.245l.008.053-.002.054-1.461,27.688,26.179,3.625c.511.012,3.368.133,4.207.891.594.536.876,2.356.949,2.901l.007.052-.004.052-1.821,23.45c-.11.682-.503,2.816-1.157,3.459-.676.666-3.011,1.04-3.472,1.108l-25.922-1.146-2.689,32.189c-.011.674-.106,2.372-.699,2.894-.465.408-1.5.515-2.455.515h0ZM342.851,519.576c.053.515.311,1.87.904,2.3.551.399,2.069.563,2.896.574l28.17,4.325-2.359,27.892c.085.931.336,2.737.65,3.264.313.526,1.512.961,2.194,1.111l19.692,1.844c1.404.154,3.127.122,3.459-.171.169-.181.343-1.228.361-2.193l2.771-33.179,26.787,1.193c1.077-.169,2.526-.537,2.821-.827.291-.286.676-1.71.866-2.866l1.812-23.354c-.142-1.025-.429-2.064-.621-2.239-.376-.339-2.171-.595-3.62-.638l-27.143-3.756,1.506-28.55c-.181-1.081-.527-2.402-.783-2.693-.141-.16-.943-.505-1.736-.748l-20.699-1.326c-.781.087-1.89.332-2.101.539-.233.235-.445,1.717-.452,3.172l-.11,28.172-26.476-1.006c-1.334.119-3.749.426-4.286.735-.354.212-.933,2.125-1.239,4.092l-3.267,24.334h.003Z"/>
  </g>
  <circle class="st8" cx="662.914" cy="499.101" r="28.274"/>
  <g>
    <ellipse class="st1" cx="659.375" cy="498.105" rx="25.179" ry="26.292" transform="translate(-116.274 213.058) rotate(-16.89)"/>
    <path d="M659.996,524.806c-11.166,0-21.652-7.587-25.191-19.242-4.292-14.136,3.239-28.983,16.787-33.097,13.554-4.115,28.063,4.04,32.356,18.175h0c4.292,14.136-3.239,28.983-16.787,33.097-2.379.722-4.788,1.066-7.165,1.066h0ZM658.758,472.4c-2.282,0-4.593.331-6.875,1.023-13.021,3.954-20.253,18.242-16.121,31.849,4.133,13.609,18.091,21.463,31.108,17.509,13.021-3.954,20.253-18.241,16.121-31.849-3.407-11.223-13.497-18.533-24.233-18.533h0Z"/>
  </g>
  <circle class="st8" cx="591.984" cy="530.814" r="28.274"/>
  <g>
    <ellipse class="st1" cx="588.445" cy="529.82" rx="25.179" ry="26.292" transform="translate(-128.548 193.818) rotate(-16.89)"/>
    <path d="M589.065,556.52c-11.166,0-21.651-7.588-25.19-19.242-2.078-6.844-1.479-14.054,1.688-20.303,3.171-6.256,8.533-10.8,15.1-12.794,6.566-1.995,13.55-1.199,19.664,2.238,6.106,3.434,10.613,9.093,12.691,15.938,2.078,6.844,1.479,14.054-1.688,20.303-3.17,6.257-8.532,10.8-15.1,12.794-2.379.722-4.788,1.066-7.165,1.066ZM587.873,504.105c-2.32,0-4.646.342-6.92,1.032-6.304,1.914-11.452,6.278-14.498,12.289-3.05,6.018-3.626,12.965-1.623,19.561,4.132,13.609,18.09,21.463,31.107,17.509,6.304-1.914,11.453-6.278,14.499-12.289,3.049-6.018,3.625-12.964,1.622-19.56s-6.344-12.05-12.225-15.356c-3.755-2.111-7.851-3.185-11.963-3.185h0Z"/>
  </g>
  <path class="st12" d="M424.381,625.876l37.228-17.001s5.536-2.429,8.001,1.932c2.827,5.002-.449,9.295-.449,9.295l-37.394,18.332s-6.039,1.845-8.443-2.67c-3.32-6.235,1.057-9.888,1.057-9.888Z"/>
  <path class="st12" d="M496.067,632.419l37.228-17.001s5.536-2.429,8.001,1.932c2.827,5.002-.449,9.295-.449,9.295l-37.394,18.332s-6.039,1.845-8.443-2.67c-3.32-6.235,1.057-9.888,1.057-9.888h0Z"/>
  <g>
    <path class="st5" d="M493.425,630.297l37.228-17.001s5.536-2.429,8.001,1.932c2.827,5.002-.449,9.295-.449,9.295l-37.394,18.332s-5.754,1.681-8.443-2.67c-3.858-6.243,1.057-9.888,1.057-9.888h0Z"/>
    <path class="st5" d="M498.271,643.655c-2.028,0-4.702-.577-6.328-3.208-4.053-6.557,1.131-10.513,1.184-10.552l.09-.054,37.228-17.002c.066-.027,5.988-2.56,8.644,2.142,2.955,5.229-.452,9.799-.486,9.845l-.071.094-.106.052-37.394,18.332c-.061.021-1.227.352-2.761.352h0ZM493.685,630.728c-.466.368-4.314,3.655-.891,9.194,2.454,3.971,7.659,2.517,7.878,2.452l37.202-18.245c.445-.639,2.783-4.343.346-8.655-2.209-3.911-7.157-1.812-7.366-1.721l-37.168,16.975h-.001Z"/>
  </g>
  <path class="st5" d="M422.419,624.354l37.228-17.001s5.536-2.429,8.001,1.932c2.827,5.002-.449,9.295-.449,9.295l-37.394,18.332s-6.039,1.845-8.443-2.67c-3.32-6.235,1.057-9.888,1.057-9.888Z"/>
  <path class="st10" d="M439.461,743.378c-2.339-.958-6.294-9.945-5.316-14.855l.123-.62c.777-3.917,1.04-5.236,2.339-6.151l2.877,4.09c.364-.256.497-.536.498-.539-.175.379-.483,1.931-.81,3.574l-.124.623c-.572,2.872,2.074,8.617,3.015,9.723-.01-.011-.242-.28-.708-.471l-1.895,4.627h.001Z"/>
  <path class="st10" d="M463.03,745.652c-.075-.152-.181-.357-.31-.606-2.064-3.991-4.067-8.544-3.273-12.054,1.757-7.763,2.708-9.128,3.86-10.209l.076-.073c-.015.016-.053.06-.085.111l4.237,2.654c-.298.476-.616.774-.806.953-.704.66-1.696,4.534-2.405,7.667-.331,1.462.624,4.374,2.837,8.653.15.29.273.528.36.706l-4.491,2.197h0Z"/>
  <g>
    <path class="st10" d="M578.533,747.89l-11.105-14.917-18.344-46.768s-2.999-6.286.752-8.297c4.608-2.471,6.682,1.896,6.682,1.896l19.331,49.303,8.654,11.983s2.895,5.227.264,7.334c-3.146,2.519-6.235-.535-6.235-.535h0Z"/>
    <path d="M582.096,749.915c-1.688,0-3.163-.927-3.914-1.67l-.05-.057-11.17-15.033-18.344-46.768c-.116-.241-3.143-6.709.981-8.92,1.548-.83,3.003-1.028,4.328-.594,2.053.676,3.002,2.633,3.042,2.716l19.322,49.276,8.617,11.931c.158.279,3.099,5.674.171,8.019-1.001.801-2.026,1.1-2.984,1.1h0ZM578.909,747.558c.303.285,2.9,2.594,5.546.477,2.271-1.818-.362-6.653-.389-6.702l-8.683-12.042-19.332-49.303h0s-.81-1.633-2.445-2.166c-1.049-.343-2.241-.165-3.534.527-3.286,1.762-.564,7.583-.537,7.642l18.334,46.737,11.04,14.83Z"/>
  </g>
  <g>
    <path class="st10" d="M600.508,738.027l-11.105-14.917-18.344-46.768s-2.999-6.286.752-8.297c4.608-2.471,6.682,1.896,6.682,1.896l19.331,49.303,8.654,11.983s2.895,5.227.264,7.334c-3.146,2.519-6.235-.535-6.235-.535h0Z"/>
    <path d="M604.069,740.053c-1.687,0-3.162-.927-3.913-1.67l-.05-.057-11.17-15.033-18.344-46.768c-.116-.241-3.143-6.709.981-8.92,1.546-.829,3.001-1.028,4.328-.594,2.053.675,3.002,2.633,3.042,2.716l19.322,49.275,8.617,11.932c.158.279,3.099,5.673.171,8.018-1.001.801-2.027,1.101-2.985,1.101h0ZM600.884,737.695c.302.285,2.901,2.596,5.546.476,2.271-1.818-.361-6.652-.389-6.701l-8.683-12.043-19.332-49.302h0s-.81-1.634-2.445-2.166c-1.05-.344-2.241-.167-3.534.527-3.286,1.762-.564,7.583-.537,7.642l18.334,46.737,11.04,14.83Z"/>
  </g>
  <g>
    <path class="st10" d="M621.458,727.304l-11.105-14.917-18.344-46.768s-2.999-6.286.752-8.297c4.608-2.471,6.682,1.896,6.682,1.896l19.331,49.303,8.654,11.983s2.895,5.227.264,7.334c-3.146,2.519-6.235-.535-6.235-.535h0Z"/>
    <path d="M625.02,729.33c-1.687,0-3.162-.927-3.913-1.67l-.05-.057-11.17-15.033-18.344-46.768c-.116-.241-3.143-6.709.981-8.92,1.546-.829,3.001-1.028,4.328-.594,2.053.675,3.002,2.633,3.042,2.716l19.322,49.275,8.617,11.932c.158.279,3.099,5.673.171,8.018-1.001.801-2.027,1.101-2.985,1.101h0ZM621.834,726.973c.303.286,2.9,2.595,5.546.476,2.271-1.818-.361-6.652-.389-6.701l-8.683-12.043-19.332-49.302h0s-.81-1.634-2.445-2.166c-1.05-.343-2.242-.166-3.534.527-3.286,1.762-.564,7.583-.537,7.642l18.334,46.737,11.04,14.83h0Z"/>
  </g>
  <g>
    <path class="st10" d="M643.363,715.419l-11.105-14.917-18.344-46.768s-2.999-6.286.752-8.297c4.608-2.471,6.682,1.896,6.682,1.896l19.331,49.303,8.654,11.983s2.895,5.227.264,7.334c-3.146,2.519-6.235-.535-6.235-.535h0Z"/>
    <path d="M646.926,717.445c-1.687,0-3.162-.928-3.914-1.671l-.05-.057-11.169-15.033-18.344-46.768c-.116-.241-3.143-6.708.981-8.92,1.547-.83,3.004-1.028,4.328-.594,2.053.676,3.002,2.633,3.042,2.716l19.321,49.276,8.617,11.932c.158.279,3.099,5.673.172,8.018-1,.801-2.027,1.101-2.985,1.101h0ZM643.739,715.087c.303.285,2.9,2.598,5.547.477,2.271-1.818-.362-6.652-.39-6.701l-8.683-12.043-19.331-49.303h0s-.81-1.633-2.445-2.166c-1.05-.342-2.24-.165-3.534.527-3.293,1.766-.565,7.583-.537,7.642l18.334,46.737,11.039,14.83Z"/>
  </g>
  <g>
    <path class="st10" d="M664.596,704.611l-11.105-14.917-18.344-46.768s-2.999-6.286.752-8.297c4.608-2.471,6.682,1.896,6.682,1.896l19.331,49.303,8.654,11.983s2.895,5.227.264,7.334c-3.146,2.519-6.235-.535-6.235-.535h0Z"/>
    <path d="M668.158,706.637c-1.688,0-3.162-.927-3.914-1.67l-.05-.057-11.169-15.033-18.344-46.768c-.116-.241-3.143-6.709.98-8.92,1.547-.83,3.004-1.029,4.329-.594,2.053.675,3.002,2.633,3.042,2.716l19.321,49.275,8.617,11.932c.158.279,3.099,5.673.172,8.018-1.001.802-2.027,1.101-2.985,1.101h.001ZM664.972,704.279c.303.285,2.901,2.597,5.547.476,2.271-1.818-.362-6.652-.39-6.701l-8.683-12.043-19.331-49.302h0s-.81-1.633-2.445-2.166c-1.053-.343-2.241-.167-3.535.527-3.285,1.762-.563,7.583-.536,7.642l18.334,46.737,11.039,14.83Z"/>
  </g>
  <g>
    <path class="st10" d="M687.261,693.368l-11.105-14.917-18.344-46.768s-2.999-6.286.752-8.297c4.608-2.471,6.682,1.896,6.682,1.896l19.331,49.303,8.654,11.983s2.895,5.227.264,7.334c-3.146,2.519-6.235-.535-6.235-.535h0Z"/>
    <path d="M690.823,695.394c-1.688,0-3.163-.928-3.914-1.671l-.05-.057-11.17-15.033-18.344-46.767c-.116-.241-3.143-6.709.981-8.921,1.547-.83,3.004-1.029,4.328-.594,2.053.676,3.002,2.633,3.042,2.716l19.322,49.276,8.617,11.932c.158.279,3.099,5.673.171,8.018-1.001.801-2.026,1.101-2.984,1.101h0ZM687.637,693.035c.303.285,2.9,2.598,5.546.477,2.271-1.818-.361-6.652-.389-6.701l-8.683-12.043-19.332-49.303h0s-.81-1.633-2.445-2.166c-1.05-.342-2.24-.165-3.534.527-3.286,1.763-.564,7.584-.537,7.643l18.334,46.736,11.04,14.83Z"/>
  </g>
  <g>
    <line class="st9" x1="591.706" y1="663.131" x2="610.023" y2="710.53"/>
    <rect x="599.865" y="661.421" width="2" height="50.816" transform="translate(-207.185 262.768) rotate(-21.129)"/>
  </g>
  <g>
    <line class="st9" x1="634.777" y1="640.312" x2="653.095" y2="687.711"/>
    <rect x="642.933" y="638.608" width="2" height="50.815" transform="translate(-196.066 276.759) rotate(-21.129)"/>
  </g>
  <g>
    <line class="st9" x1="613.848" y1="652.062" x2="632.165" y2="699.461"/>
    <rect x="622.008" y="650.352" width="2" height="50.816" transform="translate(-201.706 270.006) rotate(-21.129)"/>
  </g>
  <g>
    <line class="st9" x1="657.671" y1="629.861" x2="675.988" y2="677.26"/>
    <rect x="665.828" y="628.157" width="2" height="50.815" transform="translate(-190.76 284.309) rotate(-21.129)"/>
  </g>
  <g>
    <line class="st9" x1="570.819" y1="674.338" x2="589.136" y2="721.737"/>
    <rect x="578.975" y="672.634" width="2" height="50.815" transform="translate(-212.631 255.991) rotate(-21.129)"/>
  </g>
  <g>
    <line class="st9" x1="548.951" y1="684.813" x2="567.268" y2="732.212"/>
    <rect x="557.111" y="683.103" width="2" height="50.815" transform="translate(-217.867 248.8) rotate(-21.128)"/>
  </g>
  <path class="st16" d="M651.218,378.394l-273.186-11.693c-6.674-.286-11.817-5.987-11.416-12.655l11.603-192.973c.379-6.309,5.607-11.231,11.927-11.231h274.545c6.896,0,12.361,5.821,11.925,12.704l-12.963,204.666c-.411,6.491-5.938,11.46-12.436,11.182Z"/>
  <g>
    <line class="st9" x1="380.695" y1="131.878" x2="466.69" y2="131.644"/>
    <rect class="st13" x="380.697" y="130.761" width="85.995" height="2" transform="translate(-.385 1.243) rotate(-.168)"/>
  </g>
  <rect class="st7" x="382.055" y="122.816" width="84.85" height="2" transform="translate(-.241 .83) rotate(-.112)"/>
  <rect class="st7" x="570.718" y="122.905" width="102.567" height="2"/>
  <g>
    <line class="st9" x1="570.473" y1="133.369" x2="671.501" y2="133.805"/>
    <rect x="619.992" y="83.075" width="2" height="101.028" transform="translate(484.716 753.997) rotate(-89.752)"/>
  </g>
  <g>
    <path class="st4" d="M399.254,760.728c8.372,19.513,33.889,20.344,37.794,20.472,4.689.153,25.93.845,36.219-14.96,9.505-14.6,4.699-35.651-7.874-47.243-16.049-14.796-42.432-12.04-56.691,2.362-8.867,8.956-15.61,25.007-9.449,39.369h.001Z"/>
    <path class="st3" d="M439.372,782.737c-.783,0-1.573-.013-2.373-.039-9.132-.297-31.226-2.978-39.124-21.379h0c-6.408-14.935.568-31.73,9.761-41.016,15.605-15.763,43.068-16.889,58.773-2.409,13.825,12.746,17.465,34.801,8.114,49.163-6.612,10.157-19.04,15.68-35.152,15.68h0ZM439.292,710.662c-11.227,0-22.345,4.502-29.523,11.753-8.508,8.593-14.996,24.062-9.136,37.721h0c7.217,16.822,27.905,19.286,36.464,19.564,16.417.537,28.483-4.4,34.913-14.279,8.589-13.191,5.165-33.522-7.633-45.321-7.144-6.586-16.149-9.438-25.085-9.438h0Z"/>
  </g>
  <g>
    <path class="st4" d="M548.216,772.384c8.372,19.513,33.889,20.344,37.794,20.472,4.689.153,25.93.845,36.219-14.96,9.505-14.6,4.699-35.651-7.874-47.243-16.049-14.796-42.432-12.04-56.691,2.362-8.867,8.956-15.61,25.007-9.449,39.369h0Z"/>
    <path class="st3" d="M588.438,794.396c-.814,0-1.64-.014-2.476-.041-9.135-.297-31.229-2.975-39.126-21.379h0c-6.407-14.936.569-31.731,9.762-41.017,15.605-15.763,43.07-16.89,58.773-2.409,13.825,12.745,17.465,34.801,8.114,49.164-6.696,10.286-18.783,15.682-35.048,15.682h0ZM549.595,771.792c7.217,16.822,27.904,19.286,36.464,19.564,16.412.522,28.484-4.403,34.914-14.279,8.588-13.192,5.163-33.523-7.634-45.322-16.119-14.859-41.717-10.706-54.607,2.315-8.508,8.593-14.995,24.063-9.137,37.722h0Z"/>
  </g>
  <path class="st18" d="M576.349,740.305c-2.068-3.603-2.489-9.472.181-12.468,2.857-3.203,5.067-5.188,7.254-5.188v3c-.851,0-2.538,1.408-5.015,4.185-1.526,1.713-1.437,6.16.182,8.978l-2.602,1.494h0Z"/>
  <path class="st18" d="M590.346,740.663c-2.069-3.603-2.491-9.472.182-12.468,2.856-3.203,5.066-5.188,7.252-5.188v3c-.85,0-2.537,1.408-5.014,4.185-1.527,1.713-1.438,6.16.182,8.978l-2.602,1.494h0Z"/>
  <path class="st18" d="M422.829,729.252c-2.069-3.603-2.49-9.472.181-12.468,2.857-3.203,5.066-5.188,7.253-5.188v3c-.85,0-2.537,1.408-5.014,4.185-1.527,1.713-1.438,6.16.181,8.978l-2.602,1.494h.001Z"/>
  <path class="st18" d="M438.617,729.252c-2.069-3.603-2.49-9.472.181-12.468,2.857-3.203,5.067-5.188,7.253-5.188v3c-.85,0-2.537,1.408-5.014,4.186-1.526,1.712-1.437,6.159.182,8.977l-2.602,1.494h0Z"/>
  <ellipse class="st3" cx="754.451" cy="719.049" rx="14.211" ry="5.874" transform="translate(-130.811 169.014) rotate(-11.77)"/>
  <path class="st2" d="M641.983,367.936l-253.084-10.681c-5.295-.223-9.381-4.739-9.077-10.029l10.341-179.837c.289-5.023,4.446-8.948,9.477-8.948h255.424c5.491,0,9.836,4.645,9.472,10.123l-12.681,190.518c-.342,5.142-4.724,9.071-9.872,8.854Z"/>
  <g>
    <path class="st11" d="M416.423,242.113c-.473-.516-.693-1.123-.662-1.821l2.343-53.119c.029-.639.301-1.21.819-1.713.517-.501,1.126-.737,1.823-.706l4.622.204c.698.031,1.283.32,1.754.864.469.545.692,1.138.663,1.777l-.635,14.392c-.029.64.208,1.233.708,1.779.501.546,1.07.834,1.71.863l4.622.204c.698.031,1.284.305,1.757.82.471.517.694,1.094.666,1.734l-.207,4.709c-.028.64.208,1.233.709,1.779s1.069.834,1.71.863l4.709.207c.64.029,1.218-.208,1.736-.711.517-.501.79-1.072.818-1.711l.207-4.709c.029-.64.315-1.194.861-1.667.545-.471,1.135-.692,1.777-.664l4.709.207c.64.029,1.234-.208,1.779-.708.546-.5.834-1.07.863-1.71l.635-14.392c.029-.639.301-1.21.819-1.711.516-.502,1.095-.738,1.736-.711l4.709.207c.64.029,1.209.316,1.71.863s.737,1.14.708,1.779l-2.343,53.119c-.031.698-.32,1.283-.864,1.753-.545.472-1.137.692-1.777.664l-4.709-.207c-.641-.029-1.198-.301-1.668-.816-.473-.516-.693-1.124-.662-1.821l1.057-23.986c.031-.698-.205-1.305-.706-1.822-.501-.517-1.072-.79-1.713-.818l-4.709-.207c-.641-.028-1.233.194-1.777.664-.545.472-.834,1.055-.864,1.753l-.631,14.305c-.031.698-.305,1.284-.821,1.756-.516.472-1.093.695-1.734.666l-4.709-.207c-.641-.028-1.21-.301-1.713-.818-.501-.517-.737-1.125-.706-1.823l.631-14.305c.031-.698-.192-1.304-.661-1.82-.473-.516-1.059-.789-1.757-.82l-4.622-.204c-.64-.029-1.233.194-1.777.664-.545.472-.834,1.055-.864,1.753l-1.057,23.986c-.031.698-.305,1.283-.82,1.756-.517.472-1.124.693-1.822.662l-4.622-.204c-.697-.031-1.284-.304-1.756-.82l.002-.004Z"/>
    <path class="st11" d="M475.56,244.722c-.473-.516-.693-1.124-.662-1.821l2.343-53.119c.029-.639.301-1.21.819-1.711.517-.502,1.126-.738,1.823-.707l33.755,1.489c.64.028,1.209.316,1.71.863s.737,1.14.708,1.779l-.207,4.709c-.029.641-.316,1.196-.861,1.666-.545.472-1.138.692-1.777.664l-24.074-1.062c-.641-.029-1.233.208-1.779.708-.546.501-.834,1.071-.863,1.711l-.207,4.709c-.029.64.208,1.233.708,1.779.501.546,1.069.834,1.71.863l14.391.635c.64.029,1.196.302,1.668.816.472.517.695,1.095.667,1.735l-.207,4.709c-.028.64-.302,1.21-.818,1.711-.518.502-1.096.738-1.736.711l-14.391-.635c-.641-.029-1.233.194-1.777.664-.545.472-.834,1.055-.864,1.753l-.631,14.305c-.031.698.205,1.307.706,1.823.502.517,1.07.79,1.713.818l24.074,1.062c.64.028,1.21.302,1.713.818.501.518.737,1.126.706,1.823l-.204,4.623c-.031.698-.32,1.283-.864,1.753-.545.472-1.137.692-1.777.664l-33.755-1.489c-.697-.031-1.284-.304-1.756-.82h.002Z"/>
    <path class="st11" d="M525.015,246.902c-.473-.516-.693-1.124-.662-1.821l2.343-53.119c.029-.639.301-1.21.819-1.711.517-.502,1.126-.737,1.823-.706l4.622.203c.698.031,1.283.32,1.754.864.469.545.692,1.139.663,1.777l-.635,14.392c-.029.64.208,1.233.708,1.778.501.547,1.069.834,1.71.863l4.622.204c.698.031,1.284.305,1.756.82.472.517.695,1.095.667,1.735l-.207,4.709c-.028.64.208,1.233.709,1.779.501.546,1.069.834,1.71.863l4.709.207c.64.028,1.217-.208,1.736-.711.516-.501.789-1.072.818-1.711l.209-4.709c.028-.64.315-1.194.86-1.667.544-.471,1.137-.693,1.778-.664l4.709.207c.64.029,1.233-.208,1.779-.709.545-.5.833-1.069.862-1.71l.636-14.392c.029-.639.301-1.21.817-1.713.517-.501,1.096-.738,1.737-.711l4.709.207c.639.029,1.21.316,1.71.863.501.546.738,1.141.709,1.779l-2.343,53.119c-.032.698-.32,1.283-.864,1.753-.545.472-1.139.693-1.778.664l-4.709-.207c-.641-.028-1.197-.299-1.669-.816-.472-.516-.693-1.123-.661-1.821l1.057-23.986c.032-.698-.205-1.305-.706-1.823-.501-.517-1.072-.789-1.711-.818l-4.709-.207c-.641-.029-1.234.194-1.778.664-.545.472-.833,1.055-.864,1.753l-.631,14.305c-.031.698-.305,1.283-.821,1.756-.517.472-1.094.694-1.734.666l-4.708-.207c-.641-.029-1.21-.301-1.713-.818-.501-.517-.737-1.125-.706-1.823l.631-14.305c.031-.698-.192-1.304-.662-1.821-.472-.516-1.058-.789-1.756-.82l-4.622-.204c-.641-.029-1.233.194-1.778.664-.545.472-.834,1.056-.864,1.753l-1.057,23.986c-.031.698-.305,1.283-.82,1.755-.517.473-1.124.693-1.822.662l-4.622-.204c-.697-.031-1.284-.304-1.756-.82h0Z"/>
    <path class="st11" d="M584.153,249.51c-.473-.516-.694-1.123-.662-1.821l2.343-53.119c.029-.639.301-1.21.818-1.713.517-.501,1.125-.737,1.823-.706l33.755,1.488c.639.029,1.21.316,1.71.863.501.546.738,1.139.709,1.779l-.209,4.71c-.029.64-.315,1.196-.86,1.666-.545.472-1.139.692-1.778.664l-24.074-1.062c-.641-.029-1.234.208-1.779.708-.545.501-.834,1.071-.862,1.711l-.209,4.709c-.029.64.208,1.233.709,1.779.499.546,1.069.834,1.71.863l14.391.635c.64.029,1.195.301,1.668.816.472.517.695,1.094.667,1.734l-.209,4.709c-.029.64-.302,1.21-.818,1.711-.518.502-1.096.738-1.736.711l-14.391-.635c-.641-.029-1.234.194-1.778.664-.545.472-.833,1.055-.864,1.753l-.631,14.305c-.031.698.205,1.307.706,1.823.5.517,1.07.79,1.711.818l24.074,1.062c.639.029,1.211.302,1.713.818.501.518.737,1.126.706,1.823l-.204,4.623c-.032.698-.32,1.283-.864,1.754s-1.139.692-1.778.664l-33.755-1.488c-.698-.031-1.283-.304-1.755-.82l.002-.002Z"/>
    <path class="st11" d="M413.05,318.6c-.473-.516-.694-1.123-.664-1.821l2.343-53.119c.029-.639.301-1.21.818-1.713.517-.501,1.126-.737,1.823-.706l4.622.204c.698.031,1.283.32,1.754.864.469.545.692,1.138.664,1.777l-.635,14.392c-.029.64.208,1.233.709,1.779s1.07.834,1.71.863l24.074,1.062c.64.029,1.234-.208,1.779-.708.546-.5.834-1.07.863-1.71l.635-14.392c.029-.639.301-1.21.818-1.711.516-.502,1.095-.738,1.736-.711l4.709.207c.64.029,1.21.316,1.71.863.501.546.737,1.141.709,1.779l-2.343,53.119c-.031.698-.32,1.283-.863,1.753-.545.472-1.138.692-1.777.664l-4.709-.207c-.641-.029-1.197-.301-1.668-.816-.473-.516-.694-1.124-.664-1.821l1.058-23.986c.031-.698-.205-1.305-.707-1.822-.5-.517-1.072-.79-1.711-.818l-24.074-1.062c-.64-.029-1.233.194-1.777.664-.545.472-.833,1.055-.863,1.753l-1.058,23.986c-.031.698-.305,1.283-.819,1.756-.517.472-1.124.693-1.822.662l-4.622-.204c-.697-.031-1.283-.304-1.755-.82v-.003Z"/>
    <path class="st11" d="M472.188,321.208c-.473-.516-.694-1.124-.664-1.821l1.916-43.437c.029-.64.301-1.21.818-1.713.517-.501,1.126-.737,1.823-.706l4.622.204c.698.031,1.305-.189,1.822-.662.515-.471.787-1.028.815-1.668l.207-4.709c.029-.639.316-1.209.863-1.71.546-.501,1.138-.737,1.779-.708l24.074,1.062c.64.028,1.21.316,1.71.863.501.546.737,1.141.709,1.779l-.207,4.709c-.028.641.194,1.218.667,1.734.471.517,1.027.787,1.668.816l4.709.207c.64.029,1.209.316,1.71.862.501.546.737,1.141.709,1.78l-1.916,43.437c-.031.698-.32,1.283-.863,1.753-.545.472-1.138.692-1.778.664l-4.709-.207c-.641-.029-1.197-.299-1.668-.816-.473-.516-.694-1.123-.664-1.821l.631-14.305c.031-.698-.205-1.306-.706-1.823s-1.072-.79-1.711-.818l-24.074-1.062c-.641-.029-1.233.194-1.777.664-.545.472-.834,1.055-.864,1.753l-.631,14.305c-.031.698-.305,1.284-.819,1.756-.517.472-1.124.693-1.822.662l-4.622-.204c-.697-.031-1.283-.304-1.755-.82v-.002ZM508.979,294.472c.64.028,1.233-.208,1.779-.709.546-.5.834-1.069.863-1.71l.635-14.392c.029-.64-.208-1.233-.709-1.78-.501-.545-1.07-.834-1.71-.862l-24.074-1.062c-.641-.029-1.233.208-1.779.708-.546.501-.834,1.071-.863,1.711l-.635,14.392c-.029.64.208,1.233.709,1.779.5.546,1.069.834,1.71.863l24.074,1.062Z"/>
    <path class="st11" d="M541.051,324.245c-.502-.517-.738-1.126-.707-1.823l.204-4.623c.031-.698-.192-1.304-.662-1.821-.472-.516-1.058-.789-1.756-.82l-4.622-.204c-.698-.031-1.283-.304-1.755-.82-.473-.516-.693-1.123-.662-1.821l1.488-33.755c.029-.64.301-1.21.818-1.713.517-.501,1.125-.737,1.823-.706l4.622.204c.698.031,1.305-.189,1.821-.662.516-.471.789-1.027.816-1.668l.207-4.709c.029-.639.316-1.209.863-1.71.546-.501,1.138-.737,1.779-.709l33.755,1.488c.639.029,1.209.316,1.71.863.5.546.737,1.139.708,1.779l-.635,14.392c-.029.64-.318,1.21-.863,1.71-.546.501-1.141.737-1.779.708l-4.709-.207c-.641-.029-1.197-.315-1.667-.861-.472-.545-.692-1.137-.663-1.777l.207-4.709c.029-.64-.208-1.233-.708-1.78-.501-.545-1.071-.833-1.71-.862l-24.074-1.062c-.641-.029-1.233.208-1.779.708-.546.501-.834,1.071-.863,1.711l-1.488,33.755c-.031.698.205,1.307.706,1.823.501.517,1.07.789,1.711.818l24.074,1.062c.639.029,1.233-.194,1.776-.664.545-.471.834-1.055.864-1.753l.204-4.623c.032-.698.304-1.282.82-1.755s1.094-.695,1.735-.667l4.709.207c.639.029,1.21.302,1.711.819s.738,1.125.706,1.822l-.204,4.623c-.031.698-.32,1.283-.864,1.754-.544.471-1.138.692-1.776.664l-4.709-.207c-.641-.029-1.219.194-1.735.666-.516.473-.788,1.058-.82,1.755l-.204,4.623c-.031.698-.32,1.283-.864,1.753-.544.472-1.138.693-1.776.664l-24.074-1.062c-.641-.029-1.21-.301-1.711-.818h.002Z"/>
    <path class="st11" d="M590.462,326.424c-.473-.516-.693-1.123-.662-1.821l2.343-53.119c.029-.639.301-1.21.819-1.713.516-.501,1.125-.737,1.823-.706l4.622.204c.698.031,1.281.32,1.753.864.471.545.693,1.138.664,1.777l-1.062,24.074c-.028.64.208,1.233.709,1.779.499.546,1.069.834,1.71.863l4.622.204c.698.031,1.305-.206,1.823-.713.517-.506.79-1.083.819-1.728l.21-4.752c.029-.645.316-1.206.86-1.682s1.137-.7,1.778-.671l4.709.207c.639.029,1.218-.205,1.735-.703.517-.497.79-1.062.818-1.695l.207-4.669c.028-.632.312-1.198.854-1.694.541-.495,1.129-.73,1.762-.702l4.67.206c.631.028,1.218-.194,1.758-.666.541-.471.827-1.025.854-1.666l.207-4.709c.029-.639.3-1.21.818-1.713.516-.501,1.096-.738,1.737-.711l4.709.207c.639.029,1.209.316,1.71.863.5.546.736,1.141.707,1.779l-.207,4.709c-.029.641-.315,1.196-.86,1.666-.545.472-1.138.693-1.776.664l-4.709-.207c-.641-.029-1.221.207-1.737.703-.518.498-.789,1.064-.817,1.696l-.207,4.669c-.028.633-.313,1.198-.855,1.693-.542.496-1.13.73-1.761.701l-4.67-.206c-.633-.028-1.222.196-1.76.67-.541.474-.826,1.032-.853,1.674l-.638,14.457c-.029.643.204,1.238.7,1.787.494.55,1.06.836,1.693.864l4.67.206c.631.028,1.197.301,1.694.818s.731,1.125.699,1.823l-.204,4.623c-.031.698.189,1.305.661,1.821.473.517,1.029.787,1.67.816l4.709.207c.639.028,1.21.302,1.711.818.501.518.737,1.126.705,1.823l-.204,4.623c-.031.698-.319,1.283-.863,1.753-.544.472-1.138.692-1.776.664l-4.709-.207c-.641-.029-1.197-.299-1.67-.816-.473-.516-.692-1.123-.661-1.821l.204-4.623c.032-.698-.203-1.306-.699-1.823-.497-.516-1.063-.789-1.694-.817l-4.67-.206c-.633-.028-1.199-.299-1.696-.817-.497-.517-.729-1.125-.698-1.823l.204-4.623c.032-.698-.192-1.304-.662-1.821-.473-.516-1.029-.789-1.668-.816l-14.391-.635c-.641-.028-1.234.194-1.778.665-.545.472-.833,1.055-.864,1.753l-.631,14.305c-.031.698-.305,1.283-.821,1.756s-1.122.693-1.82.662l-4.622-.204c-.698-.031-1.283-.304-1.756-.82v-.003Z"/>
  </g>
  <g>
    <path class="st17" d="M414.412,240.957c-.472-.517-.691-1.124-.659-1.822l2.448-53.114c.03-.639.303-1.21.823-1.711.518-.5,1.127-.735,1.824-.702l4.622.213c.698.032,1.282.322,1.753.868.468.546.69,1.139.66,1.779l-.663,14.391c-.03.64.206,1.233.704,1.781.5.547,1.068.836,1.708.866l4.622.213c.698.032,1.284.308,1.756.823.47.518.691,1.095.662,1.735l-.217,4.709c-.029.64.206,1.233.705,1.781s1.067.836,1.708.866l4.709.217c.64.03,1.219-.206,1.737-.707.518-.5.792-1.07.821-1.71l.217-4.709c.03-.64.317-1.194.864-1.665.546-.469,1.137-.69,1.779-.661l4.709.217c.64.03,1.234-.206,1.781-.704.547-.499.836-1.068.866-1.708l.663-14.391c.03-.639.303-1.21.823-1.71.517-.501,1.096-.736,1.737-.707l4.709.217c.64.03,1.208.319,1.708.866s.734,1.142.704,1.781l-2.448,53.114c-.032.698-.322,1.282-.868,1.752-.546.471-1.138.69-1.779.661l-4.709-.217c-.641-.03-1.197-.303-1.666-.82-.472-.517-.691-1.126-.659-1.822l1.105-23.984c.032-.698-.202-1.305-.702-1.823-.5-.518-1.07-.792-1.711-.821l-4.709-.217c-.641-.029-1.233.191-1.779.661-.546.471-.836,1.054-.868,1.752l-.66,14.304c-.032.698-.308,1.284-.824,1.755-.517.471-1.094.693-1.735.662l-4.709-.217c-.641-.029-1.21-.303-1.711-.821-.5-.518-.735-1.126-.702-1.824l.66-14.304c.032-.698-.189-1.305-.658-1.821-.472-.517-1.058-.791-1.756-.823l-4.622-.213c-.64-.03-1.233.191-1.779.661-.546.471-.836,1.054-.868,1.752l-1.105,23.984c-.032.698-.308,1.282-.823,1.755-.518.471-1.126.691-1.824.659l-4.622-.213c-.697-.032-1.284-.307-1.755-.823l.002-.004Z"/>
    <path class="st17" d="M473.543,243.684c-.472-.517-.691-1.126-.659-1.822l2.448-53.114c.03-.639.303-1.21.823-1.71.518-.501,1.127-.736,1.824-.704l33.752,1.556c.64.029,1.208.319,1.708.866s.734,1.142.704,1.781l-.217,4.709c-.03.641-.319,1.195-.864,1.664-.546.471-1.139.69-1.779.661l-24.072-1.11c-.641-.03-1.233.206-1.781.704-.547.5-.836,1.069-.866,1.709l-.217,4.709c-.03.64.206,1.233.704,1.781.5.547,1.067.836,1.708.866l14.39.663c.64.03,1.195.304,1.666.82.471.518.693,1.097.664,1.736l-.217,4.709c-.029.64-.304,1.21-.821,1.71-.519.501-1.097.736-1.737.707l-14.39-.663c-.641-.03-1.233.191-1.779.661-.546.471-.836,1.054-.868,1.752l-.66,14.304c-.032.698.202,1.307.702,1.824.501.518,1.069.792,1.711.821l24.072,1.11c.64.029,1.21.304,1.711.821.5.519.735,1.127.702,1.824l-.213,4.623c-.032.698-.322,1.282-.868,1.752-.546.471-1.138.69-1.779.661l-33.752-1.556c-.697-.032-1.284-.307-1.755-.823h.002Z"/>
    <path class="st17" d="M522.994,245.963c-.472-.517-.691-1.126-.659-1.822l2.448-53.114c.03-.639.303-1.21.823-1.71.518-.501,1.127-.735,1.824-.702l4.622.212c.698.032,1.282.322,1.753.868.468.546.69,1.14.66,1.779l-.663,14.391c-.03.64.206,1.233.704,1.78.5.548,1.067.836,1.708.866l4.622.213c.698.032,1.284.308,1.755.823.471.518.693,1.097.664,1.736l-.217,4.709c-.029.64.206,1.233.705,1.781.5.547,1.067.836,1.708.866l4.709.217c.64.029,1.218-.206,1.737-.707.517-.5.791-1.07.821-1.71l.218-4.709c.029-.64.318-1.194.863-1.666.545-.469,1.138-.691,1.779-.661l4.709.217c.64.03,1.233-.206,1.781-.705.546-.499.835-1.067.865-1.708l.664-14.391c.03-.639.303-1.21.82-1.711.518-.5,1.097-.736,1.738-.707l4.709.217c.639.03,1.21.319,1.708.866.5.547.735,1.142.705,1.781l-2.448,53.114c-.033.698-.322,1.282-.868,1.752-.546.471-1.14.691-1.779.661l-4.709-.217c-.641-.029-1.196-.302-1.667-.82-.471-.517-.691-1.124-.658-1.822l1.105-23.984c.033-.698-.202-1.305-.702-1.824-.5-.518-1.07-.791-1.71-.821l-4.709-.217c-.641-.03-1.234.191-1.779.661-.546.471-.835,1.054-.868,1.752l-.66,14.304c-.032.698-.308,1.282-.824,1.755-.518.471-1.095.691-1.735.662l-4.708-.217c-.641-.03-1.21-.303-1.711-.821-.5-.518-.735-1.126-.702-1.824l.66-14.304c.032-.698-.189-1.305-.659-1.822-.471-.517-1.057-.791-1.755-.823l-4.622-.213c-.641-.03-1.233.191-1.779.661-.546.471-.836,1.055-.868,1.752l-1.105,23.984c-.032.698-.308,1.282-.823,1.753-.518.472-1.126.691-1.824.659l-4.622-.213c-.697-.032-1.284-.307-1.755-.823h0Z"/>
    <path class="st17" d="M582.126,248.689c-.472-.517-.692-1.125-.659-1.822l2.448-53.114c.03-.639.303-1.21.821-1.711.518-.5,1.126-.735,1.824-.702l33.752,1.555c.639.03,1.21.319,1.708.866.5.547.735,1.141.705,1.781l-.218,4.71c-.03.64-.318,1.195-.863,1.664-.546.471-1.14.69-1.779.661l-24.072-1.11c-.641-.03-1.234.206-1.781.704-.546.5-.836,1.069-.865,1.709l-.218,4.709c-.03.64.206,1.233.705,1.781.497.547,1.067.836,1.708.866l14.39.663c.64.03,1.194.303,1.666.82.471.518.693,1.095.664,1.735l-.218,4.709c-.03.64-.304,1.21-.821,1.71-.519.501-1.097.736-1.737.707l-14.39-.663c-.641-.03-1.234.191-1.779.661-.546.471-.835,1.054-.868,1.752l-.66,14.304c-.032.698.202,1.307.702,1.824.499.518,1.069.792,1.71.821l24.072,1.11c.639.03,1.211.304,1.711.821.5.519.735,1.127.702,1.824l-.213,4.623c-.033.698-.322,1.282-.868,1.753s-1.14.69-1.779.661l-33.752-1.555c-.698-.032-1.282-.307-1.753-.823l.002-.002Z"/>
    <path class="st17" d="M410.886,317.438c-.472-.517-.692-1.125-.66-1.822l2.448-53.114c.03-.639.303-1.21.821-1.711.518-.5,1.127-.735,1.824-.702l4.622.213c.698.032,1.282.322,1.753.868.468.546.69,1.139.661,1.779l-.663,14.391c-.03.64.206,1.233.705,1.781s1.068.836,1.708.866l24.072,1.11c.64.03,1.234-.206,1.781-.704.547-.499.836-1.068.866-1.708l.663-14.391c.03-.639.303-1.21.821-1.71.517-.501,1.096-.736,1.737-.707l4.709.217c.64.03,1.209.319,1.708.866.5.547.734,1.142.705,1.781l-2.448,53.114c-.032.698-.322,1.282-.867,1.752-.546.471-1.139.69-1.779.661l-4.709-.217c-.641-.03-1.196-.303-1.666-.82-.472-.517-.692-1.126-.66-1.822l1.106-23.984c.032-.698-.202-1.305-.704-1.823-.499-.518-1.07-.792-1.71-.821l-24.072-1.11c-.64-.03-1.233.191-1.779.661-.546.471-.835,1.054-.867,1.752l-1.106,23.984c-.032.698-.308,1.282-.822,1.755-.518.471-1.126.691-1.824.659l-4.622-.213c-.697-.032-1.282-.307-1.753-.823v-.003Z"/>
    <path class="st17" d="M470.018,320.164c-.472-.517-.692-1.126-.66-1.822l2.003-43.433c.03-.64.303-1.21.821-1.711.518-.5,1.127-.735,1.824-.702l4.622.213c.698.032,1.306-.187,1.824-.659.516-.47.789-1.026.818-1.666l.217-4.709c.03-.639.319-1.208.866-1.708.547-.5,1.14-.734,1.781-.704l24.072,1.11c.64.029,1.209.319,1.708.866.5.547.734,1.142.705,1.781l-.217,4.709c-.029.641.191,1.219.664,1.735.47.518,1.025.789,1.666.82l4.709.217c.64.03,1.208.319,1.708.865.5.547.734,1.142.705,1.782l-2.003,43.433c-.032.698-.322,1.282-.867,1.752-.546.471-1.139.69-1.779.661l-4.709-.217c-.641-.03-1.196-.302-1.666-.82-.472-.517-.692-1.125-.66-1.822l.66-14.304c.032-.698-.202-1.306-.702-1.824s-1.07-.792-1.71-.821l-24.072-1.11c-.641-.03-1.233.191-1.779.661-.546.471-.836,1.054-.868,1.752l-.66,14.304c-.032.698-.308,1.284-.822,1.755-.518.471-1.126.691-1.824.659l-4.622-.213c-.697-.032-1.282-.307-1.753-.823v-.002ZM506.862,293.501c.64.029,1.233-.206,1.781-.705.547-.499.836-1.067.866-1.708l.663-14.391c.03-.64-.206-1.233-.705-1.782-.5-.546-1.068-.836-1.708-.865l-24.072-1.11c-.641-.03-1.233.206-1.781.704-.547.5-.836,1.069-.866,1.709l-.663,14.391c-.03.64.206,1.233.705,1.781.499.547,1.067.836,1.708.866l24.072,1.11Z"/>
    <path class="st17" d="M538.875,323.338c-.501-.518-.736-1.127-.704-1.824l.213-4.623c.032-.698-.189-1.305-.659-1.822-.471-.517-1.057-.791-1.755-.823l-4.622-.213c-.698-.032-1.282-.307-1.753-.823-.472-.517-.691-1.124-.659-1.822l1.555-33.752c.03-.64.303-1.21.821-1.711.518-.5,1.126-.735,1.824-.702l4.622.213c.698.032,1.306-.187,1.822-.659.517-.47.791-1.025.82-1.666l.217-4.709c.03-.639.319-1.208.866-1.708.547-.5,1.14-.734,1.781-.705l33.752,1.555c.639.03,1.208.319,1.708.866.499.547.734,1.141.704,1.781l-.663,14.391c-.03.64-.32,1.209-.866,1.708-.547.5-1.142.734-1.781.704l-4.709-.217c-.641-.03-1.196-.318-1.665-.864-.471-.546-.69-1.138-.66-1.779l.217-4.709c.03-.64-.206-1.233-.704-1.782-.5-.546-1.069-.835-1.708-.865l-24.072-1.11c-.641-.03-1.233.206-1.781.704-.547.5-.836,1.069-.866,1.709l-1.555,33.752c-.032.698.202,1.307.702,1.824.5.518,1.069.791,1.71.821l24.072,1.11c.639.03,1.233-.191,1.778-.661.546-.469.836-1.054.868-1.752l.213-4.623c.033-.698.307-1.281.823-1.753s1.095-.693,1.736-.664l4.709.217c.639.03,1.21.304,1.71.823s.736,1.126.702,1.823l-.213,4.623c-.032.698-.322,1.282-.868,1.753-.545.469-1.139.69-1.778.661l-4.709-.217c-.641-.03-1.22.191-1.736.662-.517.472-.79,1.057-.823,1.753l-.213,4.623c-.032.698-.322,1.282-.868,1.752-.545.471-1.139.691-1.778.661l-24.072-1.11c-.641-.03-1.21-.303-1.71-.821h.002Z"/>
    <path class="st17" d="M588.282,325.615c-.472-.517-.691-1.124-.659-1.822l2.448-53.114c.03-.639.303-1.21.823-1.711.517-.5,1.126-.735,1.824-.702l4.622.213c.698.032,1.28.322,1.752.868.469.546.691,1.139.661,1.779l-1.11,24.072c-.029.64.206,1.233.705,1.781.497.547,1.067.836,1.708.866l4.622.213c.698.032,1.305-.204,1.824-.709.518-.505.793-1.081.823-1.727l.22-4.751c.03-.645.319-1.205.863-1.68s1.138-.697,1.779-.667l4.709.217c.639.03,1.219-.203,1.737-.699.518-.496.792-1.06.821-1.693l.216-4.669c.029-.632.314-1.197.857-1.692.542-.494,1.131-.728,1.764-.699l4.67.215c.631.029,1.219-.191,1.76-.662.542-.469.829-1.024.858-1.664l.217-4.709c.03-.639.302-1.21.821-1.711.517-.5,1.097-.736,1.738-.707l4.709.217c.639.03,1.208.319,1.708.866.499.547.733,1.142.703,1.781l-.217,4.709c-.03.641-.318,1.195-.863,1.664-.546.471-1.139.691-1.778.661l-4.709-.217c-.641-.03-1.221.205-1.738.699-.519.497-.791,1.062-.82,1.694l-.216,4.669c-.029.633-.315,1.197-.858,1.691-.543.495-1.132.728-1.763.698l-4.67-.215c-.633-.029-1.222.194-1.761.666-.542.473-.828,1.03-.857,1.672l-.667,14.456c-.03.643.201,1.239.696,1.788.493.551,1.058.838,1.691.867l4.67.215c.631.029,1.196.303,1.692.821s.729,1.126.696,1.824l-.213,4.623c-.032.698.187,1.306.658,1.822.472.518,1.028.789,1.668.82l4.709.217c.639.029,1.21.304,1.71.821.5.519.735,1.127.701,1.824l-.213,4.623c-.032.698-.321,1.282-.867,1.752-.545.471-1.139.69-1.778.661l-4.709-.217c-.641-.03-1.196-.302-1.668-.82-.472-.517-.69-1.124-.658-1.822l.213-4.623c.033-.698-.2-1.306-.696-1.824-.496-.517-1.061-.791-1.692-.82l-4.67-.215c-.633-.029-1.199-.302-1.694-.82-.496-.518-.727-1.126-.695-1.824l.213-4.623c.033-.698-.189-1.305-.659-1.822-.472-.517-1.028-.791-1.666-.82l-14.39-.663c-.641-.029-1.234.191-1.779.662-.546.471-.835,1.054-.868,1.752l-.66,14.304c-.032.698-.308,1.282-.824,1.755s-1.123.691-1.821.659l-4.622-.213c-.698-.032-1.282-.307-1.755-.823v-.003Z"/>
  </g>
</svg>