<svg width="499" height="426" viewBox="0 0 499 426" fill="none" xmlns="http://www.w3.org/2000/svg">
<g clip-path="url(#clip0_685_2001)">
<mask id="mask0_685_2001" style="mask-type:luminance" maskUnits="userSpaceOnUse" x="0" y="0" width="498" height="425">
<path d="M0 0.09375H498V424.245H0V0.09375Z" fill="white"/>
</mask>
<g mask="url(#mask0_685_2001)">
<path d="M497.693 119.781H491.437C491.026 120.854 491.271 121.917 491.224 122.943C491.182 123.995 491.26 125.057 491.161 126.182C490.75 126.26 490.427 126.385 490.099 126.396C488.859 126.417 487.62 126.396 486.385 126.406C485.865 126.406 485.344 126.448 484.76 126.474C484.427 127.557 484.625 128.615 484.594 129.656C484.557 130.651 484.594 131.646 484.594 132.542C484.073 133.125 483.51 132.964 483 132.974C479.76 132.984 476.521 132.974 473.271 132.984C472.698 132.984 472.12 133.026 471.469 133.063C471.047 135.229 471.49 137.349 471.161 139.516C469.083 139.781 467.026 139.495 464.891 139.703C464.448 141.818 464.901 143.938 464.594 146.12C462.49 146.547 460.38 146.083 458.214 146.406C457.839 148.505 458.245 150.62 457.969 152.75C456.521 153.104 455.104 152.896 453.714 152.927C452.245 152.964 450.771 152.927 449.292 152.927C447.885 152.927 446.474 152.948 444.99 152.948C444.901 153.359 444.781 153.693 444.771 154.01C444.745 155.307 444.771 156.609 444.745 157.901C444.745 158.354 444.693 158.823 444.656 159.375C443.542 159.615 442.49 159.474 441.453 159.505C440.458 159.542 439.464 159.526 438.37 159.552C438.292 159.969 438.193 160.292 438.182 160.625C438.156 161.917 438.182 163.219 438.167 164.516C438.167 164.979 438.125 165.443 438.094 166.005C437.01 166.307 435.948 166.12 434.906 166.161C433.859 166.193 432.807 166.193 431.667 166.208C431.401 167.344 431.557 168.406 431.526 169.448C431.49 170.495 431.49 171.547 431.479 172.682C429.292 173.036 427.167 172.651 425.01 172.938C424.635 175.063 425.078 177.182 424.734 179.318C423.297 179.604 421.885 179.438 420.49 179.464C419.021 179.495 417.536 179.464 416.068 179.464C414.667 179.474 413.26 179.406 411.781 179.526C411.526 180.656 411.677 181.719 411.646 182.755C411.615 183.75 411.625 184.745 411.604 185.844C411.182 185.917 410.859 186.016 410.531 186.031C409.234 186.052 407.932 186.031 406.635 186.042C406.172 186.042 405.708 186.083 405.146 186.12C404.849 187.203 405.026 188.26 404.99 189.302C404.958 190.354 404.958 191.401 404.948 192.542C403.807 192.818 402.745 192.651 401.708 192.682C400.656 192.719 399.604 192.719 398.479 192.729C398.115 194.917 398.51 197.042 398.214 199.219C397.714 199.26 397.26 199.339 396.807 199.339C393.568 199.339 390.328 199.339 387.078 199.339C386.505 199.339 385.922 199.385 385.245 199.406C384.969 200.5 385.146 201.563 385.099 202.604C385.057 203.651 385.203 204.703 384.979 205.828C382.833 206.208 380.714 205.786 378.557 206.104C378.359 207.214 378.479 208.271 378.458 209.313C378.432 210.307 378.432 211.292 378.422 212.385C376.245 212.786 374.125 212.354 372.047 212.651C371.646 213.224 371.802 213.833 371.802 214.411C371.792 219.714 371.802 225.021 371.802 230.328C371.802 230.969 371.781 231.615 371.766 232.328C371.281 232.396 370.885 232.484 370.484 232.495C369.25 232.521 368.01 232.495 366.771 232.505C366.307 232.505 365.844 232.563 365.422 232.583C364.99 233.26 365.156 233.922 365.156 234.552C365.146 241.099 365.156 247.641 365.156 254.188C365.156 257.318 365.156 260.432 365.156 263.563V265.385C364.724 265.474 364.406 265.589 364.073 265.589C362.781 265.609 361.474 265.589 360.182 265.609C359.719 265.609 359.266 265.677 358.833 265.708C358.437 266.396 358.578 267.057 358.578 267.688C358.568 275.115 358.578 282.547 358.578 289.974C358.578 290.615 358.547 291.245 358.521 291.953C357.406 292.286 356.344 292.089 355.307 292.141C354.255 292.198 353.203 292.042 352.146 292.255C351.844 292.938 351.958 293.589 351.958 294.219C351.958 302.411 351.958 310.615 351.958 318.807C351.958 320.521 351.958 322.224 351.958 323.938C351.958 324.339 351.901 324.734 351.87 325.245C349.687 325.464 347.578 325.188 345.422 325.411C345.203 327.688 345.344 329.854 345.312 332.021C345.292 334.141 345.312 336.255 345.312 338.411C344.927 338.5 344.646 338.609 344.359 338.609C340.589 338.62 336.823 338.609 333.052 338.609C332.818 338.609 332.599 338.552 332.276 338.51C331.823 336.411 332.323 334.286 331.969 332.12C330.906 331.844 329.844 332.021 328.807 331.974C327.755 331.932 326.703 332.031 325.578 331.885C325.344 330.771 325.49 329.708 325.453 328.672C325.422 327.62 325.51 326.568 325.354 325.432C324.24 325.198 323.187 325.344 322.141 325.307C321.089 325.276 320.036 325.365 318.901 325.219C318.635 323.052 318.932 320.943 318.714 318.807C316.531 318.432 314.401 318.906 312.255 318.49C311.99 316.401 312.312 314.344 312.047 312.219C311.656 312.177 311.318 312.099 310.984 312.099C309.625 312.089 308.276 312.099 306.917 312.078C306.516 312.078 306.12 311.99 305.677 311.932C305.432 309.823 305.687 307.755 305.5 305.609C303.354 305.219 301.245 305.63 299.078 305.344C298.802 304.271 298.964 303.208 298.932 302.172C298.901 301.12 298.901 300.068 298.891 298.943C296.698 298.542 294.578 298.974 292.422 298.667C292.036 296.552 292.474 294.432 292.146 292.286C290.031 291.854 287.901 292.385 285.766 291.964C285.422 289.896 285.797 287.828 285.521 285.708C285.156 285.651 284.828 285.563 284.495 285.552C283.135 285.531 281.786 285.552 280.427 285.531C280.026 285.531 279.63 285.443 279.198 285.396C278.802 283.255 279.307 281.12 278.891 279.063C277.328 278.818 267.401 278.833 265.875 279.073C265.521 281.12 265.964 283.245 265.62 285.385C264.182 285.661 262.771 285.5 261.375 285.521C259.906 285.542 258.427 285.521 256.953 285.521C255.552 285.521 254.146 285.464 252.667 285.589C252.365 287.719 252.677 289.776 252.453 291.911C250.344 292.328 248.219 291.911 246.042 292.198C245.677 294.323 246.062 296.432 245.797 298.62C245.292 298.667 244.839 298.745 244.385 298.745C241.146 298.745 237.906 298.745 234.656 298.745C234.068 298.745 233.484 298.745 232.807 298.745C232.729 299.219 232.609 299.604 232.599 299.99C232.578 301.177 232.599 302.349 232.589 303.531C232.589 304.063 232.589 304.578 232.589 304.969C232.099 305.531 231.604 305.396 231.151 305.396C227.911 305.411 224.672 305.396 221.422 305.396C220.833 305.396 220.25 305.396 219.583 305.396C219.51 305.797 219.385 306.13 219.375 306.458C219.354 307.641 219.365 308.813 219.365 310C219.365 310.583 219.365 311.172 219.365 311.646C218.812 312.167 218.26 312.031 217.74 312.031C214.5 312.042 211.26 312.031 208.01 312.031C207.437 312.031 206.839 311.943 206.187 312.229C205.865 314.229 206.219 316.297 205.964 318.453C205.5 318.51 205.047 318.599 204.604 318.599C201.365 318.609 198.125 318.599 194.875 318.599C194.292 318.599 193.714 318.63 193.031 318.656C192.568 320.776 193.062 322.901 192.719 325.089C192.266 325.13 191.812 325.234 191.37 325.234C188.078 325.245 184.771 325.234 181.464 325.234C180.891 325.234 180.318 325.276 179.687 325.307C179.307 327.5 179.76 329.62 179.396 331.797C177.307 332.031 175.25 331.755 173.109 331.974C172.755 334.099 173.161 336.224 172.844 338.391C172.333 338.443 171.88 338.531 171.427 338.531C168.245 338.542 165.057 338.531 161.875 338.531C161.234 338.531 160.594 338.531 159.875 338.531C159.786 338.964 159.672 339.297 159.661 339.625C159.641 340.984 159.661 342.333 159.651 343.698C159.651 344.094 159.62 344.49 159.589 345C158.979 345.042 158.458 345.109 157.948 345.109C154.766 345.109 151.583 345.109 148.396 345.109C147.823 345.109 147.25 345.156 146.573 345.188C146.229 347.365 146.594 349.479 146.328 351.667C144.839 351.823 143.432 351.734 142.042 351.755C140.568 351.766 139.089 351.755 137.62 351.755C136.214 351.755 134.812 351.776 133.328 351.776C132.974 352.896 133.172 353.953 133.141 354.984C133.109 356.031 133.141 357.094 133.141 358.255C132.578 358.313 132.125 358.401 131.672 358.401C128.432 358.411 125.193 358.401 121.943 358.401C121.354 358.401 120.781 358.401 120.104 358.401C120.026 358.828 119.927 359.161 119.927 359.495C119.906 360.786 119.927 362.094 119.917 363.385C119.917 363.849 119.865 364.302 119.818 364.88C117.698 365.286 115.573 364.833 113.417 365.167C113.083 367.234 113.437 369.302 113.208 371.292C112.729 371.776 112.167 371.62 111.672 371.62C108.432 371.635 105.193 371.62 101.943 371.635C101.365 371.635 100.792 371.688 100.13 371.708C99.7656 373.891 100.172 376.01 99.8541 378.198C98.3802 378.333 96.9791 378.255 95.5833 378.266C94.1145 378.276 92.6302 378.266 91.1614 378.266C89.7604 378.276 88.3541 378.198 86.8854 378.344C86.6614 379.484 86.7968 380.542 86.7604 381.583C86.7187 382.635 86.8489 383.682 86.651 384.823C86.1198 384.854 85.6666 384.922 85.2031 384.922C81.9635 384.922 78.7239 384.922 75.4739 384.922H73.6406C73.5625 385.432 73.4739 385.818 73.4635 386.214C73.4375 387.453 73.4635 388.693 73.4531 389.932C73.4531 390.396 73.3958 390.859 73.3645 391.432C72.8541 391.479 72.401 391.568 71.9479 391.568C68.7083 391.568 65.4687 391.568 62.2187 391.568C61.6302 391.568 61.0573 391.599 60.3698 391.62C60.0416 393.724 60.3698 395.781 60.1614 397.911C59.8281 397.99 59.5104 398.125 59.177 398.125C57.8177 398.146 56.4687 398.125 55.1093 398.146C54.6562 398.146 54.2031 398.224 53.6927 398.276C53.4062 400.411 53.7135 402.469 53.5052 404.458C53.0833 404.922 52.5885 404.776 52.1354 404.776C48.8958 404.792 45.6562 404.776 42.4062 404.776C41.8177 404.776 41.2448 404.776 40.5729 404.776C40.4843 405.198 40.3593 405.531 40.3593 405.849C40.3385 407.208 40.3593 408.557 40.3385 409.917C40.3385 410.375 40.25 410.828 40.2083 411.344C38.7135 411.521 37.2968 411.422 35.8958 411.432C34.4218 411.458 32.9427 411.432 31.4739 411.432C30.0677 411.432 28.6614 411.38 27.1927 411.49C26.8281 413.667 27.2604 415.792 26.9166 417.948C25.4791 418.198 24.0625 418.047 22.6718 418.078C21.2031 418.099 19.7187 418.078 18.25 418.078C16.8437 418.089 15.4427 418.01 14.0833 418.146C13.7812 419.516 13.7291 422.411 13.9375 424.547H0.182251V404.734C2.35933 404.734 4.54163 404.734 6.71871 404.714C6.81767 404.714 6.91663 404.615 7.14058 404.5C7.31246 403.542 7.18225 402.479 7.2135 401.438C7.24996 400.401 7.14058 399.339 7.32808 398.234C9.46871 397.969 11.526 398.276 13.651 398.036C13.7291 397.682 13.8385 397.359 13.8489 397.026C13.8698 395.734 13.8489 394.432 13.8698 393.135C13.8698 392.672 13.927 392.219 13.9583 391.667C16.0729 391.391 18.125 391.688 20.25 391.469C20.7239 389.344 20.2187 387.224 20.5833 385.042C21.6198 384.766 22.6823 384.943 23.7239 384.911C24.7708 384.88 25.8229 384.88 26.9479 384.865C27.2135 383.719 27.0625 382.667 27.0937 381.625C27.125 380.578 27.125 379.526 27.1354 378.375C29.3385 378.068 31.4479 378.411 33.6041 378.146C33.9687 376.01 33.5416 373.891 33.8802 371.755C36.0052 371.344 38.1406 371.865 40.2604 371.443C40.5937 369.365 40.2187 367.297 40.5052 365.177C40.8802 365.12 41.2135 365.042 41.5416 365.031C42.901 365.01 44.25 365.031 45.6145 365.01C46.0104 365.01 46.4062 364.922 46.8281 364.88C47.1041 363.406 46.9375 361.995 46.9739 360.589C46.9948 359.12 46.9739 357.635 46.9739 356.167C46.9843 354.76 46.9062 353.359 47.0468 351.854C48.1666 351.589 49.2187 351.755 50.2552 351.708C51.3073 351.667 52.3541 351.786 53.4948 351.609C53.7031 350.505 53.5729 349.443 53.6041 348.406C53.651 347.365 53.5156 346.302 53.7135 345.198C55.8854 344.87 57.9948 345.234 60.1718 344.953C60.4166 342.823 60.1406 340.766 60.3593 338.641C62.4843 338.255 64.5937 338.667 66.75 338.391C67.1718 336.234 66.7291 334.109 67.026 331.964C68.1302 331.745 69.1927 331.875 70.2343 331.844C71.2291 331.823 72.2239 331.823 73.2968 331.823C73.7604 329.656 73.276 327.521 73.6145 325.354C75.7083 324.943 77.8281 325.375 79.9843 325.078C80.3593 322.964 79.9531 320.854 80.2291 318.677C82.375 318.344 84.4843 318.698 86.651 318.453C86.9583 316.344 86.651 314.286 86.8593 312.151C87.2135 312.089 87.5364 311.974 87.8698 311.974C89.1614 311.953 90.4635 311.974 91.7604 311.953C92.2239 311.953 92.6875 311.901 93.2291 311.865C93.3073 311.479 93.4166 311.146 93.4166 310.818C93.4375 309.578 93.4166 308.339 93.427 307.099C93.427 306.583 93.4739 306.063 93.5052 305.464C95.5937 305.135 97.651 305.464 99.6406 305.255C100.151 304.792 99.9843 304.224 99.9948 303.719C100.005 300.479 99.9948 297.229 100.005 293.99C100.005 293.411 100.052 292.839 100.083 292.188C102.25 291.766 104.375 292.208 106.531 291.901C106.75 290.781 106.62 289.734 106.641 288.682C106.661 287.688 106.661 286.693 106.672 285.62C108.839 285.167 110.974 285.641 113.141 285.307C113.536 283.208 113.12 281.089 113.406 278.932C115.516 278.578 117.641 278.974 119.786 278.677C120.203 276.552 119.729 274.422 120.094 272.266C122.161 271.943 124.219 272.266 126.354 272.042C126.417 271.698 126.516 271.37 126.531 271.036C126.552 269.745 126.531 268.438 126.542 267.146C126.542 266.682 126.594 266.219 126.63 265.698C127.703 265.276 128.76 265.531 129.802 265.474C130.854 265.432 131.901 265.443 133.021 265.422C133.359 263.286 133.021 261.229 133.26 259.099C133.604 259.031 133.927 258.906 134.255 258.896C135.615 258.875 136.964 258.896 138.328 258.875C138.781 258.875 139.234 258.786 139.729 258.745C140.005 256.609 139.698 254.542 139.927 252.432C140.969 252.068 142.031 252.286 143.068 252.255C144.12 252.208 145.167 252.229 146.307 252.229C146.75 250.042 146.266 247.906 146.62 245.786C147.656 245.401 148.729 245.641 149.771 245.599C150.766 245.552 151.76 245.599 152.641 245.599C153.208 245.156 153.073 244.646 153.073 244.193C153.083 240.885 153.073 237.594 153.083 234.286C153.083 233.714 152.953 233.104 153.318 232.505C155.354 232.12 157.484 232.63 159.609 232.208C159.885 230.109 159.573 228.052 159.807 225.906C160.844 225.563 161.906 225.776 162.948 225.74C163.995 225.708 165.057 225.74 166.141 225.74C166.583 224.615 166.339 223.552 166.375 222.516C166.417 221.464 166.375 220.401 166.375 219.25C168.562 218.833 170.687 219.286 172.797 218.974C173.208 217.938 172.953 216.865 173.005 215.823C173.062 214.776 172.964 213.714 173.083 212.563C175.198 212.266 177.266 212.583 179.385 212.354C179.453 212.01 179.562 211.688 179.573 211.359C179.599 210.063 179.573 208.76 179.599 207.469C179.599 207 179.661 206.547 179.698 206.031C181.844 205.609 183.964 206.094 186.109 205.719C186.339 204.625 186.208 203.563 186.229 202.526C186.25 201.531 186.229 200.536 186.229 199.453C186.641 199.365 186.958 199.24 187.292 199.229C188.474 199.208 189.646 199.219 190.828 199.219C191.417 199.219 192 199.219 192.687 199.219C192.766 198.755 192.885 198.37 192.885 197.979C192.906 196.276 192.885 194.563 192.885 192.786C193.297 192.698 193.625 192.573 193.948 192.573C195.187 192.552 196.422 192.563 197.661 192.563C198.193 192.563 198.714 192.563 199.286 192.563C199.375 192.188 199.51 191.922 199.51 191.646C199.521 185.63 199.51 179.615 199.51 173.604C199.51 173.38 199.443 173.151 199.396 172.828C197.286 172.474 195.172 172.859 192.995 172.583C192.953 172.052 192.885 171.599 192.885 171.146C192.885 167.906 192.885 164.656 192.885 161.417C192.885 160.833 192.885 160.245 192.885 159.573C192.401 159.495 192.01 159.385 191.615 159.375C190.432 159.349 189.26 159.375 188.078 159.375C187.557 159.375 187.026 159.375 186.427 159.375C186.339 158.932 186.229 158.599 186.229 158.266C186.208 156.906 186.229 155.557 186.219 154.198C186.219 153.802 186.177 153.401 186.151 152.927C185.026 152.698 183.964 152.828 182.927 152.807C181.927 152.786 180.922 152.807 179.865 152.807C179.76 152.396 179.609 152.068 179.609 151.745C179.573 150.563 179.599 149.391 179.599 148.208C179.599 147.62 179.599 147.036 179.599 146.37C179.177 146.297 178.844 146.172 178.526 146.172C177.167 146.151 175.818 146.172 174.458 146.161C174.057 146.161 173.661 146.12 173.151 146.083C173.109 145.49 173.031 144.969 173.031 144.458C173.031 141.276 173.031 138.094 173.031 134.906C173.031 134.323 172.995 133.745 172.984 133.083C172.589 132.995 172.255 132.875 171.922 132.859C170.74 132.839 169.568 132.859 168.385 132.849C167.802 132.849 167.224 132.818 166.552 132.797C166.495 132.333 166.396 131.943 166.396 131.547C166.375 130.255 166.396 128.948 166.385 127.656C166.385 127.255 166.318 126.859 166.276 126.406C164.12 126.063 161.995 126.438 159.885 126.161C159.818 125.828 159.74 125.609 159.74 125.391C159.74 119.141 159.74 112.896 159.74 106.573C160.141 106.474 160.448 106.349 160.781 106.328C161.365 106.297 161.964 106.318 162.547 106.318C196.135 106.318 229.724 106.318 263.312 106.318C264.062 106.318 264.828 106.297 265.656 106.286C265.984 104.151 265.656 102.083 265.885 99.9479C266.229 99.8802 266.552 99.75 266.88 99.75C268.24 99.7292 269.589 99.75 270.953 99.7292C271.406 99.7292 271.859 99.6406 272.365 99.5938C272.63 97.4636 272.365 95.4063 272.552 93.25C274.667 92.849 276.786 93.2813 278.823 92.9948C279.255 92.4948 279.12 91.9427 279.12 91.4271C279.13 88.1875 279.12 84.9375 279.13 81.6979C279.13 81.1198 279 80.5104 279.385 79.8802C281.354 79.6042 283.422 79.9063 285.542 79.6927C285.599 79.3073 285.687 78.974 285.698 78.6354C285.719 77.2761 285.698 75.9271 285.719 74.5625C285.719 74.1667 285.807 73.7709 285.854 73.3021C287.953 73.0156 290.021 73.3386 292.167 73.0938C292.62 70.9948 292.125 68.8698 292.464 66.6927C294.542 66.3177 296.667 66.724 298.844 66.4375C299.167 65.4011 298.964 64.3386 299 63.2969C299.031 62.25 299.01 61.1875 299.021 60.0573C301.198 59.6406 303.333 60.1042 305.49 59.7604C305.911 57.6615 305.411 55.5365 305.797 53.3594C307.854 53.0417 309.911 53.3906 312.031 53.1406C312.099 52.7969 312.208 52.4636 312.208 52.1302C312.234 50.8386 312.208 49.5365 312.234 48.2396C312.234 47.7761 312.297 47.3229 312.344 46.7709C314.49 46.4844 316.609 46.8021 318.734 46.5625C318.979 45.0469 318.844 43.6302 318.865 42.2396C318.891 40.7656 318.865 39.2865 318.865 37.8177C318.865 36.4115 318.875 35.0052 318.891 33.5261C321.078 33.1042 323.198 33.5469 325.354 33.2396C325.755 31.1354 325.302 29.0156 325.63 26.8906C326.693 26.5365 327.755 26.7709 328.797 26.7031C329.844 26.6406 330.906 26.849 332.01 26.5261C332.344 24.4844 331.979 22.4271 332.245 20.3021C332.599 20.25 332.927 20.1511 333.26 20.1354C334.552 20.1146 335.859 20.1354 337.151 20.1146C337.604 20.1146 338.068 20.0469 338.568 20.0052C338.99 17.849 338.469 15.7136 338.891 13.5938C340.99 13.3177 343.047 13.6146 345.203 13.3959C345.531 12.3542 345.333 11.2917 345.365 10.2656C345.401 9.21356 345.365 8.15106 345.365 7.06773C346.484 6.60419 347.547 6.86981 348.583 6.82815C349.635 6.78127 350.698 6.82815 351.844 6.82815C351.922 6.33856 352.021 5.94273 352.021 5.55731C352.047 3.72919 352.047 1.90627 352.057 0.072937C356.411 0.072937 360.781 0.072937 365.135 0.072937C365.167 0.781271 365.234 1.47398 365.234 2.18231C365.234 13.9115 365.234 25.6406 365.234 37.375C365.234 37.9063 365.214 38.4323 365.245 38.9636C365.266 39.2969 365.391 39.6198 365.49 40.0156C366.562 40.0156 367.557 40.0052 368.562 40.0156C369.599 40.0365 370.661 39.9271 371.812 40.1146C371.833 40.9011 371.87 41.5834 371.87 42.2813C371.87 58.3125 371.87 74.3542 371.87 90.3854C371.87 90.9167 371.844 91.4479 371.87 91.9792C371.891 92.3073 371.99 92.6406 372.068 93.0729H374.245C374.953 93.0729 375.661 93.0521 376.37 93.0729C377.052 93.1042 377.771 92.9063 378.521 93.3594C378.521 93.9323 378.521 94.5209 378.521 95.0938C378.521 98.3334 378.521 101.583 378.521 104.823C378.521 105.276 378.609 105.719 378.667 106.286H380.526C419 106.286 457.474 106.286 495.948 106.286C496.531 106.286 497.12 106.219 497.703 106.182V119.63L497.693 119.781ZM53.4531 378.255C53.6718 378.313 53.9062 378.411 54.125 378.411C58.125 378.411 62.1406 378.411 66.1406 378.411C66.3541 378.411 66.5625 378.302 66.8177 378.224C67.0156 376.109 66.7708 374.052 66.9739 372.073C67.6145 371.656 68.2187 371.797 68.7968 371.786C72.0364 371.776 75.276 371.786 78.526 371.776C79.0312 371.776 79.5885 371.932 80.0729 371.448C80.2604 369.453 79.9843 367.401 80.25 365.266C80.9375 365.245 81.5104 365.198 82.0937 365.198C85.3333 365.198 88.5729 365.198 91.8229 365.198C92.3333 365.198 92.8958 365.354 93.4375 364.745C93.4375 363.885 93.427 362.891 93.4375 361.88C93.4635 360.833 93.3385 359.781 93.5625 358.656C94.0364 358.62 94.4323 358.568 94.8333 358.568C96.1927 358.552 97.5416 358.568 98.901 358.552C99.2343 358.552 99.5625 358.443 100.005 358.365C100.005 357.25 99.9843 356.188 100.042 355.141C100.083 354.099 99.8177 353.026 100.307 351.901C102.417 351.901 104.542 351.922 106.651 351.901C108.818 351.875 110.984 352.021 113.24 351.786C113.495 349.63 113.13 347.51 113.474 345.344C114.125 345.307 114.698 345.266 115.286 345.266C118.469 345.266 121.651 345.266 124.839 345.266C125.344 345.266 125.865 345.198 126.464 345.156C126.495 344.589 126.552 344.135 126.552 343.672C126.562 342.38 126.552 341.073 126.573 339.781C126.573 339.448 126.693 339.13 126.781 338.708C128.266 338.708 129.667 338.688 131.083 338.677C132.552 338.677 134.036 338.698 135.505 338.677C136.901 338.641 138.312 338.844 139.776 338.5C140.026 336.365 139.651 334.255 140.016 332.099C140.682 332.078 141.255 332.031 141.844 332.031C145.083 332.031 148.318 332.031 151.573 332.031C152.026 332.031 152.479 331.953 153.042 331.901C153.052 330.75 153.042 329.698 153.094 328.651C153.141 327.609 152.906 326.536 153.297 325.453C155.406 325.198 157.531 325.573 159.698 325.219C159.708 324.427 159.729 323.719 159.729 323.021C159.729 322.313 159.708 321.604 159.729 320.896C159.76 320.214 159.573 319.495 159.984 318.776C161.411 318.688 162.823 318.745 164.229 318.729C165.698 318.729 167.182 318.755 168.651 318.729C170.047 318.698 171.458 318.896 172.917 318.568C172.964 318.057 173.021 317.604 173.021 317.141C173.031 315.844 173.021 314.542 173.042 313.25C173.042 312.917 173.161 312.583 173.24 312.167C173.958 312.167 174.599 312.167 175.24 312.167C178.427 312.167 181.609 312.167 184.792 312.167C185.245 312.167 185.745 312.276 186.25 311.766C186.25 311.37 186.25 310.839 186.25 310.318C186.25 309.078 186.24 307.844 186.266 306.604C186.266 306.271 186.385 305.938 186.474 305.531C187.135 305.531 187.724 305.531 188.307 305.531C191.547 305.531 194.786 305.531 198.036 305.531C198.49 305.531 198.932 305.453 199.464 305.411C199.74 303.229 199.344 301.109 199.719 298.943C200.38 298.922 200.958 298.875 201.542 298.875C204.781 298.875 208.021 298.875 211.271 298.875C211.724 298.875 212.177 298.807 212.74 298.755C212.755 297.604 212.755 296.552 212.786 295.505C212.818 294.464 212.651 293.411 212.943 292.276C214.089 292.255 215.141 292.255 216.193 292.219C217.229 292.188 218.281 292.365 219.385 292.052C219.542 289.932 219.333 287.875 219.531 285.74C221.021 285.552 222.427 285.661 223.818 285.641C225.292 285.62 226.771 285.651 228.245 285.641C229.646 285.62 231.052 285.75 232.5 285.521C232.917 283.385 232.411 281.25 232.818 279.063C233.448 279.042 234.026 278.995 234.599 278.995C237.896 278.995 241.198 278.995 244.495 278.995C244.948 278.995 245.391 278.906 245.943 278.844C245.943 277.672 245.932 276.62 245.964 275.568C246 274.531 245.797 273.479 246.151 272.344C246.818 272.344 247.391 272.344 247.979 272.344C251.214 272.344 254.453 272.344 257.708 272.344C258.161 272.344 258.615 272.255 259.13 272.208C259.156 271.51 259.177 270.927 259.187 270.349C259.187 269.167 259.187 267.995 259.198 266.813C259.198 266.484 259.333 266.161 259.422 265.75C260.073 265.729 260.656 265.708 261.245 265.708C264.427 265.708 267.609 265.708 270.797 265.708C271.302 265.708 271.812 265.63 272.422 265.589C272.453 265.078 272.49 264.682 272.49 264.271C272.49 262.911 272.49 261.563 272.5 260.203C272.5 259.87 272.62 259.536 272.677 259.25C272.885 259.208 273.005 259.151 273.12 259.151C277.062 259.151 281.01 259.151 284.958 259.151C285.167 259.151 285.391 259.276 285.609 259.349C285.854 261.453 285.51 263.51 285.833 265.563C288.01 265.943 290.13 265.453 292.234 265.875C292.562 268.031 292.099 270.161 292.521 272.354C293.661 272.354 294.719 272.318 295.771 272.354C296.812 272.396 297.87 272.151 298.99 272.573C298.99 273.667 299 274.729 299 275.781C299 276.844 299 277.901 299 278.964C299 280.078 298.979 281.208 299 282.323C299.021 283.365 298.891 284.427 299.12 285.521C301.276 285.885 303.401 285.396 305.542 285.828C305.578 286.359 305.63 286.813 305.646 287.276C305.656 288.573 305.646 289.875 305.667 291.172C305.667 291.5 305.797 291.823 305.875 292.229C306.948 292.229 307.953 292.198 308.948 292.229C309.99 292.276 311.062 292.021 312.146 292.453C312.177 292.938 312.224 293.401 312.224 293.865C312.234 295.104 312.224 296.344 312.234 297.583C312.234 297.979 312.333 298.365 312.411 298.875C313.016 298.875 313.536 298.875 314.068 298.875C315.307 298.875 316.547 298.865 317.781 298.885C318.115 298.885 318.448 299.01 318.865 299.083C318.865 300.214 318.833 301.276 318.865 302.323C318.911 303.354 318.635 304.427 319.12 305.531C320.203 305.531 321.255 305.5 322.318 305.531C323.344 305.573 324.417 305.323 325.453 305.74C325.62 307.854 325.38 309.911 325.609 311.943C325.854 312.031 326.01 312.13 326.172 312.13C330.068 312.141 333.958 312.151 337.839 312.151C338.057 312.151 338.292 312.078 338.469 312.042C338.875 311.448 338.724 310.839 338.724 310.276C338.734 306.734 338.724 303.198 338.724 299.661C338.724 295.536 338.724 291.401 338.724 287.276C338.724 286.771 338.568 286.219 339.078 285.698C339.531 285.677 340.047 285.641 340.578 285.641C341.818 285.641 343.057 285.641 344.297 285.63C344.615 285.63 344.948 285.5 345.354 285.396V283.385C345.354 275.958 345.354 268.526 345.354 261.099C345.354 260.479 345.156 259.802 345.698 259.109C346.141 259.109 346.672 259.109 347.193 259.109C348.375 259.109 349.547 259.12 350.729 259.109C351.125 259.109 351.516 258.984 352 258.906C352 258.177 352 257.536 352 256.896C352 249.589 352 242.271 352 234.964C352 232.365 352 229.776 352 227.177C352 226.792 352.109 226.406 352.177 226.016C354.323 225.797 356.38 226.104 358.422 225.828C358.734 225.146 358.625 224.49 358.625 223.849C358.625 218.599 358.625 213.359 358.635 208.109C358.635 207.479 358.521 206.823 358.823 206.141C359.318 206.104 359.771 206.063 360.24 206.063C361.531 206.052 362.833 206.063 364.13 206.042C364.448 206.042 364.781 205.906 365.203 205.818C365.203 204.745 365.203 203.75 365.224 202.755C365.245 201.708 365.125 200.656 365.333 199.542C366.448 199.307 367.5 199.464 368.552 199.417C369.589 199.375 370.651 199.516 371.745 199.297C371.969 198.167 371.823 197.12 371.87 196.068C371.911 195.026 371.766 193.969 371.99 192.859C373.115 192.651 374.177 192.797 375.219 192.75C376.255 192.708 377.318 192.859 378.422 192.63C378.677 190.464 378.344 188.349 378.635 186.229C380.812 185.906 382.932 186.349 385.099 185.917C385.266 183.807 385.036 181.75 385.255 179.641C386.396 179.464 387.458 179.552 388.495 179.542C389.557 179.526 390.62 179.542 391.677 179.542C392.797 179.542 393.922 179.552 395.042 179.542C396.089 179.516 397.141 179.641 398.255 179.427C398.589 177.271 398.182 175.151 398.5 173.016C399.62 172.797 400.677 172.938 401.719 172.896C402.755 172.849 403.818 172.995 404.922 172.771C405.135 171.646 404.99 170.583 405.036 169.547C405.078 168.505 404.937 167.443 405.156 166.328C407.312 166.073 409.437 166.406 411.557 166.104C411.88 163.927 411.437 161.807 411.854 159.651C412.521 159.63 413.094 159.583 413.682 159.583C416.865 159.583 420.047 159.583 423.234 159.583C423.74 159.583 424.25 159.505 424.87 159.453C424.88 158.344 424.88 157.349 424.901 156.354C424.922 155.307 424.802 154.255 425.01 153.125C425.542 153.083 425.995 153.005 426.448 153.005C427.807 152.984 429.156 153.005 430.521 152.984C430.839 152.984 431.161 152.828 431.557 152.729C431.557 151.656 431.547 150.651 431.557 149.656C431.578 148.615 431.458 147.557 431.667 146.438C432.807 146.297 433.859 146.385 434.906 146.349C435.948 146.318 436.995 146.474 438.078 146.229C438.302 145.089 438.156 144.026 438.203 142.979C438.245 141.938 438.068 140.875 438.37 139.76C438.844 139.74 439.25 139.703 439.651 139.703C441.01 139.703 442.359 139.703 443.719 139.693C444.052 139.693 444.37 139.573 444.714 139.495C444.911 137.375 444.615 135.307 444.901 133.292C445.552 132.938 446.151 133.063 446.724 133.063C449.964 133.052 453.203 133.063 456.453 133.052C456.964 133.052 457.516 133.203 458.047 132.719C458.224 130.75 457.969 128.693 458.193 126.615C460.37 126.271 462.49 126.724 464.536 126.328C464.859 124.583 464.823 121.167 464.448 119.839H462.203C430.849 119.839 399.505 119.839 368.151 119.839C367.568 119.839 366.969 119.849 366.385 119.839C366.052 119.828 365.719 119.75 365.302 119.682C365.276 118.943 365.245 118.302 365.245 117.661C365.245 112.406 365.245 107.167 365.234 101.917C365.234 101.297 365.432 100.625 364.948 100.026C362.911 99.8281 360.854 100.125 358.865 99.849C358.547 99.0313 358.667 98.3229 358.667 97.6146C358.667 81.5729 358.667 65.5417 358.667 49.5C358.667 48.9688 358.677 48.4427 358.656 47.9115C358.646 47.6198 358.568 47.3438 358.51 47.0261C356.38 46.625 354.245 47.1354 352.057 46.6927C352.047 46.0104 352.021 45.3646 352.021 44.724C352.021 39.474 352.021 34.2344 352.021 28.9844C352.021 28.3542 352.12 27.6979 351.88 27.125C350.141 26.8125 346.75 26.849 345.422 27.2031C345.401 27.7448 345.365 28.3281 345.365 28.9063C345.365 32.2084 345.365 35.5052 345.365 38.8125C345.365 39.2656 345.5 39.7604 345.026 40.1719C343.036 40.3802 340.979 40.0625 338.875 40.3594C338.49 42.4896 338.979 44.6146 338.568 46.7709C338.057 46.8125 337.594 46.8698 337.141 46.8802C335.849 46.8906 334.542 46.8802 333.25 46.9011C332.917 46.9011 332.589 47.0261 332.156 47.1042C332.156 48.1771 332.187 49.1719 332.156 50.1667C332.109 51.2031 332.344 52.2761 331.969 53.3386C329.854 53.7031 327.734 53.2188 325.646 53.6354C325.312 55.8021 325.776 57.9271 325.354 60.1146C324.219 60.1146 323.156 60.0834 322.104 60.1146C321.068 60.1615 320.005 59.9167 318.891 60.3386C318.891 61.4323 318.901 62.4896 318.865 63.5417C318.833 64.5834 319.031 65.6302 318.698 66.6823C316.557 66.9271 314.5 66.6042 312.333 66.8906C312.068 69.0052 312.422 71.125 312.099 73.2813C311.646 73.3386 311.25 73.4167 310.839 73.4167C309.479 73.4375 308.13 73.4167 306.771 73.4375C306.437 73.4375 306.109 73.5365 305.708 73.5938C305.687 74.2656 305.656 74.8438 305.646 75.4271C305.646 78.6094 305.646 81.7969 305.646 84.9792C305.646 85.5 305.776 86.0417 305.38 86.5469C303.333 86.8594 301.208 86.4063 299.12 86.8021C298.833 88.9792 299.245 91.1042 298.854 93.2917C297.693 93.2917 296.646 93.2813 295.594 93.3177C294.557 93.349 293.505 93.1511 292.453 93.4688C292.208 95.6146 292.531 97.6823 292.245 99.849C290.13 100.115 288.01 99.7604 285.865 100.083C285.807 100.536 285.734 100.932 285.734 101.333C285.708 102.693 285.734 104.042 285.708 105.401C285.708 105.729 285.609 106.063 285.557 106.427C283.432 106.693 281.365 106.328 279.297 106.672C278.88 108.802 279.406 110.938 278.979 113.052C276.844 113.38 274.719 112.938 272.609 113.328C272.297 115.484 272.719 117.604 272.333 119.771C270.552 119.88 268.859 119.818 267.156 119.828C265.443 119.828 263.745 119.828 262.031 119.828H190.078C188.365 119.828 186.661 119.807 184.948 119.828C183.255 119.849 181.552 119.703 179.885 119.927C179.552 121.385 179.552 124.88 179.906 126.349C180.901 126.583 181.964 126.417 183 126.458C184.042 126.505 185.094 126.349 186.219 126.594C186.385 128.714 186.151 130.771 186.375 132.896C186.839 132.948 187.234 133.026 187.635 133.026C188.995 133.052 190.344 133.026 191.703 133.052C192.089 133.052 192.479 133.172 192.953 133.26C192.953 133.948 192.953 134.531 192.953 135.12C192.953 138.354 192.953 141.609 192.953 144.849C192.953 145.302 193.031 145.755 193.083 146.318C194.234 146.328 195.286 146.318 196.333 146.359C197.375 146.396 198.427 146.219 199.51 146.516C199.542 147.078 199.573 147.542 199.583 148.01C199.583 149.302 199.583 150.604 199.599 151.901C199.599 152.229 199.708 152.552 199.786 152.974C200.88 152.984 201.875 152.974 202.87 153.016C203.906 153.052 204.969 152.906 206.073 153.151C206.109 153.693 206.151 154.156 206.161 154.62C206.177 155.911 206.161 157.219 206.187 158.51C206.187 158.844 206.318 159.161 206.396 159.505C208.521 159.75 210.589 159.427 212.74 159.729C212.776 160.37 212.818 160.943 212.818 161.521C212.818 164.823 212.818 168.12 212.818 171.422C212.818 171.88 212.906 172.318 212.964 172.807C215.151 173.104 217.266 172.682 219.396 173.073C219.432 173.448 219.474 173.734 219.474 174.021C219.474 179.917 219.474 185.818 219.474 191.714C219.474 192.042 219.354 192.375 219.266 192.786C217.484 192.786 215.781 192.771 214.068 192.786C213.682 192.786 213.297 192.906 212.818 192.984C212.818 193.667 212.818 194.255 212.818 194.839C212.818 196.026 212.828 197.198 212.807 198.38C212.807 198.708 212.687 199.031 212.609 199.365C210.474 199.583 208.422 199.276 206.266 199.573C206.031 201.708 206.339 203.818 206.062 205.964C205.5 206.005 205.036 206.063 204.583 206.073C203.292 206.083 201.984 206.073 200.693 206.094C200.359 206.094 200.026 206.219 199.698 206.281C199.453 208.406 199.786 210.474 199.484 212.521C197.307 212.896 195.177 212.417 192.984 212.849C192.984 213.979 193.005 215.026 192.964 216.089C192.917 217.13 193.172 218.193 192.729 219.318C191.656 219.318 190.599 219.286 189.547 219.318C188.51 219.365 187.448 219.12 186.318 219.552V225.927C186.318 227.047 186.339 228.172 186.318 229.292C186.297 230.328 186.427 231.391 186.198 232.521C184.042 232.786 181.932 232.406 179.786 232.75C179.75 233.302 179.698 233.766 179.687 234.234C179.672 235.526 179.687 236.828 179.661 238.125C179.661 238.453 179.531 238.776 179.443 239.188C178.37 239.188 177.365 239.151 176.37 239.188C175.328 239.229 174.255 238.974 173.172 239.406C173.141 239.891 173.094 240.359 173.094 240.823C173.083 242.057 173.094 243.297 173.083 244.536C173.083 244.932 172.974 245.323 172.906 245.828C172.302 245.828 171.771 245.828 171.25 245.828C170.01 245.828 168.771 245.818 167.536 245.839C167.203 245.839 166.87 245.964 166.453 246.042C166.453 247.167 166.484 248.229 166.453 249.281C166.406 250.307 166.682 251.38 166.198 252.484C165.115 252.484 164.062 252.453 163 252.484C161.974 252.531 160.901 252.266 159.885 252.693C159.661 254.807 159.974 256.875 159.687 258.964C157.562 259.375 155.427 258.854 153.286 259.286C153.24 259.792 153.182 260.245 153.172 260.708C153.161 262.005 153.172 263.307 153.151 264.604C153.151 264.932 153.042 265.266 152.974 265.609C150.854 265.865 148.786 265.51 146.729 265.828C146.344 267.995 146.839 270.13 146.417 272.219C144.26 272.552 142.141 272.089 140.042 272.495C139.74 274.672 140.172 276.797 139.786 278.885C137.594 279.208 135.474 278.755 133.339 279.172C133.318 279.849 133.286 280.422 133.286 281.01C133.286 284.25 133.286 287.5 133.286 290.74C133.286 291.193 133.208 291.646 133.151 292.167C132.469 292.188 131.88 292.219 131.297 292.219C130.109 292.219 128.937 292.219 127.755 292.229C127.427 292.229 127.094 292.365 126.708 292.443C126.682 293.036 126.651 293.568 126.641 294.089C126.641 295.328 126.641 296.563 126.62 297.802C126.62 298.135 126.495 298.453 126.406 298.865C125.323 298.865 124.328 298.833 123.333 298.865C122.297 298.896 121.234 298.677 120.172 299.042C119.854 301.177 120.271 303.297 119.906 305.396C117.729 305.719 115.604 305.276 113.505 305.672C113.25 307.807 113.583 309.875 113.297 312.01C112.807 312.063 112.354 312.141 111.901 312.141C110.542 312.167 109.193 312.141 107.833 312.167C107.5 312.167 107.182 312.286 106.75 312.365C106.75 313.448 106.771 314.443 106.75 315.438C106.729 316.474 106.87 317.536 106.62 318.677C105.49 318.698 104.437 318.688 103.391 318.729C102.349 318.776 101.286 318.552 100.219 318.917C100.182 319.464 100.13 319.927 100.115 320.391C100.104 321.682 100.115 322.99 100.104 324.281C100.104 324.615 100.005 324.943 99.9427 325.286C97.8073 325.542 95.75 325.188 93.6718 325.521C93.3073 327.667 93.7708 329.797 93.375 331.932C91.2395 332.219 89.1145 331.844 86.9948 332.177C86.7083 334.344 87.125 336.464 86.7291 338.578C84.552 338.896 82.427 338.443 80.2916 338.865C80.2708 339.536 80.2395 340.125 80.2395 340.698C80.2395 343.938 80.2395 347.188 80.2395 350.427C80.2395 350.88 80.151 351.323 80.1041 351.813C77.927 352.099 75.8073 351.677 73.7291 352.063C73.3645 354.255 73.8802 356.385 73.4062 358.5C71.2812 358.698 69.2291 358.422 67.1145 358.677C66.8489 360.844 67.2239 362.964 66.875 365.078C64.6927 365.432 62.5729 364.969 60.4062 365.385C60.4062 366.469 60.4062 367.464 60.3698 368.448C60.3489 369.5 60.4687 370.552 60.2708 371.635C58.1041 372.01 55.9739 371.547 53.7916 371.943C53.7708 372.573 53.7395 373.146 53.7135 373.724C53.6718 375.25 53.6406 376.786 53.6145 378.323C52.0885 378.354 50.5677 378.391 49.0416 378.432C48.4635 378.443 47.8906 378.479 47.2708 378.5C46.927 379.625 47.0833 380.688 47.0937 381.729C47.1041 382.813 46.8489 383.938 47.3593 385.078C49.427 385.078 51.4739 385.177 53.5937 385.01C53.6406 384.578 53.7135 384.25 53.7031 383.906C53.6614 382.026 53.6041 380.146 53.5625 378.266L53.4531 378.255ZM414.984 146.297C416.047 146.271 417.109 146.297 418.167 146.297C419.286 146.297 420.411 146.307 421.531 146.297C422.578 146.281 423.63 146.37 424.771 146.208C424.812 145.729 424.87 145.333 424.88 144.948C424.891 143.531 424.88 142.115 424.901 140.703C424.901 140.37 425.036 140.047 425.125 139.641C426.901 139.641 428.604 139.651 430.318 139.641C430.708 139.641 431.083 139.516 431.437 139.453C431.646 137.063 431.589 134.453 431.312 133.125C430.609 132.906 429.833 133.005 429.083 133.005C404.328 133.005 379.583 133.005 354.833 133.005C354.245 133.005 353.646 133.026 353.062 132.995C352.729 132.974 352.411 132.885 351.979 132.797V130.604C351.979 116.807 351.979 103.01 351.979 89.2136C351.979 88.6823 352 88.1511 351.969 87.6198C351.943 87.2917 351.823 86.9688 351.734 86.5729C349.953 86.5729 348.24 86.5834 346.536 86.5729C346.151 86.5729 345.776 86.4375 345.323 86.3594V64.5052C345.323 62.6823 345.344 60.8438 345.323 59.0209C345.292 57.2084 345.479 55.3959 345.214 53.6146C343.5 53.2813 340.073 53.3177 338.802 53.6823C338.479 55.7136 338.932 57.849 338.526 59.9584C336.391 60.1719 334.333 59.8854 332.208 60.1459C331.932 62.3177 332.312 64.4375 331.958 66.5938C330.849 66.7917 329.802 66.6615 328.75 66.7031C327.714 66.75 326.651 66.5938 325.5 66.8386C325.49 67.974 325.49 69.0261 325.453 70.0677C325.422 71.1042 325.589 72.1563 325.312 73.2917C324.161 73.3177 323.109 73.3177 322.073 73.349C321.031 73.3802 319.984 73.2031 318.875 73.5156C318.854 74.1771 318.812 74.7656 318.812 75.3386C318.812 78.5781 318.812 81.8281 318.812 85.0677C318.812 85.5209 318.734 85.974 318.687 86.474C316.51 86.7604 314.401 86.3386 312.286 86.724C311.979 88.9063 312.422 91.0261 312 93.2031C310.917 93.2031 309.922 93.2031 308.937 93.2396C307.901 93.2604 306.839 93.1406 305.734 93.3386C305.401 95.4948 305.833 97.6146 305.453 99.7604C304.328 99.9688 303.276 99.8386 302.229 99.8802C301.187 99.9271 300.135 99.75 299.031 100.036C298.854 102.172 299.099 104.219 298.875 106.339C298.333 106.385 297.88 106.458 297.417 106.458C296.057 106.484 294.708 106.458 293.349 106.484C293.031 106.484 292.708 106.625 292.297 106.724C292.297 107.797 292.312 108.802 292.297 109.802C292.276 110.839 292.401 111.901 292.198 113.005C291.062 113.182 290.01 113.063 288.958 113.104C287.922 113.151 286.87 112.984 285.766 113.24C285.479 115.417 285.844 117.526 285.521 119.703C285.016 119.729 284.615 119.771 284.219 119.771C282.859 119.771 281.51 119.771 280.151 119.781C279.818 119.781 279.495 119.906 279.078 119.995C279.078 121.068 279.099 122.073 279.078 123.068C279.052 124.104 279.198 125.167 278.932 126.297C277.828 126.505 276.776 126.385 275.74 126.417C274.698 126.458 273.635 126.307 272.51 126.547C272.49 127.036 272.453 127.432 272.443 127.833C272.443 129.193 272.443 130.542 272.432 131.901C272.432 132.234 272.312 132.563 272.224 132.995H269.865C249.536 132.995 229.203 132.995 208.875 132.995C208.344 132.995 207.812 132.984 207.281 132.995C206.948 133.005 206.604 133.083 206.24 133.141C206.187 133.458 206.099 133.682 206.099 133.901C206.099 137.74 206.099 141.563 206.099 145.401C206.099 145.667 206.24 145.943 206.339 146.297C206.984 146.297 207.568 146.297 208.156 146.297C209.339 146.297 210.51 146.281 211.693 146.307C212.021 146.307 212.344 146.438 212.651 146.505C212.865 148.641 212.552 150.693 212.854 152.807C215.01 153.151 217.13 152.719 219.276 153.083C219.474 154.198 219.354 155.26 219.375 156.302C219.396 157.359 219.375 158.422 219.375 159.484C219.375 160.599 219.365 161.729 219.375 162.844C219.385 163.896 219.286 164.948 219.474 166.073C220.604 166.229 221.651 166.13 222.703 166.172C223.745 166.208 224.802 166.052 225.896 166.307C226.208 168.474 225.807 170.594 226.161 172.75C226.651 172.786 227.047 172.828 227.448 172.828C228.807 172.828 230.156 172.828 231.516 172.839C231.844 172.839 232.177 172.964 232.589 173.036C232.589 179.365 232.589 185.609 232.589 191.854C232.589 192.078 232.51 192.297 232.453 192.609C232.01 192.641 231.615 192.698 231.219 192.698C229.854 192.708 228.505 192.698 227.146 192.708C226.818 192.708 226.484 192.818 226.141 192.875C225.812 195.026 226.286 197.161 225.833 199.349C225.214 199.349 224.693 199.349 224.172 199.349C222.937 199.349 221.698 199.349 220.458 199.365C220.125 199.365 219.797 199.474 219.464 199.542C219.245 201.672 219.552 203.729 219.266 205.865C218.755 205.906 218.302 205.984 217.839 205.995C216.479 206.016 215.13 205.995 213.771 206.016C213.448 206.016 213.12 206.151 212.786 206.229C212.568 208.359 212.906 210.417 212.578 212.505C211.948 212.531 211.427 212.573 210.906 212.573C209.667 212.573 208.432 212.573 207.193 212.583C206.859 212.583 206.531 212.708 206.141 212.797C206.12 213.391 206.073 213.922 206.073 214.443C206.073 215.682 206.073 216.917 206.062 218.156C206.062 218.49 205.943 218.807 205.854 219.219C204.771 219.219 203.776 219.188 202.781 219.219C201.74 219.25 200.682 219.042 199.62 219.385C199.286 221.516 199.719 223.641 199.344 225.75C198.193 225.964 197.13 225.818 196.083 225.875C195.042 225.927 193.99 225.729 192.896 226.042C192.875 226.714 192.844 227.292 192.844 227.875C192.844 231.115 192.844 234.365 192.844 237.604C192.844 238.057 192.766 238.51 192.719 238.974C190.531 239.328 188.396 238.854 186.297 239.276C185.99 241.443 186.427 243.563 186.031 245.661C183.885 245.896 181.828 245.589 179.698 245.865C179.651 246.359 179.562 246.813 179.562 247.266C179.542 248.625 179.562 249.974 179.542 251.333C179.542 251.667 179.422 251.99 179.333 252.406C178.25 252.406 177.255 252.385 176.26 252.406C175.219 252.443 174.156 252.276 173.031 252.563C173.021 253.693 173.031 254.74 172.974 255.792C172.932 256.828 173.172 257.891 172.755 258.964C172.234 258.995 171.771 259.052 171.318 259.052C170.021 259.063 168.719 259.052 167.422 259.063C167.094 259.063 166.771 259.172 166.339 259.25C166.339 260.333 166.365 261.328 166.339 262.323C166.307 263.365 166.484 264.427 166.198 265.5C164.052 265.865 161.917 265.385 159.797 265.797C159.474 267.943 159.906 270.063 159.531 272.177C157.365 272.464 155.25 272.042 153.151 272.443C152.807 274.62 153.297 276.74 152.844 278.875C150.719 279.052 148.661 278.818 146.562 279.021C146.255 281.208 146.693 283.333 146.276 285.484C144.13 285.776 142.005 285.354 139.875 285.74C139.849 286.417 139.807 287 139.807 287.578C139.807 290.818 139.807 294.068 139.807 297.307C139.807 297.76 139.729 298.214 139.677 298.688C137.495 299.01 135.375 298.568 133.25 298.964C132.964 301.13 133.359 303.245 133.01 305.365C130.828 305.641 128.719 305.234 126.583 305.63C126.396 307.776 126.63 309.844 126.432 311.953C125.953 312.01 125.557 312.099 125.156 312.109C123.797 312.13 122.448 312.109 121.089 312.13C120.76 312.13 120.417 312.208 120.026 312.255C119.766 314.375 120.083 316.443 119.828 318.521C117.682 318.943 115.552 318.464 113.417 318.833C113.073 320.964 113.505 323.089 113.161 325.234C112.036 325.422 110.984 325.297 109.932 325.333C108.896 325.375 107.833 325.219 106.839 325.432C106.573 326.932 106.552 336.818 106.818 338.521C107.812 338.729 108.875 338.609 109.911 338.63C111.031 338.656 112.156 338.63 113.271 338.63C114.333 338.63 115.396 338.656 116.458 338.63C117.552 338.609 118.667 338.745 119.818 338.5C120.026 337.349 119.896 336.286 119.937 335.25C119.984 334.208 119.807 333.161 120.094 332.063C120.771 332.042 121.354 332 121.932 332C125.172 332 128.406 332 131.646 332C132.099 332 132.552 331.922 133.042 331.875C133.349 329.698 132.932 327.578 133.318 325.385C134.443 325.375 135.495 325.385 136.547 325.344C137.583 325.307 138.635 325.474 139.776 325.188C139.786 324.047 139.776 323 139.818 321.948C139.849 320.911 139.677 319.859 139.974 318.766C140.656 318.745 141.245 318.698 141.818 318.698C145.005 318.698 148.187 318.698 151.359 318.698C151.87 318.698 152.422 318.833 152.964 318.391C153.161 316.422 152.865 314.354 153.13 312.385C153.771 311.99 154.37 312.13 154.943 312.13C158.182 312.12 161.422 312.13 164.661 312.12C165.182 312.12 165.734 312.255 166.229 311.823C166.516 309.786 166.078 307.667 166.495 305.484C167.182 305.484 167.766 305.484 168.344 305.484C171.583 305.484 174.823 305.484 178.062 305.484C178.516 305.484 178.969 305.396 179.411 305.354C179.74 303.141 179.276 301.01 179.719 298.818C181.927 298.818 184.052 298.844 186.161 298.818C188.318 298.797 190.5 298.943 192.74 298.708C192.995 296.542 192.62 294.432 192.974 292.297C195.13 291.974 197.255 292.432 199.432 291.99C199.443 290.927 199.453 289.932 199.474 288.938C199.495 287.885 199.385 286.833 199.583 285.688C201.057 285.531 202.458 285.62 203.865 285.609C205.333 285.599 206.818 285.609 208.286 285.609C209.693 285.599 211.094 285.677 212.578 285.531C212.896 283.344 212.51 281.229 212.818 279.052C213.474 279.021 214.047 278.974 214.62 278.974C217.917 278.974 221.224 278.974 224.516 278.974C224.958 278.974 225.411 278.885 225.865 278.833C226.208 276.641 225.724 274.51 226.187 272.385C226.859 272.365 227.448 272.328 228.021 272.328C231.26 272.328 234.5 272.328 237.74 272.328C238.193 272.328 238.635 272.24 239.177 272.188C239.187 271.38 239.208 270.682 239.208 269.984C239.208 269.281 239.187 268.573 239.208 267.865C239.245 267.177 239.057 266.458 239.474 265.729C240.901 265.651 242.307 265.698 243.708 265.698C245.177 265.698 246.661 265.719 248.13 265.698C249.526 265.661 250.937 265.865 252.401 265.531C252.432 265.021 252.5 264.557 252.5 264.104C252.51 262.813 252.5 261.505 252.521 260.214C252.521 259.88 252.641 259.552 252.708 259.219C254.833 258.984 256.901 259.307 258.943 259.021C259.318 256.828 258.844 254.698 259.266 252.521C259.927 252.521 260.505 252.495 261.089 252.495C264.385 252.495 267.687 252.495 270.984 252.495C271.437 252.495 271.932 252.62 272.385 252.068C272.385 250.474 272.375 248.76 272.385 247.057C272.385 246.672 272.521 246.292 272.578 245.943C275.26 245.719 284.073 245.797 285.479 246.052C285.51 246.469 285.589 246.922 285.599 247.391C285.62 248.75 285.599 250.099 285.62 251.458C285.62 251.776 285.766 252.109 285.865 252.505C286.937 252.505 287.932 252.495 288.937 252.505C289.979 252.531 291.036 252.417 292.167 252.609C292.401 254.776 292.068 256.885 292.375 259.042C294.542 259.328 296.667 258.964 298.833 259.286C298.865 259.781 298.901 260.193 298.901 260.589C298.901 261.948 298.901 263.297 298.911 264.656C298.911 264.99 299.031 265.323 299.12 265.729C299.786 265.729 300.37 265.729 300.958 265.729C302.141 265.729 303.312 265.719 304.495 265.74C304.812 265.74 305.146 265.896 305.557 266.005C305.557 266.656 305.557 267.245 305.557 267.828C305.557 271.016 305.557 274.198 305.557 277.38C305.557 277.891 305.401 278.443 305.922 279.01C306.818 279.01 307.812 279.01 308.797 279.042C309.833 279.063 310.896 278.943 311.99 279.151C312.323 281.307 311.891 283.432 312.276 285.599C314.432 285.865 316.547 285.484 318.687 285.828C318.865 287.964 318.625 290.021 318.854 292.167C320.391 292.354 321.865 292.24 323.312 292.255C324.724 292.276 326.141 292.286 327.557 292.255C329.005 292.208 330.464 292.443 331.979 292.078C332.01 291.589 332.047 291.193 332.057 290.781C332.057 289.599 332.057 288.427 332.057 287.245C332.057 280.755 332.057 274.276 332.057 267.786C332.057 267.156 331.922 266.505 332.286 265.828C332.74 265.797 333.203 265.74 333.672 265.74C334.964 265.729 336.266 265.74 337.562 265.719C337.891 265.719 338.214 265.589 338.635 265.51C338.635 264.724 338.635 264.026 338.635 263.318C338.635 253.823 338.635 244.339 338.635 234.839C338.635 234.156 338.469 233.427 338.891 232.708C339.328 232.682 339.797 232.63 340.26 232.63C341.5 232.62 342.734 232.63 343.974 232.62C344.37 232.62 344.76 232.521 345.266 232.443V230.427C345.266 223 345.266 215.568 345.266 208.141C345.266 207.51 345.115 206.849 345.531 206.13C346.536 206.12 347.599 206.13 348.641 206.073C349.677 206.031 350.75 206.25 351.854 205.865C351.88 205.255 351.911 204.667 351.911 204.094C351.911 200.786 351.911 197.495 351.911 194.188C351.911 193.734 351.781 193.24 352.333 192.771C352.797 192.771 353.38 192.771 353.958 192.771C357.198 192.771 360.437 192.771 363.677 192.771C364.13 192.771 364.625 192.885 365.115 192.385C365.115 191.911 365.115 191.323 365.115 190.74C365.115 189.557 365.099 188.385 365.125 187.203C365.125 186.87 365.276 186.547 365.38 186.13C366.437 186.13 367.443 186.151 368.443 186.13C369.479 186.104 370.542 186.24 371.667 186.005C371.703 185.531 371.745 185.135 371.745 184.734C371.745 183.375 371.745 182.026 371.755 180.667C371.755 180.333 371.87 180.005 371.958 179.563C372.542 179.563 373.073 179.563 373.594 179.563C374.776 179.563 375.948 179.573 377.13 179.563C377.526 179.563 377.917 179.438 378.401 179.365C378.401 178.688 378.401 178.104 378.401 177.516C378.401 176.333 378.391 175.161 378.411 173.979C378.411 173.646 378.536 173.328 378.625 172.917C379.286 172.917 379.87 172.917 380.458 172.917C383.698 172.917 386.937 172.917 390.177 172.917C390.63 172.917 391.125 173.052 391.625 172.495C391.625 172.109 391.625 171.578 391.625 171.057C391.625 169.875 391.615 168.703 391.625 167.521C391.625 167.135 391.745 166.75 391.823 166.26C392.5 166.26 393.083 166.26 393.672 166.26C394.854 166.26 396.026 166.271 397.208 166.25C397.542 166.25 397.859 166.12 398.182 166.052C398.391 163.917 398.094 161.859 398.38 159.719C400.536 159.438 402.646 159.818 404.812 159.464C404.849 159 404.901 158.599 404.901 158.203C404.911 156.844 404.901 155.495 404.911 154.135C404.911 153.802 405.026 153.469 405.099 153.026C405.755 153.026 406.339 153.026 406.927 153.026C408.109 153.026 409.281 153.036 410.464 153.016C410.797 153.016 411.115 152.875 411.448 152.797C411.703 150.672 411.38 148.615 411.667 146.495C412.776 146.297 413.823 146.406 414.875 146.396L414.984 146.297Z" fill="#E9F7FC"/>
<path d="M497.693 119.781H491.437C491.026 120.854 491.271 121.917 491.224 122.943C491.182 123.995 491.26 125.057 491.161 126.182C490.75 126.26 490.427 126.385 490.099 126.396C488.859 126.417 487.62 126.396 486.385 126.406C485.865 126.406 485.344 126.448 484.76 126.474C484.427 127.557 484.625 128.615 484.594 129.656C484.557 130.651 484.594 131.646 484.594 132.542C484.073 133.125 483.51 132.964 483 132.974C479.76 132.984 476.521 132.974 473.271 132.984C472.698 132.984 472.12 133.026 471.469 133.063C471.047 135.229 471.49 137.349 471.161 139.516C469.083 139.781 467.026 139.495 464.891 139.703C464.448 141.818 464.901 143.938 464.594 146.12C462.49 146.547 460.38 146.083 458.214 146.406C457.839 148.505 458.245 150.62 457.969 152.75C456.521 153.104 455.104 152.896 453.714 152.927C452.245 152.964 450.771 152.927 449.292 152.927C447.885 152.927 446.474 152.948 444.99 152.948C444.901 153.359 444.781 153.693 444.771 154.01C444.745 155.307 444.771 156.609 444.745 157.901C444.745 158.354 444.693 158.823 444.656 159.375C443.542 159.615 442.49 159.474 441.453 159.505C440.458 159.542 439.464 159.526 438.37 159.552C438.292 159.969 438.193 160.292 438.182 160.625C438.156 161.917 438.182 163.219 438.167 164.516C438.167 164.979 438.125 165.443 438.094 166.005C437.01 166.307 435.948 166.12 434.906 166.161C433.859 166.193 432.807 166.193 431.667 166.208C431.401 167.344 431.557 168.406 431.526 169.448C431.49 170.495 431.49 171.547 431.479 172.682C429.292 173.036 427.167 172.651 425.01 172.938C424.635 175.063 425.078 177.182 424.734 179.318C423.297 179.604 421.885 179.438 420.49 179.464C419.021 179.495 417.536 179.464 416.068 179.464C414.667 179.474 413.26 179.406 411.781 179.526C411.526 180.656 411.677 181.719 411.646 182.755C411.615 183.75 411.625 184.745 411.604 185.844C411.182 185.917 410.859 186.016 410.531 186.031C409.234 186.052 407.932 186.031 406.635 186.042C406.172 186.042 405.708 186.083 405.146 186.12C404.849 187.203 405.026 188.26 404.99 189.302C404.958 190.354 404.958 191.401 404.948 192.542C403.807 192.818 402.745 192.651 401.708 192.682C400.656 192.719 399.604 192.719 398.479 192.729C398.115 194.917 398.51 197.042 398.214 199.219C397.714 199.26 397.26 199.339 396.807 199.339C393.568 199.339 390.328 199.339 387.078 199.339C386.505 199.339 385.922 199.385 385.245 199.406C384.969 200.5 385.146 201.563 385.099 202.604C385.057 203.651 385.203 204.703 384.979 205.828C382.833 206.208 380.714 205.786 378.557 206.104C378.359 207.214 378.479 208.271 378.458 209.313C378.432 210.307 378.432 211.292 378.422 212.385C376.245 212.786 374.125 212.354 372.047 212.651C371.646 213.224 371.802 213.833 371.802 214.411C371.792 219.714 371.802 225.021 371.802 230.328C371.802 230.969 371.781 231.615 371.766 232.328C371.281 232.396 370.885 232.484 370.484 232.495C369.25 232.521 368.01 232.495 366.771 232.505C366.307 232.505 365.844 232.563 365.422 232.583C364.99 233.26 365.156 233.922 365.156 234.552C365.146 241.099 365.156 247.641 365.156 254.188C365.156 257.318 365.156 260.432 365.156 263.563V265.385C364.724 265.474 364.406 265.589 364.073 265.589C362.781 265.609 361.474 265.589 360.182 265.609C359.719 265.609 359.266 265.677 358.833 265.708C358.437 266.396 358.578 267.057 358.578 267.688C358.568 275.115 358.578 282.547 358.578 289.974C358.578 290.615 358.547 291.245 358.521 291.953C357.406 292.286 356.344 292.089 355.307 292.141C354.255 292.198 353.203 292.042 352.146 292.255C351.844 292.938 351.958 293.589 351.958 294.219C351.958 302.411 351.958 310.615 351.958 318.807C351.958 320.521 351.958 322.224 351.958 323.938C351.958 324.339 351.901 324.734 351.87 325.245C349.687 325.464 347.578 325.188 345.422 325.411C345.203 327.688 345.344 329.854 345.312 332.021C345.292 334.141 345.312 336.255 345.312 338.411C344.927 338.5 344.646 338.609 344.359 338.609C340.589 338.62 336.823 338.609 333.052 338.609C332.818 338.609 332.599 338.552 332.276 338.51C331.823 336.411 332.323 334.286 331.969 332.12C330.906 331.844 329.844 332.021 328.807 331.974C327.755 331.932 326.703 332.031 325.578 331.885C325.344 330.771 325.49 329.708 325.453 328.672C325.422 327.62 325.51 326.568 325.354 325.432C324.24 325.198 323.187 325.344 322.141 325.307C321.089 325.276 320.036 325.365 318.901 325.219C318.635 323.052 318.932 320.943 318.714 318.807C316.531 318.432 314.401 318.906 312.255 318.49C311.99 316.401 312.312 314.344 312.047 312.219C311.656 312.177 311.318 312.099 310.984 312.099C309.625 312.089 308.276 312.099 306.917 312.078C306.516 312.078 306.12 311.99 305.677 311.932C305.432 309.823 305.687 307.755 305.5 305.609C303.354 305.219 301.245 305.63 299.078 305.344C298.802 304.271 298.964 303.208 298.932 302.172C298.901 301.12 298.901 300.068 298.891 298.943C296.698 298.542 294.578 298.974 292.422 298.667C292.036 296.552 292.474 294.432 292.146 292.286C290.031 291.854 287.901 292.385 285.766 291.964C285.422 289.896 285.797 287.828 285.521 285.708C285.156 285.651 284.828 285.563 284.495 285.552C283.135 285.531 281.786 285.552 280.427 285.531C280.026 285.531 279.63 285.443 279.198 285.396C278.802 283.255 279.307 281.12 278.891 279.063C277.328 278.818 267.401 278.833 265.875 279.073C265.521 281.12 265.964 283.245 265.62 285.385C264.182 285.661 262.771 285.5 261.375 285.521C259.906 285.542 258.427 285.521 256.953 285.521C255.552 285.521 254.146 285.464 252.667 285.589C252.365 287.719 252.677 289.776 252.453 291.911C250.344 292.328 248.219 291.911 246.042 292.198C245.677 294.323 246.062 296.432 245.797 298.62C245.292 298.667 244.839 298.745 244.385 298.745C241.146 298.745 237.906 298.745 234.656 298.745C234.068 298.745 233.484 298.745 232.807 298.745C232.729 299.219 232.609 299.604 232.599 299.99C232.578 301.177 232.599 302.349 232.589 303.531C232.589 304.063 232.589 304.578 232.589 304.969C232.099 305.531 231.604 305.396 231.151 305.396C227.911 305.411 224.672 305.396 221.422 305.396C220.833 305.396 220.25 305.396 219.583 305.396C219.51 305.797 219.385 306.13 219.375 306.458C219.354 307.641 219.365 308.813 219.365 310C219.365 310.583 219.365 311.172 219.365 311.646C218.812 312.167 218.26 312.031 217.74 312.031C214.5 312.042 211.26 312.031 208.01 312.031C207.437 312.031 206.839 311.943 206.187 312.229C205.865 314.229 206.219 316.297 205.964 318.453C205.5 318.51 205.047 318.599 204.604 318.599C201.365 318.609 198.125 318.599 194.875 318.599C194.292 318.599 193.714 318.63 193.031 318.656C192.568 320.776 193.062 322.901 192.719 325.089C192.266 325.13 191.812 325.234 191.37 325.234C188.078 325.245 184.771 325.234 181.464 325.234C180.891 325.234 180.318 325.276 179.687 325.307C179.307 327.5 179.76 329.62 179.396 331.797C177.307 332.031 175.25 331.755 173.109 331.974C172.755 334.099 173.161 336.224 172.844 338.391C172.333 338.443 171.88 338.531 171.427 338.531C168.245 338.542 165.057 338.531 161.875 338.531C161.234 338.531 160.594 338.531 159.875 338.531C159.786 338.964 159.672 339.297 159.661 339.625C159.641 340.984 159.661 342.333 159.651 343.698C159.651 344.094 159.62 344.49 159.589 345C158.979 345.042 158.458 345.109 157.948 345.109C154.766 345.109 151.583 345.109 148.396 345.109C147.823 345.109 147.25 345.156 146.573 345.188C146.229 347.365 146.594 349.479 146.328 351.667C144.839 351.823 143.432 351.734 142.042 351.755C140.568 351.766 139.089 351.755 137.62 351.755C136.214 351.755 134.812 351.776 133.328 351.776C132.974 352.896 133.172 353.953 133.141 354.984C133.109 356.031 133.141 357.094 133.141 358.255C132.578 358.313 132.125 358.401 131.672 358.401C128.432 358.411 125.193 358.401 121.943 358.401C121.354 358.401 120.781 358.401 120.104 358.401C120.026 358.828 119.927 359.161 119.927 359.495C119.906 360.786 119.927 362.094 119.917 363.385C119.917 363.849 119.865 364.302 119.818 364.88C117.698 365.286 115.573 364.833 113.417 365.167C113.083 367.234 113.437 369.302 113.208 371.292C112.729 371.776 112.167 371.62 111.672 371.62C108.432 371.635 105.193 371.62 101.943 371.635C101.365 371.635 100.792 371.688 100.13 371.708C99.7656 373.891 100.172 376.01 99.8541 378.198C98.3802 378.333 96.9791 378.255 95.5833 378.266C94.1145 378.276 92.6302 378.266 91.1614 378.266C89.7604 378.276 88.3541 378.198 86.8854 378.344C86.6614 379.484 86.7968 380.542 86.7604 381.583C86.7187 382.635 86.8489 383.682 86.651 384.823C86.1198 384.854 85.6666 384.922 85.2031 384.922C81.9635 384.922 78.7239 384.922 75.4739 384.922H73.6406C73.5625 385.432 73.4739 385.818 73.4635 386.214C73.4375 387.453 73.4635 388.693 73.4531 389.932C73.4531 390.396 73.3958 390.859 73.3645 391.432C72.8541 391.479 72.401 391.568 71.9479 391.568C68.7083 391.568 65.4687 391.568 62.2187 391.568C61.6302 391.568 61.0573 391.599 60.3698 391.62C60.0416 393.724 60.3698 395.781 60.1614 397.911C59.8281 397.99 59.5104 398.125 59.177 398.125C57.8177 398.146 56.4687 398.125 55.1093 398.146C54.6562 398.146 54.2031 398.224 53.6927 398.276C53.4062 400.411 53.7135 402.469 53.5052 404.458C53.0833 404.922 52.5885 404.776 52.1354 404.776C48.8958 404.792 45.6562 404.776 42.4062 404.776C41.8177 404.776 41.2448 404.776 40.5729 404.776C40.4843 405.198 40.3593 405.531 40.3593 405.849C40.3385 407.208 40.3593 408.557 40.3385 409.917C40.3385 410.375 40.25 410.828 40.2083 411.344C38.7135 411.521 37.2968 411.422 35.8958 411.432C34.4218 411.458 32.9427 411.432 31.4739 411.432C30.0677 411.432 28.6614 411.38 27.1927 411.49C26.8281 413.667 27.2604 415.792 26.9166 417.948C25.4791 418.198 24.0625 418.047 22.6718 418.078C21.2031 418.099 19.7187 418.078 18.25 418.078C16.8437 418.089 15.4427 418.01 14.0833 418.146C13.7812 419.516 13.7291 422.411 13.9375 424.547H0.182251V404.734C2.35933 404.734 4.54163 404.734 6.71871 404.714C6.81767 404.714 6.91663 404.615 7.14058 404.5C7.31246 403.542 7.18225 402.479 7.2135 401.438C7.24996 400.401 7.14058 399.339 7.32808 398.234C9.46871 397.969 11.526 398.276 13.651 398.036C13.7291 397.682 13.8385 397.359 13.8489 397.026C13.8698 395.734 13.8489 394.432 13.8698 393.135C13.8698 392.672 13.927 392.219 13.9583 391.667C16.0729 391.391 18.125 391.688 20.25 391.469C20.7239 389.344 20.2187 387.224 20.5833 385.042C21.6198 384.766 22.6823 384.943 23.7239 384.911C24.7708 384.88 25.8229 384.88 26.9479 384.865C27.2135 383.719 27.0625 382.667 27.0937 381.625C27.125 380.578 27.125 379.526 27.1354 378.375C29.3385 378.068 31.4479 378.411 33.6041 378.146C33.9687 376.01 33.5416 373.891 33.8802 371.755C36.0052 371.344 38.1406 371.865 40.2604 371.443C40.5937 369.365 40.2187 367.297 40.5052 365.177C40.8802 365.12 41.2135 365.042 41.5416 365.031C42.901 365.01 44.25 365.031 45.6145 365.01C46.0104 365.01 46.4062 364.922 46.8281 364.88C47.1041 363.406 46.9375 361.995 46.9739 360.589C46.9948 359.12 46.9739 357.635 46.9739 356.167C46.9843 354.76 46.9062 353.359 47.0468 351.854C48.1666 351.589 49.2187 351.755 50.2552 351.708C51.3073 351.667 52.3541 351.786 53.4948 351.609C53.7031 350.505 53.5729 349.443 53.6041 348.406C53.651 347.365 53.5156 346.302 53.7135 345.198C55.8854 344.87 57.9948 345.234 60.1718 344.953C60.4166 342.823 60.1406 340.766 60.3593 338.641C62.4843 338.255 64.5937 338.667 66.75 338.391C67.1718 336.234 66.7291 334.109 67.026 331.964C68.1302 331.745 69.1927 331.875 70.2343 331.844C71.2291 331.823 72.2239 331.823 73.2968 331.823C73.7604 329.656 73.276 327.521 73.6145 325.354C75.7083 324.943 77.8281 325.375 79.9843 325.078C80.3593 322.964 79.9531 320.854 80.2291 318.677C82.375 318.344 84.4843 318.698 86.651 318.453C86.9583 316.344 86.651 314.286 86.8593 312.151C87.2135 312.089 87.5364 311.974 87.8698 311.974C89.1614 311.953 90.4635 311.974 91.7604 311.953C92.2239 311.953 92.6875 311.901 93.2291 311.865C93.3073 311.479 93.4166 311.146 93.4166 310.818C93.4375 309.578 93.4166 308.339 93.427 307.099C93.427 306.583 93.4739 306.063 93.5052 305.464C95.5937 305.135 97.651 305.464 99.6406 305.255C100.151 304.792 99.9843 304.224 99.9948 303.719C100.005 300.479 99.9948 297.229 100.005 293.99C100.005 293.411 100.052 292.839 100.083 292.188C102.25 291.766 104.375 292.208 106.531 291.901C106.75 290.781 106.62 289.734 106.641 288.682C106.661 287.688 106.661 286.693 106.672 285.62C108.839 285.167 110.974 285.641 113.141 285.307C113.536 283.208 113.12 281.089 113.406 278.932C115.516 278.578 117.641 278.974 119.786 278.677C120.203 276.552 119.729 274.422 120.094 272.266C122.161 271.943 124.219 272.266 126.354 272.042C126.417 271.698 126.516 271.37 126.531 271.036C126.552 269.745 126.531 268.438 126.542 267.146C126.542 266.682 126.594 266.219 126.63 265.698C127.703 265.276 128.76 265.531 129.802 265.474C130.854 265.432 131.901 265.443 133.021 265.422C133.359 263.286 133.021 261.229 133.26 259.099C133.604 259.031 133.927 258.906 134.255 258.896C135.615 258.875 136.964 258.896 138.328 258.875C138.781 258.875 139.234 258.786 139.729 258.745C140.005 256.609 139.698 254.542 139.927 252.432C140.969 252.068 142.031 252.286 143.068 252.255C144.12 252.208 145.167 252.229 146.307 252.229C146.75 250.042 146.266 247.906 146.62 245.786C147.656 245.401 148.729 245.641 149.771 245.599C150.766 245.552 151.76 245.599 152.641 245.599C153.208 245.156 153.073 244.646 153.073 244.193C153.083 240.885 153.073 237.594 153.083 234.286C153.083 233.714 152.953 233.104 153.318 232.505C155.354 232.12 157.484 232.63 159.609 232.208C159.885 230.109 159.573 228.052 159.807 225.906C160.844 225.563 161.906 225.776 162.948 225.74C163.995 225.708 165.057 225.74 166.141 225.74C166.583 224.615 166.339 223.552 166.375 222.516C166.417 221.464 166.375 220.401 166.375 219.25C168.562 218.833 170.687 219.286 172.797 218.974C173.208 217.938 172.953 216.865 173.005 215.823C173.062 214.776 172.964 213.714 173.083 212.563C175.198 212.266 177.266 212.583 179.385 212.354C179.453 212.01 179.562 211.688 179.573 211.359C179.599 210.063 179.573 208.76 179.599 207.469C179.599 207 179.661 206.547 179.698 206.031C181.844 205.609 183.964 206.094 186.109 205.719C186.339 204.625 186.208 203.563 186.229 202.526C186.25 201.531 186.229 200.536 186.229 199.453C186.641 199.365 186.958 199.24 187.292 199.229C188.474 199.208 189.646 199.219 190.828 199.219C191.417 199.219 192 199.219 192.687 199.219C192.766 198.755 192.885 198.37 192.885 197.979C192.906 196.276 192.885 194.563 192.885 192.786C193.297 192.698 193.625 192.573 193.948 192.573C195.187 192.552 196.422 192.563 197.661 192.563C198.193 192.563 198.714 192.563 199.286 192.563C199.375 192.188 199.51 191.922 199.51 191.646C199.521 185.63 199.51 179.615 199.51 173.604C199.51 173.38 199.443 173.151 199.396 172.828C197.286 172.474 195.172 172.859 192.995 172.583C192.953 172.052 192.885 171.599 192.885 171.146C192.885 167.906 192.885 164.656 192.885 161.417C192.885 160.833 192.885 160.245 192.885 159.573C192.401 159.495 192.01 159.385 191.615 159.375C190.432 159.349 189.26 159.375 188.078 159.375C187.557 159.375 187.026 159.375 186.427 159.375C186.339 158.932 186.229 158.599 186.229 158.266C186.208 156.906 186.229 155.557 186.219 154.198C186.219 153.802 186.177 153.401 186.151 152.927C185.026 152.698 183.964 152.828 182.927 152.807C181.927 152.786 180.922 152.807 179.865 152.807C179.76 152.396 179.609 152.068 179.609 151.745C179.573 150.563 179.599 149.391 179.599 148.208C179.599 147.62 179.599 147.036 179.599 146.37C179.177 146.297 178.844 146.172 178.526 146.172C177.167 146.151 175.818 146.172 174.458 146.161C174.057 146.161 173.661 146.12 173.151 146.083C173.109 145.49 173.031 144.969 173.031 144.458C173.031 141.276 173.031 138.094 173.031 134.906C173.031 134.323 172.995 133.745 172.984 133.083C172.589 132.995 172.255 132.875 171.922 132.859C170.74 132.839 169.568 132.859 168.385 132.849C167.802 132.849 167.224 132.818 166.552 132.797C166.495 132.333 166.396 131.943 166.396 131.547C166.375 130.255 166.396 128.948 166.385 127.656C166.385 127.255 166.318 126.859 166.276 126.406C164.12 126.063 161.995 126.438 159.885 126.161C159.818 125.828 159.74 125.609 159.74 125.391C159.74 119.141 159.74 112.896 159.74 106.573C160.141 106.474 160.448 106.349 160.781 106.328C161.365 106.297 161.964 106.318 162.547 106.318C196.135 106.318 229.724 106.318 263.312 106.318C264.062 106.318 264.828 106.297 265.656 106.286C265.984 104.151 265.656 102.083 265.885 99.9479C266.229 99.8802 266.552 99.75 266.88 99.75C268.24 99.7292 269.589 99.75 270.953 99.7292C271.406 99.7292 271.859 99.6406 272.365 99.5938C272.63 97.4636 272.365 95.4063 272.552 93.25C274.667 92.849 276.786 93.2813 278.823 92.9948C279.255 92.4948 279.12 91.9427 279.12 91.4271C279.13 88.1875 279.12 84.9375 279.13 81.6979C279.13 81.1198 279 80.5104 279.385 79.8802C281.354 79.6042 283.422 79.9063 285.542 79.6927C285.599 79.3073 285.687 78.974 285.698 78.6354C285.719 77.2761 285.698 75.9271 285.719 74.5625C285.719 74.1667 285.807 73.7709 285.854 73.3021C287.953 73.0156 290.021 73.3386 292.167 73.0938C292.62 70.9948 292.125 68.8698 292.464 66.6927C294.542 66.3177 296.667 66.724 298.844 66.4375C299.167 65.4011 298.964 64.3386 299 63.2969C299.031 62.25 299.01 61.1875 299.021 60.0573C301.198 59.6406 303.333 60.1042 305.49 59.7604C305.911 57.6615 305.411 55.5365 305.797 53.3594C307.854 53.0417 309.911 53.3906 312.031 53.1406C312.099 52.7969 312.208 52.4636 312.208 52.1302C312.234 50.8386 312.208 49.5365 312.234 48.2396C312.234 47.7761 312.297 47.3229 312.344 46.7709C314.49 46.4844 316.609 46.8021 318.734 46.5625C318.979 45.0469 318.844 43.6302 318.865 42.2396C318.891 40.7656 318.865 39.2865 318.865 37.8177C318.865 36.4115 318.875 35.0052 318.891 33.5261C321.078 33.1042 323.198 33.5469 325.354 33.2396C325.755 31.1354 325.302 29.0156 325.63 26.8906C326.693 26.5365 327.755 26.7709 328.797 26.7031C329.844 26.6406 330.906 26.849 332.01 26.5261C332.344 24.4844 331.979 22.4271 332.245 20.3021C332.599 20.25 332.927 20.1511 333.26 20.1354C334.552 20.1146 335.859 20.1354 337.151 20.1146C337.604 20.1146 338.068 20.0469 338.568 20.0052C338.99 17.849 338.469 15.7136 338.891 13.5938C340.99 13.3177 343.047 13.6146 345.203 13.3959C345.531 12.3542 345.333 11.2917 345.365 10.2656C345.401 9.21356 345.365 8.15106 345.365 7.06773C346.484 6.60419 347.547 6.86981 348.583 6.82815C349.635 6.78127 350.698 6.82815 351.844 6.82815C351.922 6.33856 352.021 5.94273 352.021 5.55731C352.047 3.72919 352.047 1.90627 352.057 0.072937C356.411 0.072937 360.781 0.072937 365.135 0.072937C365.167 0.781271 365.234 1.47398 365.234 2.18231C365.234 13.9115 365.234 25.6406 365.234 37.375C365.234 37.9063 365.214 38.4323 365.245 38.9636C365.266 39.2969 365.391 39.6198 365.49 40.0156C366.562 40.0156 367.557 40.0052 368.562 40.0156C369.599 40.0365 370.661 39.9271 371.812 40.1146C371.833 40.9011 371.87 41.5834 371.87 42.2813C371.87 58.3125 371.87 74.3542 371.87 90.3854C371.87 90.9167 371.844 91.4479 371.87 91.9792C371.891 92.3073 371.99 92.6406 372.068 93.0729H374.245C374.953 93.0729 375.661 93.0521 376.37 93.0729C377.052 93.1042 377.771 92.9063 378.521 93.3594C378.521 93.9323 378.521 94.5209 378.521 95.0938C378.521 98.3334 378.521 101.583 378.521 104.823C378.521 105.276 378.609 105.719 378.667 106.286H380.526C419 106.286 457.474 106.286 495.948 106.286C496.531 106.286 497.12 106.219 497.703 106.182V119.63L497.693 119.781ZM53.4531 378.255C53.6718 378.313 53.9062 378.411 54.125 378.411C58.125 378.411 62.1406 378.411 66.1406 378.411C66.3541 378.411 66.5625 378.302 66.8177 378.224C67.0156 376.109 66.7708 374.052 66.9739 372.073C67.6145 371.656 68.2187 371.797 68.7968 371.786C72.0364 371.776 75.276 371.786 78.526 371.776C79.0312 371.776 79.5885 371.932 80.0729 371.448C80.2604 369.453 79.9843 367.401 80.25 365.266C80.9375 365.245 81.5104 365.198 82.0937 365.198C85.3333 365.198 88.5729 365.198 91.8229 365.198C92.3333 365.198 92.8958 365.354 93.4375 364.745C93.4375 363.885 93.427 362.891 93.4375 361.88C93.4635 360.833 93.3385 359.781 93.5625 358.656C94.0364 358.62 94.4323 358.568 94.8333 358.568C96.1927 358.552 97.5416 358.568 98.901 358.552C99.2343 358.552 99.5625 358.443 100.005 358.365C100.005 357.25 99.9843 356.188 100.042 355.141C100.083 354.099 99.8177 353.026 100.307 351.901C102.417 351.901 104.542 351.922 106.651 351.901C108.818 351.875 110.984 352.021 113.24 351.786C113.495 349.63 113.13 347.51 113.474 345.344C114.125 345.307 114.698 345.266 115.286 345.266C118.469 345.266 121.651 345.266 124.839 345.266C125.344 345.266 125.865 345.198 126.464 345.156C126.495 344.589 126.552 344.135 126.552 343.672C126.562 342.38 126.552 341.073 126.573 339.781C126.573 339.448 126.693 339.13 126.781 338.708C128.266 338.708 129.667 338.688 131.083 338.677C132.552 338.677 134.036 338.698 135.505 338.677C136.901 338.641 138.312 338.844 139.776 338.5C140.026 336.365 139.651 334.255 140.016 332.099C140.682 332.078 141.255 332.031 141.844 332.031C145.083 332.031 148.318 332.031 151.573 332.031C152.026 332.031 152.479 331.953 153.042 331.901C153.052 330.75 153.042 329.698 153.094 328.651C153.141 327.609 152.906 326.536 153.297 325.453C155.406 325.198 157.531 325.573 159.698 325.219C159.708 324.427 159.729 323.719 159.729 323.021C159.729 322.313 159.708 321.604 159.729 320.896C159.76 320.214 159.573 319.495 159.984 318.776C161.411 318.688 162.823 318.745 164.229 318.729C165.698 318.729 167.182 318.755 168.651 318.729C170.047 318.698 171.458 318.896 172.917 318.568C172.964 318.057 173.021 317.604 173.021 317.141C173.031 315.844 173.021 314.542 173.042 313.25C173.042 312.917 173.161 312.583 173.24 312.167C173.958 312.167 174.599 312.167 175.24 312.167C178.427 312.167 181.609 312.167 184.792 312.167C185.245 312.167 185.745 312.276 186.25 311.766C186.25 311.37 186.25 310.839 186.25 310.318C186.25 309.078 186.24 307.844 186.266 306.604C186.266 306.271 186.385 305.938 186.474 305.531C187.135 305.531 187.724 305.531 188.307 305.531C191.547 305.531 194.786 305.531 198.036 305.531C198.49 305.531 198.932 305.453 199.464 305.411C199.74 303.229 199.344 301.109 199.719 298.943C200.38 298.922 200.958 298.875 201.542 298.875C204.781 298.875 208.021 298.875 211.271 298.875C211.724 298.875 212.177 298.807 212.74 298.755C212.755 297.604 212.755 296.552 212.786 295.505C212.818 294.464 212.651 293.411 212.943 292.276C214.089 292.255 215.141 292.255 216.193 292.219C217.229 292.188 218.281 292.365 219.385 292.052C219.542 289.932 219.333 287.875 219.531 285.74C221.021 285.552 222.427 285.661 223.818 285.641C225.292 285.62 226.771 285.651 228.245 285.641C229.646 285.62 231.052 285.75 232.5 285.521C232.917 283.385 232.411 281.25 232.818 279.063C233.448 279.042 234.026 278.995 234.599 278.995C237.896 278.995 241.198 278.995 244.495 278.995C244.948 278.995 245.391 278.906 245.943 278.844C245.943 277.672 245.932 276.62 245.964 275.568C246 274.531 245.797 273.479 246.151 272.344C246.818 272.344 247.391 272.344 247.979 272.344C251.214 272.344 254.453 272.344 257.708 272.344C258.161 272.344 258.615 272.255 259.13 272.208C259.156 271.51 259.177 270.927 259.187 270.349C259.187 269.167 259.187 267.995 259.198 266.813C259.198 266.484 259.333 266.161 259.422 265.75C260.073 265.729 260.656 265.708 261.245 265.708C264.427 265.708 267.609 265.708 270.797 265.708C271.302 265.708 271.812 265.63 272.422 265.589C272.453 265.078 272.49 264.682 272.49 264.271C272.49 262.911 272.49 261.563 272.5 260.203C272.5 259.87 272.62 259.536 272.677 259.25C272.885 259.208 273.005 259.151 273.12 259.151C277.062 259.151 281.01 259.151 284.958 259.151C285.167 259.151 285.391 259.276 285.609 259.349C285.854 261.453 285.51 263.51 285.833 265.563C288.01 265.943 290.13 265.453 292.234 265.875C292.562 268.031 292.099 270.161 292.521 272.354C293.661 272.354 294.719 272.318 295.771 272.354C296.812 272.396 297.87 272.151 298.99 272.573C298.99 273.667 299 274.729 299 275.781C299 276.844 299 277.901 299 278.964C299 280.078 298.979 281.208 299 282.323C299.021 283.365 298.891 284.427 299.12 285.521C301.276 285.885 303.401 285.396 305.542 285.828C305.578 286.359 305.63 286.813 305.646 287.276C305.656 288.573 305.646 289.875 305.667 291.172C305.667 291.5 305.797 291.823 305.875 292.229C306.948 292.229 307.953 292.198 308.948 292.229C309.99 292.276 311.062 292.021 312.146 292.453C312.177 292.938 312.224 293.401 312.224 293.865C312.234 295.104 312.224 296.344 312.234 297.583C312.234 297.979 312.333 298.365 312.411 298.875C313.016 298.875 313.536 298.875 314.068 298.875C315.307 298.875 316.547 298.865 317.781 298.885C318.115 298.885 318.448 299.01 318.865 299.083C318.865 300.214 318.833 301.276 318.865 302.323C318.911 303.354 318.635 304.427 319.12 305.531C320.203 305.531 321.255 305.5 322.318 305.531C323.344 305.573 324.417 305.323 325.453 305.74C325.62 307.854 325.38 309.911 325.609 311.943C325.854 312.031 326.01 312.13 326.172 312.13C330.068 312.141 333.958 312.151 337.839 312.151C338.057 312.151 338.292 312.078 338.469 312.042C338.875 311.448 338.724 310.839 338.724 310.276C338.734 306.734 338.724 303.198 338.724 299.661C338.724 295.536 338.724 291.401 338.724 287.276C338.724 286.771 338.568 286.219 339.078 285.698C339.531 285.677 340.047 285.641 340.578 285.641C341.818 285.641 343.057 285.641 344.297 285.63C344.615 285.63 344.948 285.5 345.354 285.396V283.385C345.354 275.958 345.354 268.526 345.354 261.099C345.354 260.479 345.156 259.802 345.698 259.109C346.141 259.109 346.672 259.109 347.193 259.109C348.375 259.109 349.547 259.12 350.729 259.109C351.125 259.109 351.516 258.984 352 258.906C352 258.177 352 257.536 352 256.896C352 249.589 352 242.271 352 234.964C352 232.365 352 229.776 352 227.177C352 226.792 352.109 226.406 352.177 226.016C354.323 225.797 356.38 226.104 358.422 225.828C358.734 225.146 358.625 224.49 358.625 223.849C358.625 218.599 358.625 213.359 358.635 208.109C358.635 207.479 358.521 206.823 358.823 206.141C359.318 206.104 359.771 206.063 360.24 206.063C361.531 206.052 362.833 206.063 364.13 206.042C364.448 206.042 364.781 205.906 365.203 205.818C365.203 204.745 365.203 203.75 365.224 202.755C365.245 201.708 365.125 200.656 365.333 199.542C366.448 199.307 367.5 199.464 368.552 199.417C369.589 199.375 370.651 199.516 371.745 199.297C371.969 198.167 371.823 197.12 371.87 196.068C371.911 195.026 371.766 193.969 371.99 192.859C373.115 192.651 374.177 192.797 375.219 192.75C376.255 192.708 377.318 192.859 378.422 192.63C378.677 190.464 378.344 188.349 378.635 186.229C380.812 185.906 382.932 186.349 385.099 185.917C385.266 183.807 385.036 181.75 385.255 179.641C386.396 179.464 387.458 179.552 388.495 179.542C389.557 179.526 390.62 179.542 391.677 179.542C392.797 179.542 393.922 179.552 395.042 179.542C396.089 179.516 397.141 179.641 398.255 179.427C398.589 177.271 398.182 175.151 398.5 173.016C399.62 172.797 400.677 172.938 401.719 172.896C402.755 172.849 403.818 172.995 404.922 172.771C405.135 171.646 404.99 170.583 405.036 169.547C405.078 168.505 404.937 167.443 405.156 166.328C407.312 166.073 409.437 166.406 411.557 166.104C411.88 163.927 411.437 161.807 411.854 159.651C412.521 159.63 413.094 159.583 413.682 159.583C416.865 159.583 420.047 159.583 423.234 159.583C423.74 159.583 424.25 159.505 424.87 159.453C424.88 158.344 424.88 157.349 424.901 156.354C424.922 155.307 424.802 154.255 425.01 153.125C425.542 153.083 425.995 153.005 426.448 153.005C427.807 152.984 429.156 153.005 430.521 152.984C430.839 152.984 431.161 152.828 431.557 152.729C431.557 151.656 431.547 150.651 431.557 149.656C431.578 148.615 431.458 147.557 431.667 146.438C432.807 146.297 433.859 146.385 434.906 146.349C435.948 146.318 436.995 146.474 438.078 146.229C438.302 145.089 438.156 144.026 438.203 142.979C438.245 141.938 438.068 140.875 438.37 139.76C438.844 139.74 439.25 139.703 439.651 139.703C441.01 139.703 442.359 139.703 443.719 139.693C444.052 139.693 444.37 139.573 444.714 139.495C444.911 137.375 444.615 135.307 444.901 133.292C445.552 132.938 446.151 133.063 446.724 133.063C449.964 133.052 453.203 133.063 456.453 133.052C456.964 133.052 457.516 133.203 458.047 132.719C458.224 130.75 457.969 128.693 458.193 126.615C460.37 126.271 462.49 126.724 464.536 126.328C464.859 124.583 464.823 121.167 464.448 119.839H462.203C430.849 119.839 399.505 119.839 368.151 119.839C367.568 119.839 366.969 119.849 366.385 119.839C366.052 119.828 365.719 119.75 365.302 119.682C365.276 118.943 365.245 118.302 365.245 117.661C365.245 112.406 365.245 107.167 365.234 101.917C365.234 101.297 365.432 100.625 364.948 100.026C362.911 99.8281 360.854 100.125 358.865 99.849C358.547 99.0313 358.667 98.3229 358.667 97.6146C358.667 81.5729 358.667 65.5417 358.667 49.5C358.667 48.9688 358.677 48.4427 358.656 47.9115C358.646 47.6198 358.568 47.3438 358.51 47.0261C356.38 46.625 354.245 47.1354 352.057 46.6927C352.047 46.0104 352.021 45.3646 352.021 44.724C352.021 39.474 352.021 34.2344 352.021 28.9844C352.021 28.3542 352.12 27.6979 351.88 27.125C350.141 26.8125 346.75 26.849 345.422 27.2031C345.401 27.7448 345.365 28.3281 345.365 28.9063C345.365 32.2084 345.365 35.5052 345.365 38.8125C345.365 39.2656 345.5 39.7604 345.026 40.1719C343.036 40.3802 340.979 40.0625 338.875 40.3594C338.49 42.4896 338.979 44.6146 338.568 46.7709C338.057 46.8125 337.594 46.8698 337.141 46.8802C335.849 46.8906 334.542 46.8802 333.25 46.9011C332.917 46.9011 332.589 47.0261 332.156 47.1042C332.156 48.1771 332.187 49.1719 332.156 50.1667C332.109 51.2031 332.344 52.2761 331.969 53.3386C329.854 53.7031 327.734 53.2188 325.646 53.6354C325.312 55.8021 325.776 57.9271 325.354 60.1146C324.219 60.1146 323.156 60.0834 322.104 60.1146C321.068 60.1615 320.005 59.9167 318.891 60.3386C318.891 61.4323 318.901 62.4896 318.865 63.5417C318.833 64.5834 319.031 65.6302 318.698 66.6823C316.557 66.9271 314.5 66.6042 312.333 66.8906C312.068 69.0052 312.422 71.125 312.099 73.2813C311.646 73.3386 311.25 73.4167 310.839 73.4167C309.479 73.4375 308.13 73.4167 306.771 73.4375C306.437 73.4375 306.109 73.5365 305.708 73.5938C305.687 74.2656 305.656 74.8438 305.646 75.4271C305.646 78.6094 305.646 81.7969 305.646 84.9792C305.646 85.5 305.776 86.0417 305.38 86.5469C303.333 86.8594 301.208 86.4063 299.12 86.8021C298.833 88.9792 299.245 91.1042 298.854 93.2917C297.693 93.2917 296.646 93.2813 295.594 93.3177C294.557 93.349 293.505 93.1511 292.453 93.4688C292.208 95.6146 292.531 97.6823 292.245 99.849C290.13 100.115 288.01 99.7604 285.865 100.083C285.807 100.536 285.734 100.932 285.734 101.333C285.708 102.693 285.734 104.042 285.708 105.401C285.708 105.729 285.609 106.063 285.557 106.427C283.432 106.693 281.365 106.328 279.297 106.672C278.88 108.802 279.406 110.938 278.979 113.052C276.844 113.38 274.719 112.938 272.609 113.328C272.297 115.484 272.719 117.604 272.333 119.771C270.552 119.88 268.859 119.818 267.156 119.828C265.443 119.828 263.745 119.828 262.031 119.828H190.078C188.365 119.828 186.661 119.807 184.948 119.828C183.255 119.849 181.552 119.703 179.885 119.927C179.552 121.385 179.552 124.88 179.906 126.349C180.901 126.583 181.964 126.417 183 126.458C184.042 126.505 185.094 126.349 186.219 126.594C186.385 128.714 186.151 130.771 186.375 132.896C186.839 132.948 187.234 133.026 187.635 133.026C188.995 133.052 190.344 133.026 191.703 133.052C192.089 133.052 192.479 133.172 192.953 133.26C192.953 133.948 192.953 134.531 192.953 135.12C192.953 138.354 192.953 141.609 192.953 144.849C192.953 145.302 193.031 145.755 193.083 146.318C194.234 146.328 195.286 146.318 196.333 146.359C197.375 146.396 198.427 146.219 199.51 146.516C199.542 147.078 199.573 147.542 199.583 148.01C199.583 149.302 199.583 150.604 199.599 151.901C199.599 152.229 199.708 152.552 199.786 152.974C200.88 152.984 201.875 152.974 202.87 153.016C203.906 153.052 204.969 152.906 206.073 153.151C206.109 153.693 206.151 154.156 206.161 154.62C206.177 155.911 206.161 157.219 206.187 158.51C206.187 158.844 206.318 159.161 206.396 159.505C208.521 159.75 210.589 159.427 212.74 159.729C212.776 160.37 212.818 160.943 212.818 161.521C212.818 164.823 212.818 168.12 212.818 171.422C212.818 171.88 212.906 172.318 212.964 172.807C215.151 173.104 217.266 172.682 219.396 173.073C219.432 173.448 219.474 173.734 219.474 174.021C219.474 179.917 219.474 185.818 219.474 191.714C219.474 192.042 219.354 192.375 219.266 192.786C217.484 192.786 215.781 192.771 214.068 192.786C213.682 192.786 213.297 192.906 212.818 192.984C212.818 193.667 212.818 194.255 212.818 194.839C212.818 196.026 212.828 197.198 212.807 198.38C212.807 198.708 212.687 199.031 212.609 199.365C210.474 199.583 208.422 199.276 206.266 199.573C206.031 201.708 206.339 203.818 206.062 205.964C205.5 206.005 205.036 206.063 204.583 206.073C203.292 206.083 201.984 206.073 200.693 206.094C200.359 206.094 200.026 206.219 199.698 206.281C199.453 208.406 199.786 210.474 199.484 212.521C197.307 212.896 195.177 212.417 192.984 212.849C192.984 213.979 193.005 215.026 192.964 216.089C192.917 217.13 193.172 218.193 192.729 219.318C191.656 219.318 190.599 219.286 189.547 219.318C188.51 219.365 187.448 219.12 186.318 219.552V225.927C186.318 227.047 186.339 228.172 186.318 229.292C186.297 230.328 186.427 231.391 186.198 232.521C184.042 232.786 181.932 232.406 179.786 232.75C179.75 233.302 179.698 233.766 179.687 234.234C179.672 235.526 179.687 236.828 179.661 238.125C179.661 238.453 179.531 238.776 179.443 239.188C178.37 239.188 177.365 239.151 176.37 239.188C175.328 239.229 174.255 238.974 173.172 239.406C173.141 239.891 173.094 240.359 173.094 240.823C173.083 242.057 173.094 243.297 173.083 244.536C173.083 244.932 172.974 245.323 172.906 245.828C172.302 245.828 171.771 245.828 171.25 245.828C170.01 245.828 168.771 245.818 167.536 245.839C167.203 245.839 166.87 245.964 166.453 246.042C166.453 247.167 166.484 248.229 166.453 249.281C166.406 250.307 166.682 251.38 166.198 252.484C165.115 252.484 164.062 252.453 163 252.484C161.974 252.531 160.901 252.266 159.885 252.693C159.661 254.807 159.974 256.875 159.687 258.964C157.562 259.375 155.427 258.854 153.286 259.286C153.24 259.792 153.182 260.245 153.172 260.708C153.161 262.005 153.172 263.307 153.151 264.604C153.151 264.932 153.042 265.266 152.974 265.609C150.854 265.865 148.786 265.51 146.729 265.828C146.344 267.995 146.839 270.13 146.417 272.219C144.26 272.552 142.141 272.089 140.042 272.495C139.74 274.672 140.172 276.797 139.786 278.885C137.594 279.208 135.474 278.755 133.339 279.172C133.318 279.849 133.286 280.422 133.286 281.01C133.286 284.25 133.286 287.5 133.286 290.74C133.286 291.193 133.208 291.646 133.151 292.167C132.469 292.188 131.88 292.219 131.297 292.219C130.109 292.219 128.937 292.219 127.755 292.229C127.427 292.229 127.094 292.365 126.708 292.443C126.682 293.036 126.651 293.568 126.641 294.089C126.641 295.328 126.641 296.563 126.62 297.802C126.62 298.135 126.495 298.453 126.406 298.865C125.323 298.865 124.328 298.833 123.333 298.865C122.297 298.896 121.234 298.677 120.172 299.042C119.854 301.177 120.271 303.297 119.906 305.396C117.729 305.719 115.604 305.276 113.505 305.672C113.25 307.807 113.583 309.875 113.297 312.01C112.807 312.063 112.354 312.141 111.901 312.141C110.542 312.167 109.193 312.141 107.833 312.167C107.5 312.167 107.182 312.286 106.75 312.365C106.75 313.448 106.771 314.443 106.75 315.438C106.729 316.474 106.87 317.536 106.62 318.677C105.49 318.698 104.437 318.688 103.391 318.729C102.349 318.776 101.286 318.552 100.219 318.917C100.182 319.464 100.13 319.927 100.115 320.391C100.104 321.682 100.115 322.99 100.104 324.281C100.104 324.615 100.005 324.943 99.9427 325.286C97.8073 325.542 95.75 325.188 93.6718 325.521C93.3073 327.667 93.7708 329.797 93.375 331.932C91.2395 332.219 89.1145 331.844 86.9948 332.177C86.7083 334.344 87.125 336.464 86.7291 338.578C84.552 338.896 82.427 338.443 80.2916 338.865C80.2708 339.536 80.2395 340.125 80.2395 340.698C80.2395 343.938 80.2395 347.188 80.2395 350.427C80.2395 350.88 80.151 351.323 80.1041 351.813C77.927 352.099 75.8073 351.677 73.7291 352.063C73.3645 354.255 73.8802 356.385 73.4062 358.5C71.2812 358.698 69.2291 358.422 67.1145 358.677C66.8489 360.844 67.2239 362.964 66.875 365.078C64.6927 365.432 62.5729 364.969 60.4062 365.385C60.4062 366.469 60.4062 367.464 60.3698 368.448C60.3489 369.5 60.4687 370.552 60.2708 371.635C58.1041 372.01 55.9739 371.547 53.7916 371.943C53.7708 372.573 53.7395 373.146 53.7135 373.724C53.6718 375.25 53.6406 376.786 53.6145 378.323C52.0885 378.354 50.5677 378.391 49.0416 378.432C48.4635 378.443 47.8906 378.479 47.2708 378.5C46.927 379.625 47.0833 380.688 47.0937 381.729C47.1041 382.813 46.8489 383.938 47.3593 385.078C49.427 385.078 51.4739 385.177 53.5937 385.01C53.6406 384.578 53.7135 384.25 53.7031 383.906C53.6614 382.026 53.6041 380.146 53.5625 378.266L53.4531 378.255ZM414.984 146.297C416.047 146.271 417.109 146.297 418.167 146.297C419.286 146.297 420.411 146.307 421.531 146.297C422.578 146.281 423.63 146.37 424.771 146.208C424.812 145.729 424.87 145.333 424.88 144.948C424.891 143.531 424.88 142.115 424.901 140.703C424.901 140.37 425.036 140.047 425.125 139.641C426.901 139.641 428.604 139.651 430.318 139.641C430.708 139.641 431.083 139.516 431.437 139.453C431.646 137.063 431.589 134.453 431.312 133.125C430.609 132.906 429.833 133.005 429.083 133.005C404.328 133.005 379.583 133.005 354.833 133.005C354.245 133.005 353.646 133.026 353.062 132.995C352.729 132.974 352.411 132.885 351.979 132.797V130.604C351.979 116.807 351.979 103.01 351.979 89.2136C351.979 88.6823 352 88.1511 351.969 87.6198C351.943 87.2917 351.823 86.9688 351.734 86.5729C349.953 86.5729 348.24 86.5834 346.536 86.5729C346.151 86.5729 345.776 86.4375 345.323 86.3594V64.5052C345.323 62.6823 345.344 60.8438 345.323 59.0209C345.292 57.2084 345.479 55.3959 345.214 53.6146C343.5 53.2813 340.073 53.3177 338.802 53.6823C338.479 55.7136 338.932 57.849 338.526 59.9584C336.391 60.1719 334.333 59.8854 332.208 60.1459C331.932 62.3177 332.312 64.4375 331.958 66.5938C330.849 66.7917 329.802 66.6615 328.75 66.7031C327.714 66.75 326.651 66.5938 325.5 66.8386C325.49 67.974 325.49 69.0261 325.453 70.0677C325.422 71.1042 325.589 72.1563 325.312 73.2917C324.161 73.3177 323.109 73.3177 322.073 73.349C321.031 73.3802 319.984 73.2031 318.875 73.5156C318.854 74.1771 318.812 74.7656 318.812 75.3386C318.812 78.5781 318.812 81.8281 318.812 85.0677C318.812 85.5209 318.734 85.974 318.687 86.474C316.51 86.7604 314.401 86.3386 312.286 86.724C311.979 88.9063 312.422 91.0261 312 93.2031C310.917 93.2031 309.922 93.2031 308.937 93.2396C307.901 93.2604 306.839 93.1406 305.734 93.3386C305.401 95.4948 305.833 97.6146 305.453 99.7604C304.328 99.9688 303.276 99.8386 302.229 99.8802C301.187 99.9271 300.135 99.75 299.031 100.036C298.854 102.172 299.099 104.219 298.875 106.339C298.333 106.385 297.88 106.458 297.417 106.458C296.057 106.484 294.708 106.458 293.349 106.484C293.031 106.484 292.708 106.625 292.297 106.724C292.297 107.797 292.312 108.802 292.297 109.802C292.276 110.839 292.401 111.901 292.198 113.005C291.062 113.182 290.01 113.063 288.958 113.104C287.922 113.151 286.87 112.984 285.766 113.24C285.479 115.417 285.844 117.526 285.521 119.703C285.016 119.729 284.615 119.771 284.219 119.771C282.859 119.771 281.51 119.771 280.151 119.781C279.818 119.781 279.495 119.906 279.078 119.995C279.078 121.068 279.099 122.073 279.078 123.068C279.052 124.104 279.198 125.167 278.932 126.297C277.828 126.505 276.776 126.385 275.74 126.417C274.698 126.458 273.635 126.307 272.51 126.547C272.49 127.036 272.453 127.432 272.443 127.833C272.443 129.193 272.443 130.542 272.432 131.901C272.432 132.234 272.312 132.563 272.224 132.995H269.865C249.536 132.995 229.203 132.995 208.875 132.995C208.344 132.995 207.812 132.984 207.281 132.995C206.948 133.005 206.604 133.083 206.24 133.141C206.187 133.458 206.099 133.682 206.099 133.901C206.099 137.74 206.099 141.563 206.099 145.401C206.099 145.667 206.24 145.943 206.339 146.297C206.984 146.297 207.568 146.297 208.156 146.297C209.339 146.297 210.51 146.281 211.693 146.307C212.021 146.307 212.344 146.438 212.651 146.505C212.865 148.641 212.552 150.693 212.854 152.807C215.01 153.151 217.13 152.719 219.276 153.083C219.474 154.198 219.354 155.26 219.375 156.302C219.396 157.359 219.375 158.422 219.375 159.484C219.375 160.599 219.365 161.729 219.375 162.844C219.385 163.896 219.286 164.948 219.474 166.073C220.604 166.229 221.651 166.13 222.703 166.172C223.745 166.208 224.802 166.052 225.896 166.307C226.208 168.474 225.807 170.594 226.161 172.75C226.651 172.786 227.047 172.828 227.448 172.828C228.807 172.828 230.156 172.828 231.516 172.839C231.844 172.839 232.177 172.964 232.589 173.036C232.589 179.365 232.589 185.609 232.589 191.854C232.589 192.078 232.51 192.297 232.453 192.609C232.01 192.641 231.615 192.698 231.219 192.698C229.854 192.708 228.505 192.698 227.146 192.708C226.818 192.708 226.484 192.818 226.141 192.875C225.812 195.026 226.286 197.161 225.833 199.349C225.214 199.349 224.693 199.349 224.172 199.349C222.937 199.349 221.698 199.349 220.458 199.365C220.125 199.365 219.797 199.474 219.464 199.542C219.245 201.672 219.552 203.729 219.266 205.865C218.755 205.906 218.302 205.984 217.839 205.995C216.479 206.016 215.13 205.995 213.771 206.016C213.448 206.016 213.12 206.151 212.786 206.229C212.568 208.359 212.906 210.417 212.578 212.505C211.948 212.531 211.427 212.573 210.906 212.573C209.667 212.573 208.432 212.573 207.193 212.583C206.859 212.583 206.531 212.708 206.141 212.797C206.12 213.391 206.073 213.922 206.073 214.443C206.073 215.682 206.073 216.917 206.062 218.156C206.062 218.49 205.943 218.807 205.854 219.219C204.771 219.219 203.776 219.188 202.781 219.219C201.74 219.25 200.682 219.042 199.62 219.385C199.286 221.516 199.719 223.641 199.344 225.75C198.193 225.964 197.13 225.818 196.083 225.875C195.042 225.927 193.99 225.729 192.896 226.042C192.875 226.714 192.844 227.292 192.844 227.875C192.844 231.115 192.844 234.365 192.844 237.604C192.844 238.057 192.766 238.51 192.719 238.974C190.531 239.328 188.396 238.854 186.297 239.276C185.99 241.443 186.427 243.563 186.031 245.661C183.885 245.896 181.828 245.589 179.698 245.865C179.651 246.359 179.562 246.813 179.562 247.266C179.542 248.625 179.562 249.974 179.542 251.333C179.542 251.667 179.422 251.99 179.333 252.406C178.25 252.406 177.255 252.385 176.26 252.406C175.219 252.443 174.156 252.276 173.031 252.563C173.021 253.693 173.031 254.74 172.974 255.792C172.932 256.828 173.172 257.891 172.755 258.964C172.234 258.995 171.771 259.052 171.318 259.052C170.021 259.063 168.719 259.052 167.422 259.063C167.094 259.063 166.771 259.172 166.339 259.25C166.339 260.333 166.365 261.328 166.339 262.323C166.307 263.365 166.484 264.427 166.198 265.5C164.052 265.865 161.917 265.385 159.797 265.797C159.474 267.943 159.906 270.063 159.531 272.177C157.365 272.464 155.25 272.042 153.151 272.443C152.807 274.62 153.297 276.74 152.844 278.875C150.719 279.052 148.661 278.818 146.562 279.021C146.255 281.208 146.693 283.333 146.276 285.484C144.13 285.776 142.005 285.354 139.875 285.74C139.849 286.417 139.807 287 139.807 287.578C139.807 290.818 139.807 294.068 139.807 297.307C139.807 297.76 139.729 298.214 139.677 298.688C137.495 299.01 135.375 298.568 133.25 298.964C132.964 301.13 133.359 303.245 133.01 305.365C130.828 305.641 128.719 305.234 126.583 305.63C126.396 307.776 126.63 309.844 126.432 311.953C125.953 312.01 125.557 312.099 125.156 312.109C123.797 312.13 122.448 312.109 121.089 312.13C120.76 312.13 120.417 312.208 120.026 312.255C119.766 314.375 120.083 316.443 119.828 318.521C117.682 318.943 115.552 318.464 113.417 318.833C113.073 320.964 113.505 323.089 113.161 325.234C112.036 325.422 110.984 325.297 109.932 325.333C108.896 325.375 107.833 325.219 106.839 325.432C106.573 326.932 106.552 336.818 106.818 338.521C107.812 338.729 108.875 338.609 109.911 338.63C111.031 338.656 112.156 338.63 113.271 338.63C114.333 338.63 115.396 338.656 116.458 338.63C117.552 338.609 118.667 338.745 119.818 338.5C120.026 337.349 119.896 336.286 119.937 335.25C119.984 334.208 119.807 333.161 120.094 332.063C120.771 332.042 121.354 332 121.932 332C125.172 332 128.406 332 131.646 332C132.099 332 132.552 331.922 133.042 331.875C133.349 329.698 132.932 327.578 133.318 325.385C134.443 325.375 135.495 325.385 136.547 325.344C137.583 325.307 138.635 325.474 139.776 325.188C139.786 324.047 139.776 323 139.818 321.948C139.849 320.911 139.677 319.859 139.974 318.766C140.656 318.745 141.245 318.698 141.818 318.698C145.005 318.698 148.187 318.698 151.359 318.698C151.87 318.698 152.422 318.833 152.964 318.391C153.161 316.422 152.865 314.354 153.13 312.385C153.771 311.99 154.37 312.13 154.943 312.13C158.182 312.12 161.422 312.13 164.661 312.12C165.182 312.12 165.734 312.255 166.229 311.823C166.516 309.786 166.078 307.667 166.495 305.484C167.182 305.484 167.766 305.484 168.344 305.484C171.583 305.484 174.823 305.484 178.062 305.484C178.516 305.484 178.969 305.396 179.411 305.354C179.74 303.141 179.276 301.01 179.719 298.818C181.927 298.818 184.052 298.844 186.161 298.818C188.318 298.797 190.5 298.943 192.74 298.708C192.995 296.542 192.62 294.432 192.974 292.297C195.13 291.974 197.255 292.432 199.432 291.99C199.443 290.927 199.453 289.932 199.474 288.938C199.495 287.885 199.385 286.833 199.583 285.688C201.057 285.531 202.458 285.62 203.865 285.609C205.333 285.599 206.818 285.609 208.286 285.609C209.693 285.599 211.094 285.677 212.578 285.531C212.896 283.344 212.51 281.229 212.818 279.052C213.474 279.021 214.047 278.974 214.62 278.974C217.917 278.974 221.224 278.974 224.516 278.974C224.958 278.974 225.411 278.885 225.865 278.833C226.208 276.641 225.724 274.51 226.187 272.385C226.859 272.365 227.448 272.328 228.021 272.328C231.26 272.328 234.5 272.328 237.74 272.328C238.193 272.328 238.635 272.24 239.177 272.188C239.187 271.38 239.208 270.682 239.208 269.984C239.208 269.281 239.187 268.573 239.208 267.865C239.245 267.177 239.057 266.458 239.474 265.729C240.901 265.651 242.307 265.698 243.708 265.698C245.177 265.698 246.661 265.719 248.13 265.698C249.526 265.661 250.937 265.865 252.401 265.531C252.432 265.021 252.5 264.557 252.5 264.104C252.51 262.813 252.5 261.505 252.521 260.214C252.521 259.88 252.641 259.552 252.708 259.219C254.833 258.984 256.901 259.307 258.943 259.021C259.318 256.828 258.844 254.698 259.266 252.521C259.927 252.521 260.505 252.495 261.089 252.495C264.385 252.495 267.687 252.495 270.984 252.495C271.437 252.495 271.932 252.62 272.385 252.068C272.385 250.474 272.375 248.76 272.385 247.057C272.385 246.672 272.521 246.292 272.578 245.943C275.26 245.719 284.073 245.797 285.479 246.052C285.51 246.469 285.589 246.922 285.599 247.391C285.62 248.75 285.599 250.099 285.62 251.458C285.62 251.776 285.766 252.109 285.865 252.505C286.937 252.505 287.932 252.495 288.937 252.505C289.979 252.531 291.036 252.417 292.167 252.609C292.401 254.776 292.068 256.885 292.375 259.042C294.542 259.328 296.667 258.964 298.833 259.286C298.865 259.781 298.901 260.193 298.901 260.589C298.901 261.948 298.901 263.297 298.911 264.656C298.911 264.99 299.031 265.323 299.12 265.729C299.786 265.729 300.37 265.729 300.958 265.729C302.141 265.729 303.312 265.719 304.495 265.74C304.812 265.74 305.146 265.896 305.557 266.005C305.557 266.656 305.557 267.245 305.557 267.828C305.557 271.016 305.557 274.198 305.557 277.38C305.557 277.891 305.401 278.443 305.922 279.01C306.818 279.01 307.812 279.01 308.797 279.042C309.833 279.063 310.896 278.943 311.99 279.151C312.323 281.307 311.891 283.432 312.276 285.599C314.432 285.865 316.547 285.484 318.687 285.828C318.865 287.964 318.625 290.021 318.854 292.167C320.391 292.354 321.865 292.24 323.312 292.255C324.724 292.276 326.141 292.286 327.557 292.255C329.005 292.208 330.464 292.443 331.979 292.078C332.01 291.589 332.047 291.193 332.057 290.781C332.057 289.599 332.057 288.427 332.057 287.245C332.057 280.755 332.057 274.276 332.057 267.786C332.057 267.156 331.922 266.505 332.286 265.828C332.74 265.797 333.203 265.74 333.672 265.74C334.964 265.729 336.266 265.74 337.562 265.719C337.891 265.719 338.214 265.589 338.635 265.51C338.635 264.724 338.635 264.026 338.635 263.318C338.635 253.823 338.635 244.339 338.635 234.839C338.635 234.156 338.469 233.427 338.891 232.708C339.328 232.682 339.797 232.63 340.26 232.63C341.5 232.62 342.734 232.63 343.974 232.62C344.37 232.62 344.76 232.521 345.266 232.443V230.427C345.266 223 345.266 215.568 345.266 208.141C345.266 207.51 345.115 206.849 345.531 206.13C346.536 206.12 347.599 206.13 348.641 206.073C349.677 206.031 350.75 206.25 351.854 205.865C351.88 205.255 351.911 204.667 351.911 204.094C351.911 200.786 351.911 197.495 351.911 194.188C351.911 193.734 351.781 193.24 352.333 192.771C352.797 192.771 353.38 192.771 353.958 192.771C357.198 192.771 360.437 192.771 363.677 192.771C364.13 192.771 364.625 192.885 365.115 192.385C365.115 191.911 365.115 191.323 365.115 190.74C365.115 189.557 365.099 188.385 365.125 187.203C365.125 186.87 365.276 186.547 365.38 186.13C366.437 186.13 367.443 186.151 368.443 186.13C369.479 186.104 370.542 186.24 371.667 186.005C371.703 185.531 371.745 185.135 371.745 184.734C371.745 183.375 371.745 182.026 371.755 180.667C371.755 180.333 371.87 180.005 371.958 179.563C372.542 179.563 373.073 179.563 373.594 179.563C374.776 179.563 375.948 179.573 377.13 179.563C377.526 179.563 377.917 179.438 378.401 179.365C378.401 178.688 378.401 178.104 378.401 177.516C378.401 176.333 378.391 175.161 378.411 173.979C378.411 173.646 378.536 173.328 378.625 172.917C379.286 172.917 379.87 172.917 380.458 172.917C383.698 172.917 386.937 172.917 390.177 172.917C390.63 172.917 391.125 173.052 391.625 172.495C391.625 172.109 391.625 171.578 391.625 171.057C391.625 169.875 391.615 168.703 391.625 167.521C391.625 167.135 391.745 166.75 391.823 166.26C392.5 166.26 393.083 166.26 393.672 166.26C394.854 166.26 396.026 166.271 397.208 166.25C397.542 166.25 397.859 166.12 398.182 166.052C398.391 163.917 398.094 161.859 398.38 159.719C400.536 159.438 402.646 159.818 404.812 159.464C404.849 159 404.901 158.599 404.901 158.203C404.911 156.844 404.901 155.495 404.911 154.135C404.911 153.802 405.026 153.469 405.099 153.026C405.755 153.026 406.339 153.026 406.927 153.026C408.109 153.026 409.281 153.036 410.464 153.016C410.797 153.016 411.115 152.875 411.448 152.797C411.703 150.672 411.38 148.615 411.667 146.495C412.776 146.297 413.823 146.406 414.875 146.396L414.984 146.297Z" fill="#85A6FF"/>
</g>
</g>
<defs>
<clipPath id="clip0_685_2001">
<rect width="499" height="426" fill="white"/>
</clipPath>
</defs>
</svg>
