<svg width="99" height="111" viewBox="0 0 99 111" fill="none" xmlns="http://www.w3.org/2000/svg">
<g clip-path="url(#clip0_685_1719)">
<mask id="mask0_685_1719" style="mask-type:luminance" maskUnits="userSpaceOnUse" x="0" y="0" width="99" height="111">
<path d="M0.122559 0H98.4673V110.317H0.122559V0Z" fill="white"/>
</mask>
<g mask="url(#mask0_685_1719)">
<path d="M45.2634 0.00653076V16.3675H53.4726V0.00653076H45.2634ZM53.4726 16.3675V36.8181H61.6796V16.3675H53.4726ZM61.6796 36.8181V44.9975H90.4063V53.1769H98.6155V36.8181H61.6796ZM90.4063 53.1769H78.0958V61.3584H90.4063V53.1769ZM78.0958 61.3584H69.8866V77.7172H78.0958V61.3584ZM78.0958 77.7172V94.0782H86.3028V77.7172H78.0958ZM86.3028 94.0782V102.258H73.9923V110.437H94.5099V94.0782H86.3028ZM73.9923 102.258V94.0782H57.5761V102.258H73.9923ZM57.5761 94.0782V85.8988H41.1599V94.0782H57.5761ZM41.1599 94.0782H24.7458V102.258H41.1599V94.0782ZM24.7458 102.258H12.4331V94.0782H4.22607V110.437H24.7458V102.258ZM12.4331 94.0782H20.6423V77.7172H12.4331V94.0782ZM20.6423 77.7172H28.8493V61.3584H20.6423V77.7172ZM20.6423 61.3584V53.1769H8.32959V61.3584H20.6423ZM8.32959 53.1769V44.9975H37.0563V36.8181H0.122559V53.1769H8.32959ZM37.0563 36.8181H45.2634V16.3675H37.0563V36.8181Z" fill="#85A6FF"/>
<path d="M45.2634 0.00653076V16.3675H53.4726V0.00653076H45.2634ZM53.4726 16.3675V36.8181H61.6796V16.3675H53.4726ZM61.6796 36.8181V44.9975H90.4063V53.1769H98.6155V36.8181H61.6796ZM90.4063 53.1769H78.0958V61.3584H90.4063V53.1769ZM78.0958 61.3584H69.8866V77.7172H78.0958V61.3584ZM78.0958 77.7172V94.0782H86.3028V77.7172H78.0958ZM86.3028 94.0782V102.258H73.9923V110.437H94.5099V94.0782H86.3028ZM73.9923 102.258V94.0782H57.5761V102.258H73.9923ZM57.5761 94.0782V85.8988H41.1599V94.0782H57.5761ZM41.1599 94.0782H24.7458V102.258H41.1599V94.0782ZM24.7458 102.258H12.4331V94.0782H4.22607V110.437H24.7458V102.258ZM12.4331 94.0782H20.6423V77.7172H12.4331V94.0782ZM20.6423 77.7172H28.8493V61.3584H20.6423V77.7172ZM20.6423 61.3584V53.1769H8.32959V61.3584H20.6423ZM8.32959 53.1769V44.9975H37.0563V36.8181H0.122559V53.1769H8.32959ZM37.0563 36.8181H45.2634V16.3675H37.0563V36.8181Z" fill="#85A6FF"/>
</g>
</g>
<defs>
<clipPath id="clip0_685_1719">
<rect width="99" height="111" fill="white"/>
</clipPath>
</defs>
</svg>
