<svg xmlns="http://www.w3.org/2000/svg" xmlns:xlink="http://www.w3.org/1999/xlink" width="50" zoomAndPan="magnify" viewBox="0 0 37.5 37.499999" height="50" preserveAspectRatio="xMidYMid meet" version="1.0"><defs><clipPath id="eb8284e93e"><path d="M 7.585938 7.585938 L 29.789062 7.585938 L 29.789062 29.789062 L 7.585938 29.789062 Z M 7.585938 7.585938 " clip-rule="nonzero"/></clipPath></defs><g clip-path="url(#eb8284e93e)"><path fill="#dfbaff" d="M 28.792969 26.550781 C 29.414062 27.167969 29.414062 28.175781 28.792969 28.792969 C 28.175781 29.414062 27.167969 29.414062 26.550781 28.792969 L 18.496094 20.742188 L 10.445312 28.792969 C 9.824219 29.414062 8.820312 29.414062 8.199219 28.792969 C 7.582031 28.175781 7.582031 27.167969 8.199219 26.550781 L 16.253906 18.496094 L 8.199219 10.445312 C 7.582031 9.824219 7.582031 8.820312 8.199219 8.199219 C 8.820312 7.582031 9.824219 7.582031 10.445312 8.199219 L 18.496094 16.253906 L 26.550781 8.199219 C 27.167969 7.582031 28.175781 7.582031 28.792969 8.199219 C 29.414062 8.820312 29.414062 9.824219 28.792969 10.445312 L 20.742188 18.496094 Z M 28.792969 26.550781 " fill-opacity="1" fill-rule="nonzero"/><path fill="#dfbaff" d="M 28.792969 26.550781 C 29.414062 27.167969 29.414062 28.175781 28.792969 28.792969 C 28.175781 29.414062 27.167969 29.414062 26.550781 28.792969 L 18.496094 20.742188 L 10.445312 28.792969 C 9.824219 29.414062 8.820312 29.414062 8.199219 28.792969 C 7.582031 28.175781 7.582031 27.167969 8.199219 26.550781 L 16.253906 18.496094 L 8.199219 10.445312 C 7.582031 9.824219 7.582031 8.820312 8.199219 8.199219 C 8.820312 7.582031 9.824219 7.582031 10.445312 8.199219 L 18.496094 16.253906 L 26.550781 8.199219 C 27.167969 7.582031 28.175781 7.582031 28.792969 8.199219 C 29.414062 8.820312 29.414062 9.824219 28.792969 10.445312 L 20.742188 18.496094 Z M 28.792969 26.550781 " fill-opacity="1" fill-rule="nonzero"/></g></svg>